<mxfile host="app.diagrams.net" modified="2024-02-22T16:21:31.120Z" agent="Mozilla/5.0 (Windows NT 10.0; Win64; x64) AppleWebKit/537.36 (KHTML, like Gecko) Chrome/109.0.0.0 Safari/537.36" etag="-KXElwDpDxFOKbmJq6uP" version="21.2.7" type="github" pages="2">
  <diagram name="PÃ¡gina-1" id="7D5qRQgYLuSg9pyQtzuo">
    <mxGraphModel dx="293" dy="484" grid="1" gridSize="10" guides="1" tooltips="1" connect="1" arrows="1" fold="1" page="1" pageScale="1" pageWidth="827" pageHeight="1169" math="0" shadow="0">
      <root>
        <mxCell id="0" />
        <mxCell id="1" parent="0" />
        <mxCell id="SzPZsWJVSRpv637maYF6-1" value="" style="shape=image;verticalLabelPosition=bottom;labelBackgroundColor=default;verticalAlign=top;aspect=fixed;imageAspect=0;image=data:image/png,iVBORw0KGgoAAAANSUhEUgAAAekAAAEaCAYAAAA1yK8gAAAgAElEQVR4nOy9eXgkV3nv/6mq3iS1urWPdo2WWTSj0aw2Hhgv4AC2wQYCBnITTFju8yPwJPcmz024SQzYCQSC8TWrsSEswYTFgAHjdewxXsb27KukGWlGGmm071K3tl6qzu+P6qquLnVrsccwkPr6Gau76yzv2d7tnPOWJIQQOHDg4I8DJ07Atm2/byocOHBwiSD/vglw4MDBJcKzz8L27fCFL/y+KXHgwMElguRY0g4c/JFgYQG+/GV4//th7drfNzUOHDi4BHCEtAMHDhw4cHCZwnF3O3DgwIEDB5cpHCHtwIEDBw4cXKZwhLQDBw4cOHBwmcIR0g4cOHDgwMFlCkdIO3DgwIEDB5cpHCHtwIEDBw4cXKZwhLQDBw4cOHBwmcIR0g4cOHDgwMFlCkdIO3DgwIEDB5cpHCHtwIEDBw4cXKZwhLQDBw4cOHBwmcIR0g4cOHDgwMFlCkdIO3DgwIEDB5cpHCHtwIEDBw4cXKZwhLQDBw4cOHBwmcIR0g4cOHDgwMFlCkdIO3DgwIEDB5cpHCHtwIEDBw4cXKZwhLQDBw4cOHBwmcIR0g4cOHDgwMFlCkdIO3DgwIEDB5cpHCHtwIEDBw4cXKZwhLQDBw4cOHBwmcIR0g4cOHDgwMFlCkdIO3DgwIEDB5cpHCHtwIEDBw4cXKZwhLQDBw4cOHBwmcIR0g4cOHDgwMFlCkdIO3DgwIEDB5cpXHFVS36TQGgCSZZAWH6WQAiQJCklsxAi5bvxXAhhftb/CoQQKWXo3wWynKonaJpm5jP+aZqGJElmHv13o07ZRkcqTWbDLM81bXG9mdplb2NKOgQSErJsp8FWu6XN9t+Wqn+lZab0td7di+mXQEJKpE/XFv1/RnpZlpL9lKlMS+60pEqJcUzUm0L7qyhTliS45GXKi/KkG6NFc8NWZzJvomDLH9KtIYSZ3zqWmcbeyC7Lip53OYil51FK2XLmOflKy7yUyMSH0mGpsbmckGzKytpk9MGlrH+pPjV4LrAkzzTSppad4NkJPmlPK0mSWaaVt2cq91K03aDJkEuaJszfXylSeQaAlJbHgmTKt8W0LEGzWMFqW2m/rHRNpIrM5dO8VliO1pXQoAlYCW8TacrLVL++aF4dXb8raEvQ+krpfC3KTNf/y6XPVN9yY3mpxsc+P15JuavhaZfTvLpUWC0/ulRlrhSv9Zj+Puq36KSXrM6V1LsSWGXUH8p8l1RNF9J2pmh8XYphglWzSWehpdOKli5vcbnL45UqQUtlW45BClbeFixpjb+vdoJohoG8yr60prcrS6qqIcvyistMY7yuqN7fdZnLKVEaS1SYtsykNyfTeC63btLRaaRfqkzd+7Tygn8X6+h3jdUYyCtt/2rW8Urxh9Kfy8Ho75Xwu9XwxNcKKx4jSd/vvcydLbgg2anWyZ/iQF5KJTIzWUx+84GlDGueFeBSu3VSaFmhKmWt/9WSYp24YrVmnQ2rpUWSkkMklnBVrsblYyTVLuEYvVZlrkTzfyV9asUipe5VMioh0tNkF9DLVvMarqM/GqxmrP4AXOivBay7NytJ+wfRRQLEa7B9sKJ0rLyPXOkKTXEJrKRScwRFOtvZmmjF+F1oZEsNTorFmYaOVzuwy+Vfzt29aqGCdUzTF/5KFKPXYox+H5r46upMJl7Oy2S1tperX2J1FviqluZ/Q7wWbV9NmZfaijfmx6XGaub+70sAr6btK/aK8PtTYFe1DZVuT1rYPwsNKcFpEkcIMrhNReLf4gMGyxmP1ufprHi7h++V7te9kj2qpeoy6LarIun2KFezt78cNEuFdpeNeVbsvylzdpDEH4xVswqstE1/bG3/XbQnE8tYyt1t5zd2/pi2PJGaPh2Ptf/2ag23ldC10rQGfenIyZTe/izTeNp/TxHSIvmj6ScUCcErIVky6s/tJ/ZWKx1epdc3pYBLKQBXUx4snnD2/KtpY6bFkLIV8Qqs3VXRcIk11teqzNcC/53b7uCPB6+IH74yp+eKkGkNSHZpmM5C+h15VJdaf1Yr3n52xPw9Q7pMdUpW2bUEz3fZfzQ+CKELZglJd9xbK7AeErMMrLAfPV+kHiU2AdJoXMuqJZdwoC61Npqy30yicy0Dv5SVvYg2c8/YtvdoH0CLG/VSbw28FmviD0X+/Hduu4M/Hrxiq3s1VkwmE9iejgTrNx5fZgtCsrYlA21pD1ankWPW8z+L0lt+XmQ4pfNQmPTZ3N1Ja03fX5aEjZKEBEq9+aZB4p6pqmooioymWZ3eidbLLOoI03LUBJJieaCR6sddRitZseZ4ifeT7GWmE5ivRoiuxJ2SyT1/ma0FBw4c/A7xSrb2VlywRbAJbLE1JFs60Hm5wdNJfIbUndFLZUlrtu9Shs/29FLmuuzbibZQIinPzKqW2BqwPk+3XWAtO8WSNs1ugX64yPyBhLoh0KWvG0mzZDJKFSqKov8oyxoIJZEmvU/aMBglWBxIwWxAQh1YYqAkCTRt+Uvhq8Fqi1rpvspKkO70uYQ+l+xWOqQOgSOwHThwcMkgLH+tRpMhXCWLIWdNYzAjqxC2MiFLOtOISef6Xu1eobXsdPUa5RrMdLnyDQNQSmYzijEt5jTM124pL5IDaeq1ywuTz+uWtF6lSPRoivkvNJBlXTgLGaKACrMzICs60YobvD6QvJba7J1gRABaSlVZxuWwFC71nvRK61qJ4mdPvxStS7nEre5tQ5Ozpl/K6hYisV4cae3AwR89rOvejO6VZltuxQXBYqmzFPOxCsOVBp+2KgSrFdDpyjGQyXo26rBb0st0jt3Tn+I4sLu5bYZWuu4Utuf28lxJivXHKVarbuKCgPCIzN7H2jl2uJPR4RBTkzNEojF82W4CQTcV1UXsumITb3pLLdl5gAxC1ZBccqJDlunx5aSNFUuYh8u5qUUaUux5MoVq0zQNlyKjahoueZEzfxF5Vpg6T5r60h3skkhex0nmTZwTkFLns05baoANa9CLS+1lcODAweUNM4hPwjCSpMXX+1L4VuKLMHhFOimUNmOa55bfNE0DQWp4YcNNLpJeUFmRFttxK5UFlnJFcud1cTo7fVY5ZzLSBJ8VkunGFwlFw8qTBaAJgZLo0CRv18OgGmGGJSCeCBKFlOoFtY6HyeMt3mVNEyiyZFjS8QSFrsUWbRxe2DfKV774Y2JzAdxyXsK9oaIJPaHLI7MQnUdWFigud/GPn/4AtesAL0sOtJCShGiqxszMDIFgYJEVrqmCUGgaWZbJzc1NTqI0MKIyLYKkqyBGBy0lVK1CzdqJhlKoGjQnMgoh0DQNRVFs+wzJWSZLej4ARZYWCet0BxOsIUeN9GbADy0phDNpdY5YduDgvyFE0i4yhIQkSyiStEjxlxLpgUWmXDymoihycr858TwSieBSXChuxRTq5jsf0jBWIRKC08aUNIvwsucxsVKGZpUZIlG2IqfkF0Ikt1XtDFOzVLOERa0JzHdJGHw8FoujKIrJjw0FKa4m05nCXaTn9QYMGSHJEjLQce48yh2f+cwd+gazC5DQ4iApugSNhOEbX/ktP/3hUdQFP7LwokYXkEQURRIgVITQ3eASbtCymA1LvPDcSaIRN02bi5D0Ykk5ambRFnSKJDra2/nKl7/CNddcg6K4gORedFdXF5///Ofxerys37B+0cClWIoSWF/OkfpP7zx7/5tjYgrFxYHPJUk/FIcsocZVfvvss/zwhz+kq6uLmpoacv055uQ3ypct2oCUKHd2dpb2jg5K15Qk0hjapD6gVgUPyUYfSaFtpLU+tw94KBTm2LHjlJaVIUsrC/fpwIGDP2yYl0MkXYB0dXXh8/nwejxoQiReUJO01lLOA0kwNjLGQP8AAE899RRjY2OUlZWhKApjY+O0nz1LIBjA6/EiyTpPu9B9gby8fCSDz2hJj+TAwAAT4+NomkZLSwtFhUUosouhwUH2v7if/t5+SopLEALaz7aTl5+HoijJ9lhe+iRs9KZY/glcuHCBmfAMXV1dlJWWmX0hWW4WxWJxFJecVCQSVrMhSCMLEZ54/AnOnTtHTXUNLpfLFODRaJSOcx0MDQ3j8XjIysrSLV4MPq1Lu7Nnz+LxePD5fEljT1rMr1Ps4oSGIEswvxDh3//931Hu+PRn7tBHK2me6yYu/Nd/HOexX7UQn8/Hp2TjlmQkVSBrCjIuNDQ0SegDg0AWEpImE4sIzp7pori4jNoGvyk4SUwKJMtVrYSwycvLY/v27WT5shgZGWF6eopwOIzf7+fIkSNMTExy663vIRaNcfHiRSILUfw5fjRNo6vrAuMTE2Tn5KBpgs7OLqanQ2RlZSPLCr29fYyMjDI/P4fb7WF0bAyPx8Pc/DzRWAxNE4yNjTM8MkxWdjaDg4MMDw+Tk5OD2+1iYmKCi329aJqG2+3mwQcfxOVyceONN6IoCr/+9a/ZuWsXkiRzsbeX0bExFhYWkGSJiYlJcnP9RCJRpqam6Ojo4KGHHqKxsVH3CqBrT0NDw/T19SOArJxsxsbH6e7uQVU1vF4fk1NThEIhxsbGiEZjDA4O4Xa7cbs95qIbGxvn4sVeYrE48Xic1tZWvvOd77Br1y4ChgfCgQMHf9SQSFpt8Xicixcv4vV5ycrKJhaLEY+rhMMzTExOEotGyfJlmVbw1OQUx44fJxQK0d3TzbXXXMvU1DQgCAaD9Pb2shBZoLi4mMnJSebm5lHVOP39/QlDR8Pn8el0yBKRSJR9+55GlhUGBwfp7u4mLy+f1tYWorEo1dXVNDVtweVy8fzzz1FdXU0wLwgSTE9NMzU1RSwWJysrCyR0uicmmQmHCYfCAHh9XrPh8XickydPUltbS3tHOx63B03TkJEZGx9jZmYGn8/HzEyYsZExPZskMTY2zuzsLDnZOUiyxOTkFDU1NXg8buJxldxgAE0TjI6OMTo6ytTkFPX19eTm5jI6OkooFEZRXITDM0xOTuJyucjOzmZ4eIiCgsKU7UgD1pu2kuW3+fl55ubmOX36NK2trYYlTVLEJ9wSh56b4oHvP4WIBVFwg6YC4HK79f1mWUHDjUABNIRQkCUJWVF0lzMKx08ep2lTM8UVLpMSk1AbgT09PXz1q19jw8YN/Mu/3Ek0EuWRRx6loWEdR48e49y5cxQXF3H33XcTmg7xyCOPULKmhPb2dg4ePEhvby8+n4+nnnqKwcEBTp9uYWpqikgkwre+9S3m5ub4whc+z8aNG/nWt77F7t27ee655+jq6sLlcnH33XejyAqdnZ386le/or+/nyf3Psmmxk3ce++9aKpGR0cHgUCArq4upqen6ezs5PDhQ+zZczVnzpxhdHSUb3/724RCIb773e9SU1PDD37wA9avX8+hQ4fo7OxkfHycU6dOUVdXR2VlJUhw7tw57r33m0SjUZ5++mkaGhq4775vMjExyW9+8xuqq6v53ve+R3d3N7/+9cO0tLRw9uxZLlzoZseOHciSxMTkFPfffz+jo6M88sgjzM7OMjMzw5EjR2hqaqKyshI5xX3xKuH40187LHHm4rLDSmn9fbcp3Ymd3zdeqz6xmGmKojA4NMjE+ATxeCxhDY9x6tQpAoEA3d3d5Ofl6YJOgMfjYc2aNYTCITRNMD4+xoWuC6xZs4bCokKGh0aYndEFUTQaZXJigomJSaanpgjmBU1LODsnGyRwKQp5eXnMz8/T1NTE0NAQW5u3UlNTw+DgIPNz83R0dKCqKmfOnmFycgqvx0uuP5eh4SE0TePgwYNUVVbh8Xg4eOAgXq+HtrYz5Pr99Pf3U1FeYbY5HJ5hfHyM8vJyzp49S1l5GWfOnCXHn0NkIUJPTw9jY2P09/cTCAQYGBhgeHgYWZbpvdiLy+0iNzeX7Oxsenq6OXbsGFu3NuP1ejl69Bhzc3Nomsb8/DynTp2itLSUyckJQqEQPT099Pb2UlBQgCzLZGdnc/58JxUVFYkXFyU8GCne1dStzVA4zLe//W2eeOIJLly4wEc+8hFkYUpMzN3v0Ajcf9/PmZtR0FQZSYAmVFQtRkybR7hnyM6PECiM4Q/GEFIYjThCFsTUGCAhNIXovJeHfv5btDmjCpGsS0o9/BRXVebm51A1jazsbN77vvfS3LyF8fExmrc2s2XLFoLBPAoKCvnYx/+Kv/zQhzh1+jTBYB59/f2mW2H//v3Mzs4hhODixYt0dnZy880388EPfpDGxk1EoxFisRjGuzxVVWV2dpbGxkbe8553097ezm233cYnPvEJ/Dl+5ubmCAQC9PT0UFpayvj4OAD9/f3ceNONqJpmDvbZs2f58Ic/zAc/+EHWrVtHUVERGzdu5LnnnuPEiRO87nWvo7m5mfr6enbu3JlwncQ4deo0O3bs4EN/+UFuv/12+vr6qKqq5iMf+QhXXXUVR44cQZIkrrvuOq6++mo2bNjA29/+dubn51HjcVRVMDY6Sk52Nh/+0Ie45uqr0VSNLU1NFBcVsX3bNpSUzW3bPzsyPbP/ni6vg1ePlD2PyxjpDkKsIPmq61huvq6kjFeLdHQI27PV4jUeZwlQ43GEJnC73SiyQjweRwhBdlYWZaWleD0eotEoQtXf5ywrMi5FN6re+Mbr2LJlC2tK11BaWgoCvB4PgUCAsbExLly4wNj4OB6Ph/yCAqqrq3F73CwsRMw+MVzeiqKgKPoe9tzcHBMTE6xft57t27eTl5/P6NgoV15xJddeey0DgwPE4jF6e3t55plnOH/+HAuRBYQQ5PhzqKqsoqSkhNKyUnJycohGY2Z9alw/XyVJEkVFRVRUVOB2uwmFQux/cT+HDh9ieHiYosIiqqtraGhoYGRklHPnzhGaCes0ClhYWKBh3Tp2v/71jI2PE4+rjI+NUbt2LfV1dfi8XoQQzM3O8vJLL/PySy8RWVigsqKSZ3/7WwYHBonHYmT5fLrta9nK1L3VyTGyvqkvEMjliiuuYGFhgVtvvZV169YhG/5zYbkAdvr4ENNjAllkJQpTUCQFpDhCCfPO97+B2z/3Pj5713v4x0/dyu6r65Bd82hSHF3o6wfQRNzFyWPnmRy3Tp3U2ayfREZ3e8uyvu+qKEiKguRSQJaRFJmYGieYn0fH+XP0XLzI408+QTAvj6GRYW644QZcLhcvv/wyZWVlbN68mQ0bNtDQ0EBhYQHPP/88+/bt49ixY8iywvT0NOfPn+fgwYMIIfB4PObglJSUcPjIYc6cOUNfXx+xWIz8/HxuuOEGXnjhBbKysojGomzevJkvfP4LlBSX8JOf/ITr/+R6ioqK+NWvf8W+fU8n6pLZs2cPDz30EB6Pm6KiIlwuF1NTUwwNDbF//36OHDlCeXk5XV1d9Pb18/3vf5/s7GyGhoYYHh6mra2N8vJy4nH9cILb7cblciXoFQwNDfHEY4+R7ctibGSUAy+/zIv790Ni7ymysMDgwEDqyjWGYSnGspyQFsmPmljMu1Yi55dMu+KEK6B7NVgur0j9aLTf+CdY/HxVdGdSmpZInm4c7LQsCdt42sta1B4rJFuCDHRqLKY3Y5n2zK9WSBt0vlqhuEpalmpvuv5dFR2ZKrKlkSUJWUCOL4vDhw7z7DO/JbYQQUJCRkKWFQYGBuno6NBPJlsCgUiyRGdnJxs2bCA3NxckdCHudrF+/Xqi0Sjz8/MEAwHOnz/Hww8/zOTkJNPT03R3d6MlDqwJIYjF4ubhWlmWURSF852dPPjgg/R0d7N2bS0dHR08/vhjBANBFEUhFAoRCATw+bLo6rpAe3uHflpcklBVnR9KSFy40EXn+U4A8vLziMViRBYiZuRGITRmZ+fwuD0Eg0GqKqtoO3OGhx56iLazZ6mpXUtoZoZoLIY/EEBDEJoJ88ijj/LiSy/hy8rCpShsbW5m75NP8tijjxKZX0ASEI1EEKpGYX4BsiTRe7GHwoICIgvzRBYWCAYCyEjJvejEOElS4jOpU1IC9ux5Ax/+8IdpO9PG+c7zuGTJOGqOvpI0OHW8Fy3mAxQURSAT0e9JS7O8/ppNvPWmen7wg+c5daKDt9/4Vj728eu42Psg3V3zeN35CFUgCRcyfmILMZ7ae4b3f6gxlRwLExFCEAgEaGxsJCsri+bmZtxuN+VlZQQCAVRVpba2ltratXzsYx/ji1/8IvX19Vx//fVMTk7yta9/DQmJv/mbv2HPnj18+ctfJhgM8Dd/87/w+XycPHmK48ePU19fT35+Prfeeivf+973uP766ykvL8fv91NbW4vH4+bd7343X//613n5pZf5wAc+QF1dHYcPH+YrX/kKb3rTm2hsbKS/v59IZIEP/uUHUWSFxsZGfD4vwUCQzs5OOju7qK+vR5ZliouLaWho4E1vuh6f10N5eTnV1dUcPHgAvz+XQCDAzp07OX36NHfccQfvfe97aWpqoqOjg3/6p3/i+j+5nt27dzM+Po7f76ekpARVVQkGg9TW1hKLRpmaniIvP49rrr2WvXufoqCgAJ/PR3VVNVdddZXZdiT0sVnJdbilkiyT3aoZvmK80vyvdb1pntvvQsJifrksWemEXbrTgJaf7MmM3YxVM34b/avKb2lcunbaT7MaaZZoWioxl3J7xl55ujTWupf6/RLQlRLWdzVl2tMt6vTkR0VR2HXlLoQGmzZt0vdnXTKNiec7d+3gTNtZCosK9dPQgC/LxxVXXgECduzYkVJHXX2dec2ptrZOd+MCNWtrEtc+Zfr6+sjPy0d26eWVl5dTXlEOwI1vu9Gkr6CwgG1bt5oWfOnb34YQAsWlgIC33/x2YtE4bo/t1hFw5ZVXggSNm42W6M9kRaZ2bS2xWIxrr70WJLj6mqsB2LKlCbfLjUDQtGULcTWO2+MGYMOGDfpd8sQBsKKiIm6++WZ9y0DST4mXlZXxzne+C5dLSTm8Vl9fj4SkR8wU+sEyt9tNS0sLa9euNfsBSZd1iNRDbFb61cTV2enpaQ4eOMiJ4yeQNCGEZFwuUvWE//BXv6L11CQKOSiAS3YhhAquMP/zr97F2vUB7vyXewlPKRQEi3jve2+h5XQXL7/chqK5kDVVH0UZVCnE+qZcvvDVPwUFUFS9rkStxj05RZZQEw1Q0nB46xF24zqTIkuomoaWyOd26ScCrVedTre28qW7vkR+fj6RSITPf/7zBAIBvU+EXkZc1e8/W4Oj2+8ZG6evXYpMNKYfxohEIvh8PmpqqlFVjUOHDvGlL32JqqoqFEXhQx/6EN/+9rdZs2YN//AP/4DP6zHnmnGUX9M0PG795KBxrcpofSyu6lqncbQ/8Xs8rpptBV3wzszM8G+f/zdUVWVmZoZ//L//SFVNFWpMRXEn06YwKwNLLPIlpY5lyyLFQLcx5tUw/lfE+1YkBVdRVjpCbEwCElfypMxtM/pBsudNK2EtWEFwBesdy3QveNGsdWeqZwlYSZZsv6VNaHy21CU0kfCsGXQmT+kaaxlIGydgSaJWA2O+p7kClDE9tnTpOmMp2gwDxJbWOuwp1y+tSW15hGo5zXyp5jj6tVY5cVjMvK5kb6e172w0IWHSZZ6wxpbfGshkmXHQVP2utB3mvWdhmT9pkHI/2prWFl7aeh1Msywc49qu9XqssbbNz5peeNp2G7AMcjwex+V2Jdtv71sjfaIsBGZo7G99+z+oqKjg6quvRlI1TciSBiimJX3bu79NaDwLLe7FLckoQgFZRWWG+vX5/J9/vIULvbM8/+xhOs8NMTw4g6r6kEUWkgYeBJoko6GBMoeSNc6Dv/lb/d60lLyTbWXo9jWR8oKKDGkMYWePpGONsiOEoLe3l76+PrZt20ZOTra+V6Mlo/DYF066YCeyZLzhRHcja5a0Bh2qqnL+/HkmpybZtnUbkiTR1tZGQ0MDgUBuWnlnLd/abisd9nwpTDnREWpcZXJykrbWNurq66isqtQXuDHx7bHQrQWnI8qeJkO+TELa2obXXEgbdae5jrH6QpYgxvbM3iZ7Oy26TOqP1k5bqnPs0tGmIFjvzNsVW+PaKMJmpWUSNLbfVyykNVsCK1MmTRhly3q2Bt15zYT0avO9QqUmXR1L6bqL1rAd1rHQWBw2czW0pGt/mjRGCGYzFvdq60n3HBYLbAOZQnOKpNA0BVc6wWuUYZ1zS03WDPTax0QC03BLm38pHpEJ9jwZFpiWeD4+Nk5hYaF+RVe3pKOAS7+GpcH7b/4mc9N+ZLJwyy4kVUIVMZCjqGKK2oYc3veBm9jcVIwWhx890MKTjx9Cxo+kKigktBFJgDKLKg/y0OOfRMoG3VwHUMwXYxgRXGSS0VnsgtK0ttMwJOtcsAoJIUTy4IKdiVkGxBDY6bzAduFjCGvrXyCFLkHyRSPWMtJFmDHalU64pRPeKUwOy7y3MRctriXdLCKhqRlttC1OTdNXi6zoQQn0elKlq6ZqIGG6xAwFwL4ulgqLtxKYZakJOmTbnfU0zEeNqbqL7NUK51eQ3xjDZLQ3QzlMkGvVGSzKo/nTEtbBUnQaSqIxD63zRVfKdYYrWxhBxmhM6OMrEu6+dEFzrPMVIfR9toQCaC/XepfVus4M8q3bIUbwoXTes7RtB7MwNa6arlGrUr6oP5dRvMz3A6Rj9itIa+y92uu1V2v18C3iY0adVqVH0i1MSSK17BW0x3AhL4t0yoWxYS6xpNJr8oB088oqVGGxMLXRn2KlClK3AJYStuk+24VpGvoN74FhXBleUut6tp61NRRe0PmltW+FZpkTIhlBbUmekqHfJdv6g0RY0JT0AgL+ALEZLyLm0vtISMiylxjzVFRXEw4JvvjZpyku9XDNdY184C+bGB8b5sSRAVTNiyy7AA1VBUnSyCvwmxfckSUEGkIFZA1hqV1D1iPQwKJ7ZYYgUyyL34SUMq91NwYkmEv6XjKZmTEQQujMwxI1JpPLdpGlbeQn2cFKYsCNCGWyLKUy1EQdsiylztkEszVc+MIIWmJpY1xVcSWYU0rDLQSZAtp4bHWZWSevRWoZfgYAACAASURBVPCa6azmTyKbVeAj6dqtsE20dNF0rMUk1uEiD8EiWLRnIKOAtp4cXdI6FGmeWQmzMgXLb1iUyGQbk9a6vVhNW6oiS1tS5lWGXrBHQDLoStBmbBOJBDMxBIBmeocSgtVolyDFHQiW8UrMAU0s5nGyRThICVqERsob64wLIpOTUzz77LMIobFnzx6Ki0tIbOeZa8AoA/TtHH38rBLeUtmizkv9aga8kJJzJG1/2pm3rcyUUMhG/XbLzyq0sCjBCQGaTjEwZ0OKfBVoQkqWYygsacYYQVoX8KI5bWufHjo4qXDr88XGJK35LJ91gZtBITB+SghlYw5IVqtWSv6TjEVibROWNZRoI7LB9ySzDCnRV8kXPaWuPVjCTS+RNDbsb+cy+zW5T+xyWQxGkmNs8GhjfhtKh135sfetOWaZlrZqBK6SFrVJLy81fWJ+KAijZySoqS5B0xZQtRiqiKPJGhBDVqJ89K/eznv+fBcq0/QPjrD36f1Mh2Bz0zokYrjdCsj6qUFNVYEYu67YrKsDMoCMhB4+U5JkZEnG+M/oWE3TUOSkJiOByUA0kbC2Jb0xsqQXmzLXEpazkT4WV3UNKZHXKmxldMEvy4moZImyVFVNYbpWq1nTxCI3uyzLpvvOsKKMobRa2JqmpQiElLVptDcxwe1uQIHO7NwuJSX9ooVkSkRSF4mdEVixlHZuPE8IM70hyfqtJ4lNC9Ly3ciSDoZClUKCbcGlpdfKBAz9wSYkTVrt5Vj/mcw30T5NmNdRzN8tDbIuqGQbRWI+JphWhsUpLB1ltVbSQsZkXovanyBBtswrRdbnvOXlRKaAN7wgVmalMwdrI/S0uldJ/0lVtZQ1EFc13UPkSiNUgfz8PN7xjlu46aabKFmTFNDRWHzR3p1AP0MiSVKyDruA1mwZ7J+l5HgB5l9rWk0VqX0nSJmQZt8YyDQeRj8aTD7RB6b1Y597JNaxyeD1MXLJMnps50SxdtrSrVFj7RlzJhHNy06zsC0+yfjPYHSZ1r2ml617BCy/k+YzSaEstGT+tLCtMVN4G2EfrYxbMgR1cl2kGBZSIuKjhRahWU6jW/iATmOi3Qmhb+0bYdGg7GwREt5Lu0sQTMXHPtbp5oxQRWq/JejU4poe/THRB8ZfeyQ1K5Q77rjjDrMsISEJGBlUOXH8HDIe/TdAaCqCOLFYhGuvbaSmppKq6gKuf9Me8vJ8/ORHzzIxsUA8JnRLWlL08KJKmL/48I2U1XgSPaL3mlV7lZC42HuR++//Ft3d3Xo4t7Jy846ZJmA6NM35852MjY2Rk5OjB1VhsYtaSvzPCOEpSbD/xReRZYVgMGAKb1XThamqauzb9wwHDx7kxIkTzM8vUF5eYVr0kiTR3t5BJBIhEMhNWMIS4XCYQ4cOU5oIl5fUhlOVC93CkUzGqiRoOne+k5mZGXIDgbR73FZB0HOxlx//+Cd0dJzj+PHjSLJM6Zo1lr092wEGYdFCLQs95bWfFu1zcmKSAwcOcLHnIlm+LPy5fj2LSNLS09PD+fPnqagop7e3j46ODsrLy3UhkLjuZVV+pER+2UKCRPJ7kiwpyTeFQFMF83PznDx5gpKikhRrSWgCNaYy0D+ALMt4vPqcUuMaw0ND/OxnP6OoqJhgIKD3t3XhWrVtSO0D43ti0UiyZX6mW8WJfIZXRNP0Kx5Hjx6lsLAQl8uVUPqwXGtJnv6cmprm0KGDVFRUoMhpvAB2uozfgMOHDrN3717azpylv38Any+LBx74IXPz81RWVfHk3r20tLTi9fro6OhgbnaO3zzyG1pb2vS7/mvKOHvmDE8/9TSnT53m3Llz5AXzOHL0KE/u3Ut7ezsdHeeoqKggOysLkHj00Ud5/vkXaGlpYWBggPKycoSm8dijjzE5OUlFZQWtra08+eSTrF27lp7uHrq7u1FcLp54ci8nT57k2LFjuN0eYvE4jz/+BMePn6C1tY2CggKCwQDRSJSDBw5SWFiAx62Pq3FYM6lUSCmML7IQoX+gH7/fjyzLdHZ20t/fr+/lGVtNcqoL3Dw4ZKwvWSIe06NUZWdl43a59bWfxn1rXU/d3d24XW48Po9ejrAwWyxXbhJDZ/CESDTG/v37yc0NkJ2dpRdnX5vAsaPHeeyxx6itqWVsdIxzHefMu8oG3fZ5I6GH6Dx54iSlpWVJi87WFs04jCbB+PgETz/9FEeOHOHY0WMUFhSaEb8A4rE4Dz/8MBUVFXg9XrONB14+YAbskF1yauxuq3Jsm8/GuZG9Tz5FXl4e2dnZqUJKkPTSJP6EpkP84hcP0dKiz9fKikp6unt47PHHaGtr4+TJUxQWFNLT3cO+fftYv349p0+dpq+3L3ETJ0J+fj4HXj7A8WPH9bvHim5UnW5p4Wc//zlNTU0MDg7x9a9/g81NTbhcLh588GfMzMxQVVlJZGGBffv2cfDgQU6dPMXY2Bhr165lfm6er371qxQXFVNYUMjhw4fRVI1gfhCAF154AZ/Hhz/Xz8JChLv/393E1Thra9byxBNP0NbWxoYNGxgdHeUXP/8FW7Y0m0qfwdOVz9xxxx16xLDkQPuyCnnpxePEIjKScOOSlESwconhwTHOtF2kuCSHDetr6LnQxw++9zR9vbMoikd3hQgXcQGKS6OqNshtH96K7DM6PcE5E4KEhDCZmJqgqLCYt7zlLWzatInsLB8P/uznfPZzn2NmZsYUooWFhUQiC/zXf/2I73znO6wpLeUzd9zBhg0b0RD87//9t/z0pw9yxRVXMDg4yN/93d8Rjej3mg8fPsztn/oUg4NDvO51VyJLEqOjYwwNDfHOd76DLVuaqaqqZHZ2jn/7t3/jgR8+QPOWZoy71C/s38+nP/Npenp62LZtG48/8Tjf/OY3ycrKpqKyki996Uv853/+J+vWraelpYUv3X03hYWF3HPPPfz8Zz+nvr6BSDTKP//zP9Pd3U1zczMtLS3c/qlPMTo6SnNzM/fddz+/fvhhdu7chdfrRZL009z5+fm8+U+up7qmhra2NnJzA9x555089eRT7NyxgxMnTvLJT/5fzrSdYWPjRm6//XZ++tOfUlJUwuDgIN/4xjeYmpriwQcfpKO9g7n5OW7/59sZGRlhw4YNjI3pIfL8fj/3338/3/ve99i8eTMFhQWAfpAhFo1RVl7G1MQkoXCIcChMTFUJhabp6bnIgQMH+PrXv05X1wUeeuiXXLx4kY2NjXzzvvu45557AAmv18cX77qLH/34x1RWVRGPx/nUpz7Fiy++SHNzMzk5OcRjccbHx3G5Xdxzzz384ue/oLl5K4Ggfh3vXMc5QuEQ9957Lz/58U+Iq3FOnDhBW1sbdXW13H333Tyz7xk2bNjIC8+/wAM/eIBYLMaP/uvHPPzwb+i9eJEHHvghtbW1HD1yhM999nO0n+1g+7ZteDweFuYW+I/v/AcPPPBD1FgcNa7S29sLQHt7O+GZMHfccSdn29vZskWPRhSLx+jq6mJ+fo4777yTZ599lrq6OooKC1FVjWee2ce37v8Wzz33HI2NmwiFQkSjUW6//VM8tfcpGhrW8ZMf/4Qv33MP5zrOsW7dOu7697v4/ve/T1lpGZVVenS6qckptjRv4fWv3019fQOSJDEyMoyqaVRWVHL27FkKCgrIzc1lamoKt8tNMBDkhhtvZGPjBtR4nMHBQa677jp2XrETl+Kmv68fr9fLjp07uebqPYyPTxAIBsnOyUEIQTgU5rrrruN1r7uSqakp3fpVVf1FC243eXl5RKMxRkdHTAEyPz9PKBRi/YYNXHP1HtatW8+xY8cSlrPGTTfdRHNzM4GEkio0wZEjR/jP73+f1tZW1jWs47vf/R733HMPXq+X2rW1KC6FocEhPvOZz/Dwww9TW1fH6Ogo8Xice+65hxMnTrB+/XoG+gf413/9LJ2dnTRt3oLb5WJhYYH77ruP++67j1x/LgvzC9x55520tbWxbds2JicmcbvdfO1rX+Ohh37Jpk2bCIfD/Mud/8KhQ4dZv249//WjH/G1r36VmpoaRoZHQJK475vf5Mc/+gl1dbX09PRw99138+ijj7J27VqOHjvOHXfewdmz7axfv4En9+7lG9/4hhnV6xvfuJfvfvd7FBUVoaoqrW2tlJWWIYRgeno6cVc4jC/Lx/z8PPF4nM/ccQcvvfQSW5q28Mgjj3LvN75BX18fv/rlrxkdHaWuro6nn36ab957L7Iso6oqd911F9FolH1P7+P+++6noqKC8vJykKC76wJ19XW8Yc8b2L5jO4FAgPPnzvPP//TPHDx4iG3bttI/0E9BQQFfuutLfOc736GkpARN03jooYcSgmULPT09fPpTn6alpYWGhgZ+9KMf89TevcSiMf71s//Kc88+xxVXXMGhQ4e56667cLn0q6vf/c53+dpXv8batWsZHRnlvvvvY2EhQltrGzU1NbgSYZlVNc4NN9xAU1MTXp+Xcx3neON1b2Tnrp001DfQ2tqK3+9nbn6O0HQoqZAIgd/vJ78gn/PnzjM/P09JSYkeEQ0YGxujr6+PyspKurq6yM3Npaamhmg0itfrZWxsjKrqatrPnqWsrIxrrr6Grdu2UlNdg6zItJ9tp2lzExMTE1RUVDA0NEQgECQ3kAsCent7yc/LJzeQSywWZ3R0hPn5eTZs2MCpU6fIysqivr6Bxx57lMqqSmRZJhAIJl3umjCEtKH5CSRZJuiHrvPj9F4cRxY5CKFfopZliVhUZmbSzemTQxx6qY8zp8eZCYFb1vR9c01GljwgC1QR5m3vuIqmnfnmSzGtep/hUlS1OKHpEM8881uGhoYYGBigtKyMwcFBampqaGpqYtu2bVRUVBAOhwkEgkxNTfHRj36UJ598kk984hMcOXKEDRs24Pf7CQQCzM3N0d3dzd///d8TCoXIy8vj9OnT3HnnnQwPD5GT4ycYDDA6NoYQgorycmRJYmZmlvHxcdauXcufvf/POHbsGPn5+bjdbgKBAMFgECEEDQ0NxONx/vZv/5be3l6EEFRXV/Nnf/ZnnDlzBn+un7fd9DZqaqrJysoiNzcXl9vF7Mws73rXn1JWVoYkSUxOTvLXf/3XZhS07OxsbrvtNrKyfAk3qkR4ZobZ2VnWrClBFRqd5zvp6+9DliTKysro6+snGAywpmQNTU1NrF27lmAgSDAvyNT0FBUVFWzduo2mzU1Eo1FuueUWzpw5wyc+8Qk8bg/RaIz5+XkkdA9BbW0tt33gNvbu3UvjhkZcLhdjY2P89re/pa+3j/aOdvz+XLJzsnWhthAxIxm960/fRWQhwi233ILiUigrLSMnJ4f8/Hyi0Sg1NTXU19dz8803Mzk5yfz8PG9961tp3trM0OAQVZUVqPE4w8PDDAwMMj42Ts3aGkZHx9jUuAlVVRkaGkKRFTxeD7d98DZGRka48srXUVZWhhCwZ8/VvH73bs6eOUNuIJc/efOfkJ2dTXl5Bdu3bSM7J4drrrmGSGSB8vLyxF18jbraWvy5fi5cuIDP6+PmW25mamqKYDCIqqrk5OQwPDxMS0sLxcXFIEm43W7KysqIRqKMj49TXFxCUVGRHlfd46a6ugZNVRkeHuaNb3wjG9ZvYHBwAE3TqKysoqAgX3/5gdfDzTe/nYqKCt6wZw95QT1UY15ePrIss279OgB6uns4dPgwXRcumPM6FArrXgZVNT1AwWCQSCTCli1NTE9P8/LLL3Ox5yJer4/5+TnKystwKS5C0yFmZmaYmZ3l+PHjPPf88+Tn5bN1a7O5bzYwMKBbuB4v/f39ZHl9tLa26POwry+xPlzk5eUlrdscP6qqUVBYQCCQSyweZ2RkhPXr11NQUMBLL71Ea2srOf4cgsE8hKYxMjLCn7773eTk5OD355Kfl0dBYQFCwMaNG1FcCqOjo0iSxObNm6msrNTDQI6NsWfPHjZu2Eg4FGZufo5bb72VLF8W0UiEkjUlRBYiTIxPUFtXx+bNm2hpaSE/Lx8kmJ+bx+V2c/78edS4SkVlBZOTU8yEw9x0003s3LWTvr4+1pSu4c///M+RZZnx8QlmwmEaNzbyrne9i7a2NgCuuuoqdl+1m/mFBcrKy8nLyyMej+P3+/F4PLzv/e9LrOU15OXlEQwGUSSJ7du2U1dfh+LSg30MDQ0RDAZZWJhnfHwCj8fNwMAA73zHO2jasoWR4WFi8Rh/8Rd/wcTEBLfeeisL8wsUF5cQi8X4+Mc/zuTkJLIks2vXLqqqqmhvb2fduvX09/dRX1+Pz+ejr7+f/Pw8crJzzOubL7ywnw996C+pq61jeHg4YU1WUVxcTG5uLjOzs/h8Pva8YQ/XXnct58+dp6+/j49+9KNkZWUxOTmJx+Phz//H/yAnJ4dgXpBwOExRURH9/X187GN/xfDwENFolDWla/j4xz/B4cOH8fl8bNmyhde//vVs3LQRl8sFEuTm5hKZj/DiSy9y9mw7RYVFjE+MU1ZejiIrRGNRRkZH8Pv9epjOqUkmxicSHkGhhxgdGuL5559PeL1maahrQJJhYHAQ4y2GHo8HgaCsrIyjR49y8tRJJicndcNwYYGsrCxcbhdPP/00R48cZf369Tz77HN09+je38aNjXq9/hz9mq8EvRd7KSgswO/3E4/H6OvrIy+YR1yNo6oqqqri9+fyy1/+EkVxcfLkSXbs2G4ehJVkSRedEhKaEEmffBb8/affzP/q+TG9F+bQVD8uJIRQAIl4PIpQIBKZT2wrCDTNa5781JhDyBHqN2Tz7vfXphHQhgtEPw6nKG5kWWHbtm3s3r0bIfQwdm9961uJRCI89dRTBAIBUxAIISgpKcHlcpkCNDs7mxMnTrBx40YaGho4deoUQgiiMT0qjqZpjI+PMzczy/TkNO6EG7VsTSkP/uSnNNTXo6kajzzyG3bv3s301BRzc3NIsoQmdLdbd3c37373u3nmmWdQXAqqqhKLxYjFYsiyTCgUMj973B7cbjdDQ8PU1tZSX19vxohdWFhATVgi4XCI+fl5IpEIbo8bbyLcnBrXcCVolIQgFokSjcboOteJDBQVlbC2qpqNGzfidusX8rdv38Hzzz3Hi/tfpKy8jPr6el7Y/wJCCNOtlJWdBUAkGiGyECEai5Lvy8cIRCDLMoODgzQ0NBCLxkwXn8fjZffu3ezatYuenh4GBgbMCR+JRJAkiZycHDxuDx6PB7/fj8/rY2xsjFgsxjtuuYWXXnwRl6zgz8nB5/HidrmIRqNMT03hUhQ8Lpe5jxyLxQjk5rJ7926279iuByGwHLKQZZlgMEhWVpbpcRBCEItGGR8foyC/QJ/gLhder5e5uXmyfD7TRe52u5iZCXPhwgV2X7WbtjNtCc8OuF1uorGoHi5RCGKxmG7Zu1xEFiJUVVZR31BPaWkZbrcLWdFD5wpVY7B/gM2NjVRXVjEzM6O/HlDSX+83OTFJXI1jXHPp7+9j06ZNVFVVMT4+zpEjR6isrKSiopzz589TUrKGurp6uro6zX2wHH8Oe/a8gcqqKhAQiSzgcbuRhODUyZPs3LGDkZERFFlGi6scP3aMosIibrzhRk6eOomiyIyPjdPW1kZ9fT3Hjx9nbe1a3B4PmzZvNgXo3Nw8Pp8vse8tiESiRCK61eFNvPnnA7d9gJnwDKdOn9Jd4AIaGxvZ98w+mpubKSsr5+TJk5SWlnLq1ClCoRD9/f1MT09z/fXXMzIyQiSyoO8BuhTcXg8erxeX283F3otkZWXzlhtuoLWlBeMkSXlFBe98V4Ueu77rAl6v7oKNRCPE4jE0oREOzxAOzxCLx8zXFfoDft729rcxPj7OieMn8Ptz2bljJxWVlQihceLESQoLC1m7di2bNm1GCMGLL+5Hf/nCGINDgxQXFbOwsEBHRyLyldtDeCZMeCaMy+XC49FfYqF7v+KMjo5y7bXXceTIETweD+FwmFg0RiQSYXhkmGAwyLXXXkv3hQup2y+SfijO6/GytXkrX/v617jiiiuIx+OEQiHUxOnirKwssrKyyM7ONo2AWCxKLKaHyYzH4mg+gdfjxZ/jZ/u27ezYuQNFVnB73WiqRm6un7a2Nnbt3MVLL72EQCT4UpjpUAi/348kSQwODuLPzeXNb34zhw4fAvQ2LkwvoLgU5ubmmJudY3ZmlpI1JcRjcVRN5aWXX+aNb3yj+ZIMTdPM0MyKojA4OEQ4FNL3+5HIytItXPNQGHD0yFG8Ph83ve1tnDp1ivnIAhNTUxw/eYIdO3bw3AsvsGbNGhS3G8XtZtv27Xz+C1/gLW9+Mzk5OcwuzHPgwAE+/JGPkJefx759zxCemyXXn4NbcVFRVs5LL73Idde9kbmZWSILC4yNjPL/ffR/Mjk5xeHDh9i1axf79u3jXe/6U2644QZ+/atfEw6FKV2zhje96U10XbjAgYMHTOU4FtF5p362STO3S+LxOMG8IM8++xw33XQTra2tdHS088lPfpL8/Hz2PrmXgf4Bqqqq9MOcqqZfwUpKTg0JGf19lS5aD0W46ws/YXREwq16cckeJElGaKAS0y1vJP1UnqTqs0uKgxSmdn2Qf7j9faypwSakjWOrkhnoQALCM7O88MILpjvsqquu4vz586ZVW1lZSVtbGyUlJbpbY26OoqIient7qa2tpb9f35s6evQoeXl5lJaWkpeXx8GDB/H7/ezYsYPx8XHOtLZSUVFJ05bNpjshEomwf/9+NE3jyitfh9+fw6HDh5mdm+OKK65AVVVcLpcZQL2srIz169fT2trK5OQkW7ZsobR0DQcOHGR2dpZdu3YRjUbJSbgLDx06hCzL1NbWUlBQwKFDh3C73TQ3NzM3N0tLSyvl5eVs3LgxYY0Vc+jAQV7/ht0AzIRnOHrkKAsLCxQUFrJzxw7i8TiHDx8mFApRW1eHquoBVoqKimiob+DlAwfIzdUjlBUWFuL1evH5fAwODlJVWcXA4ACtrW2UlZZSX1/P1PQUmqrhz/XTeb6TyalJduzYQUF+AcgQmg4zPzdHSUkJc/NzzMzM4vV6OX7yBJIk0djYiBCCvLw8hoeHE4HnJwkGgxw7dozZxN5ORUUFQgi8Xi/hcFgv4/hxXIqLnbt24vX6EEJjbGyMQG6A1tZWRkdHWVtby8YNG0CCwcFB3G43c7NzlJaWMjw8TDAvyPzcPDn+HE6cOIEQgu3bthOeCesWXiSCmjhNHFfj5OTkMD83z+DgIEPDQxQXl7BuXQM5/hzUuErn+U7aO9rJzs5mx44dnGk7w0IkwrqGBrKyszh96jSxeIwtW7ZQVl5GNBJjbGwMNfH2sYLCAiorKykvL0dVVV5++QAzM2GKi4vZuHEjoVCIeDzOmTNnyPXnsqa0lJGRYSYmJsnPz6O+rp729nY0IaiprqaquspUoFpbW4lFY/hz/WzatIloNIbLpb9GsLq6ynx73MzMDIFAgJMnTzI9NU11TTWNjY1Eo1GOHT3GzOwMdXV11NXVMzY+hi8ri0Cun96E+7ukuAiAs+0ddHV14fF4aGxsJNuXxdzcLBXlFaZnw+Vy4fa4KSgo4GLPRRSXi4qKctrPnaOzs5P8/Hy2bduG2+2mtbWVwcFB8vLyaGpqwp+TjSb0cS0qKmJ6etp0Jc7Pz1NRWUFDfQNul8LA4BBtLS24XC62bNlCNBLFl+Xj7NmzRCNR1q1bhyRLtLa2UlxcTGPjJjxeNwvzCxw/dpzp0DRNm5vMeRKLxdi8eTMul5tcv58zZ/UX5dTV1lFaVsrJk6fwejw0b23m3Llz5gsi4vE4Of4cOju7CIdDNDVtSRgcuiW8EIkwMjpKX18fwWCQjRs3MjY2Rk9PD3l5eVRUVNDR0UE8HmdtdTX5+QVEoxGKi4pRXAqTE5O6IpofZHBAt/Zy/bkcP3Ect0sXRFNTkxQUFDA8PMyaNWvM9XbmzBlGR0bZtHkTgdwAkqx76DraO7jQrb8sY+vWrbjdboQmONt+lp7uHopLivU+jUZNvtnc3Mzg4CDBYJCW0y1IskRJyRqys7PovtCNoihs37GdhYUFjh8/TjAYpLGxkcnJSUpKSug838nF3ouUlJRQXV3NzMwMHe0d5OXns6WpSad1bJQtW5pRFBmfz4ff76e7u5vKyko8Hl2pPnL4KMOjI6xZs4bmZt3Lc+jQIcLhMKWlpWzevJlwWFeW/H4/58+fJzc313xz4dTUFHV1dSiKzODgEIFAgJzsbKYnp0yeUllZSSgUwuv1MTszQ01tDUITdHSco7a2lvHxMVpaWojH4lxxxRUoikJcjVNUVIymqbS26Ov+1MlTyIpMeXk5BfkF5Bfkk5Ojeyq6u7spLCykv6+f2ro6xsZ0z1BlZRWSDHOzc4RCIRRFISc7h/BM2C6k9QNisqSC5IEYDPTC5z/3M3rOjONVChGaB02TEEQTSp+UuMoUBUlDSCGathbzf/7pPeSXAQqIKPp7pWXDhNb/GELaSoH1Oolxn1CWJfNKVlyN43G5Uu6GGgERrPcvjSKNfIbrWEI/ua24lNQrA9ZekJL3Q61l2c7wmOXLsoSa5vK7IHktxx41zF5WLBbDk7CIk4WnJjYOimlampelG+VZTh4mI+PoTotFJwiNU6PmSebUAxtLIqH1G8q/MWbGOBhWr3lSOKbiskY+szRe09LcBbWlSemHJYKWLIp+lIFuM61lwthfXD85MUlXV5ceptbjXjx4RnnpDqhZnsfjcU6fPk1VZRVFJUVp08WiMb2OdEEfrP1grztTGyHF85AujTUCmH6FUB+/TIF6FEXBWlza+WRF4lHMHiHPShvJ+ZPprnTawBLLwAzkY+0L2TJhLf2cEu0pzfiZRFrHOk05KQemjHlvmY/W/rTeDCKxrs0ypNS/xr3cdCeArQeurHQvWiPp6F3UaZa/y9wZFxa+mlJ/prlntEOSrU5UHZb2Wi1oM4SxwY8t19HSLQfrM+N3+1xWNd21bV5htfepbexNOWD0nmnzYAAAIABJREFUnc3jsajfrQGk0swlU/ZYGmG/228dO6GJNELaEHqSBKpuKU9NwrOPn+Xxh08z0BtBkbMQQsOjyCCpxIkSF4K19YXcdPNW3vq2CuQsUieIbTB0IZ14ZJm01ru29nu3Bm2KLKXIV2OBW+MAWIWs+V1aIrKRhTahgSY08wSgfa4b5YFxFztJe6Y4ClKaz3ZarAEqFi0qYSgzGRafwXSRUqPxGGXZFl3yClBqEI6MHWSLDmQKfks7MsUrwJImo2BZ6bOlmOhSv60ErzSfNZqbPe8y3CSl3zVYFO3JmsYoZyXM1DKXUwJN2JWeNPQZcxlS15/Z/UspBzYa7CGKrUzTGgvBCP6T0jwb4ze7wD7nres8cQdVp1daPC72z7a2L1Lc7YKPBPMUtn418lp+08wxSOVFaYYp2V9WoWdJkFJfurE25kK6+93pKk6H5RhUmnRmNDRrPvu8ND4a/DydMmGl0S7oE/PIbqwY0BL3cxXLjyudoklDQTPPc5h9vURbrPSmKERplCDrfe6M45iJT2gkhXQ6gSFL6EFHjIKjcOTAMEcPt9PR3svs7DzBoI/6dSXsuW4Xm7YWJO++CRWklUeBSlmYZI6JbB0g+1zSbHnt7U8nRM0EKULacmWDFc1V83vyWlSqcLemx5bPTsaKYUwiEhPabgmk1QTIrEmnK3uZtKumeTWwdnCmUICJ70aELasikba8DIJpURorMoUvXCpPOuaYrn5jzlkirK1Io1uOjuUUjiXKt87jpYpIW54VS2RMl9yeVZAqyFdERyaFaTkL8jWYxJn0x7TfE+vNXMeGFy3NFUL7da1UBkRSWFvnkZFuqfkglkiTkfAMaa11QmblIR2NS9VrIRWRvKZnrP+VhAWWwLxeKtnbnEbxy2gY2AtdCvb+tU+OJeZnBiGtlyaMe/7WSR9nMYzMsu03LVGAXX2y1QRJ4byoaJuSlUqhLfKYLY9d40opI90ksWiCQk6Wby/DKNsUDCwWyFaLwV6Nlf5MkIzJYl46tjXC7IA0BS018JnKWQlHSYPlmK2dpFUhnZBOpzwsJ5DssDNAy+9GoIMUNzgW95OqT4gUD08m93s6AZtOU0s3Jpb2pA3kb/RBprZnGudMdIAZfQ9S16PdmyXZfltcUPoyFyVL0GQwTSsMRdcOk7FmcJemo8VwFmbcBrGvgUxlphP8ki297XG6Ni1yhFn7S7DYFWyre0nviF1I22lbap6ke54BaeOJL6cEW5/b+jfFIrfmFck/ZrG2ubFiBS5tQ9LUudyzV6LULTGeyyGjJb2IIFMoqOgzwG0ZkMRDGYvUTKxmErPSkHpp6IbFC9K+p7lcupRGJb5qFuZmDqRdI00XNs74bKPRWr+1XjutaZmLjT8sJdyWHLt0DMWa0Tr4yzCuRW7zZStPT86yaUQGD8ZqKzKENSQ1UisRyzHfldLwSjTllZa7nHBdAT3p5vyiMV+lkDbWwlJKsznPjaJWIKiXElSZikg3bYVBk7EVZ2vjIoU23UKTLAIuzZpP269WGmwKe9o94oSVq0e4TFXiLWRkbmumF0akVJLapiUVv0yCx9I/q44f/wph3S5YRFsmvmYV5JbhNbY+gYz8fzmkJEujOKQV0iu1SkjOhRUpS0vRad+TThFk1s+myhdPzHQ3yZMXlsyavRBLYSZhIvH/xZRa98LSWcJ22F8AYAgE6+fXAunG0koDkCK07S74RZHllmBaSxKxVKaM3I5UIfcqsNI5e8mGwWoFp9PEJVtau3a+BMHWlzQAKdZ0ShmvBktp0ImohxkdT5mY8WvIX1+tvrKcoZZuCq+Kj612bC7lWK4QqzJWVyik0+3vXtYwlIFMQnplRSySD8bnV4L/n733jrOjuu/+32fmtu1d0q6k1aqgstoVoAKIIlFcxBOTYGMTJw/FYOI8cZzHNs7PzuMKcWKnmcRO8M/2A26JARcIBgVEEQIskJCM2q7Kqq+2S9v7LTPn+WNm7p07d+beXUmAgufzeu3ee2dOL992zvmet7zp3OjPWSCDSVuJu91qYnxKG4G3ETG7hOnYWZlZOO9paHWEG5P2UhAyKmVVIweT9rwVaAqEL5eQlavsbuY9e1pTRjbN+Sy14wsaWUzVGZP/XBjYWZs6zjIv4fi053OujHiK8d0EW/t8PJsiZBue2Yr3FssebyumzKTtYzvLmrSnkJ1NyHPTUK3CTLVTsqXnRAbBMz+na0Uy40ozvJsClJH1uWjSbxVyDQLnpUa298kTzHbGqNhnlTNBMwEpTR/cItOM7XmtoPXMwcGc7ZPShFNvhHAfF3YCkpS0HAw+jaHaFfvpnepwhZcyk2uguK1VnxWDtr66rVsKMo5xTSm9aRTkbdOkc2TkOce8BBcvvA3aada87Z+QIsrmc+tCgYz1OxfpNeeOfXseVjAzrCXgZm0OSabJcYrCgNszpwkzM5xp6p4CA0mmg+mMyKyg/fRDxq5cYWszJ9zaNIdQrDuf23/aBXi3PQ1eTNaLqZrv7H3oFQZJOrP0gPOIomu53CSwNFpvfvdYYpgSzHppDqsppG4zdDN65cSFJAlm6VchbZq0TP5ztH1GZIlER0qBgpiS6JLLNJEmKLpM/izzxjUdtzAu8oF3QRxlAjzno5cm4Mzf7UiZ8/fZmufdJMzpmoHOxnz0djHpDMuDI1G3sp9NG7wtyKJSus43+5jM0kfJ+srMMZvGw50D2YXAZbMECY9wbu09lfFh71v7Zkwnw0w7guUsiD1Dj3HhOh5cwmcbM2lWPkcZnHlNZ264Mde0trVd4eg5mWRKSck6PqaAZF2y5WfLN6fWfR7mYcb58nNM/m0jDV4CzBQhpJ7OpC1BNanE2jTVVB62iWQvi8w0lWURNNOvf3QQH4H3zmqn8OYWznpupemMY9XROXmnSuyzEcsMwcBRbmc57O2RzUTuVTdI3ySXyyfI+cRUx9p08rf3C2T2hf2Zsy/d0pkuvE4aWDhbxm/fmwDpYzdbXXMtjTvnmZVmrjng9t2ZtmddXMriNX7dNopJ+6eDxkC61uQG3aVt3ARmLwHabW5l29B2LnzIq13T5r5HfKeFM43eMvXDG17v3eI6rZNe8e1hrfTs49n5fLp0Kdsyy1TqMd13ucqTDc52cpuPTuSSMa3vKU3akYuepYHcEvbK1K0A1t4IJ6NxFn6qUrgXE3YjPhbR8HI64pamVzm9yuskWnZiK21ls5fTTszsBMRLGPCqm/O7vT7ThVe8XLtzzwXTnSRuBMRrYnoJPZ5lOQ/M2t5PSYLrKKNz7OpSmhsijaUkkXyeW3i04lu7sJ0MyY3x66ZZ8yy3Z3iGnQ5dcAvnJXzb57BzvjvnkdUWkKq73XFFMl2rPTwEimz0xVkXt/HnRqfc6JBT+LDC2uvuOqZkKrS9792QQY8cNCbb5iyv9rc8qznL7dzY61UHex7Osp7tfoipIJcQMqU0ZKbwfa6wl0toliYtJdbXlIk5tdPVai2ndGs1st08nXWzlq1SuQqZC9kkoTTCZAt7vjrbTYhxDjiLsOp6ypuSszzOuF4aezbvi1Y4J9FylsVtQHoRens97XsLvRxLeO1Wd6ZnL5czrDNNzZGoq+nTlu5bNZHPBknm52hcu1YE7utpXv3mRuzt8bIxFUhvz2xaqnNOO9cB3fK2wjuXp6bSJ3Zm7LRuOfPyqqMFL+Zknx9O+mMxGMu9sFOocQsL53ZyZKp00AoLmfMSpG2sWIJIykWyl4nf7i3R3s/WM12XWBfuJN8JEIgpOZlye+7sKzf6kctbo92xjVcezrK5tYOzHb3mk51OOQUYe+g0uuRSBnuedpN9NmHPmqtCCERC06VzYhkdp6Mq2XdWeRGNbOFz4WylGjdp7FyIdra8nZPYaxBKcneaPT9NT7W5FwGynjnTzaX1JdNwDOZsgo4XpC1yNuHHrZzZGIPX82S9XQj4VMfU2UjI54psjNSarJZZ12nWtLuUdPNp7Zzs1jPriRej0x35eJmVnWPLThu8tDz7s2zakQXnOMwmbABo0tw45pKGPY5zfOi2NnQzK9sFDDeBVpp/2UzLXvWz18PZpikvWTkSIrN93eiDla7X0kKudLwEpFwMxR7fKEPqvgXn8Vi74GcvM2Rqo5rp0x9yK366jallWIk8FAt7fDvc2sitze31sqwzXuWcSht6xQuMj48DRiapgSpQVeMqRkg1rKqq6LqedMWmKObubjOMlJJEIpFMA0jTxq1nqqqSiMddZ7DbzkoB6C5cyMrH6NB0twl26VA1r3xMWvanytE8YIwb06mDoiTbxGoX1ZRAdV1HKAqKECiqiq5pNuZufNM1DaEoYLW9nUkL+wCXuO08teqfZtbTdRR7nc1ZZz8HbJe8pTRu75G6cSGg/R1k9omz/Vz7zMzHKw1ne1p1tOqNlK5E0J7OVPsxzSKUDaY1SRFuO4uzl8X1uVUHq33NMWHV1boaNBFPoAaM9sc2b6zUNXNcCbNdnHPBei4UxRhjZn7Wb2x9kW6NSOWhu7yzNCkrb6v8FozvEiGU1Fy0ym8kkqqzR/tbt97Z28uehjDLYPjsV0AY1/8JIZLj1SqnoijGMynTx789bbPc9rYxLg4x28iWpoWUD2mJGgikp2sPY9YZjIsU7KPDPq8lmA5ZUrQrY05ZaUmZ7H9VVQkEAsn2UlU1uXNdMelQql/S29ZtTjvnkqoabpwNmoHh3MbUqpPvzbBWvsbFLHanLan628ecnRakLzUY1gBFUTJ4RiKRSIZP5Z+yHliw11EI4453IYwxbV045LQGWp/2drPTiXS6JUkkUvWx6mTQe1AUNSOPVHyjN62yWfU05oSeZglxxknmpUmZ9Nxn5/R2E5RdYrDDKX3iEs5NMtUSOmrA4QgFW4DpIMWDppaGm+hvx1RcadqfWRXLlm9OETRLnha9dx6HcKaXywmCmzhvwS2s2/MLBU6xNpeIPJWw2fLweJ/h9CRX3lnKknF7l5e6lK2uyYmK901azjFgS093PpcprcjSgrxuqsqJqapzbmGc6UxFJXGkO2WvWrnGk1fZbc+kJP0SBVzK7DUPs8w9XZdJAQ/Smah1gQNgYyDpwlnyE4MJp5iunmSUTmZqZzx2P9mkhbeO4xoFtzNhN60+g3TZ6Lf0ahu8lwYk6RqzVWS7cOgUSpJxHQqLvQ/S+JtQMnRKO1/MZomxV8kZFttzN34rBOnOTOzmCOvc3rkcJbYXLLlZQ0qEJHWdlxucFxpYhMeOXIzRLc3zcC46Vx5Syoy6ubkPzEpUvRwZ2ONiSe8uneRFyKRRFoRwPyPu5SjELdx02/98wT4W3qkyOOH0fQmZ41fg7hXNkUaSmZzPepk+yaW1Gc0qnz2IaT/3GqbO7+cdHsKx1B3zybpMJZv90h7fmiOOdveck14Csz2ovb9NxyNJYu9WB1MzteAaLhd9cpTBfp1vLthJp0X4pY2GWKZnay1adVwL6qakWfTca9+CM77mYo6275GwNi7ap7Zzw66dwbnczplWV+u557EtmdLADe3WiBNLJFCEksa4ndbHVLtlmreda9xWu9nDOdff7XwSMpexMs5JC/OLYVITuC1LZ1PU3hJ4Je6l9dp75K1mzF7StXR5lkYkSPkQ9tK2rHBehN2Zl5vo5qV1OJmdM76P8w83Yp/rZqapTKxsY3AKml8SLjwL0omzUzN6x5FF88zQaqcSL9dcsv/2ytcL2cqaCzrJ6xrdtLGpDpVzgdcmKzsJSv524dbO47ZWaCFSa8qQuanRyeiczW/f3Oq1vyLXNLCnO5UhkV4P0jRoe9ncdEs3wTdb35nnpGUygiFIpnrCTTKyZ5grTEaBzY7Oebn9dOElxtnfW+lPdSR7HV7Mlr6FbAzU7b1bmKnCKZhkY+rZcCFQ3un2/1QH3zul9Vv5W7+9NDUrXLZxIW3vswh2aelmYzYexUh75qKJeBGfrHCzNtgjCkcYtzpOK0MzqnYOl0dMhbKfb0jHZ1KLNAinMPtC01LHyJyamy2ad/IWHTa/WyTfPrwyZEqbpud8ZpUjmY/H82QZXPrUa/9Klu0sxnvcp0tG+rb3bsf7pMuz8wmnFcMtL3uY5Kc0dkskY5iyTWZkx7fsYVLwHOfZxJm3czI4v1s439rlW1Evp0hmH4UXAsN9O+AUUNxwIbWH2zjwugPZLS45wryNmFZxprIk8Ls4fr0wBYHqfA+VqRgR3MowXQ00V75e5Nhrmp+LrnO2OuHZ4GyHdJq52w2uHSd1U9oRGeGcC+C5kG2wuXkw0qUZ3uwZyfSln2ySVrL80xjluZT4XPmeD0jnD0dm08377Ry872b8rvOa30lkJWq2d3bN0/rMoeHlYlbO9HLBrjRZR6bstBU8ND5bfDcN1fncSwB4p+fHudA5L+PoucBN2AjkEofcTVtnsdDrkn5OBUhkVjrNtON4PxWJbcqNOA1BwwrnVZ+cZpSz6V1HnLT8Hc99vHO4EAiRj7cIudYApqLuOueqm3DtwcwhZRK1O2pxW6eeyvJE2hl0aQvjWGKx8rESsn9P26XtyM+T3udSpaerGmeTVs5yMrqqsg7+k0HnnZbOs8w7kDuIM23LWG77LVO7hYWzRNMduFOEZR07m6S8+s1tkkxHQ56qRj3tDKaQhM8IfPi4AGDnim4T08OWnGv+ujJaNw3XXGB2WjNz0gfhCOS2S90lWnY7bFr0tM+MF9PRtnJl4poR7n1yjoRzSmZo6/s0eYv1PsWkBZjbBsnYDmlnyEIDaeftdmYsbQUyLzdN3gtnzyc9qhecgpX9t/RIw2s9w/7euakhF5Nze3eehKRzHyTW5PFIZxpWex8+fEwH52NSnaOE7aZYAMnNYFOKPxWY6eXa9JRMV9ieCTyZ+XndqOWWlpdWbZn0PZYXMpKZSlu+RUQ2XZN2imsZHS0MBu1mUpCkbNHCfCjMF7q7XTot6SzcxFUYPYsGsarn5X/2fMLZbK5wW4CYbj4+9/Xh48KAUxv1mpsO9dZNuZuKsuGWnNt55XMiEVZCSm5LoZuzjzRzvo0NZNWopyJg5NI+XO356RlbvMC5a93LZD9t2HXdaXZC0pEJGeZuY1FB13UEhgcbQ6nWQVfQJ2H/vgRNu47SfqqVsfEYxSVlzK2tYc0VC5i/GAgDGmh6HFUBlIBRWouJQ0oqc5ZdkLbTVTejJBIawYCKLiEejxMKBTMqlK0hvK4Kcx49cDaOVVSvMeOWrf08n/3Qelr86TpWcS4suRTI1Rw2jSx8+PDxFsDJLZ2TUkIikSAYDKSOM4kUHbLOANt9XQvSSakEdE1HKALLF7iT13kxHE9FycNUaGdqnlW2GVTdvGvZs0hb756q6TyX98VscbHxAls8KSVSpN/W5VWks9W0pwNN0wgEDI9wxjlpu2lCYpq0hcGoBUwMw2svd/Kfv3iFjtZhRCIfQYBAIA9d19CYQFf6WLq8hj+4ZT2XXz0DJQRCxdCmNR0dYbiuS9aUDEkyzcEHNgdYNqbn1RjZ+tjrzJ7T6450mRD29NPSJJOh28to9x6TWSCPRL1g97Ikze8uCeeSvqeDt9rS8LsEX1j6HYd9FVGmGBcedM3puMPpscqWLJBO+1z4atrvrMt0Fv3P4nHNugXMVWt2KVu2Cy4kprHVVqAMD3MuZfCsUA7YgyY0466FYDCQQatzCTcZZ8zJzpeylcfzna1M6n333XefdS7A8FEKQpiu9KSgtwv+8Rub2Pj4AUYGQgg9H5UQmhZGSAUFg5lLWUBfr8a21/dz6uQgy5fPJ6/QLL0UkOb7NKXCWnfnnu7uYdOmZ1myeKnpbg4QxmUHY+MT/OQnP6W7u5vFiy9KSjl2wdQayGkMU0/vQUWYxwxMiQlhPFOEsDV8+qYLYTWYmXYskUi7HcwafJotL0VYUnDqsgZdT914oyU0I58pOlnQND1NwEldpJF5IYEdgtRtSj6jeOfgt/27C1KHwYEBgmowXfFwDWsI1EKQdEch7OY1k+40N+8nEAgSieShCIjG4gyPjBAMBLEuF7FojBAGvTF8aRuKVCKhGe4tSSWt6TLN6Uk8nkBVlTR6llZWkzMY5RQZwsRkNEZfXx+JRIJwOJxBdxKann67FaAKgW6j91JCPJFI0i3D97jholPTNEbHRpG6ZHx0nEheJMkqrDvP9YROd3c3RcVF7pKJG0SKhlv0//kXXiAWizFjxgwjiMgUdpzWVTuSvMbqSpdJniEAOTXJHIQhFovxk5/+lIDUdYTQQegkrd+6BF3l2IEEX//aTxjoK0GPqYSFQOiSgKIQCCroGoBqRJWgiDz0yQDbt5ykv2cjf/WVD1A2x6hRetelfhm3u0AsHqOvt8+4xUc1faeaDO7gwYPs27ePK664AjAGg3U/s2UOUh3mIDD82tpNzro070u1SSlOQczuVzbt2jNpMF1VUTl2/ASvvvoqx44do7CwgCuvvIp111yd1sCSdL+6iiIQEtpOtfH666/z4Q9/GFDTI7hIhlI3b42xjx5rYNgkTns7aLpE0zV6unt45pn/4mMfu4uwY4nAhw8fZwcpdfbv38/SJUuprKo0nxlMREtoqIqapo0m4glaDrUwODRIWVkZTU1NFBYWsu6adRQVF9HV1UMikaC4uBgpJZqEsbExDhw4wMqVK4lEImm0PRZPsHfvXkZHRykoLKClpYW8SB6XXbaGUChMb28v+/bto7SslCvXXsnWrVsZHBxk7dq1LFgwP+l323lcyHhu3DSl6xLFoi+mhn3gwAHy8/Pp7Ozksssuo7AgP61cqqqQ0FL+sKWUxJM3eBm0fGJigs2bNzMwMMD6deuoq5tn5i1IJBLs3bOX6ppqysvKkTpoWoJAMGDQ7YRh0u/s7ASgurra0TG27466WXVVFcHg0DBPPfUUq1atYvny5Yb1VGTyjyQ5Tpepkt7fwGD6LS0tHD58mN/7vd9DUZQk3c+q5Odg0ELA8PAwTU1NqPfdd/99qQjWOSrj8xtfe4qOVtATIHSBIjQkcRCgIZFCB2FcVSYRSN3KXaHvzDCHjxzkPe9thKBVqHTRxzrnLBCMj41z9OhR5tbO5Sc/+Qn/8R//wZaXX+byy6/goYce4tChQyxdupSTJ1u59957OX78OJeuXMnAwACf+tSnePLXT7JmzWUMDg3xF//7f7Pxv/6L1avXAHD//X/NY4/9nL1791JeXsYTTzzBkiVL2bVrN62trQih8LOf/Yzvfe/7XHzJJXz9b/6Ghx56iOrqaqpranjsscf40pe+hKZpzJkzh+eee44rrriCeDxOTc1s2tvbKSoqBgT3338/Tz31NC0th9F1ydNPb6SxcQVHjhxl69atvPrqqzz99EbC4QhLFi9BURRi0Rg/+MEP+NrXvkZ+Xj6LFy/mFz//BZ///z7PxMQ49fX1PPH4E7z44ov87Gc/o6uziwe+9QA1NTXMnTvHlJg1Hn/8cb7y1a/S3t7OyPAIL7/8Mo8+9iilZaUsW7rM1Yzv462H3+rvIpjM7FTrKSYmJ4jH48SiMQaHBtn++nZ27txJW3sbNTU1hEKhpLaoS53xsXEGhwxmWVJcwtDwEMXFJby27XU6OzuZOXMmL7/8Mrt370ZRFA4fPkxLSwsdHR3MmTOHcChoatE6iUSCaDTK0qVLWXnpSvr6+pg5cxalpaWUlZXR0NDA0NAQRUVFxBNxVjSuYHJykry8PDZv3sz27dtpa2tnds1sQqEQO3fuZOvWrezdu4eWlhZaW1tZMH+BYSkQEI/FOXjwIIsXL+bNN9/k6NGjnDrVRllZOc899zzb39hOSUkpBw4cYOvWrfT39xMKhXj11VfZu3cvM2fOIi8vj0AgwOLFiykuLkbTNCrKyxkfG+epp54yrQkq8Vic0tJSNm9+kX379gFw5MgRdu7cyejoKI2NjbS2nmJW9SzvyWU3swqIxzVOtrZy7PhxXn3lVWbOnEl/fz/Dw8MMDQ0xGY1SWFiUVP7Mrs5I0vpmWUn37N3Ld77zHRoaGlBVlYGBAUZGRikqNviB3VrikpArdNMCUlhYSF1dnd3craRiR+HBB7bx221tKLIYdI1QMGRoy4pqmC+UOLrUEEIiMe5lTZpbzHBnek8TyStn6ZIKxxa1lGhilffMmTNsfHojq1at5tFHH+VP//RP6ezqoqqqiqKiIlRV5eKLV/Dgg9/ly1/+Mv39A/T29tHe3k5hYSHXXnsd+fl5PPzwD1m/fj0zZ87k4MGDxGJRJiYmuO222/jRj37E6tWrefHFzaxbv46mpiaGh4cpKCjg9W2v8+lPf5qNG59m3rx53HTTTTz++OMsWbKEZ555httvv51IJEIgEKCzs5OtW7fS0NDAM888w4YNG3jttdfo6upCUVQ2bNjAU089xTXXXMPu3bspKytj165dLFiwgFnV1fT393PrR26lpKQYCbz2+mscPXaMz957Lx2dHQhF4fVt27j33s/x5pu70DSdnb/dyfLly4nF44yNj/Oe976XXbt3s3LVKgKBAO3t7WzevJl7772XAwcOoCgKjY2NnDx5kjtuv4PSslJj/WcKg8TH+YXf3O8iCMOE3d7WjpQQiYQJBAKMjo4ikay9Yi0SSSgUprCwAE0z7q7WNI3+gX6qqmZw+vRpjh4/xqxZs6ioqCAQCFBaWkp7eztlZWXUzK5haGiIwsJC3vve9zIyMkJ+fj4F+QUgQDXpbF9fPwsXLKCvr4+hoSFqa2uJhMOoisKON95gYmKCmupqjh09ztGjR6ipqaGwoIDh4WFuuP56xsfGCKgqxUXF9PX109DQQGFhIStWrCASjlBUXEQwaFjgJiYm6ezqYvbs2fT29nL99dfT19dHYWEhBQUFqKpKX18fxcXFXH/99RQVFdHV1UVZWRnl5eXEYjGqqqpQFEFXVxd79uxl1qxZlJSUsK+piWX19ay4eAWnz5whnohTNWMG+fn5hMNhI5+iIsrLy5k9Zw4lpaV0dHZQVTUj48Yu6xLOAOkyAAAgAElEQVQSy2uktTktriV4+umneeSRR5g5cya3fPgWqqur2bFjB89uepbq6moWLVpkWG9dzNvC8WlZZJ9//nl27doFwLHjxzh08BD79u1jx44dLFmyhPz8vJQHS7vgkG2ICYGqKPT19/ONb3zDYp0y+V8AJ49Ltm09jJ7IQ0VHEUryQvq4HqesPI8Fi2YSDkUYH4vS0nKE6ISKAFQ1gI5CQo+jiCq2vLiX3//g4iyX/Rhrtdbl4UhJcXExS5YsofnAAaLRKNXV1Rw7dgxVDbBw4ULq6+tRVZU9e/Zw660f4Y03drBx40ZWr17N4OAgBQUFVFRWUFxUTHt7O/X19SxYsICFCxeSvLje2vQlBKFQiHm185g3bx79/QO8//0bqKurY8uWLUQiET71F5/ixRdepKmpiVtvvRVN00gk4syaNYuJiXFisRh5eXkMDw+zYsUKGhsbWbhwIcXFxVx77bU8/vjjCCH40Ic+REdHBxWVlcyYNRNNGlfD9Q8MUDtvHosXX8SChQvZuXMnc2trmbegjsVLl9DZ3UVC07ho8WKi8RixaJR5dXW0njpFMGisWU1OTlJcXExdXR1Lly7lzJkzlJaWEsmLUF5enhobPsfw4eOckFqnlSQSCcbHJ4jFYgQDQVNRESS0hLGGLAytSygKEphTO5doNMrw6AjVNTUgIBwOMzExYTDrslIqyisIh8K0t7cnr0QEzDwCRh7SMN32njnDvr17ueaaa2hv7+DMmdMUFhZy2Zo1NDc309newby5c6mbfw2HDx9G6jq6ppOIx0k5WTD25YRDYVRFNXYZmYKFbu6HCYVCxGIxdF0nEAiQn5+Poiq0tbVRXl5GVVUVvb29JBJxpJQMDw8hTVpeXFyMqqpIKenu6SEWi7Nu3Tra2k4Zy4CKQjQWQw0E0KUknkjQa659z54zhyNHjlA1YwZlZWUcOHCAvPx81EAgZXK2NuuSYq7WHjgwDMORcIjbb7+dgoICxsbGKCstIxQMMTg0yF0fu4tVq1YhhDDqa7a3NDm814UfioBbb72VgYEBampq+PBHPozAOB31y1/+kpdffplbbvmQmVZmOnY4PcXpQFlZGZ/4xCfsvFMkteA33zjG0EAcqQfQdB0hJEFFIuUgs+bG+NyX3s+tt13KZVcX8LFPrOGe/7WBcESAkOhawrgvmjBSz+PE8T4ONGvGKS5NI9OIkNqwkNxfYJrbE4kEuq4Tj8cRQjBv3jzGxsb49re/zfe//33q6+vZvPklfvOb31BUVEhxcTFXXnklTU1NbN+2nXg8Tn19Pc8//zzf+ta32L9/P6FQiILCAv7v//2/7NixE0VRmJycTG55X79+PT/4wQ/4xje+kcz/33/67wwPD1FSUsLs2bPRpc573/s+tm3bxj33/AktLS3ccsstXHLJJTzxxBN8+9vfprm5GUVRWLJkCa2traxYsYKCggIikQidnZ1s2vQsjz76KE8//TQNDQ3s3r2bB/75X3jggW8xb948Tp48yYMPPsj27du59NJLCYfDSQKgKCq6NExee/fu5cEHH6Sy0lgb++Y3v8mzzz5LOBymsLCQ0ZFRtmzZkur9ZKM7Pp0j24cPH66QumR2zWzmzJ5Df39/UgOumlFFOBKmvKKcwYFBDh48mGSywWCQmpoahBD09PRw8cUXE4mE0XVJJGII0qtWrWJocIg9e/YkacX27dsJBAJ0d3dz/PiJJK0MRyJUVlbS3tbO+Pg4mzdvpqyslCuuuIKysjK2b38DXZcsWbKEsfExtm/bTmVFJQE1wPDwMDt27CAYCBKJRDh58iSlZaUEgkEqKioIhUKUlJYwOjJKa2srUpMEVJWqqiqGhoaYN28eUkpqqmuYP38+Z8700t/fT11dHUVFxWzbtg0QLFy4kK6uLo4cPUI4HEZVBDOqZtDT08Obb75JdXU1uoSGhgY6OzvYsWMHM2fOpK6ujtmzZzM2PsbJkyepmlHF6OgoTU1NlJWVcfDgQcrLywkG1NQxL9KZnP23hWAwwPr16xkYGOBnP/sZmzZtYnxsnCVLlhAMBo2d1KqSxoQVL8Zq0slIJMKf/dmf0djYmFT8AqpCVVUVExMTWXWibO8UjDXpTZs2WRdsaICaJNJf/8Lz7Hqjh0Q0QlAJoYgECpDgDB//xM3UN8zi/q9/n+GhcRYsnMd9X/sQP/nhIV56/k0EYZCgSVBVFV3pZ/37FvLp/3OtmUUCIQwFXpcSIQxpTmCszQaCAeNcdCho7gKUKEJJbnaIRqNMTk4SiUTIy8tD0zQGBwcJh8OEQiFUVWVoaIhgMEhRUSFdXd309fVRU1PDX/7lX3L//fdTU1PD4OAgJSUlSakJMNZD4sZaTzQWpay0DCEEk9FJRkdGKSgooCA/j5Otp/jKV76CUAShYIh//Md/pLi4mLa2Nvr7+6muruaf//mf+dSnPkVhUSH/8Pf/wGc+8xmqqqpQFUEskUCau9d0qZMXDjM+MUk8HiMcDhMOh5mcjDIyMkxxcQmRcIiJyUkURU1KY4GAyuRklEAgkJTSdu/ezeLFi3nhhRcoLCxkw4YNJBIJpJTGxjHvRZbU0RBE8li7j/MD33jx7oPuOHHhRCKuMRmLJjdXabphkVREamd2MJDaOJqxwVVYJ0YMzT0ajSKEIBIKGYEsjVF3HMfUM9/p5uYtoQjGR8c5fOQwS5cuNXZPW7B2Pyd0lIBiHPuUtuNQEhKaRv/AADPMzXKanjququupzbu6uW4fcGkfrxU3Y6MunidVLExGYwwPD1NaWkooGEg7CuuF5JlzXfLKK6/wwx/+kJtuuom2tjbeeOMNvvTlL7GicUVy/djenLlWCDWz3vZyJBIaJ06cYGRkhJUrLzXGirm2a98tb8WxkKZJS4hGo/zTP/2TdU7aXJOWgA5/dtsjdLfpyEQ+qlBRhWZs6ReD/P4tV7Hh95bw4PeepLmpDV0L0NhQT//pcTrbBlAJgZRIoaLrOlIdYWat5Hs/uRtCJpM2reyGgVtHse9y9mpo3Hew2xVCi/FByvNOZ1c3P/7xjxkeHmbVqlXcdNNNRMIhzwa34iW01CCzN6Z9q34sFgckoVAIXZccP36cH//4x0gpueyyy1ixYgUPPfQQV155Jb/3e/8j6ZTFWS/rLKH94L/z7lFwd5Ki6TqqojA6Ps5/PvGfHDhwgJqaGu66664kgUgeO3PuiHCMPKn7TPqtgM+k32WwLE52HmS/3Uqam2JtxNhOqywinDa/nQFkaikQUnQnl6CdkY4TeuZza2d6BsN31FnaXtlJiXO5VTrfWxZSW/Esk67dCVjSlaktQlr1HCZhr93TbrTLOqL7m62vMXPmTBZdtIh4LE5zczOVlZXMq52LLo3jYBYPyAU3Z1hW39ppNZbvDUe/ZGPSdgipSYmSAAJJJv1H/+P7TI4VosdCBJQgikggpESqMUIFUT7/1btpvAROnoAXnz/IS89vY2IkgEoYNIkqFIQSRJMSXRlDU7t48vnPo0RAl3EUEbQ1prU+rCBN6U1RRfJcnMvYzRjk9k9nGMtDjjTXfxVFSXtmP2hvv2bNLsU631tlsTP1WCJBQA0k03ZKdprJ9O0Sl72M1pEvC7qup22KsM4SWoKDXYLz4r3WcQhVVQxJ18xU1/SUxGqrkNTMMvhM+rzCZ9LvQtg5jdXBNmLlXB+1v7Y+0wRxW1w7887YwGT3VujFpXKVGZJntjMK5SyoA0664yYzWIqBXcN0q4s9jlU8bOGdcSxnU5B+vDUXrbLiWcdTgaQFwFKcjHIatbI7XsnWxMmrPW1hrXpr1lE0NbWZOkM48qirwDgnb5ngA6nHqd4PBBSk1FBVy1kJCAV0XWVyPMLf/c0vWLK8gktXzeX9Ny5j1cqF/NsDv2CoP4GqhlCkdSY5iI5CJC8PXQdFgkjTmk1x1CqcQkpytJ01s3sCk/aBZmN21saB9M4xXb0JixmJNE8uOiJtIqVtOpAyTZO2GjE5wTB3+JkdFQwEkmHt18ZZfWg3q9vLLqU0vLE5JFiLQad3orCVxTYBrHI5hAMrT4HjzLbdDGUSGWld1H0Wt5D68PG7iAzN08bk0imqLYjExhDI4OR2hcMJgSNBZ5gpMO2kcxUbo0/Ww03it6UthUHzMulsZpks+iTMZwYNz6yXNNN1o1/OqlnEV5g7q50MPFmELG2Q5CEYDDWQZtnM9KSWDU6aLTCct4CxAz+tL7wEFOEeRFVNS7QQKEanK2lBKisLkXrMkALMNY1YIgpqlBvet5qly8rY+2Y7D3//Nb7xN48yf36I97x3DYoSM7zOBMJIEUfTEwihUVs7g4B5VloI91HmJg0lBVSTySbHj8WchaGhxuKJZHjL4m0wXZFmhrGYeULTDS1YpDeMvaMDqoIujbBOiTEtTWvLvuO5VW5pi+sq8TkGmuWBzRrUdlhauzGgZUpCtdXbMMHb13jsFbR9JiUNIwFj4vo6nw8fU4JIKRT2Z/ZHbjTampOGhU4kaVLyj5Q3KyftmkqZcpbZ5WyRsDJMZwPphXC+swVRHOW36gQOBcelbUzDXXq9XdJTkumKtPTt+dnzcNJhS0lJhsV4Zm9fe7ufNabVYd5QVcWw+ioCw/5qyTxmCRctmk04FEDTomjEkIqKIICC5OIVF3Hrre+lukaSnzfOjIpCwkGYGNfQdRVFCaBJjbiuk9AT6CLGikuXGDk7mI6wnpl/aUxJmowGG1Mis/N0Xae5uTkZzXL9aXWGbmNkVnqKorBv3z5jg4MtTzvTlkB7ezu9vb3JeFKmCwFgmcxTaWimq04n47YPHmPXoNXqIpmvYk58oYhkGGGFtTVOwnKmb8tXEYY3nwMHDhjvzZd2ISFlgZBpo1HXZGo937dz+/CRHdakmgIhdhPQ7fQgmZyLUJ727iyL6lkIO2Fwq4ebcO8R1NVMbXtmr5udvkonLcW9LdKK6ihAGn1j6kzWxVBgmKtliobr8jy0/RTh1vcWAhk2FAEXX3oRm58/gCSALgVChFEFKFLjB///j/js5+/ib//2Y0yMQzgIv90+yvObdiJkHiCIawmEGkRVJDIQ43/cdImn0/akxKVLRkdGmZicoLKyEk3XGRgYoKCwkGAwyOTkJEDyyFRRURHhUBBVVenq6qJj5kxCoRCVlRX09/chJZSWlpBIaAwPD6MoClVVlQwMDjEyMsLp06eZnJxkZGSEwsLC5DGskpISdDPv3t5e8vLyKCoqore3l4qKCgoK8q1mIhZPMDQ0BEBJSQlSSkKhIPF4gkAgwMjoGPF4nHAkjEAQiUSIxeOGj9rR0eQxi5GxcSYmJigrK0NiuB5NmGvoIyMjBINBY31CUQiYZvWR4RE0LUEwGCIQCDAxMUEoFGLpUkMg6uvrQwhBWVkZY+PjAOSFwwSCAcM6ohl7AZKbU4RiMGoJuDm49+HDRzpyTBOnCdaTDkvXr2lp5NrBnBXnSbuzw1pmy8ZcBJkM1DUdMtPKtVs79V2a4R1Ll844LmXzCmuV5azb+yzhlJms/E2PY+khSwqKePXV/UyMC1QlD6EHCQiJlArRaIAd2w+xb087B5rPsPmFY7z04kGiY0FUJYCUmrEJTAo0OcrKNXPZ8IFFiDAurWG0hK7B/uZmDh8+jKIoxvlCXWdkdJTXX3+dYDDAttdfp6a6mo7ODsbGxti8eTPLltWjaRrbt2+nrKyM1157jZqa2Zw82Up3dzdjo2Ps2bOb8fEJjh49SjAYYtu215NnlUdGhmlqambevFpOnjzJmTNn6Ojo4PDhwyQSCdPdZxFvvvkm4XCYpqYm5tXWGseegFOnTrFr15sAHDt2jL6+PmbMmMGhQ4eQUnLgwAGEEDQ1NTE0NEReXh67du3i+PHjqKrK8ePHGR4eZtu2bZSUlABw5PARqqqq2L9/P2NjY7S2thKLxRgcHKS7u5twOMT+/YaTl6GhYfbs2cPw8DA9PT1EIhG2bn2NaDTKyPAwAwMDtJ46xcmTJwkGAgQCgaSrwtHRMZ544glefnkL+/bto7i4mMqqyrSNZD7OD/ymfJdhquqaw2ybEV3YPkV2puBMY1pwUn/7by+N2uW7nekmyYSz7M5yerQBpKyJaek5C+6xZJnKU6Rt7nUrvvOZWzi7xVOxpfcWyDeecFmJALDM3SZMsaJkJtx2xw3kFUwiZRxhihVSShSpEh0NcPTgALt2nOD4kdPEJgyTr64nEEh0PY5knGB4mA/esh4lz1kc3Vo0NvvBSH9u7Vzq6+uJxWKc7jnNlpe2cHD/fhLxBAsXLGDmjBm0nmjllS1bONXaCrqOKgRzampoXN5AfiSCFo/zwnPP8Z+PP05/Xz+F+QU0Ll9O9cxZtJ86xYK6BVx68cXMrq4mFAix8pJLKMwv5OWXXuI/H3+cjvZ2+nt7uWTFCi69+GJi0Sh7du1if1MT6DqKMJzoY+6WvmjRRdTV1jI0MIAWj2PZ0EeGhmlrbeVISwuRUJjS4mJaT5wgoCgIKWmor2fRggUEFIVlS5ayY/sbdHd1IaSRrioEs6ur6TvTy749e4hHY4a3oISGrml0tLWxZfNmTp08STgUoqF+OaXFxSRicRKxOJdcfDF18+qITUYpKylhy0svcebMmWQ/50UiLFu2lP3N+xEI5tXOS44MIYwuSjPX+39n/efjXYZc9k+baTeDwdiCZTAIl7/kstfZ2lzdTNxehZgCcpXVmYww83Vmac82bU1aGL8VSN1W6FVE+5Kii6ndbR6ezXx8q+awW9u5lTfgGluB626aw5HDjTz7VDNShIhLDYEgoBpHtRQ9D01qIHRQ4ihCGtv6VQWpJQiFJrnznt9nxao8F5uCufMtafI2Xm7bto2DBw9SVVXF8PAwtbVzDXOGNEzAsViMvr5e6urmc+zYMYQQBAIBrCsgASbGJ6ieVc3MmTMJmm7mFEUFKZk/fwFbtmzh4EHDt3VdXR1Sl0xMjFNcXMyMGTMpKS6hpKSYxx77OdFolGuuuZqGhkZ0XSMvkkdHRweqolJbV2u4zosnDFd6wvAE9tymTYyNj/Ge97yHyopKhKJQWVlBTU0NTz/9NBs2bODo0aNs3LiRWCzGmjVrkhd/jI+OMTwyzObNm5Om6mAwSH5+PqFQiDff/C2tJ09SWlrG6OgoC+YvoLe3F13TzI5WCIdCFBTk8+STT6IoKitWrOD48WPUzq0lGo0aO74FBEIBVqxYwde+9jUqqyoJh8PpA8jnLj58XDg4n/PRuUb9Fs/1bMmLbAFylc9FKHg3wnRm4nysg6YwOQj/9M2NNL3Zz8SYQBV5qEJBVRKghdHRkUoCKTTTsbkgoUUJhif5/Q9dzp1/cjHkgR7TEQHb7mHnQoWEpn1N5OfnU1s7l6DpbCQ2GSMYCmZ41NF1m7cfgSEc2I4UTE5OJtdw7XGlZqzzarqWdBwPxvpDLBpFURWCgaBxy0zcOKeGMJjfZHSScCjMzt/upKGhgfz8/OQIkbrhwzcYChKLGvGsC95jsRghy3mKJHkFXNw8B2fVIRFLEAgFjLPiesrrTyyeip/0KyusPA1XphnHJzA2gxlehozvsViMUMi4/zZ55MLuncjcsZGW1u/CDPDhw4ePCxhpTFpiHGkSImE6vgiij8Lm59p56N82EZvMB6kiSKASQZhEPYGOHtDQxCRllYLP3vtRGlaFCVhm7rTDvKap29KmBaDD+NgYqqoSjkRSbmjsTMKxWcDOTKydyWkM2c64nXCR0HT7PajmmWGBeSWZdWbbtknBHl/aHZFYm7HsCy6OvIwMHfXw2FiXZKSW5cERRpKlnm7pYQgrCLyPXL1NErYPHz58+MgO03e3DVIDoZk/giANJtLfAb/6+Ws07+thqA9Gh+JoeohASCGvIErVLJ2Va+Zx0wfXUjLTLSuZ+pPmSoTFBOz+4YQjuHNRwr7Rwel5R5L0Imb/BA+G5Lq1z/bO/ulklM542dLyqp+dyTvL5/SZ58akcbxzCjXZyuvDhw8fPi54ZDBpad4RbVD3IJoGimouzMdgfNT4i05CXJMEAoJIBAoLIVKEwQxU89PaIGaphElG4TgZr8nUyrnd8anLprb00rvUyMmcphPWjfFC6uIJpwnYXiane6EsaSavLUsKFh5rwG4CgguTdxVo3PKeKnzG7sOHDx8XBNKYdIrOp6i0Qf91FKmkzK8ASvJLJjNVUj+kbjn7sHMiB7fLxRSymY29wmZjahacfnfd8rIzwGzlzCUYuGnBDu3fS0hwTdOtPtm0eXt62drZ1759+PDh44JB2u7uJE3WRRqjTWqRyYAS43pLTDVQ9SDsIsWgs+1EEo51XTumyzDsjMppKnfJ1/k8uSnNyZyzMcdseXi9sx8Z8Fob9liHzopcFoSplNFnzj58+PBxQSBzTRrSNiuZm34zL16xM68pMVKXQLb4aTu2vdZX3ZKcCvP0KsZ04rwVGuZ0080WzoN5Z5jSfQbsw4cPH/9t4H5O2loSNpmI100d2R9OAdZ6rEKmFj1VRp1Mx6GJOxmaU5mXqXjgrs0mN3Q5mVwuM7TzeQ7TtP2KNLf3GXm4wUsZP5u+8c3dPnz48HFBIMmkM+iyIIuXG4t7TycrFwZqPdVtTNLtfjdH1m5a99Su6XYkJSXC6afaYvjmrVBpx7tcTN9JM72XOd36tO0Wl6QLFBkCiu4Sz8tiIB2fXnAKKF5hfPjw4cPHBQOhu5i7RVYz8FTUrCxhnExF1yGgpL+376p28zVnBXU5H+11CXsy7bO5MD0Xo8wlWNjTsRdV09PvdvZKL4cVISeDhqxbAnz48OHDx4WJrObutxTJc8PGwvdg/wCPPvIIuq5TVFTEH9x8MyVlpcmyxKIxhodH6OvtpbqmmuKS4pTXLLd0SX22trZSUlJCaWlpkuEltXEdRkZG+OWvfommadx8881UzahKi3/mzBlCoVDyEgyAyfFJunu6mTdvXpojk6xr56bQIKWkr68PVVEpKyszwtjjWUYCLYuWbmGqfZVLi55uej58+PDh4y2HO5POiqlQ8SxhnOu7JpPu7e2lfvly1l97rcGkLOZrMpWuzi7aO9q56uqr0piwrutJk7OiKMRiMQKBgOE5TEo0TePw4cMsWrSI0tJSNE1DVVXDvSYwMjrCV776Ff76r/8aXdN5euPT3H7H7UhNout6Mu/KqkpKSkuMyzUQTEYnOXL4CHPmzDF8g5sF0jWdQMjwb55IaEipEwwF09a3pS45c+YMAkFZRVnSXanhshMwr6kUCDRdR3XTtqfbJWcT1ocPHz58vKNwN3e/XbnbdpEfPtjCdx98kJqaGqpmzOC2227jsV/8nPHxCS699FK6u7ro6uqioqKCuro6fvX4r6itrWViYgJVVVm8eDErVqxg84ub6ezqYvXq1YyPjdHV3UVPTw+33vqHbHr2WSJ5EaKTUe66+y5KSks4cvgIPT09XH3N1UaZpHEF5S9/8UsKCguor6+noqKCosIiWk+1cvjwYcbGxrn11lt57LFHyc/Pp7i4mHXr1vHII49QXFzM0qVLicVitLQc5j033MDuPbvp6e7hsssvJxQKsWPHG0gJV115JUeOHuHM6TMEg0E+/JEP86tf/YoZVTPYcOMG07e3uaHMZ64+fPjw8TsH9WvO+6R5O5m0cT4oEYszNDjI7Dlz+J933MalF1+CqqocO36MB//t3yivKOeaa66hoKCAsfFxCosKKSoq4tprr+XkyZN89A8/SnNzM6tXr+YnP/kJmzY9R339MoYGh7j77ruJx+IUFRUyNDTEPffcQ2dXJ+FwmKqqKqLRKC0th1m2bBlIOH7iOLquU1dXx5VXXsm2bduonlVNOBJmaGiIBx54gKHBId7//vehCIWPfOQjdHZ0Eo6Eqaur49prr6W5uZmysjLWrr2Cqqoq/v2n/87G/9pIw/IGtESCDRtupLy8DE3T0HWdD33oQ4xPjCN1SV4kj/dteJ9xs5biM2gfPnz4+F3GWZi7zxH2TVjmhi9VVVFVlUceeYQXXniBSDjM3R+/m1gsxg3vuYFwOIzUJa+8+gqLFi1CEYp50bdxt7NQFFRVZfv2N4iEI9x2220EA0Fm1VXzlS9/BQTceefHmJiY5K/+6v8wc8YMNmzYAMCsmbOIRCJ8/etfJ5FIcPXVV9PQ0MCPf/xjVFU1wplrybt37+a6666jqmoGmqaz/Y03eOXVV7n88suorKzku9/9LomExo03bkAIga7rnDp1irz8PH7/pt8nHAlTM7uGf/nnf0ZRFW76wE2MjY5x3/33U109i9tvv53TZ84QnYiy/8B+Vq5aaTSZ5rIL3YcPHz58vOvx9pu7vTZ+J3RQbfdMm2G0hIYaUHM6/pCa7ZIK4Xjmdf7YLS23yzCc5bcdxcp225bUSfeEasaXuo3p2o58JYuQ0Nm7dy+NK1YQCKr48OHDh4/fTbzza9J2hmjflS0luvM8sXluOf1KStvdyIrjGcZdyoqdUVt5eTFje1m8vJnaW0w4BAT7MS+rLCI9f8uBi5YwNrGlweuYlw8fPnz4+J3DO8uk3bxz2R15eGmykF07dnP24YwzlbSmmn4aA3bxQZ7tjLOLVi8144eVVraz4j58+PDh492Lt39N2g47g5oqw7SFcT1H7Ayf64zxVByBQErztpm63dJLXkbixeyzlcX6qgjfNacPHz58+HDXpJMv365STJch2UzSaeu5ThP1WZiMPdeYz8ZDGTniZFv3dsJn1j58+PDxO4d3VpO2cA4MKONijHM8suR5IcW5OgxxE0R8xuvDhw8fPrLgwmDS04Vzx7Tzudfv6aR9vjEdTdxn3j58+PDhg6ldC+HDhw8fPnz4eAfgM2kfPnz48OHjAoXPpH348OHDh48LFD6T9uHDhw8fPi5Q+Ezahw8fPnz4uEDhM2k77E5V3kl4leNCKNt08N+tvNnwbqrL+YJ0fP/v0Eb/Hcrow4cNFzaTns7EP1cioRt+tt+ySWx5K3PCmcxdZJwAACAASURBVJ8OiYT2FhXiHYDOO08YzwMDyeLz58LGdDzqTTPd89om/x0Zvg8fbwPeXiYt8ZyAUpfp4SDdc5j9ucv3NIKRbYK7pWUSqLfjOsikIGD3jmZ9N12PqqqCprkwaq/6O37L6RDcXG3rFsWsg9QyhZrkO12CAF3q6T7ZnXlPVwjTU7+TY8aejjNNK4hjfOQUyBzpCCGy52M91jMf2vs81T4u+aWVL/v7ZL10mdm29vdSus8t53fF9syrrzDe6ZputKe9DM656hLfrW28+svKK31cT5NzO/orWU63fH34uEDx9roFzXF5RjwWN75ICIaDye/JOFNxCGIPY/suNYk0E9N16X4FpARN01CEgkQm76w+Lw1hEgnhdiOX9V1iEEu3djIFkUQiQTAUzEzeJP5CFVNrJ1u5phTW7dYwZ1zHbztRdW1He9/aoCV0jKvCjDQCwQC6rqOoCvFoHF3XEYpCQFVRAgqJeAIARTHMFYrZBvF4HEVREEIBKdF0zUgvEEAJKIbVQkugKAqKavyOJ+IIBBJJMBA0imiWRdf1ZB9at5cZVg9jrKiqmhyniUQCgUCXevL+c03XkpevBIKGH6FYNIaiqAQCRnpSSrPcxh3rQhj1kBICARVFUdA0HSl1EomEcRe7YsZFomk6ihAEQgHQIRaPEQqGDGEJjHq6tf9Ux4FHnyfimlEHj7FtjQW7IJx2Da0lx0jd6EdB6qpXYQgGaeX3GDvTgu3mPB8+LlS8cx7HbJNMapITJ0/w8EMPs2DBAiYnJ7nhPTewdNnSZBhnPE3TUa37p63n9nA6acTnVNspOjs7mZiY4Kqrrk4SQIsAKKpCU1MTeZE8Fi5cyPbt20kkEqxbvy6ZhkVUPK/LNMuR4U/cqqpJoKUO4+NjPP744/zxH/2xQVBt9ZNS0nqqlTlz5iSJOUBbWxvPPPMMH7z5g8ysnmlU0yx7kgla9Xa0cVrTu/gnl5pMMnhd0w0mZoeAocEh9uzZy/r16zLrbtXb1DiHh4bZs3dPWvtZZU3POD2PeDTOo489yvbt22lsbGRoaJg777yDF198kcbGFfzmN69y5kwvc2bPprOrkw9+8IM8/dTTJLQE8+fPZ9HCRdQvr+eXv/wVk5OTTExMsHDhAurm1bFp0yYOHjrELbd8iJWXruTJXz9JQX4B4+PjzJ4zh8bGBv71X/+VhQsXoSiCSCSPj3/8bgLBAG9sf4OHH36YlStXcrrnNOuvXU80GmXjxo00NDRQUV7B+97/foqKCunv7+e5557jpZde4qKLLmLNmjW89NJLBAIB5s6dS0NDA5deupKXXtrM1q1bKSws5I477uDo0aNs2bKFqqoZTEyMc+ONN3LixEk2b36RJUuW0NnZydVXX03bqTZ27NzBpZdcytzaudTX1/Od73yHOXPmIgQIoXDllWv5zau/4c6P3UlzczMPP/wwa9deycfvvptQJAQS9u7dSyQS4aKLFqOoqWtgDX7uuALW7N+2tnYqysspKCpgYnyCba9v47LLLqOwuJAM2C+lwSZASmhqbmJiYoI1a9YkBVdjOqaYsDU/kdDV2UVhURElxcWGAK2I1Hgy09Rl+viyxvQb296goLCQ5cvr0+elcPn04eMCg/q1++67z+vleR+zbpqUMCb/wMAAZeXl3PLhW1gwfwG/ffO3hMMR/uijf8SLL77IDTfcwE9/+lP+/JN/TjQWY83q1dz5sTt54IEHWLhgEYcPt/AXf/EXVFVW8c1vfpPunm5eeeUVPvOZz1BRXsmsWTMZHRklEU9QVzeP++67jy9/+cvMnTOX+QvmI1A4ffo042PjhCNhjh8/jhCCnTt2snDhQl77zWvEojH+/af/znf+9Tv0nunj4Ycf5sjhIzQ0NPAn9/wJ//gP/0h1TTWDg4N86Utf4p/+6VusWrWK1tZT3HzzH3Dw0EGuvfZagqEA8Vic/fv3U1hUyM0338yOHTt47/veSyAYQErJjh07QMIXv/glHvjWt1i4cCHPPvssL295mSVLl/DJ//VJnn/uedZesZZHHnmEr371qwgh+OGPfsgTTzxBT08P3/ve97j++uvZ+NRG7rzzTg4eOMi6detQVZXRkVG++tWv8oMf/IDoZJSEliAYCNLR0UFbWxs9PT188IMfpOVQC9dfdwOKUJicjNLZ0UEsHufjH7+bX/3qcVatWkV5RTmTk5P8/LGfc/9997Nr1y5WrVrFwMAAQTXIn/6vP+W73/0utbW1PPnkr/nUn/85r778KtWzqvnMZz/Dj370I5YtXUZNTQ26rtPS0sKcOXO46667GRkepru7m/HxcWpqZtPR0UH9snrWrl3LwYMHqa6u5kzvGdZesZb1669lbm0thw4eYnR0hHvuuYerr7mK+vp6aubUUFlZyejoCB/9w4+ydetWInl53HnnndTU1PDspmepqqyiq6uLmz94MxXlFRw/fozLL7scNaDS0dbB6Mgon/zkJykrK6OlpYWioiIEgttuu42LFl9EYWEhCMjLz2Ne7TxGRka4/rrrWbx4Cfv3N3Pl2itZt34dNTU1BAIBdu3aTUFBAXfccSehUIinfv0UH7vrY6xbt454PM6BAwcoKyslEonwgQ98gO7uboQQxOJxysvL+NAtH2LhwoUAtBxq4QM3fYA5s+ewr2kfdXV1tLW3cdGii9jy0haWLF1KT083C+YvoLSklISWoLOjk4ceeohvf/vbNC5v5Lc7f8tdd93F3r17Wb9+PaFQiMnJKH/3zb/ji1/8IiUlJSQSCaSUPPbYY3zrW9+irLSMqhkz+MLnP8+Pf/xj5s+fT03NbIQCmzY9xyc/+Un27NlL7bxa7vvqffz0pz/l4hUXk4gnSGgJnnnmGT73uc9RkF/A7JrZfONvv8Hf//0/sGjhIpqbm7nrrrsYGhwCIQgFg2zevJnP3fs5uru7mTljJt/59nf44he/yOTEJKVlpdz72Xt58N8eZN68eYyMjvCFz3+Bo0eOsnTZUra8tIVPf/rTtBxqYeHCRbzwwvNUz6omLz/PZ9A+Lli8vUzaLXFhXJLR19vP6MgIdQvqGBsb41TrKU6cOGGYDYVAURSKCosIR8KsWrWSObPnMD4xQSgUori4mIryCv74f/5PysvLaGho4Morr2R0dJRvfvObbN78ItXV1cRiMeKJBCUlpQD8/d//PXv27GF543KQ0N7Wzs7f/paurk727z/AnDlziEVjzF8wn87OTvLz8zlx4gRf+Ksv8Oyzz/L5z3+evXv3cekll1BQUICma4yPj1NbO4/Gxkbuuutj7N2zl9NnTvN33/w7ZlXP4tix48yfP59EIkHTviZOtrYSDoUAGB4eZkXjCoQiOHHsBGXlZSxatIhPfOIT9Pf1c80117Bq1SpisTh33nkna69cS3NzMzNmzOAv//IvGRsb48Ybb6SyspLFFy1mydIlhMNhSstKGR0ZJRqLsnrVaopLimlpaWHx4sX88R//Me3t7ZSWllFUVMT4+DgTExPs2LGDwqJCYrEYsViMZcuWEY8n6OzsYMH8+YyMjqDrOrW1tdTOqyWRSNDT08On/uJTVFXNYHLC0GJr59USjcZQhGDWrFl89A//kPrl9Xzgpg8we/bs5NJCSUkJS5cuRUtoHNh/AKEIGhsbOXHiBNFolGg0yswZMzh27Bitp1rZ+F8bmTdvHtdedy07duygs7OTwYEBFEUhHo/T29fLiotXGNqUqT11dnZy+PBh1qxZw9EjRxECljcuZ3R0jH379lJXV0dTcxMnTpzg2Wee5Y4776Bmdg0AXV1dnDx5kiuuuILBoSE6OjrIz8/nzV1vEp2M0numl5rZNYblQ0IsFqO5uZm5c+dSUlrCa6+9RndXNwODgwRUlerqaurq6hjo7+eRRx8lFAzR199PY0MjRSVFnDhxgtHRUUKhELt372bHGzsYGh7i9tvvoKXlEM3NzcRiMSbGJygpLuGVV1+lo6ODJ598ko9+9KNUVlZy9OhRqiqreHrj07S1tdHe3sbc2loWLV6Eoip0d3dzySWXcPPNNzM8PEx1TTVCKExOTtDY2EhpaSmJeIJTbacoLStl9erVxGJxenvPUFFRwT333MPw8DCjo6Ncfvnl/NFH/4hjx44xv64OEJw+3YOmaTQsX05//wCHDh2krKyMntM9VFVV0dfXx65du5gzew5d3V2EQiEWLljIpz/zaTRNo6enhy984QvMnz+fM6dPo0udiYkJPnvvZxkdNcZzZWUln/70p5mMRpk9uwZVVZmcnKSktIThoWFu/cNbqa6uJhKJMGvWLBLxBCOjI1xxxRVcdfVV5OXlpa+l+8zaxwWGt9/c7TEJ4vEYPad7ONV6ipaWw8ytncvkxCTLli1j5syZlJWXEY3GuOTSS9i6dSvt7e3Uzp3LZWvWcPzEcRRVIRBQ0XVBOBxGEQptbW20trai6zp5kTxGRkaQUkfXNTo6Ojh+/ERyggphrBO+5z3vYdFFC9n2+jbGx8cZHRul5VALx48dZ8aMGZSXlxMKhijIL6CgoIC8vAjHjx8nPz+fu+66ixdeeAFd06goryAcDhMIBhgcGqLlcAs9PT3U1dWBwFiHDAaYNWsWl192GeXl5ZSVlyXN/7qUKEIhPy+fYDCYNONZa5YnTp5A13XKK8qJRqMoioKqqkQiEQKBAJWVlYxPjKNpGi0th/nEn36C1197HV031vby8/Pp7u4mEo4Qi8WJx2McPXKUsfExKioquOiii7juuusoKS2hpKTENPcn0HWdw0cOc9VVV9HY2Eg4HE724ejYKEePHKWnp5tly5bR39/P0aPHWLhwIcvr6xkcGuSll14iGAoSDkc4dKiFhYsWsnjJYrq7u41NTlKi6zr9A/0cOXyEtrY2rrvuOl5//XWEIigoKGDlypVUVFTwL//ybdatW08wGGLZ0qWsuHgFkXCE0bFRfvbIz1i8eDEnjp9gcGiQj3/840lTfigUYs1ll/HrXz/J8WMnaGpqIhQKU1VVRXFxMXfffTc7d+xk69atNDQ0oKgKiUSC0dFRTp48SXNzExUVFQihMHv2HNZctoZQKGRbzpBIaaxhW+vYgUCQhoYGVly8gqKiImKxOL/+9a+pqalhwYL5BAIBFi1axDPPPsPq1avZvXs3a9eupbe3l/r6em7ccCPf+/732LXrTaSULF26lLVr11JQUICu61RUVPDR/8fee4fHcVzp3r+q7hkAM8iZCASYc45KVqQkUsGirGBpHa7XcR21vvbuvevdz/utLHvX93u+XXtt2VayLUu2ZFmWLVFUsEWJCaRIMYEBBAMCSUQCIAACmNRddf/onsFgOCAle03pXvWrh8KE6krdU6fOqXPe8+F7mDlzJhs2bOCmNTdh24rDjY3MmD6DL3/ly2zYsIETra1YMecc3ufz4ff7MQyTaCzKqVNt3L52LYcPH048Jz6/n5tvvpne3l7q6+spLiomOzubrq5u2traiEajGIZBW1sbWmsCgQCGaSClYP68+VRWVrF9+3a0Uqxdu5YFCxYQCAQ4deoU4XCYlStXsnjxYnJycug/08+hhgaOHjlKR2cHwyPDdHZ2cvToUcKhMAWFBZzuPk1zczPhcISSkgzy8gwyM7MwpKSx8Qi1NbVUVlYSi8WIRWN0dHRy5swZYtEYkWiEWz94K3v27HGe17NDBIPZzpLkCWcP71FcfE06nSengGAwm/a2Nrq6uikrK2XJkiWUlJRw9NhRTrWdorSklBMnT9DU1MzcuXOpqa2hubmFUDjM7FmzmDBhAnl5eQSyAuTm5pKXn0dRYRGNhxtZdf0qSkpKKCwspLSklJKSErKysjh29CiXXnYpwWAQcARXbm6uI4SDQUpKSpgyZSrHm5qYPHkykydNpqTUqWdCRQVlpWUUFxVTPbGapmZHaC5evIjKqkoK8gvIzsmhpKSEhQsXcfjwYSoqKlm4aEFi0IWFRUybOpXDhw/Tfbqb/Px8cnJy0FqTk5NNYWEhubm55GTnkJeXR0FBAbm5uVRXT+TkyRNkZGSwePFi8nLzCGYHyc7OJi83z7EsFBVRWFhIfn4+UkqOHz9GTU0NFRMqyMjMID8/n3A4QlNzE6C59NJLaW5pJpAVYNasWVRVV7Gvvp6enh6KiooIBoOYpkl+Xj4FBQW0trYSDAaZPHlyQlC0nWpjJBSiurqa2ppaCgoLKSos5FRbG1IKJk2ahEYzMjJCNBKhtraGkydPkpmZyexZs8nLz0NKSXZONlpr+vr6mDN3DlOnTKWoqIjS0jLKy8upqKigsrKKKZMnk5uXS2VlFQODg/T29hCJRJkxYzoL5i+gtbWVgoICrr/herICWWRlZlFRWcGECRPIL8ijvKychoZDFBUWcvvta8nPz6eyspKqqioqKioIBIIUFxdjmiZZmVmYpklPbw8TJkzg8suvoKiwEIC2tlMMDAxQUlJCZmYmQorERqliQgWBoPNcDQwO0t3djW3bVFVWMmFCBe3t7dTW1rJy5Upqa5wNXHt7O8uXL2f+/Pnk5+VTVVVFeXk5VVXV+P0ZTKqdRMyyOH26m9BIiLKyMqqqqygrK2Ni9UQKCgooKy+jtqaG6qoq5i+YT0lJCSUlpRQUFFBUVIQUkiz3t5Kbm0thYSGZmRkcO37MraucrMxMLMsxu7e1tbFokfNsV1ZWkZubQ1dnF1OmTmXRooWEQiEikQhLliwhK5CFtjWn2k5x7NhRqqurufTSSwmFQzQdb8Kf4XfuYUUl+Xn5HD7cSGgkxOQpkwHo7etl6dKl1NbUcvjwYaZPn87s2XOYMKGciTU1tLe1MWXqFGbOnElhofObKCgopKSkmK7uLvecfRrTZ0ynu6uLYHY2s+fMRkpJb28vkydNThxLBQJZCcc7T1B7eC/i4np3p2Icp41UR6yEh7ZytKyER2iKQ1k8xGJMjunkUBRXOx2T6lJx7kBTPKqFEKPeqeN5Zyf3w3EJHnXmOo8pLdnxKlEu7kWtSXikO5eLhNNMclvJDjZpva2TnbqSvleW4uzQWXbv3s3VV1997vhTxmXb9hgP5uTy4VCYhkMNzJo9i8yszLFjg7HznOqtm+Rsp2yVuEdK6YSndsLzPfmZcetKdno7n7f5mD69E8/eNE6JY+5Dct1COPck2Yk62RErpb74Nan9VPaol3PiGne8ylZO5MGot9XYes83trgfSJLzoLLdeU4eR4ojJDD6nIo05VLnKfU+Mc51OqlsOsfPZKRxIB3vWR3jqDhOZIVWTsTHOc6MHjy8h/DeENLjvU/+zO2lUmqsoCXp+/E6nPLdOQtgmvKWZSXOFxNtxL92zznjYUHpMMaTOc1CFa8nvqkYE0KV3JWkMJT4wqVUcphKek/y1Lbelvfqhc7l0oXsuGbdhJdtuvbHuS7+vW05oUmJOsa5LrH5iQuL5Dbii3qqkEoSXNp9I0RqvWkEZRphluzpHDcHn/McpQrIt+k1PGazFr+vOGFbUspzogngXKE5+v3YTQK4gh2R2MxopcfnBUjZUI3pozt5Sjk3REo5Gjbozn/i9+WOX5PUH51UT7xI8jOeOh9jBnbuWM/7+Xhlkp7T1A2VBw/vNbx7Qjqd2Tt1YSXlfTrt2SVrEFKMEk7ENS7Gr+cc7SAZadq4YLx0uj67dSUvOPEFKVEno1pkWiTHJ8c/UhfYZJynj/G2khfc5P7G48PjfR8j/FLHS5rP0/U9uXwc4yy258xF6gbnfAs1jLUsxNtPHsN5nqXzCtvxyp3neg1jNwTJxdMJoQsh9TeTel90Sr1vt/p0G4s40vwWEl+lEaIJ7TT+fCbPd0qfE5uN+CQlWY7GhPWNM08J4U7SfU/uc+KZSHn40myGPXh4r+Ld16TdhhLEBu7n5yxiaTozZgeeuvgm/8DPp+GNs1CP0QaSFpXzLqzJWlCyUE8nGM5jkkyr6aeaD9Npm8nvSfo8VZOFhPlfa+2YsFM3SuOMDXAsADgLXUJrSxljWrOyu1Anm4qV5Wjh426EzmddSf1snDGPmU9Xo9ZxLTD5mmQzdvJ4x9PqIO1zeU5/ksuNdx9Tx3ahzUC6zVNcEKaSzlwIaX4HSmkn5jqNWXqM9nmezemY98llL1Q+3bWpG6D4spX8TOOsBwJx/o166mcePLyH8e4aeuI/fMWo8wbOIjBqStWji1IK4gL6gjSYid22PmcxUHbSLzypT2MWcJeecFyzcrKW4DZ4Xlrj8RbQOD1pqoBPGkPa65IWKtu2zy2TrJgm1jbHvGzEWaKSucXj40nub/yvKxziZtO4gE6miYzXD5xjBXCeODE6z4Z0taBxVs0LLdjJn40z7jHHDpJz20sSimPNuYy9738qRJrX6fp7oTGmaLJp2/lTftFp2pJxy1SauhObsuTnIqWfCcGpEg/c+M9YuvlJ16+ka0Ry/9y5TPQ53cbUfXZ18hyebwwePLxH8O4K6fhCJaG1tZX//P5/umET7bz11lvurl0lFlBI+tG719uWze5duxKCPH5W6HwdV4vd9+5i29LUwl133cXaD66l7dQprJg95kdav6+evt4+51K3vsbGIxw6eOj84wBnURfuQua2q5Tm4IGDnOk7c275ZLiLX7yfRxqP8Oorr6ZvL/W1+zcSifLwQw8zNDQ0ZgFyjgXiHSSh7W54bQNrb1vLTWtu5hOf+ARtp9rYvHkzzc3N/OA/f8DRxqNOFfGFTTr9C4fC/OpXv+L4seOJriilOXXqFD//6c8ZGRlJs3lxuypG+7TxjY3cc8+HWbNmDZ/85Kfo7uoef47d7p/zbzy4351oOcFnP/NZ7rzzTp74xRPOYn4Bi4g0nMV+06ZNrH9x/Wg7F6C2HdPfC5X5E5AqmM7bfirGm6vxtP74d+k2D4L0Y0z5TBhi/PrG2xSm9iVdm+57Ef8v7hR2gX4JMc4cepq1h/co3t0QLLcB27I53XOa3bt3U1ZahjQMTp/upqysnI0bN9Le1k51dTUtLS3s3r2bcCjC0aPHGBgYpKioiF27dtHU1AQCsjKz2Lt3L0NDQ5w+fZq3drxFQWEBgUAABHR1dvHMr5/hu9/9LmvdmNDa2hrqtm2joaGB4uISTp48QTA7yJEjR9m7dy+GNBgJjXDw4EFOnTpFUVExUgg2vrGRkydOUlxYTENDAydPnCQnJ4eNGzdy4sQJJpRP4MyZfrZs2UJvTw/l5eUMDQ1TV1dHOBwmJ5jD/vr9dHU5pA/BrOAYb+furm6ampuYNWsWdXV1tDS3UFpaSiQUYeuWrbS2nqCkpJTenh42b9rM2bNnqaioIDc3l9JSJ2Rt27ZtTty4lGzduoVjx46Tn5dPIBhA25rDhw8zc+ZMHnjgAT74wdtobm7m2w98m9raWvbt20c4HKa7+zQTJpQTCjk0kP1n+snNzWXL5i1OnHUsSiAQ5OSJExQWFpGTk0NGZiYH9u+nvr4eZSsCgQBbt27l6NGjZGdnkx3MRghBY2MjNRNreOCBB4hGY5w8eZLsYDabN2+mo6OD3Oxc9tfv5/Dhw3R2dNLS0kprayuVlVUMDQ2zceMm2tvbKS8r5+zgWerq6mhva6eoqAi/309//wDPPPMMH/v4x/jIRz7CidYTZOdkMzgwSF3dNjo7O8nJzqG19QSNhxvxmT5aW1qp31dPbq4TI15aUsrwyDBbt2ylq6uLsrIyTPMvQDHwdgU/Fyh3vuvf7ufjCbs/p53UeuPv05nBL1T/O+nfeELeg4f/A3Dxs2Al/wUQYBgGSmkWL17M5s2bGRwYQCnFli2bCQaDCCnYu3cvdXV1TKyeyEsvrae8vIzdu3ehlE1nVyezZ89my+YtnGo7RV9vHxn+DPbt28ecuXN48sknCYcjAPT19rF6zWpMn0lWIIvLrriMxsZG2tvbqa6qZltdHVppwqEwgYATM/zaa68RCoUZHh6msrKSV199hV8//WsMw0l4sG37Nl544QWKi4s5c+YMM2bMIBaNcfjwYV5av57q6mrO9J9hJBTipfXrqaqqoqW5hba2Ng4cOEBlZRWFhYXEnWZs2/F2tmwLpTT19ftpamrCVjYvvfQyO3bu4MjRI8yaORPTNPj9735PMBhk0qRJRCIRfvObZ+np6eHFF1+krKyMdS+sQ0qDmTNn0t7WxpatW5yjBK2IxqJ873vf4+qrr+GLX/gCsViMnNwcSktLsWIWwWA2Rxob2bNnL+teWEc4HGZ//X727duHNAyGhodYt24db721k3UvrqO9vY3nn/89R48e4bfP/ZbikmJ+//zvEUIydepUujq7eH3D667Z2UkY8uCDD7Jq1Sq2bt3CtddeR1FhEZMnT+aN19+gbts2nnjyCfp6+3jxxRc5e/Ysr7++gQP79/PCC89jSElXVzcbNmxg+7btnDhxglkzZzlMUsDZs4NIQ1JQUMCPf/xjHvvpYxw7eoziomJqamp47Y9/pKHhEM8991u6T5+mt6+XrXV1CClZ/+KL7Ny5ky1bt1BUVMSMGTPYWrfVsR545lEPHjxcBFxcIT3eeZwrqLOD2ay9fS3PPfccI8MjmKbJtGnTKS0t5XT3aSaUT2DK1ClMrJ7I5CmTKS0pRQhBzcQaJlZPTJBqVFVV4fP72LxpMw8/9DCRsEMriYac3Fze2vkWdswmFo2xdctWtNZMqq2lurqakdAIhmmgtGLfvr089NBDtHe0YxiSadOmM3XKVHymj2gsypQpU6itdWhMi4qKqKioYGhoiKeffpqXXn6J4eFhIpEINTUTmTx5MqDJCgSora0lEAgQjUaZUDGBktJisrKyEsk0hoaG2bev3s3CBWfO9LFhw+u8vuF1TMNg3tx5nD17lge+/QANDQ1cdvnlvPbaa3znO9/h7NmzCJwQMimlQ5F62aWcPHmCB3/4IBte30BoJOQeJYBp+rjvK/exYcNr/PBHP2RC+QRM0yQYDOLP8DOxupqMzAw6Oztoamri+eefp6W11ckkJQXl5RMoKyvjvKiJ7wAAIABJREFUqaeeYv78+WRkZCSOGaZMnsKE8gkANB0/zkM/eYg/vvZHItGoe2wh8Pl8fPZzn+OBB75NXl4+Q0NneWPjRh555BEONx5OsFjV1NQQyApQVVVJMBgkEo3Q09NDWXkZZaWlWJbF/AXzGegf4P5vfYv6+nrHspKVRSQcIRQK8ZnPfIZLLrmUwbODvPLqKzz22GM0HjlCLBajsLCQmTNnuO1lsWzZMhYtXoQQTtrQLVu28OCDD3Jg/wFs9X9Rvm8PHjy8p3Hxz6THMTcJAbayKS4u5qqrryYUDjN58hTuuefDfOMb3+Cyyy8jZsXGOHQp1yN4x44dLF26lJgVIxAIIlye6OkzpvPCunUcajiE3+cDAZWVFSxctJDrVl3HFVdcQX5ePpMmTeKHDz7IzbfcwowZM9HK0fCefvppdu/aTXl5ObFYjO9//3tcc801zJ4zmxtuuIHPffZz3PeV+1i2dJlD/6g1jY2NPPPMMwBkZmYyZ+4cbr31Vp599lmyMrPIycnm2muvo25bHYVFhY5A0/DqK68yMjzi0Fb6fPzwhz/gb+/7WxYuXMiihYuIRqNsrdtKTW0Nx44fY90L62htaSU3N48339zOyy+/TDQaI5DlmPWzs7Px+/1ccsklbNy4kWgkyo4dOxgYGHQ2LIAhJUopvvu/vsvSJUu5ftX1tLS0MDgwyOOPPw44zmVaaXKyc7jppptoamqiqek45eXl2LYiMyODJUuWkB3MZuWKlQkvatuyHSumS1cas2Ls3r2bnp5eIpGw6/jjaNOGlCxbtpTioiJ++ctfcuJEK5s3byYrK4uBgX5i0ViS05+TEjInJ4dly5bxla/cx8OPPMzSJUs5cuQIL7zwAp0dHeTl5gFQXFzMmjVr+NKXvsw111zDgQP7WbBgAadOnqKubiuBrCzC4TC2rVBKU1tbS3NzM6tX30hzc3PC67yzs4vt29/Esi16e/s8k6kHDx4uCt4zIVhAgm0qHZvTuBgvjvfP6VZy+FC8bj029GQMi1RK2MiFCBJSyRuS4z3HnNFdsKOcG7oUD5NJJbRIDW2Jt0MKs1eqk098PsaJK01HRDFud9OQbIxfNg1Dmq2RcRKMdGMn5b4kjSFxD1PTjLpe6WPGl/D8d0O3XK/w+HfnJQLx8M7xF/gNe/Dwfwsuviad4pmrtQblaF7xHsXJNs4JrUq3nYiHdWhGy6eGVqTzHk1TVyL+N4X5SdnK8QwdI/RcUhA7pSLXg1Qnh3alFnH7rGzlUjySoDRNmw86/lq59carjseBJ49fjLYRi1pOyElqnUnXJwQ0KWXUaFkhROJ9nBlt1GN+dO50UtgSOGWT52eUhjLlxurROpzvU3YLbrtxj+t4nGxizpLKJcKDEo2O7UfqhmYMCY5iTJ1pc18LPAHtwYOHi4aLq0nHBbO7iiZCpJJ30anhGfHPLqRhJof7pGqMKeWS2b7StnOe8mMoMMdoowoh5Pk1xSThCAIhUzTRZC08neY7Xh9dwhBnCjQiaX5t5ZB2iDTl02rO47UTf6/O3RykljuHRCbNnF7w4UoXpkOaz1KtEWnqPS/HdCrSzE2qBeCdWAQ8vA14mrQHD+Pi4pu70y22byfZQfKi/TYoG3WSphd3UhpjBh2vjbjgSTZxun1MUGbG27B1QiAlGLRsdS4HdVIdY02z2mXtGj/pQ5zDOXURG2MOThIsOqlM0h7iXDnp1ps8pvESm/yX4kI0o+M9jan3Ow1d6nk3MudD8gYEd75lGuHu4S8DT0h78DAu3n0hnax5xYskc/qm60Tc7CrSlEnWqCHt9Wmz/qQIX8e8fR7t6zxaZ1qqzKS+jEmmkDQPyZsWWyXRpHJuHaOCRcN5tNZz5FVqn1L7dSGO8vNhPOGYarZPXZDHewLTCeA0bY1JOJGM1HGO992F+nw+eILlz8f57oMHD+9zvHve3WkWaa00zzz9TML7OL59iIQjfPpTn+Hxnz+eKJ/QADW8/trrtDa3jhUA4y28moSAVpajbgsp2L17N3v37OWl9S9j2RZCisQ5eV9PH50dnWO1vfgi72oBkVCEb/7TN+nr7aPx8GE++pGPMTw8fM4CpOzRDclA/wDPP/98Qsgkzm8FYwU0EI1Euf/+b3HvPfdydnDw3E1I0jHv73/3Ai+99AqWrcfIIq1cC4O7yTl79iyPPvoYp06eSszD2xZO6fB2Ftl0ZUTKa5Hy+p1cc6E6Ul8n43xjP18bHv48eHPpwcO4+AvQJr1DCMY44li2RTQSZcuWLWzdupV7772XgYEB+np7WbRoEY8+8iidnZ189atfJSuQ5dbhXL91y1Y2bd5EaWkZd9zxIXbs2Mnu3bu4/vrr+cMf/sCa1WuYNXsWP/3pT+k53cNX7ruPod6zfO/736OwsJBV162isrKCkeERfv6jxxno7+fee+9l+/btnOnv50Mfup1HHnmEoqIiPvWpT9HQ0MCsWbPwZ/gBZ433mT6UUpiGQSwWY/369Wzftp2Pf/zjVFVV8fSvn6a19QQf//jHePznj3Pw4EEWzF/A9je3s3v3blavXsPKlSt54fnn6ezq5O6776a4uJiOjg46Ox3Sltf++Dqr16xh48YNNDcfJxqJ8YlPfIqjx47w/PPrMAyTRUuWsGPHTvbt28fE6moGBwc4sH8/K1as4IYbrmf9+vUcPHiQDH8GSine3PYm69ev58bVN3LJykv+a7dvf4rwfgeL9ri83++kH6kCeryynjDx4MHDRcR7yv0l7m3c0dlBc1MzH/3oR3nkkUeomFDBzbfcTCQSobi4hJtvvpkHHnjA0XQFSCGwlaJ+fz0f//jHyczMoL29nQMH9vOxj32MJ554gns+fA8bN21i7969lBSXcOPqG/nOd77Naxte4+/+7u+YOnUaSmuam1sIhULceust3HDjDTQeOcKyZctYfeON7Nq1i49+9KNc+YEr2b5tOwsWLsDn87sauqDtZBu3r72Dz3/u8yjbpu3kSZ7/3e9YfcNqHvzRj9m2fTu9Pb3cdNMa3nhjI1dccQULFizAsixOnz7NN7/5TfbtcyhNd761k7vuuovSslIADjU0kB0MMm/uPDZufINoKMS+PXtZvGgpgWCQum1b+MOrf+DTn/0UOXlBDFPT1HyUWCzCjatv5PobbuCqa65m3YvreOutXdRtrePee/+K/v5++vr62Lx5M6vXrKauro7hOO/2+wHpNGwPHjx4eI/g3QvBYvSvshR1W+vo6elhaOgstq043XOaY8eOc8vNt+D3+1G2IhaL0dzcREdHJ7fecivSdbF1vK+hpKSEoqIiCvIL0FozZcpUAoEA06ZOIy8vj5ycbCzL4tSpU3R1dbF69RqklEgpyc/LQykbISAUDnHo0CGOHT2Gbdso7eTINQ0TKQ2QYlSGaSc8Sxqa6upqnvvt73jooYcRQqC1Ynh4mJ6+M3zo9g8hpcTn81FcXExeXr7jdS0d5624iR8EWikqKyspKChAK00kHGHbtjpmzJxBLBbDVjbdPd3k5RVSXl6JFD6EMPD5/ZhS4PcbKNvCZ/qYPXs2nZ2d/OAHP+DQoUOOP5whMUwTv99PZlYmAAMDA3R1dbFy5Ur8fv/FeRY8ePDgwcN58Z7QpKUpqamp4fOf/zxZWVnMnj2L6upqHnroJzz722dRWlFUVMTSpUvp6urmwQcfpG7btsT1Obk5+P1+ioqKME0fuXm5BAIBCgsKEEJQXFKMz++jsLCQJUuW0N7Rzg9/8EN27NjBpZdcykf+6iM8+9vfEggEyc/LRyvNr3/9DBte34Df70Mpmyef/CXTZ8zgn/7pn/jpT3/GipUr2bxpE9FYBFBIqSkvK8Vn+sjIyKC2ppbayZO4dtUqfvqzn9HR2cnSpUsZHBzka//9a8yYMYPKykpaW1qxLAvDMPnrT/w18+fNI5idTWlpaYJdLRQOUV5ezr333Mutt97K8uXL6T59muKSMvz+TAoKiigqKmXB/Pl8+ctfYqD/DIWFhRQUFJGTnUt2MIdY1GH8mjlzJjU1NdTW1vLAt75FWVkZ5eXlXH7F5fzsZz9j//4DDmGIp1V68ODBw7uOd5dxLI5UD+80McgJYonU0Ju3G3aTJtZ6TIhNPPzmHYUg6aR/cjT+KV6F1li2cz4NiaNzlOWO5zyOS3GSkTjr1RgWs3Tnp6ke5NpGY7jUm873IqnJuCd3Wna0v1T4lQcPHjx4eEd4bwjp8QTk2xW8ye/j8c3pwjpSwpzeVpspoVaj4VXKtUMkSTgFKAsMl1LM9T5PbECUAilH/yZfl0pskm646ag+x8RWaxACW0UxpC9tRbZyqDVF0pjGHa8HDx48eHhX8Z4wdyfineGCMc6p18UFc4LOMVWIJb91eZrRTprGcwR0Kg1pShtxuev0Szr/4vSZOEIfw3RVVpEIz3IEq6uyahwBHb8mroS79dtKk3bbpEYvTw79GsuO5YxHEhfQoxUpd8xaq4R2rZPmWrt9STcFHjx48ODh3cF7Q5OGcYk//tRrkk3ZcQ01XUKGC7bnCrOE5hnXXEWyZutUYisno9O5fbQB45zPtdv38SKIlNLIFIKORHdTNF5LgWG5iR/ifOZJO54Ug8B5uUT+3Pue7oHylHMPHjx4eOd4T2jScTKPBJKlSdJfrZKSM6RjzLK1m5yBROKOhAKbnJBBJ7WZZF5Wthpbb7yITConR8sjwbIVCo3WIiGgk7vtHFMbKDX2BDuFIXRM4ozkYaXOTWrCDFtp7PiZs0+AkZwbY9QLXSmNZVsoly81oUkn9eMdCdKkwTjJUMb+U0kWAU9Ae/DgwcOfhnE16Xj63rfLE/G2kWQ6drRRp/nh4WHeeOMNLMsiNzeXyy+/3AkFcoWqFbMw/Q73yvDQMGf6zlA1sercuonXCx0dHQQCWeQX5KfvSjqu6nSadTK3sJtgAilQODzPUjgCqfFwI1OnTWc4HGJr3VYKcvNYvmw5WkFLazNFxUVs37aNqsoq5syby5HGRhoPNzJt2jRmz55Fb28vsViMhoYGwuEwl156KYFAkN27dhGLxbjsssvo6Oxg51tvMaGigsVLl4DS9PcP0tHRxexZM5ApCnt8KMq1bSeGG0/pmC7RSPJcpp04xprZz1c2tSPnq/NCZTx48ODhfYZxNWkh/usFdEIrTGpVCCc5RXt7O+FwmKVLlrJgwUJ8Pt/oObEGwxwlRxscHOTNHW+mVM4YrVhIaDx8mO7u7rQpLMcktXCvjWvaiX1LsiMaJEzdwnAcrwzhCj0F2zZv5X9+/e+JhcO8sn49zUeP0nz8GOvXPc/ZgT5eXr+Op558Ajsa4YnHf8bB+n389JGHqawo5yc/+RFtp06yceMbbN68iddf30BOTjbf/e6/sWPHdjZv2cTx40d59jfP8OQvHic/P5eNmzdSv28fyrb46aOP8NSvnsRW1hgWTKH1qNIvBDJuu1cK4Z5Nj6rD7ktbOQfYie+SK0xU7JTTCq3Uud+n3BitbMdZzoMHDx48vCNcVFrQRGrKJM0rft4rMDh44CDRSJSFixaSkZHBo488ypn+Pq64/AoqKit4+qmnCUfC3HTTTby18y327NnDlClTue22D/LEE0/Q3NzMZZdexofu+JAjbNEopfiPf///GRoaovv0af7hH/6B9etfouf0afoH+rnrzrt44sknuOqqq+nt6aGpqYkZM2dw5Qeu5OGHH8L0+bjrrrs4dKiBbXVbKS8r5+57PsyRw42sWLmCQDDI8EiIlhMnmD13LjHLpqiwiF27doHW9PT0UFFZSfXEiezetZtrrrmGxiNHiEVjfOdf/5W9e/fS19eHbSuONDby5S9/mbW3reXJJ58gGAjQ3dVNRUUFZWVlNDc18d+/9nVOtZ3i6V8/Q8YNN3Lo4EGGh4cJBgIYOPmtEzSrqbsskfJ5shElXtSQ55Y/50YKcNtIWyLlwFsYadT7dNe8XY3cgwcPHt4nuLhn0klxvnFtNS4HpDRYtmwZt956K1OnTOXkiRM89thjvLjuRX7xi5+zb99uPvHJ/8a3HrifiRMnsmzFcr7xj/9IKBQiGAwyMDDApk2bOHny5Oi5Nc5ZbH5+AV/72te54YYbOXnyFDk5Ofzd3/89VVXV+P1+rrzyKlYsX86Tv/wl69av59FHH2NkJERoJMyL69bT2dnN0NAw99//AFdefQ2NjUe4+tprCGQHQUAwO8Dtd96FkZEBhsFVV1/DN/7xn5g2Yxa2goOHDjN7zjy0NIgpsLVAIeno6OZf/+3/40tfug+EpLi4jEAgm1df+QOvv76JL37hy5iGD60ESgs0kp7eM3zzn/+Fa668hrKScnbu3MV1161yz5iTzNdvAzpuLvkzTSY6fsiuRl/Hz7x1uro9YezBgwcPbwsXN8FGfHGWIFKIP4QWZAeCZAezQcDE6mo+/7nP4vP5mFBZROmEAl548TdoLZg0eQZaOmFOlrJpaGzEUorPf/GLjAwNOaFQgDRNFBrp86GEBCEpyC9kd+8eHn3kMZqON3P5ZVcghCQ3r4A77riTmG1TkF9IMDuPefMXUV0zmY7OboQwefDBn5CRkcGam25ix5u7mT9/Pn6/iTRAaucftmLXzrd45JHHqKysZO3atezes4eqioksW7yc3z7zHJZlUVhQzN///T+Qk5PPocNHGDw7wtz5i9i1dz/3f/vfWHPTGt7aW8/kaTP5xRO/IPN4CzfecAM//vHD9PUOMDAwRGfnaaIxxTO/eY7Ork5aT3YwaXI18TBuEddOJWM91RJzPup7kPBgf7te9Yw5PRiVu3FfhuQCYvRvop1UF/M0TXjH0x48eHi/4+KGYCWt6DpZgdMQDttkZhpOOkWRzPWh0JZCmCZKRZzUyVoipM+51GI0d3P8b3yFl6Bijtlb4KSoHDkb4vvf/0++8MXP88C3v82/3P8v+DNNx/vaJR2RgBVTmD6ZiEseI/AAO6YwfKMNamUj5KipQCvXHCykG5vshkLFLQhSOue5cYhR87F2JZkQwqUMNdBaOzShWidZIUYpxLTWCJLe28rpT7KnfJxEZYw5+nwMKudTeS/0dIx6q2ut3NByCbZNIqY7nZebBw8ePHhI4OIK6SRtToHjdJXq1XtOEK9NgsVDKNekGw9UFimOXRYoA0wBtuOBfU5AsIadO3ZRv28vV1xxOdNnzRgto5xQqkTIlbuZQCVtKNIGNifvPtzvx+xC3iFSb8mYM2TxX3RjnMlQKITjo37O9/HNzWjpuJacrJK/A9U78VZhA0I4mzIjEWvu6c4ePHjwkIyLI6STbaKuQ7WNY2sXgKVhxIYRy132JQgDlO1cI4XzWdw53FaQkeFo0QC2y8QZZ9xUenQT4IQfOUqbbTtyzjAB5TJ4ms7nPt+oDIzrx5YGJRwzdlxb19ppR7plLeW0aRijslVKp+9jLL1J0m7M+/jHKbJfJP43+n0qErzc7uu4Yi6E077LSppQlMdUIZx5SYw5zb5DacckDiRoyWH0s4RD9wUelPgcKAWm6dw/w+/eXxt8AgJ+yADQaoxFwIMHDx7ez/jLn0nrlNciSXgoiEkYEPCvjx3lj7vOokXQiQTSCkffMvAhMJUGkYnCxsZJUCFthcYAHQ8vspEGWLaNdpNHZBgZ2HbEaVw45mthSJRyazIMbNtJUamVwpSGIyyAiLaJGRpTOyZrJyraSHCagONJHSdKUW7Ik5ACpVx9U4z+HR2/GHXy0nqMMNdKuYJVjP0+2VweN4fH59V97ZjmdcKU7rQjENIdr7bcTU+cX1Qk5kIAhpSk27Npt7/xvsfTc6K1c/wQD8NK1bBVvD/KzfltI6VAaBtLmwitCcgRZlZq/v0fVyABHxbgpcr04MGDB7jYjmPxvBNJDftwlmTTjuKXmogVw5AGViyEMsCQfoQwwJTYyiIajSFNg1gkgl9KN25ZYuHE/caUhZI2WimkkERxEmH4zQxsSye0P4fGWyJsjU8YCOlozhKJsGxHNdcCicSUTrpKpWykUAg0UhuMEpQJDGkglHIEnpaYQiKEQCntarau+TgufCEhKCUicW4thIHAyTFtSANlqzFx206suROnnTgDj3OEa8dcn1D5wdFMlUZo5VgupEhYGLTWjoUBDbZC2LbjdKdHNwWA6wWOaxJ3TORxBzGtXPOETqZic4zjIjHb0skGZvpchzKBYRhIbYO2Hee++NXa3WCkyxLmwYMHD+8zXDwhnbR+q/h7V56YQEAPceWcchYsrEFJeHN3O9sPtBBTEoXhaqkKf4bpEJEYEi2dNI5KxVBKOSxgWoEC0/SjVIyiAj/Ll07lpZd3Ic0gKIHSEi0dUYi2yRQRpk/M57oPzCBDQnuHYuPG17lu1ZXkFZooIBSGg/XHWbl4Cpk+x8x9qLGd/v4+Vi6fi3KF/KFDZygt9OOTGeyp38fSFUt4Y9M+lB1jzfVLCWRBy6lh9uzcwZXXXc2bO5o43XWS2269ggyf5Hcv7aetTxPVfnIzB7nphrkU5Pp58Y/7CIdHuHHVJRTnO3Lx8PFB9uzeyU03XIu0bHbv3sWKS5YRi1rs2XOQaXPm091xjMlTprL9zV1MnzaLcMQipgQZWUHqttWxYslc5kwppLNrhNaOMyxcVIl0TeVn+mwCPkEwTyIktHdp1m/aT6YZ4dZVyxg5O8y2Xce5dOV8ygqdI4qeAeju7KO8OIeYLTh49CRNza1cf91V9PV0Y8cGmTNrBjsOdvDmnhbnnimBrR03Ap9wfQo8ePDgwcPFD8GKn5EmW0elhqVzJ1JUOYEHf/I7DL+f2+9aQ29vB6GocyjdPziE1IrsYCZCOJqYFhbDI2FikRj5eTlICUMjFuFwlMKiAmwVxR45wZFdPZQEY+TkBzFsRe/gCDIzl8EhC8vW5PpG+PSHF3N4Xytv7tnNHR9eS/sRuHyuSf2+g/z2xc3E8DN/9nQumz2Fh3/8DGWVNdx21XK2bWtnQRX8z/t/iBI5BLOyuP1vPsS0SZJCMli6EFr2D/GBqy+jt3uAjZt3sfbOaygwp7JiEZw5KZhZWsi1SyQZJrQeK6B3Vye28lOSHeaGlX6kgtjwJLbWbWT5TNi/r4kjx1q44+5riHVbXLsAcjIM8qMma64StHf4CLUNc8lcyTEZYvVVksl5kwkEA3T2jBDFR1aOScvBGLdcUUj9m/uZM2UeGze+RqjvMH/zyWt5Yd0ujh49zlc/cxdvbN5GT28fd9xzEw0NPgqCMVYtBisapOlwiDdefIF71l5JTn6AXz3/DCuXzubSOQs4M6CorZjEJtXCTZfD7587xZVXzqeyXDCxvIK2E51090dR2pHLZupBvAcPHjy8z3HxhHSSY7JKcZIyBMyZNYEXt59CB8u54caVREKwcEoeyxZNoeHQYWbNXMqB/Q1cdeUsdu8+ypw509jz1j5mz1vCwQMtXH5ZLc3HuinIK6W1Y4Di8jwQI4SHqskKFrJrbwOWFWb5nGk0tvRyoGWE5qhgYFiSKYYJZsDm7fu59Lq1DI1AaXkVCFi2fA6F1XM41Rej8WA9/my47e47yQjA/vo2lPJRUAKf+9IXiMbgwO7DGFoSHlasWFyNT0KWOUJZJfzqxRO0duRR/x/7qa0aYdEHqhFimCXzp9LZHsUQfubPq+LV7Q0Yfj+zplcSDcPB+gPMnDaX7VvCaBuGY8UcaG7iyl5YPn8ORCzwmcybU8vggCISDWHpqOMQZsXQIVgwvYihCHT2RIjGYgRFBqEhi/o9nSy7ZB57j8KILsaOmQxpGJZlhPRpjABcdfUlRGLQ3QPWUDcfuGY5rS3dGL4g85fMp7FlI2EjB8MQRHzFhGUGfSE4fqKDpcsqufGahfT3gzD8lJaZ7Nt1nBnzp1CU46OrdwBJlmMUT/X09+DBg4f3OS4u45gGlLsYx/+56B44Q2FxFe1dIZ54qo5gDsyYnMPkiYIlS2YhMsCfXcCxEyP0DliUlMPCpQscL/FgFQ3N8OqWI0QMyCrMY8f+Nh56YiNb9xxDGBAeHuS6KxdSOzOIL7eU+mPt9IxYDAvnzFQAlRUTeOmF9ZQXQm1lDraCjTsG+e6DW3ji13UoHWQkDLv3HiAvF7pP9xFRGXT2wv/68Uv860/eYFN9FyNAU3svMiNAbh5IKbFiUJBnkOnrZ0qVQWl2hCwbJhT6mT0zi/JiP5WFML0SSrIUxXKIDyyrIT8Hli6ay+RyWDR/ihs/HsPv02QGoLu3FwtJa/tpSqoKaWw5RUQb2GYGYQ2WGaCtJ8ahoycpKQK/lGT5M1AWRC2DN/a18R8/Wce8OXDJwkqkCCEERGJhMCQjI1B/oAUEhIZj+IyzzJiWRXFZKUXFQeZOyiIvW6OVs4FQynEkkxJam1vwAdOnFXDkQAf5wRwyM2HarClkZcG8OZOQwkILPfoo6JRMZB48ePDwPsbF1aTjsU0wRluygNfqjlAycQVf++rVCAGtJ2D7Wy0U1JQxFIOzQ3B2xEcOARpaw/QMwUDE+XwgpMksgLBZzIiAQ8f7ufaGSq68rpID9VFCAibPXcEIoEcgMzeT2267hh317TSd6uVMOMiLm0a4/Z4lrBmC/BLYva6TmlkVXLoil+pplzMcgZbjZwkZsLspgrFdc+l189iw4SQZRfD1r6zGAppa4KyEgf4S3jraxo03VtIdKeP3r7Tz4XtnEwnNRkXhpRcPYRlQUDWdAQE/eGw30ZEBvvCVq5m7dAVt3QNkl8ODTx2n42Q7X/rMFUydtRhMuOrqImbPX0V/CLYdOMOCFZJDrYLcCmhs8zM7P5OIMYFhAX26gtO2j2f/cJzC2mr6VQEWYBtAdiE33bqYqmI4G4MDzb1km4XYEmwjj6iviGEB7UM5HN14grvunMhteTdzegT+8webKSzI5mMfXcS0eZcQlVkYAiI6l5AuZAhoPWOy/wTUVsFrbx7jzjuu4PUd8LvnX+H2tTdQPS0bG43EwBd/JsR7InuqBw8ePLwn8Jf9V05yAAAgAElEQVSPk06JkU5X+RDwwE/2snl3P1rHEIYkSgYxDaaIIIiilSJTBohpE60lhtRIPYIQPpQysTFQAoQSSBFDyCiWHQKZAfgdr2zthGIpbaJlBkpkYpHlkJUwiF+MkKEVSpjYSEw0PjuKZShsLVGYKHxY2sBnCISKIoWNliBjwyBMtJFFTBtobSKEdmKozSCWFUYSIsOQCGViKQHCRkiwlYEiCIQwDI3SAksLBDZCZoASmDqEIaNoFXXzVhsMqwwMKTCxnb5ggBTYSmMpjfL7MfVoxJThhqVpJEoY2GhMHcXUFlElscwApgbsGMpnYgkI2jZR28YQ4DM0WkcxZC4RZaCx0PYwgiwMqdDSJIKJKUIIbaKw0cQQSmAgEa4buk0mkgi2NBDaYnpFkB//P0sIAEYa+lIPHjx4eL/iL69JJy+457CL6UQ8s9YZRCjEkpnYgKVtfFoQiV8obMI47BpaSEBiUOSGP0s34kghpBPKpITGlgolDXA5tZRtYQgnbhjtMKVoYYKh0eQR1XkMk4HGRiAxkWhho7TthEdpjaVspCGxcPpuCL9DoGJqhLIRtsOconBiq5Ea2wbDCGAIAxsnxMqSltNPrR2iFmWjtQ8zTvEiBFq4nwsNRoBEAJntvNKmIGbH8JsSoS0M4cSMIyUxbYMW+HCEsZCGk7pSa4R2wsNi0iasFaYw0FKhtE1YC3xCOGQuEmIxhWH4QClMLbGFwrDAQqKExDALyURjo7C0jZaKmPahMVHufRBoJwZbWU7MtvaBNkAr/JxFSukwkCU/J56A9uDBg4eLa+5OcFhrkQjBii/MGhtbaCwh0UKhtYXGB0g0yiUiiWeKcODSY4/Kf+GKY6FRaDQSqTPdL2ykVA75BgK0iUAjhO16nTsCztA2WthoLBQGWhhoIZ1rBG5Mr4HQTj5lJR3Vz0kmJRFolNRobQEGWktMQFoKIW1s4cQFay2c8oYgZtlIaYCtsG2F1gLDlCg76sRfCyfMDGUgtIGQEosYUmkMYYINChPbSTuFFBIhFFKB1lGkMNAIJx5aaodBDYnUBlIINBYCRwgbWqKEdljbLBuf6cR1a+kjalvO/AuJIcHQlrNx0RKFs3ESyp17KRDKxo9GSZe8RQsMJZEaFDFHeKNQdsTZFACm61T4X53L3IMHDx7+T8RFjZMW5yRyGH1tYGAgiGkL6ZKFaKFcee56nCWxSZ9vDXfIsYQrNpwEFZFoFMNwBY52Yqo1IJVM1DfK/SVR2gLhEozgJILQ8YN1LbGls3lwjtktbKUcYahxNiFaOCmXXaYy2+2/UjaGFPjwo9FYdgwpJQIbn3CIVyynpJPS0sY1gWsQConCMBxh6jB9CWyEk+WLGKYw0dqJPTYMiGmQ2BiuS71CogUYceYyFFoKcDV8W4AdZ0SzNNJUSMPGUrbbvo0U0tlEacdBTEtBDAspQCobW2mUzsAUBrYVwQa0sBHS2SyYKkbQH+LTd69gyVTIz4CC+H1LTZLiwYMHD+9jXNw46fiqm8SDGVeqQbuMWU5ctMO5pdwcGg5jlsZI1JPkDzymWu2KzQQbljGMbTsZpLTyYQsJQjmno8JwaDJd6aCFY7aVcXYtIR0GLy2RwnZaFU7ImNbS4QQHbJcvS+NYAeJ9iuv8Uip8pkQpZ5OhtI0SAq0sDAGWFQNpYOG0q7UjlKVpopVDjyqk4Wi/AmwrjCENJ4eIkxbMOfF1LRLOcARaGEjDIRIXRpwM3c3KJQWGwmVNEyjXy93RqjWmFPHMFwgUQtsYhg8ViwtmjRK2cyu1z9kwGM5dkEIgpcRQClMKlOkjbEddC4KFISSGGKKmBGaVO6xzuEcMOilpiiejPXjw8H7HRRbSScHSLhwdDvwihJ8RbJ3lODZhITCxddzcHCeOHPX+VW6mB5nSAkKB1vj9BpNqC1l1fQU/+vFbWMpECIEtdCIhlyGES/UZwiAKxDC0gVIaw8wgajtapyFtBApba0x8CCRK20hlYOEDw4eyRzCEhcImioHGj9YWPhHBtBVamWhtoBAoGcXQFiYKLRRKBoioGAYSUzvS37IV2tU+/QikthB21OEJVz4yTRMpBJaynHNx6YO4qVvaCGUhtYmb3xNTOH2wlCbTzMBEYdsjWFoSw0AIA5MojtucQUQppGliqBAZhsCKgSATn7YRUhFVFraS+LSFX1vOpkiAbUuwBgn4M/CZBqFoBKGjKFNiYaJEFgYOM1zCPuJIe2fDkHRPPUHtwYOH9zMuIgHjqP0y8cpZmfFruOOqiXxodQkNrf3klebzx03HGLTzOXMmwvHmbmyRhc+AaEwhDB9IxzSOiiGkxBASIWw0w0woK2Ta5Fp2vvkmeVmlvPZyBxKf4ylNDAMfPiQ6ZmPiw/SPsGpZKX9zbzUH9/dRVFpIXV0DtlIsWjyH3tYTLF8+kV1725k6s4ItO5uYWjOJ6krB/gN9jEQK+ePWLVx5+Xxm1uYiIjEGTR8/+dnL3LJmFfmBMIEMRWhEsr/+OGtWz+fXv9nKTasuQwpN2I7RecbP+uef5v/9n3dzqtXiaEsrl1w9hft/WE9LWzeXz6/lbz8xlSMHRsjODVB/tIeTLY18+hOXsb8hRucg7DnSz/a9jcyureSWyydxyVw40QH7Dx5j6eKp+CQ0NA/TNZDB5m07+cAlM7h+ZSGWAc8838DA0BB3fnAFve0j5BUEeOkP+5hY5eeW1cs4dLCXgsIijh/vwyDEnAWV7DpwhpCdw0B7I2uun8PgGcVg/wgFRdm8sP5VrrvpMp56tp6iAh9/+9+W0twJ//KjNzk1EAXl8KujJMJNM6ZwzvyFGGX99uDBg4f3My6qJq1sC2k43tYJuEkhwsrPwWMxHv3VRqZMqeGe2xdyvLEfMSHK//jkIpSEo40Wy5aZNDbCj370HJ/45FrmzodtW8McP9rCRz48m1AYXn7lODNmSBaUzeADVxYyMARPPtHOh9ZOo6IMus7A4786zi1rp/PzX/bTcrIPgUk4Br9evxOpLD7/1zexbcs+/BKUsOnstvnVr57iC1/5KhMrazANm5bmIX7x5C8YNmooylHMmJHL/d/9HWdVPlkZGSyaO5upUw1+8KM9tPVECGaYzJpcigJmTy4kmA///qMNnBka4etfuoW11y0mW8PiWSY+kUeGDZk2+JUfnxacHYKn120jKxjkkx9dSZ7diR6BN15Zx6GWYYZ0CVoUc+R4L7/qPkVB3hW8ub+LXTv2sWDxVA7uP8TTz72KJWowM/IpKimkexh+9JPniMYUX/rSh2hoCvHsU69wxaUr+au7FtDZ2s5AL7z6h1e47APXk19czGD3CTpPhfj1L58iLHOYWpmHYg47d++i8UgTn/zM3ZRMmIAEMsQg1RMmcvq0YzFZsWgqbRuPorXCJ6UT8qUliHiOMU84e/DgwUMcF5U5Iu44NroIO268hsTxEsZAyyxiFtgxyDAjZPoi9HbafOdfHmV6jcmmV45SlgfXX7mY3Ez4+n2P0XnyCKuumsljj2zh+ecO4Rcxygph3vRCHvnxazTUD3LF8vn4bPjpQxuJjADYfOe7dTS2nnQSdrgJHmIqC0sJhAGBnCyUhAgx8ksN/u4bX6WyGl5+6Q9EbJPi6nxW3/k5Llt1GyHbREkIW4owPsLhEQI+TZYJaCfueygcAaExJGRoiNnQPxJDyyznfFsqhiOwv+E0U6YVYxhgSumcN2uNBURlkBHlx9YQzMrC54eVH1jLqls/QuWUxWBkYmNgiQyEH2Lajy382BImzZjNzXffx7Jr13LGMvnFb16ivqGTr399LWtvvp4MDSMDQ2gliUQiAPikQU4efOTj9zJnXjGvbtiCJU2KKrK48bZPc82NHyG/bDIRBZdduYyv/4+7OXI8ysGGI5gG5Odq5s2eiKWdnNtzZxSR7XfCzzSuh77G8RpTjI2r9+DBg4f3OS7ymbSDVMddDfhMkwxD42OYpYvn0N2riMossAVDMYOwlcPAELzw0laefWEzWmQxaXYN2ixj8cr5RCScVdlMmz6bnABEAF8m+IOlGBm5jNgQ0tB82mYwBpbMIaTOYAmJXwmQBuGY48S0fMXlnO6HnmHNZL9DrXmiF555+mXu++KNzJi1AFtCcxv85vevM2jlkZeVCSbcfectHD/Zyz13lPPS79vI8MO82ZPJ7T3LRz88jbrXu4jY0HY6xpxcmDN7GrGYIiMAv/vDTqYvnMH2hm4KakoQBkS1REkDJU1iCqTU5Obm0jsEexs7mbJgCq9srOfQyTBhMrC0whQ2IdvJymUpgZB+YjY0HB7iyXU7CMscjMxMPvzxK4h2hGhuhuKSHI439TFzRglbNpnMnlPL8ZPQ3txPoKKMx3+xgU9/9hrmLFyKLcKc6IanfvsqwldITYUmpGDXmyfJyTaZNXsCvsx8Ygpy83LxZcJDv1jHtGnTuXLVdMqLC+npGsaWTiy24zgmvbArDx48eEiB8c///M//fFFaconNHAIPEueOGogBG3c003/WYNqManoHBlj3x3oGI1l09QzT3hXjZMcIfWdg0fLlVE+eyVBI0d9vMXvuNN7c2cybO1qZNmMag4OD7NjbRGunYvueE5RX1HK6P8Yb2xpo78unpWOQ4VAefb19LF0wj9DAaUZCMWwUsWiQyuIizobl/2bvvcPkqK6E/fdWdZw8PTOKM8pCozDKGUkEkUWOxoABYcAYbO/i3Z+Nvbb5ffut7TWOBLPGxkYEG9tgWGGJLCEhoYyEUM5xNDmHnu6qe78/qqqnejQSAmNJNvd9nnmmu+umutVPn3vOPedcXnnjA+rbIlRUm+w+UMeuCtiwpYa62gLiiQ4OHqpFWYoz+hdyxtAiqhraWfdBBQV52RSGbV5f2szytfvZutOiZ+9cYjlh3n57B7sONFDVWsjyjQfZtTdBSd8eZGdHWPBmBUeaAtQmerN2WyWbdrRzoCKLLfsaaIxLlG0hE0H6FeUSDmWw4J091DQq2trD9OqZwdAhBWRGTKqr65EijDRDdMSjbDtYS2NDOyKZQSQQ54zBhfQvKaKpsZ5du6vpkx2hvM5i/tK9vPtBHa0JybDSQRyoSPL8/A9oFdkcrM1h6+5q9h0UtHWY7N+7C2UrRg7ry7D+Rdi2ZE+5yYe7m1m7uZ62RBYJS1BRlaCyQbDpgMGqzbVUNxvUNuVzsLyJRLyOmROHUlIEQQXuIdad3xctsDUajQahjpMW9FNFyVReZun2aLjRNu0K/vt/1vDahjg2EceBSASQCISSjoFcgimU42TkDB2kdLJxCW8nU7nBWYYTwiTcdOHCQCondYbCy0gmUUpiKuUMTbjBVEYCpQJI5XqTC4WBjRQBhAhiWxJh2m6aURuwEcLAUkEcU77CxHkvhIGBhSHakNLtX5jYwrnxsGFjyCRKgUWmk51LKdfr3PF6TigTJQRBkUCQxMDAlia24wqHoUAJC1skARNUCMsWKCEwjASIMNgWQcNGCAspFJYMgAgCEpOkmwglhBAmptGMqSyQIaSMOtvFbqS3cMOzhAIpLMd072SiwRJhpDIxFE6qVMsN1QqYKBVEEAclsCyFYRrkBuv5zlfOZdowiCr3+2EYOjxao9FofJzEZCZelgrReZ40blCVACWiWIaJJTKck7JcIaW8rGLC2b8UojOZiUK5mcuOTpCilFNX4iQwcWKUO+tIN0WKwBE2EtPdBg05KTlTrTniyVBO+JctbCDkhBAJ6SZOMVHKdBcICmWYqRAvJUxsL9Wn16KTQBupFJIwEgNLBACJEMo9stFZUKBsDCGQRJFEASeeWyiJ5cZySyFR2E6iE8Mk4GZIs5Xpek+bJNz4beUmM/Ei0W0ibtoXNxUoGVhCOTHkIkDnqSgSNxUKSphIdwYlwkmMguk+L4kkhC2c9KgKA5R0MrQJExEykbIdQ9mYnaHVnZaWv+1bptFoNP9UnMQ9aYWU0nUYch3IvCQknsBSTjIRoTyh2JmypDuLqHtaRFrotXJjp5XrNY5QTltuIhElpNu/6fbhJACR7qLA6JIRTbm5y4T7zlAK3NzXCu9eDCDgivOkM2rlpPNEOVYBp64nHEndmyP6vIWHo5XKtBGAUG40ufBu1xXkQrkpTAEMp5ww3P6Vk5XMN024KVGFG43cWY+UkJSuf7XXj0gllHFzuHltefUwnEWHcGor4eZJF8q9/yT5GW1kBRKEAl560A5yaCY7ECdAxLlR00tUo9FoNBqPk5q7Wxied7ffw5uU8AE3dBqcPNSGt2+tUkIkVQEwuvE08oRsylFYdbbv19XS4nANv1aOK4icdGhHu78rV3N2c1wLGyGSKBF082YrpLBQIuAIcOEbtzsO6SiXqXEKocA9d0vimOGl4Sw0XAd4R/v3rAoqNUykO1cC55xupRxBiHKSsEgc0zeYTjY1Vzv38mNLVxt2GvbPitt6ynLhLVP8T0A5B3OgsITCdk39hnK2D5SyCdLAXVcN5aoZhWT4mxbeC1IxBkc/YY1Go/lscxI16U7R3HUTXAG2YQImQoQBV0M0HWEjsEEl3esBt87RJm5PpXYUQ9e86yjRbn5q58/ZT3YOfBDgnEwlhKt9OmZg4R5WkarlOroZOIdwJE0n/aahDJQIuaZtsAkglImhHJ1UAQkn3Tem6ox5Uykh5ZiQg9Ixy9tKYokEyjAwLTM1WUq4Qth94xw36eytg3S14ah771Zqb9tZnFgYhgIlCagQEMDL2224dZWr0XfmRndzvCnhLg6U76rTsAkEpTdXzoaBISQBYRCUzpGfSIFJIj1rju910rIwzIDzzL3FhanPlNZoNBo4ySFYSipHm1Zd7dZg0EFOsIPZ549l4+ZD7DpQhW1FMY0OivJNrrtyHNUV8PKrG0ioEKYhKR3Ug1huhPfe307SyEbayjmy0QwhleGchmUnESrg5LjGBtvEMG165cEXrj6DvDB0SFjz/hE+3LSFyy+fTfmBfZSVDcBwfcfeX3cEy7aZNKUYKSCRhHeWldPUUMdlFw8nGoIDFfDHP79OXm4ON984jcwQbN/Rxso173PBJTNYvGQDBTnZnHf2YEwDNm5rZ/nyd7jskgtJtreyZdMmzr1oGn95bS97ypvoFQtz05VlRANOfu0Vaxs4tH8Ll102nVDIEdrb98Ori7eSmxXl+ksHk5/hCPK2ZqiqbGTA4Fw6gLo4vP7WLsKylcsvGE4wCIuW7mTnvoNccM50Bg+M0NoOry3+gEhAcsEF4wgIMCRs2VJLTXUNM84cRiAEbUnYuaOd3Jwoffo6rgZ1DbB4yUrGT5zK9m27qa8p55ILZqJM+MMfFmJa/VJyWapUllKEEJgB01lMKOE+I61FazQajUfgeK7dn+qPpXCFNMLLBoprUXY0UiRR0c7IAVB9sAXRVxANRWhrbaZnQZgRfeE3f32NspISCGXT1FTLmaPyyI5KqsqhvKGNaEYmEdlBRkYEmwAJO0F2NAIyQmV1PXmFRVTWttIRbyeWIZk2Gp6ft4zG5iQ33XQOjQdWMnEo7LY6GN4T/uO7P2LOZVdx2VlD2Xeghj558JNf/I7apiiZQYM77rieisoG3l75PlffeC4zJw7ksgvPYPXKg6z/cBtXXXs+rQ1FTDkDWg6FOG/2YBYt2s2qVav516/fSKHoz9ShBiV9s1mW04OxI2Hxcguh2olFg5QNgt8/vYiGhgS33X4Ra5dFmTgA/vjCUlZs2EcbhSTMQmraEvzp2a3MvW4CkVA+Lz33LF+68xYsq4InfvUCLUZPlJnNVbOnMLQ37Nxdw8ThRZT2z2Dy2AgPP/JnSkcO596bxrB9w2bGFMO8371IUWER586cxZr3DtAvB374o0dok7nkF2Yx9wtXc+jQXl5/6zVuv/seZk7oycD+0FrRQVHIYHqZs/hpmT2GgG2ntHqR2lf3vhauYBapr4lGo9FoXE6qJu2cRIVr5fVcmNwfbWViqCRhBYN7Rrj8glJWvbuEWVfPYtOm7WQH4Iz+MbKzbDIykowYPpY9u/aSYxjcetlYFixaz5jR/cm2jzBs2ABeeGU1Q4YPY8/WNVx+6Xm8uVSwq6KJSrMVZbdhEEUJaBJ92Lh3K5e1wcSJYxynLWmRnw/3f/1+YoUBlizbSSgcpqAI7r7vduraYc2bayiMwatL9rGpKpeNv3iXsYOyyM+FXfua2VyTw9bH32VYnyiGhFimgZSwfkcN1XYv9h6yOWNQX0zZSntLJmOG98dUoOyEazY3sIAOUUR9ezVWB/QvzicagiuvnsWU82exehO8/M4G4skQzQSJyxzMUIQmetAswowp7cX9/34fR5rhpZc/ZNOm/cyYnk+vgYWsWXmAwX1yKa+AhmQhh6sS5IShpCiT/Ay44dprEAFYtOYwlrKI9YKv/ftXaEnA+x/uwwzB9MkDKR16FzIAh3ftZNSAgeQFIb9fCXWHO9h/qJJRA0uIWJX4I+fS/ms0Go3mmJzcjGPKp0m5cVgCR50f2DubI9V1hEzIigQo6QGBaWfRmoD6jiyqO2BPeS1zv3AxoQAICU0t0GFb5EUFhgHhUBCr3aC6DT7YuY+ifkO57NLz6FEEyjDYdqCGBiODsBkgKZIkJZhGEDMoCEbgcHkFZRMHYQuT6kZ4691VXPe5M6mqb6RPz75UVMNDj75NRVsuvQLVXGpDSUEeO6I76FcykIhoRAmI5gpyog2U9OlBpohjAwlszCAUFcYor2shP9+krryB/OxevP/+dsaOG0Yg6DjDOV7UwvF6l049EYLqpji1HfDMS7tZur6cllAewjIJCRvbTmCaARIKCEoSCjZuhR/++jXajQKkrRjSM8rjv1vF7JnDueCcfhw+WIXIBCMgyczORALxBLTE4YNN+5l2Zn/iiQSGMNhTAw8+/BptyV70zW9n9OgBbNjRQSDQTlZOHvWNrdhKkpUdZtCwfmRkQmluP/KzgbZMx1Et5Rmu0Wg0mhPB/N5xMo79XZQd0Wni9IS0BYhwjCnnDCQh4MX5G50f+ixISti9P0Gv4gxqajKYMCmHjgQoE2pachgzroC2uMHMmX3pXyzYXx5GZAXYuLWOOZcMIyMHWjugsT2bqdNLaG0OUFffQH52FrNn9WDI4FwmThjK9t2wdM1uxk0dQHllkOxeEea9sJ4efUoZP7EPzS2ZjBwpGDN6EDOn90GYPdm8o5qrru3H5EmDGTa8gNfe2MvOPUluvOkMpk8ZQp9evdm+s5bSsb14d1UD5ZWCyy8vZtrUQdQ0wUsLVlE2eRg7y8Ps2NvAgNIslqy1OVTdQqwgj7OnxSgd2ovx4weyaSds2lzOhEk9GTkyxszp/Rk0sCc7tjWgpCBkCkYMK4EIrF5fzoSxAxk9HKZMHsLUqX1pbYuSlZPBXbcNo2evMMvXJXj5zXUMGjSQORcMYnhpIfPfPMLeOsmAYXm8ufgIjW2ZTJvRg4bGDIYPjzB10hDOmd6LXj1LiGZDeXWAhYvWMHFKf3LyhpORJbDNGBkF8OP/WcbGbdVMHNeHWG6YSCDdDeFY3y2tYGs0Gk0nQh4n49jf5QezmzibuIT/fvxd3viwhQ4VxRBBDMBUzQgjTFIGUUYIrCQBI47AxrYV0ggSNAQI6cYOG7RbEhXKRNoQUDbCiOP4IQeQwsBWIZIECAqLsGrDoAMIkVRhksrJjR0QHc5hHyIItoUhLYJGElQSIZxkHkkRARFwvaNbUWYM2w6642hxPNJFAEsajqe2EQI7TsCwQFl0qBAGjraMMAihQASJqyCWEcQkQVS2Y6p2lBBYIts511p0IGXcSVBClAQ5KAIYJAnKDmzTREmJKeNERTO2lKhABh3KOWs6ShtSBbFEmKQShEkQUHGkMkiamSQUBIWBqRyDu1Q2QnVgCDCFiW0rbEMgRQgbE8MMIqRCWe0EBZhmkCQB2qQibAoyrQb+5ZbJXDozlma2Ed18Hf5u3zmNRqP5B+Wkm7u7RQD0oI0cLMN0Q58CCFHohk+5xQKOrdxwY4a9s4fBjSkGZMAJrXJinUQqlloqJweYm5mUDgRxcruMwY/0PNqOfVaY/35srx2BEFmp8QjTy3gmQWQ5znKqc9xevx2GkXYfSoRpFJlunLToLI8zHidZi3KHJrAJkTRC7paCIBnIIa6KUE7Wk1TCt4Qo6EwRIyCJQBgiFbImhCBhGKn2ESo1XiEMN1mME4ttGCbSdqKslRGjQxiYbqBWMtBOUkkUirgVSEvQotFoNJoT46QmM0m5+PqQgC0gYdiAhVDB1J6sISynkpuS08lg5XmIq7SkKCold9JTpaS8h5WR9t5fp3u8dJgfH+EKMf97r3+nX9U1nYubVcwp7RQirU7qPnCTjyrS4rjTVxkiFdbUmcJFpPrtajxxPjNS7wx3P1y5acpUaq5dzR9HiBtKuLHmwl3PeLnZFAEZRCmJIQzCIaPTQfDjTKRGo9F8xjl55m6/BtmlYQk0tEIrICXYNhiGozEDmIablMPJ2+Ec3KCceqbplPewFQTc2GIAaYPp5u7w6qUUSc/c3gHhUNpQEb62hQDLdsZhmGBbTnywbXe262EaTvlE0hmHlE5bhpvZRMr0vj0NVzr5QDAMp14i6fTvjVf5Fjmm6dSzkhAMOPco3bqW7XzmjRd3Tr1+/KlY3fwtzoEnrlOXIZyxKunMmzcZUrrtCN943HZSGT29srZzTGgi4cRa50UhEoCgL/OnNndrNBrNR3Ny96SPpUop6Xp8u6dkyU4TrZPsqkv8Tndt2BJMI7UQSJmbfWZi/zUhur87LxVnKm+np4l6dnIMFLZPE06l6XBP3nIOyugaDZzKqJUak2umd44AcbKcneCMS1dDdYPPj5a8aTdEp2TFAGk574VvxSLcPKXCJGXmFwJl2whvpeCVgc5TwwzRmZ0E97Z9CxblLnAkNkoJTNPoklZUC2mNRqM5Hic3/2LXX2BXu7ZR7Nq7mzGjyxgxfDiXXXop1VXVSBv3V1yAECxZ/E6nimQFQOoAACAASURBVGwrli5ewh+e/T1lI0YxZsxYZp99LocOHkLajprd0tzKnIvnMLpsNJfNuYyKIxXs3LGTB7/7IAteWcCI0hGMHDGSyZMms2/vPv76ygLKRpVRNrKMq6+6hrbWNnbt3MM5Z5/LhPETWPDXBaxauZKxZWMZPWo048aO473l77F7127GlI1l4viJ/O63v8VK2jzy8GOMLhvD6LLRfPmeLztHXCJIxBP8y9f+lbJRZUyaOIkF8xfQ0tzCV+/7KmWjRjNh/ER++IMfYls28bY4d8z9ImWjRlM2ajS33PwF/vzHPzOmbCyjRo7iqiuv4sjhI7Q0NnP7F27jgvMuYMfW7WArXv3rQsaMGs0F51/Aru07qK2q4bqrr2bUyDKmTp7K88/9nn1793H+7PMZNXwE06ZM49133uHZec8wfux4Ro8azSUXz+HwgUM898xzrFm5Cjtp8/3/+31u/vzN1FRVdz4bV9K2NDVzz113U1dTh5cKHQMMw3TM4O5n6Yb59D+NRqPRdHLyhLRPZZJ2uhuRKUxkh+TnP3uYLVu38qMf/Yi9e3fT1trM008/w4svvoiVtEjaFklpg3IOlUjaFjfe/HlWrV7Nl778ZV5/4w3KD5djWUmEIZC2zdChQ1m+bDkPPfQQjzzyCJZlYds2whB86Z4vsenDTXznO99l3dp1GIbg29/6Nps2b+Kll17GshS///3zPP/8n1i6dBmBQIjx4yawaPE7TJt+Jm+/tZgpU6bywgsvMn/+X1m5cjWtrW289dbbRKMZPPLIo6xcuZrCgiJ27NgFwkloYpoBnn3mOd5662127d5DY2MLvXv3ZenSd1n3/vt884FvYZpBItEMfv3rJ/npT3/Gj3/8E373u3lkZecw9/Y72LBhIy+99DK9+hRz8HA5BUU9efjRx2htj7Nh44csfPV1li1fwVPznubPL/6FhqZmRowsY9WatTz19LNs2PghrW3tTJ1+JitWrWbF6tVMO3MGoXCU7//gv1m79n3mXHY5m7dsI2krbCWorqmjI55gytSpbNy4EZm0fA/VUbjraht55X9f4dD+w47pO+FcdiwYTrnO00983w3/X5fvi0aj0XxWOXlCWpD6cTa8zVLRaY6WSnLvffdyxtAz+Ld/+zdGjBjJ4sWLmTJlMkOGDGXNmjUIITAM0933tB2vaVshlcQ0DYRhMGXaFELhUJqlWSlFcXExDQ2NNDY2krQspJQ89uhjDCst5Ve/+h/OO/88pC158MEHGTJ4CLfeeiu1tTWYhkFeXj6RSIQLL7qQYDhIIBBA2hLTNLFtm0gkQv+B/QkGgkybOo3GxkY64h188YtfZOKEieTn5zN8RKnjCW0IDHcTOzMzk6KiIurr69izZy8Txk9g+LDhPPmbJ1N70EopQsEQyt04TiQSPPrYo4wYMYLrr7uexoYGhg4dSs+ePbn22mvZu3cv9XX1jBw1kuycbPLy8sjIyKSuro5177/P+PETuO22W7nyyqvIyMhg0aLFTJo4iTOnn8m6devoSHRw//33M27cOPbu3cuUqVNSZvH9+/fTs3dvpp85nS1bt2J4pnDXko4QFBTEuPLKq3j00UeoqqjGCJES4B/7+6LRaDSfcU6uuTt1BJTzp6RK/cgHA0Eef/xx1q1bx5133olpGmRkZJCVmUVmZgYNDQ3O3q2UICEQCLh7y77X0KmpAaZpOqFPQH1DPXl5uWRnZ6fCsu69715e+stfyM3NpbGxkVA4xHe/91127d7FvKfnEYsV0NzSTEVFBYmOBAv+ugAraWFZNoZp0pFIYBgmra2t7N+3n45EglWrVxGLxQiFQvzyl7/k57/4Oe3xduLtcQzTQEqJUs7CQilFc1MzRUVFDB48iLXr1rF1+1Zuv/32VKgYKJJWMnU/oVCIe750D9u3b+dPL/yJvFgeR45UMGPGmfz2yd/yzuJ3yMzKZPPmLbS1tdHQ0EhbWys52TmMHzeOxYsWccUVV1BVWQkKzj77LNauW8vy5cuZOHESgUCQH/73f/PYLx+jrbWN5uZmFIqOjg5Wr15FReUR3n13Ges3rKe6pgrXDR07aYMAy7bIjeXwzW89wMLXXuXwgSOpxy9EFwXZrzlrNBqN5ihOzZmA7l40rkezUgozYBIMBsnOyWbKlCksXLiQ4cOHM3fuXL773e8xa9YsDNNwtFADbGljGIZr1pZEwhHa29t5/PHHaWtvQ0lFvKODgwcOcs455/CVr3yF+++/n2g0SkZGBoFAgGAwyPARw7nqyqt48YUXsSyLn/zkJ0ycMJGLLryI9rY27rrrLr54xx3Mnj0bwzAwTRPDEESjESKRMIYhuGPuHdx3333MmHEm2dk5zJo1i0g0SkZGJmeffTb19Q0sWrTIOZ4ZR5Oee/tcZs2axYCBA8jNzaW8/AgXX3QRkyZM4pvf/Ca2ZaNshWk48xKNRl0t3OS53z/HxIkTufiii9m3dx+5uTk888wz3P/1+5l7x1wmTpzEDTfcwEUXXcTc22/nmmuuIRaLkZmVSWZmJldeeSWvvvYqlVWVbPxgIzNnzmTa1Gn878svkxGNEgwGmDZtGn2L+/Lqq68SCoVoampi/4ED3HPPPdx7372MGDmCTZs3pc6/NkyBLS0SVhJpS/JiuVx+xWX8/OFfcOhwueOT5vqrnaJvnUaj0fzDcWoyjvldfD1Tqfu5lI5J2EkAolLnOB/lTO1vT/j+d/0MX72ursVuWaWcIzRTR2nijUVhmEd/7jhVe8dudmnbey86204lE/GKSJ+XuSEcb2nD37ZviMbRffr/A+lhbW5ZO2ljBszOsGu3D2lJjEDnYGxLYhjiqPtLve5uzo9BS3Mr//ov/8ITv34i1V5tTT3z58/n8ssup6Ao3/H4/ighrU3dGo1GA5wqncbvzmuAbdmp0RgBRztGgGE6wk115xbsb0uSEorSlinHNNu20wRm2mufAHK0cTcsKxX/6who8IVxuYsIICWEbMvu7L+bMQrRme3Lu0+Bk4HMazcltNyxpbRNw90SSMVU+8bjelYfJaBTL1VKsCtbpfrwC2glcffyRecWRNc128cQmF6WMuVbsBQU5nPJJRfz0EMPcfjgkY8W0BqNRqNJcVr8ZJqGebS3rw8hOrXGbvEJOcM0HEEkSTloHRe3WcMUaQIpJQg9Aexr3z8+wzTTZ1Gkl/e/Ns3O+zQMo3sBqHwh2pAmQLv2kWZh6NJfIBBI1Rem6PQBgJQDnxdqndamP866y5R3CR3vZuwqFZbtLZZsS1JUVMjXvvY1Fixc+PEdyDQajeYzzMnN3Q3dZ7HwZeCUlsQwjU5Trl979Or5BZM/gYbvmuraR1dh5r/eXZIVV0P3X7KSFoFgIE0zFwJHUzXTtXBPw5WWTO2jp7WdMkMfbUoXxxSCHG22787M3/V+vZwlqQQqx0mc0nWbwDe/Sna+OWqB4Dl5u/cSj8dpbmqmqrqK//zP/6SwoIiCwkKkrTAD2p6t0Wg0J8LJF9IeqT1bn0anXHOs6hTOQHqua98eMnC08PNeCtLdiY+htXoLBOXLcua/JnxlA8HAUfVTY/EJUP/Y0/rCC0Vy76dLMdu2HW3bL3w9M/TxBOuJ4pnN/dpyN4uc7nJ7g2tFEJ1z5a+DAMuyEELQ0NDID77/ffLy87jrrruZceYMvvq1rzomf1ur0hqNRnOinHzHMT8+AXr44GGqq6uxpU1mZiaFBYVk52QTjoQ7y/qEiDCEu9cqaGhoYN/efVi2RV5uHoMHD6a6poaiosJ0gdRV+HUnS10HKyXhyJFyjhw5wqCBg8gvyEdanU5tR2mqAurr6snMzKKyooLi4mJaWlsIhUKEw+F0bdfVOr296l27dtOrV0+ysrM+8fyl7Yt3pUu6Tv+Yj2lt6KavlIWg6/6+W6+xoZGvffVrjBg5gtmzz6OqqhIradGRSGCaAa666opUjvHjohVtjUajAU71nrT7Q29bNkopauvqeH/d+3R0dCCVPErAKrpo0e7na9as4eChgyilWPf+++zfv5+33nrTPR6SbgXKsdcmjgRtaWnm0UceZcf2Hfzmyd+k9mO9U6RS+7uuM1miI8FTTz1FR0ccW9q0tbfz2KOPUV1dfbTQMToFNICUdtp4LH8mr674k7X5hLJl2ymntqPoKoy9z7q0cRRdHey6ORzFT052Dg888ADXXnMtE8aPZ/z48Sx+ZzEjRgxnyZJ33Loq/Zl096fRaDQa4FSau32YpklxSTE5uTmEwyHGjB3D22+9TUZGBkveWcK+ffsYMXIEN37uRn74wx/S3NLMTTfdxMyZMxFKEAwGqampob29HaUkwjCwkhYHDhzgxw/9mKrqKr7xjW+wauUqFi1exJDBQ7jvK/fx8MMPc/jwYebOnUt+fj49evSguLgkzeSbkZnBlVdeSUNDPQ//4mH+9f77+cUvfsGtt36BJ554gqqqKm688UYyM7OYP38+WZlZ7N23lyuuuIJFixdhS5uOeAc3fv5G1q1dhy1t+vYtZt68eRQX9+Wee77Mj3/8E+798pf5YOMHvPHGG+Tn5XPvfffyy18+jmkaNDY28q1vfYsDBw7w3HPPMXDgQL70pS/x2muv8cbrbzBj5gzuuuuu7if3RK3LxxKO3e3l+0Lm0rYYTMGw4cNS73sU9WDu3LksXPgq3/rWt5yqppbCGo1Gc6KcFt7dngYlbZkSjoYwMA2T/gP68/j/PE5GNIPNWzZz62238dOf/pRX5r+CbcuUJt6zR08KCgqYNnUaPYqKMAyD/Px8cnJyaGhopOJIBfd8+R5uuulmvvXtbxOLFdCzR08a6hvYtnUbEyZMoKRfSUrm5OQ6WmF2dg4/+tGPqK2tRSrHLVoInFSdSlFRUUFlZSUjRozgnHPO4drrriNgBujTpw+jR4/h85//PKFwCEMYKBSJRJI333yD7/zHf/D1r3+daDSCYQhqa2t57733+PnPfs5FF1/MBx98QFZmJnfffTdTp0xl7959LFz4Kvv37ee95e+xbds2AmaAhsYGKisrSSQS3VsHunqGf9zn0rWtLs/suNVNwaiyUfzbv3+dHj2LPuEgNBqN5rPLydekj7MHqlCOJ7RyzbdKsnfvXhb8dQHxjjgFBQW8/vrrDBkyhFGjRjlOVjgOTYMHD6FfvxJQkEgmQAiWLFnC6NGjmTJ1Kolkgm9/+9uUlg7ngw82kJGRQUFhIXfedSeHDx6iqrKKYChEfn4eANVV1Tz66GMMHTqEPn36EAlHSCQSvPnmm1RVVREIBrjkkjmMHTuWpsYmQNHa0srmzZuQShIOh1FKsn3bdjIyMliwcAFVVdUMH15K2agyFi9eTE1NDWeddRbSluTk5hDLj/HSyy/R2tLK9OnT2bRpM5FwBCltopEIM2bMYPToMgYPHszkyVMoiO0kEo2wb98+2tvbCQaDR8/3p6m4dt2Hp8t7v4btldeKs0aj0XxiTk3Gse46UArbSiKlJGAGSSYtausbWPruu0yePImioiIyszKoqa4hkeggFosRjUYBaG9tJxQOORm23D7i7XEUgurqajKzsggGgzQ2NCCEwhAGubm51NXXEQlHiEYiBENBQqEQwjv8Q0FtbR0NDfUUFsTIycmlvr6BRCKBGQhQGIs5JvZ4nLz8fLKyMqmuriYcDmPbNnl5edTV1WEYBpFIhIaGBgKmSTQjSjQapbKigkAoRI8ePaipqSEvLw+pJLU1tYTDYQoKCqmrqyM3J5vm5maiGRkgoLqqioAZoFevXjQ1NdHQ0EB2dg6xWOzYHuxd5/rTIi22XTnnSv89+9NoNJrPGKdWSPs78YYhRMobub0lztYd2xk9ejQBN7ZWut7XAlIezUpKR7h6flPdGPHTwollenaxNI1POsImFfvsy2aW1q7nMe0FZIujzAKOCT9pYwS9xYNKv1833sszoxvCRKGQUmIaZpontFISIVIByynPM+ke9uH078W0+W7oRL23T5A05/jU/Cl3Prr0qQW1RqPR/E2cHkK6ux/17hJ2pMX0+gSjrcBzSLI5MU9h6WvD8H3m9wTvOk5vXMcI4VLSdj2gvXzcKVdyXztuZSlRQqS6MTwBLGVKyHYuJhQIha1UysSfGrvtSnIBKAuUkVrFKNLXBd3Nx8d9xgrVuS7Bl1c9bRXkjk2lKp0u3g8ajUbzD8XpYe5WoAQIVwCkknbYCgxXO8Q8WoCKrsG+wlOEO4WTX7j6+pW27Ezx6ZaRtnSEpUGn4Ld9Mc1eCFFaoHCXe+vykQ0Ybh2RljVEOvfkr9c1vArfZ4LuY529ZlISWaTKK2xQRud8fvRwuwhbX0w6Colyh2H4pzxtjXQUyteg1qw1Go3mY3Hy9ZtutFwlnBOnUAJ/Vi3lSQLDzY8turTRXbCva6FWXfvA7cMTyF6cs89Cq3ynP0jD6xuE6QhbRyb6+rRV6vxq7+hNv+OUxLVMI0C6gs01bYOZJui8vpwnYoO00+fJv9iwOHqdIACRcO9fYrv9WFZHtwuVj3T4dhcAAmehImyBaRsYyvBPhtO1d0uAjY3Ecu/BNU2ciAPZJ/VA12g0mn9iTm3GMQ8LNqzZwPoV7xMQJhnZGYydMo6i4l5kZ2chAk4ZT/FM0zoNOLy/nG1btjL7gtlYHZL3li9nxqwZiJBIWZdTddz3Rw5W0Lu419FyXkJjYxNKQV5eTucYfclHAEgompqaySnM6VTmbXeMwhlvMp5kxfIVlJWOJZwRYtu2TYyfPA7C6Rp0aosZ3De+TfCuxgK3H6utg02bP2Ts5Im+eUng6O0mSonUFnFqCwCO/1BTtvfOflSHYsnrizi47wBJK8Gk6ZMpmzGuc+tBgoxD+eHDFA/u685jFx09ZSlJ7yptKN2q9RqNRvPZ5tQmM/F+mAMwdtJYxvYfy47N2znjzGEQwhEECSDpljfc194epyvYDu45yBt/fYOZk2bRWNvA2iWrmD5hGgEz4LQRwhHyuG0GoHevXs5r73MTSEoIG+Tm5Dh9eH0Fgbhbxl0sVOw7TFV1LaPzxzifef14GqYCFbd57YWFrMtdx+1fnMuad9cxftxE15zeOQ3C8NWXBiqRQIRDztzEgbBvDoLOnFVV1bJi+SpGlY4kkBV159OAcMBRqC33PGxDOO16gtr77wn2pDuPnsk86bsuoL01zpb3N3PTtZ8jd3gP51qHWzbkvP5w1Yds27aNGwZd5zwvJSAKqlkhIo5pI3WPOPMv8M19AJ9NR3udaTQajcfJFdLd5Zf2eUlbYUk8mAQT1i/ZQH5GlHcXLyUWy6expZlzLp3DovmvEAyHKCzpw7mXzgYFpjCZc/Gl1FTWUl1eSUnvfpCQvDTvRVqaGgkEgpw5Yya79uyhrKyMLZs3E4sVcMawYbz04gsEOywyMjJojbcybsJoevTsQ2NtE+vXrgcpKCjuz+Txo3nqt78mlpdPYWEPjLCgtrGOTCPM8uUrMAzFrNnnkF2QSyhqkpmfSygQJjOaQ21lPSuWriQgQzRVt/KrJ/6Hf/nK1/jFz37KZXMuZfnS5URDGdgkmDR1Cu8sWcrs889j2cpVXHrZ5fz2N0/Qu6gAMxzgc7d+HiPDIBSMgi3Y+O563vzfNxk8aBiB3CCXXDyH5556hsJYAeWVldx2+1x+9etfMnrsSAryc1m/Zguh3AzKJoyh4lAlm9es5+wLz2H05DG88McXaK+txw7A7EvPp2TkAAzTpKGxiV/96jfkFxYy88JzKe7Vk989+jjKUlxy7VUc2LGXnZt2sGXRVtatWk1WRhaDBg8mmWxn1aplnDlzBkuXLqd3zxIO7D/M526+npaGZtatWQNBQdmUsZSdVeaY6t384F2VcY1Go/ksclrk7vY0Y0vEicsW17ErgTINeg4qYc7t1xKN5XLwwCHOuvACrr/9FlavXZPSigF69urJrj07qW+pJys/GykgGApxy71zGXzGMFrb4zQ0NLJ50yamTp2KkjYymWDsmDFc84Vb6DGgP1fc+DnaDWhDUdPYwIt/eZFf/s/jPDPvtzS0NDFywjiuvutmQrFc+pYOZkjZcA5Vl3P59Vdw3S2f51DlIfJLYmQW5IKApJQUxGLcdvPnef7pZ6k5Uo1hGwjbwLBBxCXx+nZe+sNLPPfU07wy/zXyswtQcZuFL8zn8tkXUnekkv7FA7jl1tuQtqSltcU1yytMw0SEw4yZMpFLrriUutYWmtvj9B0wgMtuv5q8PjGsiKTHoL6cfdkFbNq9g3nPPsNTv32aLR9up2evPry66C2e/O3vqNh/mPL9e7nh5psoGz2Gbdt3OmZ1bKL5mdx87+3c+Z93UXrmELJKsjlj5EgysrIZMvoMBgwbyMjRI4m3t/OXF15m3lPPsGzlKpKmwfTzzmX05ElE8rM568JzGTJyCOV1R9i9fxfnXngusy+czd4D+1LfREP4HN00Go3mM87J1aT9DkxdNSUTbGVhBt3wIVOSkAn27dvPoz98lKFDhzD0jAE897tn6LASzDxrRqcTmLCJZkXYtnMb559/Pjt37sQIm4iA4P//xncp7lvCbXNvJxg2eXfpUs6+/BzEbkEwGqLDTpBUSRLCQgYFCWwsYZNXFOOKa69m3579FBT3JpAVImlKMCBpJhCmYsWKFZx37vn85oknaWtv59a5X+DwzgNk5WWRmx9DGjZx4hT2L+L6225g85bNRLNCYEp+/LOHqKg+QkZBNp+74yYOHD7E9LPOpMewnkw+dxqvv/EGsTMKCVRF2fbC7/mv/9pO2biRZOdmgwFGQGEbFnbIoiOQoCNokTQTZOdns33nNrb/cCvSgITVgS2SEISJZ05l584D5MfymXPFxezYtoNzzz8HI2QSzs5kwJAhfP///oD+Q0u4/HNXQgBsZVNTV89jP3+UvLwcRk8dyxmDh3GktpIeA3qz7N13KeyZz7oNqxnQvx8XXnY+AsU1N1zDnoN7sU1JnA6ShkUyYNFst6LCguIz+vObeb8hJzeXy6+9wjF9B0j/YmhtWqPRfMY5ZSFYqWMPBdhJ9xxlv3OWhPb6FlYvW8tZF5/dGYLkmcf93t5eu/47MencA03i7J96WrsXtuTfp/XKe237vagDvjKG73Pf/RDE2Y/19qU9G4W39+y17R9DgNT+daq8d111GVNX5y/PkU5J8LKk2dB4oJE/P/dnrrr8Sl58+S988d47MPLcDWivf8872xuf14/noOfNtT9izPs8SMqjnYA7twE6Hef8zmde3QBHbzV7jnwJt03TK+x50+mwLY1GozktvLttqTDd+F7pRewoUEmorqqhR9/C1IDsJIhAZ2yuIXAyjhkGlpQIhCPXDNEZWuyGWvuPh0zz9k5zRFaOwxWGU94ThmlWAO8ITAMpnThi0bUffIpgyotbOdkzTZG2WFC2E+alXCHlZRcTiLQGvZBj4SViMX1B1JY7GUnYuWEHFeVHGDRkEH1HlLjCWbkx5KLzzOzUFCgnlluJNDdsT04qL7ObG4YthEqZpJ3IOeXIWOmbSN9GirSlm5BMYLgLM4WNUm5cOoavX2+yfM9Jo9FoPqOcGk26i7blxC875zR7wjotDlg6Ak4EOq9Zto0wTFeJVI6gNwwkjkIXAGz33Gevu5DppeF0u+/WquqTDp6WqxTK8M6xdlRdqWwMEUC5scCeVUBKp11/lkxQdCST7gEYAikVAe+ip8kq5RP+jubrCGt3opQrvA3PLdtNJypcq4TyspaJtKQoSrmLGjoVZO8OkzgLHANF0DA766nO7CROaLlr9UjNlJPhxbacZ2CYppNtDQVGoNNKAlhKYkmboBlMM34opCvofQ8h7RloTVqj0WhOj4xjJ1InlUrMV08cXcx/zoPyQpD4iO3Nj9r79F/3FD3Vmf/bm0JPMHWNCT6qre5ed5dNzOPjPojuvOiPNRRXOz6qbtdxpJmplTsP7ocG6X36Yrv9xbofgK9Od2ghrdFoPsOc/DjpYzmP+fNyn2gbHsr3sUpJ0c4DIHBNxF4hv1A4ljDz7zn7r3sKnk8Se1q0V1bQpW7X//72vdfHXCp1MybvtacW++7Hs1gjlWNW71Klm1s5+l79Vozuxue/X0hPZ9oFkVbPV96/D6/RaDSabjl1yUy8PWE/XQWVSL8kRDdlujbhabUIlE9CKDeZd1raUdW5t9pVU07h1xK7G79fmHUVyG57Xj+OWVp0Cie/kO1a30NytPD0TAZ+U7GnuXqavVCoY6ihaXnNu7vvrguJ7oSpX5B3veeu7XQ3d1pAazQazUdyah3HTtAsC3y0SdorJju9xj81uhvnx3Fs8lsNPsm4ut67194xBJ0nw7szM39k992Z440un3UnkP9WtLlbo9FojkKo4wjpvzvd7PWeUNnurkGndusP/zlW+93th3anyR6v748q+3Hu76PqHqvsxxFixxrviZQ7EbqOveuWxidtT6PRaD6jnPqMY38L3QmYv8cP+6fR5scVpp9me5+ET7J0+7SWe5/U4qDRaDT/ZJxaTfrT5G/R2E5HPu5T+aT3fro9/X+mZ6jRaDR/I6f2FKxPk3+2H/eTdT//bPOm0Wg0/0RoH1uNRqPRaE5TtJDWaDQajeY0RQtpjUaj0WhOU7SQ1mg0Go3mNEULaY1Go9FoTlO0kNZoNBqN5jRFC2mNRqPRaE5TtJA+EY51SpXkuCdAaTQajUbzt/DPk8zk4/BRWbZONMGHTl+p0Wg0mr8jnz0hfaJnN3t0d/qVFswajUajOQl89oQ0fPLTqD5uOxqNRqPR/A2cvkL6bz2v+Fj1T0RA+8t21bq1YNZoNBrNSeK0FdJKKQTi+Ocme05bn3RvuBunr6MU5xM5w7q798eqcyL74V3M60oqhBDdX9doNBrNPy2nl3e3T4gJQ/z9hZHw/Rl09ncigtDVspV0/hAgpTt4V7B+mihU+hg1Go1G80/P6SGkJWmaqLSV81k3Asm2bKeKLR3Bdbz9YrfNZCJ5zDJSKpJJ57qUCuEKy6lfZAAAD+xJREFUaCUV0kpXtaXtvHcEsyM0lZQIdxaVkqCcclLK7jVnT9C6CwOlXOFrkLof27JRtrdaAWE6FgUraR3jZjUajUbzz8jpIaQNOLD/AD/72c+QtuLIkXLWrF0DgC3tTkEnccy+CgzToKGhkVtuuYU5c+bw8ksvd9tudWU1mzZtSn1k+wSvkgrDFASDQae4cLT3Fe+toLy8nI5EB9/7zve46867qa+rp66uji/ccisPPPBNLMsCCa1trbwy/xWQ8Mfn/8jFF1/M93/wfdra2vnBD37AbbfdRkV5BQ11Ddx999188xvfpKWlharKKj53w+f4P//5f7CSFmtXr+XSSy/lz396ATNg8r/z/5drr7mWFe+tABzLQiAQ+Hie6RqNRqP5h0YopU7dz75Pe961cxdPPfUU119/PTk5OezcuYvp06ezdOkSotEoM2fOwgwYnfUEPD3vaS655BIKiwr5w++fp3TYMHr26sWWLZsZP248H2z8gNaWVnJzcxk/YTxLly4llh9jyrQp7Ny+ky1bt9C3T18mTpwIAizLYt26dTw972n+/f/7d+LxOG1tbfTq1YtNmzYRi8UoLCiksqqSnj17UlRUxKOPPkooGOK+++7jV0/8ij59+jB+/HhQUFVdTUlJCZs2bSI/P4+8vHwSiQ7a2tpIJJL061fCnt176N27Nzt27OCiiy/i9ddfZ+LESaxbu5ZZZ83i9dde58qrrsQwT4/1lEaj0WhOHqful7+LQ5iUkhkzZrB8+Xs0NzcTCJi8995y8vPyCZgB1q9/3zGDu0hbUlJSQiwWA2DOJZfQ1t7Gli2bycvL53B5OcFAkKysLBLJJKtXraZv377E43HeW/Yeq9esZuzYsezYuYOEa+4WQjB27Fiuu/76lFk9JyeXaDTKoUOHGDpkKL/+9a9ZtmwZxcUlLF36Ljd+7kb69etH0rKIxWJMnDiRZcuW0d7eTkY0SlZWJtVVVdi2TXZ2FpkZmVRWVjK8tJSf/vSnrN+wnh49e5Cdk41hGBiGQVVVJVnZWYRCIWxpE2+Pp8/bx4311mg0Gs0/JIb/N7/r30lDgmEYRCIRrrn6al588UXa29sxDZOBgwbRo0cPKioqMEzhCE/hlK+tqaWttQ0UbNiwgUAgSGZmJv36ldDS0kJhYSEDBg4kEDDZt28f8+bN450l7xAMBunRowf9B/SnqLAIy3KEtBkwCUfCoBxvaiEEHfE47e3t9O7dm/dWvMedd93JzBkzWblyBU1NjTzx6yd4e9EimpubmDFjBsXFJRjCIBAMkEgkaG+Pk5efRyAQwLIsklaSnj17smzZMr5+/9cZO2YsGzZ8QDweJ5lMEggEKCwoJJlMIm1JJBIhmhFN37fnZD8gjUaj0ZwKTp0m7Xf4MsC2JUopinoUcfbZZ2MlLYYMHcLnP38jDzzwAOeecy6vLnytU6sUMG36NK6+5momTJjA1m3bmDx5Ep7xvrR0GN/+9re54465tLa2cdZZZ7F69Wrmz59Pa1ur47ClwDRNTNNMjcdO2iilMEyTvn378thjj/Hle77MuLHjGDaslC9+8Ys88sgjlJWVcf311/PANx/g3HPPobCgkAULFjBjxpnECmL0K+nHs88+y9y5t1NaWkpJSQlf/cpX+a//+i9KS0spLS3l5ltu4cnfPsnEiRMxDJPp06dz4MABevbsycGDBzn33HOJhCOdnu46/Eqj0Wg+Uwh5nD3pv6s86C5pSNf/3Q3EH8gscT2sQRigbIUCDDN95F44lBdrLKVM7fE6dVTnnm/XceB6kiucPXHPzNB1eeP3RveNTyrVOZ6uQdhexJZSjiDuLruZ9PX1tyZ40Wg0Gs0/FKdOSPvpTnh1815JV5h1V+546TtT9UmFS4Hj6W0I0ampSpDKFeC+PoH0frvrwlZpsd3SVigpkUpimiaGYWDbEtMwUkLXfz9KuslbvPhrjiO4NRqNRvOZ4PQQ0l3oKkydD7u8Nkhpr8rdQ+52wKpTU1W2cmKO/e0In4D1x2pLiWEYnYL0ozKLdV0weH3javnSiaM2DMMxyatu2vWEszjB/rp7fYw5OO51vQjQaDSa05LTUkh3RUnlxjQbxzaNH0ejTgla37WU5upfDBzPnPxp5/D29ZU2vu5M6SfSTle6CvljXddoNBrNacupDcHq5rOj0mkqUG7ykpSA7SpMXVM1uPvHbhtexjBvL1r5XNeF4Qpo1ZlJLM0xqzuh7PtLZSNTnX13ew/HuCevTduyUwlabNsGwzOVq/Syx0ApldL80+ZEpl9Pu5ZKaaq0l7hGo9GcxpxaxzGvZ8MRlM3NzeTm5ZJMWCgpCYaCKQ3T7+wFjvm4ob4eqSRSKrIyMxGGIBgMYfoEejLhhDV1t6ec6EgQDIZSpvW62josy6KwoBBhCBobG7FtSUFBjGQySWNjE9FohMzMTBBO21JKwpEwjQ1NgCI3JxcpJQ2NDSipyMvPwzAMhBAkE0mC4SBWwqKxsZFIJEJmViaJjgR19fXk5uY44VYKkskkwVAQFDQ3N2NZNvn5eUgpqa+vJxJ2x2GQmi9hCBrqGzADJgJBXl4erW2tJBIJcnJyMM0AQkA8HicSjej9bo1GoznNMb/34IMPHuvi3/3326e57ty5k5/+5KdMmDCR+ro61m9Yz6DBgzqL+szV0nLCtRYvXswfnv8DDQ31RKIRTDNAdk5Wqs3mpmYWLljIiJEjjjKHW0mL559/ntLSUgJmgF27djF//nwOHz7M5k2bMQ2TN998kx07dtDW1sbKlSvZsWMnG9avJxaLkZmZyTPPPMvKFSsYOHAQ8+Y9RUVFBbt27qKltYV3332Xffv2ceRIBX379OEXD/+CpqZmBvTvz/xX5rN9x3bWrl1Lr169+NOf/8yR8nLWb1jPkCFD2bhxI4899hizZs1ix44dLFz4Kvv27qWlpYUtW7bw4Ycfsn7DekpKSmhra+Ohhx6iuKSYgBngnSXvsHHjh2zfsZ1YLMYf//hHyg+Xc6TiCP36lTB//nzefuttpk6d2ulMd1Ifukaj0WhOlFMvpN3/tbV1mKZJdXUV+fn5NDe3IG2bu++6m1cXvsr06WeSmZWZVn1Y6TBaWlo4++yzKSos4sMPP6StrZ27776blStXMnnyZPbt28+B/QdY8s4S9u3bx1fu+woCJ1/3d77zHUaOHEn/Af2JxWJMmjSJXr16cfDgQZqampg1axZlZWV88MEHXHftdYwqG5VKMhLviLNnzx6klPQoKqK4uJgZM2awYsUK5lwyhwkTJ5Cbm8vBAwfJz88nP5YPQP9+/Vm1ejXXX38d0pZs3rKZQMDkuuuu4+DBg+Tm5lJfX0dmZhbDh5eyc8dOpk6byrDSYaxatQoraXHlVVcSiUSoqa0lkUhQWFhIZkYm/Qf2Z/jw4TQ2NnLxRRcjlaS2to5hpcPo6Oigd+/etLe1AzgLF3Ac2PxPWgtpjUajOW049clM3P+GEBQVFZKTk8Py5ctRUnLo0CF++dgveeCBB1i5YkVadcNwhm5ZlvNaOOFTO7Zv58knn+Qb3/gGwWCQBQv+SkVlBVddfRXPPvMsw4YN48W/vAgIbrjhBqZMnpIax8GDh1i+fDkXXnQh0WjU+VyBZdkoFG+//TaRSIT+A/rz4IMP8s477/Dmm29xpKIC27YxDBMraZFMJtm2dRsbN27kkjmXUNyvmB5FPZy0n6ZJLJbPV7/6VV5/43Vyc3MBCASdwzMCgQCTJ08GFFJKLNtGSunsV+PsrxvCQEqJkpJRo0YSiUQIhUOgoK6ujkAgQDgapq62jra2VsoPl9PQ0EAkEuGMM85AKt8muhbKGo1Gc9oSOGU9d0lK4mUAmzlzJosWLSIajVJYWMj7698HoLikhIb6RkKhIBmZGak2PGFtGCYAwWCQbVu3UVNTw5ChQ5hzyRza4+3s33+AWbNmMXPWTCKRCCUlJSQSCerq6+jVuxd7du/hoR89xJ133UlTUxMFhYWsXLmSnJwciooKeeKJJ4jFYhQXFxMOR3h63tMcOHiABQsWMmL4cF548QXi8Q4i0Qibt2zhT3/6I1/4wq3U1dbRq08vFAqlFLZt09Lcwk033URbaxvDhpWyY/t8Vq5cxaHDh7gg/4LUwsMQBgUFMZYvX052djY9evSgvb2dVatXs3/fPmafNxvvuE3pZmyrqKggLy8PJRVJK0k0mkFOTg719fWpOGwraaXmXiBSYWoAQh0jlE2j0Wg0J52T6zjm98ruEjbV1taGZVnk5ObQ3NhMa1sbubk5bNu2HQGMHT+WqspqsrKyyMiMpupXHqkkP5ZPKByitqaWSCTC5s2byc3NpbhvMa1treTl5VNTU00oFGLbtm0EzACjx4ymsqKSSDRC7969qaurY+vWrSilKCwoZPCQwezetZuklWTYsFJ279pFbV0dhiEYM2Ys0WiERCJJdVUVJf1K2L17DzU11YwdO5bqqmr27NlDKByiuLiY4pJimpuaSSaSxApj1NfVs3nzZgYMGEBxSTE1VTXs3LWTAf0H0Ltvb2zLpra2lqLCIqSUziEgiQQjR4wkHo+zZesWYrEYQ4YOAaCpoYlQOEwoFKShoYGMjAwi0Qjtre3s3LmT9ng7I0eMJCsni0RHkurqKvoW9+18Jj4nb+88bY1Go9Gcek4LIX3MTGLSV6yL8PAnJjkq+YkbtuUXOJ6FV/gdyPx1vPSbXnpPX+YwwziOdvlR2dI+ihNJ9embDy9s7Kg6Xeb2/7V3LssNgzAUlZz+/yejLszjIp6ZTGy3c88mHWyIoIsbCSSaNZW2jy+XurSDEELIpVy7J41Ci7qA1b5ESg6vRvFNecBBcv5vVTksF8GOYgz9crtF5U6Cp9AtnGHoLNxaBOxAAQudnOfeHNPXjvKj8W89bbNQ8rWr/GUIRedyolbmm9bKglW50rncaOyfn0Heth5aVz0jhBDyKO7dk0bBRFRKHevIoVBtLGmUnQNUnmAPldMbHj0+VA55VR5+KYByCtzr51UuwnBjN/OK42S7lrqe5nq+v+qHtmmqPW5lfznP44iRA3OeMq79olobIYSQ+7i3LOgo1OvbR+LRa1+JDoiTBVfLe2YnHHIbxh/QbrwVS9rw+0fimPeRIVyNgjsbr/ffpkgTQsgjuS8FS6T2ontlOBFrP7u/L94RmZHwYzW0ng077SrV/BTf9bZr/Wxn/MqLXvUf0YlgEEIIeQ7Xh7t3Dkp1hNti0Q0LVm69cu80/bxnaUXccnh4xwb/A2HVB9+Fve+ydW6toI484FHIe3QozIezPc6Dt+Bu3aJQE0LIY7g+3D0Lca++sCc+IyHC53Da20zaazBXbJ7AzrnGs3ug/UltbNsNN6d1mM1jFpafjUuRJoSQx6A2EelHk4pmzYSo52V/g3fENfENe97Zk97dZiCEEHIb953u/pRdMfmrovMtr3Y05l9dJ0II+cf8AijPbIUnvKRZAAAAAElFTkSuQmCC;" vertex="1" parent="1">
          <mxGeometry x="840" y="10" width="489" height="282" as="geometry" />
        </mxCell>
      </root>
    </mxGraphModel>
  </diagram>
  <diagram id="4Jowr5-_N9zPqPjkHlb9" name="PÃ¡gina-2">
    <mxGraphModel dx="1120" dy="484" grid="1" gridSize="10" guides="1" tooltips="1" connect="1" arrows="1" fold="1" page="1" pageScale="1" pageWidth="827" pageHeight="1169" math="0" shadow="0">
      <root>
        <mxCell id="0" />
        <mxCell id="1" parent="0" />
        <mxCell id="7FPVHTGsxiqhTeikRGE6-1" value="" style="ellipse;whiteSpace=wrap;html=1;fillColor=#4D9900;" vertex="1" parent="1">
          <mxGeometry x="245" y="170" width="130" height="70" as="geometry" />
        </mxCell>
        <mxCell id="7FPVHTGsxiqhTeikRGE6-7" style="edgeStyle=orthogonalEdgeStyle;rounded=0;orthogonalLoop=1;jettySize=auto;html=1;" edge="1" parent="1" source="7FPVHTGsxiqhTeikRGE6-2">
          <mxGeometry relative="1" as="geometry">
            <mxPoint x="310" y="170" as="targetPoint" />
          </mxGeometry>
        </mxCell>
        <mxCell id="7FPVHTGsxiqhTeikRGE6-2" value="" style="ellipse;whiteSpace=wrap;html=1;fillColor=#FF8000;" vertex="1" parent="1">
          <mxGeometry x="250" y="10" width="120" height="80" as="geometry" />
        </mxCell>
        <mxCell id="7FPVHTGsxiqhTeikRGE6-3" value="&lt;font face=&quot;Comic Sans MS&quot;&gt;BMPS&lt;/font&gt;" style="text;html=1;strokeColor=none;fillColor=none;align=center;verticalAlign=middle;whiteSpace=wrap;rounded=0;" vertex="1" parent="1">
          <mxGeometry x="280" y="35" width="60" height="30" as="geometry" />
        </mxCell>
        <mxCell id="7FPVHTGsxiqhTeikRGE6-4" value="&lt;font face=&quot;Comic Sans MS&quot;&gt;OTRS&lt;/font&gt;" style="text;html=1;strokeColor=none;fillColor=none;align=center;verticalAlign=middle;whiteSpace=wrap;rounded=0;" vertex="1" parent="1">
          <mxGeometry x="280" y="202" width="60" height="10" as="geometry" />
        </mxCell>
        <mxCell id="7FPVHTGsxiqhTeikRGE6-9" value="&lt;font face=&quot;Comic Sans MS&quot;&gt;El BPM , esta conectado a OTRS, envia un ticket&amp;nbsp;&lt;br&gt;y genera un correo para OTRS&lt;/font&gt;" style="text;html=1;strokeColor=none;fillColor=none;align=left;verticalAlign=middle;whiteSpace=wrap;rounded=0;" vertex="1" parent="1">
          <mxGeometry x="400" y="50" width="280" height="30" as="geometry" />
        </mxCell>
        <mxCell id="7FPVHTGsxiqhTeikRGE6-10" value="&lt;font face=&quot;Comic Sans MS&quot;&gt;EVENTOS&lt;br&gt;Altas Correo y ticket&lt;br&gt;Bajas correo&lt;br&gt;Suspenciones temporales correo y ticket&lt;br&gt;Promosiones correo y ticket&amp;nbsp;&lt;br&gt;&lt;/font&gt;" style="text;html=1;strokeColor=none;fillColor=none;align=left;verticalAlign=middle;whiteSpace=wrap;rounded=0;" vertex="1" parent="1">
          <mxGeometry x="400" y="172" width="280" height="70" as="geometry" />
        </mxCell>
        <mxCell id="p9G_rXpUNEzWeuPvI0BE-1" value="" style="shape=image;verticalLabelPosition=bottom;labelBackgroundColor=default;verticalAlign=top;aspect=fixed;imageAspect=0;image=data:image/png,iVBORw0KGgoAAAANSUhEUgAAAekAAAEaCAYAAAA1yK8gAAAgAElEQVR4nOy9eXgkV3nv/6mq3iS1urWPdo2WWTSj0aw2Hhgv4AC2wQYCBnITTFju8yPwJPcmz024SQzYCQSC8TWrsSEswYTFgAHjdewxXsb27KukGWlGGmm071K3tl6qzu+P6qquLnVrsccwkPr6Gau76yzv2d7tnPOWJIQQOHDg4I8DJ07Atm2/byocOHBwiSD/vglw4MDBJcKzz8L27fCFL/y+KXHgwMElguRY0g4c/JFgYQG+/GV4//th7drfNzUOHDi4BHCEtAMHDhw4cHCZwnF3O3DgwIEDB5cpHCHtwIEDBw4cXKZwhLQDBw4cOHBwmcIR0g4cOHDgwMFlCkdIO3DgwIEDB5cpHCHtwIEDBw4cXKZwhLQDBw4cOHBwmcIR0g4cOHDgwMFlCkdIO3DgwIEDB5cpHCHtwIEDBw4cXKZwhLQDBw4cOHBwmcIR0g4cOHDgwMFlCkdIO3DgwIEDB5cpHCHtwIEDBw4cXKZwhLQDBw4cOHBwmcIR0g4cOHDgwMFlCkdIO3DgwIEDB5cpHCHtwIEDBw4cXKZwhLQDBw4cOHBwmcIR0g4cOHDgwMFlCkdIO3DgwIEDB5cpHCHtwIEDBw4cXKZwhLQDBw4cOHBwmcIR0g4cOHDgwMFlCkdIO3DgwIEDB5cpHCHtwIEDBw4cXKZwhLQDBw4cOHBwmcIR0g4cOHDgwMFlCkdIO3DgwIEDB5cpXHFVS36TQGgCSZZAWH6WQAiQJCklsxAi5bvxXAhhftb/CoQQKWXo3wWynKonaJpm5jP+aZqGJElmHv13o07ZRkcqTWbDLM81bXG9mdplb2NKOgQSErJsp8FWu6XN9t+Wqn+lZab0td7di+mXQEJKpE/XFv1/RnpZlpL9lKlMS+60pEqJcUzUm0L7qyhTliS45GXKi/KkG6NFc8NWZzJvomDLH9KtIYSZ3zqWmcbeyC7Lip53OYil51FK2XLmOflKy7yUyMSH0mGpsbmckGzKytpk9MGlrH+pPjV4LrAkzzTSppad4NkJPmlPK0mSWaaVt2cq91K03aDJkEuaJszfXylSeQaAlJbHgmTKt8W0LEGzWMFqW2m/rHRNpIrM5dO8VliO1pXQoAlYCW8TacrLVL++aF4dXb8raEvQ+krpfC3KTNf/y6XPVN9yY3mpxsc+P15JuavhaZfTvLpUWC0/ulRlrhSv9Zj+Puq36KSXrM6V1LsSWGXUH8p8l1RNF9J2pmh8XYphglWzSWehpdOKli5vcbnL45UqQUtlW45BClbeFixpjb+vdoJohoG8yr60prcrS6qqIcvyistMY7yuqN7fdZnLKVEaS1SYtsykNyfTeC63btLRaaRfqkzd+7Tygn8X6+h3jdUYyCtt/2rW8Urxh9Kfy8Ho75Xwu9XwxNcKKx4jSd/vvcydLbgg2anWyZ/iQF5KJTIzWUx+84GlDGueFeBSu3VSaFmhKmWt/9WSYp24YrVmnQ2rpUWSkkMklnBVrsblYyTVLuEYvVZlrkTzfyV9asUipe5VMioh0tNkF9DLVvMarqM/GqxmrP4AXOivBay7NytJ+wfRRQLEa7B9sKJ0rLyPXOkKTXEJrKRScwRFOtvZmmjF+F1oZEsNTorFmYaOVzuwy+Vfzt29aqGCdUzTF/5KFKPXYox+H5r46upMJl7Oy2S1tperX2J1FviqluZ/Q7wWbV9NmZfaijfmx6XGaub+70sAr6btK/aK8PtTYFe1DZVuT1rYPwsNKcFpEkcIMrhNReLf4gMGyxmP1ufprHi7h++V7te9kj2qpeoy6LarIun2KFezt78cNEuFdpeNeVbsvylzdpDEH4xVswqstE1/bG3/XbQnE8tYyt1t5zd2/pi2PJGaPh2Ptf/2ag23ldC10rQGfenIyZTe/izTeNp/TxHSIvmj6ScUCcErIVky6s/tJ/ZWKx1epdc3pYBLKQBXUx4snnD2/KtpY6bFkLIV8Qqs3VXRcIk11teqzNcC/53b7uCPB6+IH74yp+eKkGkNSHZpmM5C+h15VJdaf1Yr3n52xPw9Q7pMdUpW2bUEz3fZfzQ+CKELZglJd9xbK7AeErMMrLAfPV+kHiU2AdJoXMuqJZdwoC61Npqy30yicy0Dv5SVvYg2c8/YtvdoH0CLG/VSbw28FmviD0X+/Hduu4M/Hrxiq3s1VkwmE9iejgTrNx5fZgtCsrYlA21pD1ankWPW8z+L0lt+XmQ4pfNQmPTZ3N1Ja03fX5aEjZKEBEq9+aZB4p6pqmooioymWZ3eidbLLOoI03LUBJJieaCR6sddRitZseZ4ifeT7GWmE5ivRoiuxJ2SyT1/ma0FBw4c/A7xSrb2VlywRbAJbLE1JFs60Hm5wdNJfIbUndFLZUlrtu9Shs/29FLmuuzbibZQIinPzKqW2BqwPk+3XWAtO8WSNs1ugX64yPyBhLoh0KWvG0mzZDJKFSqKov8oyxoIJZEmvU/aMBglWBxIwWxAQh1YYqAkCTRt+Uvhq8Fqi1rpvspKkO70uYQ+l+xWOqQOgSOwHThwcMkgLH+tRpMhXCWLIWdNYzAjqxC2MiFLOtOISef6Xu1eobXsdPUa5RrMdLnyDQNQSmYzijEt5jTM124pL5IDaeq1ywuTz+uWtF6lSPRoivkvNJBlXTgLGaKACrMzICs60YobvD6QvJba7J1gRABaSlVZxuWwFC71nvRK61qJ4mdPvxStS7nEre5tQ5Ozpl/K6hYisV4cae3AwR89rOvejO6VZltuxQXBYqmzFPOxCsOVBp+2KgSrFdDpyjGQyXo26rBb0st0jt3Tn+I4sLu5bYZWuu4Utuf28lxJivXHKVarbuKCgPCIzN7H2jl2uJPR4RBTkzNEojF82W4CQTcV1UXsumITb3pLLdl5gAxC1ZBccqJDlunx5aSNFUuYh8u5qUUaUux5MoVq0zQNlyKjahoueZEzfxF5Vpg6T5r60h3skkhex0nmTZwTkFLns05baoANa9CLS+1lcODAweUNM4hPwjCSpMXX+1L4VuKLMHhFOimUNmOa55bfNE0DQWp4YcNNLpJeUFmRFttxK5UFlnJFcud1cTo7fVY5ZzLSBJ8VkunGFwlFw8qTBaAJgZLo0CRv18OgGmGGJSCeCBKFlOoFtY6HyeMt3mVNEyiyZFjS8QSFrsUWbRxe2DfKV774Y2JzAdxyXsK9oaIJPaHLI7MQnUdWFigud/GPn/4AtesAL0sOtJCShGiqxszMDIFgYJEVrqmCUGgaWZbJzc1NTqI0MKIyLYKkqyBGBy0lVK1CzdqJhlKoGjQnMgoh0DQNRVFs+wzJWSZLej4ARZYWCet0BxOsIUeN9GbADy0phDNpdY5YduDgvyFE0i4yhIQkSyiStEjxlxLpgUWmXDymoihycr858TwSieBSXChuxRTq5jsf0jBWIRKC08aUNIvwsucxsVKGZpUZIlG2IqfkF0Ikt1XtDFOzVLOERa0JzHdJGHw8FoujKIrJjw0FKa4m05nCXaTn9QYMGSHJEjLQce48yh2f+cwd+gazC5DQ4iApugSNhOEbX/ktP/3hUdQFP7LwokYXkEQURRIgVITQ3eASbtCymA1LvPDcSaIRN02bi5D0Ykk5ambRFnSKJDra2/nKl7/CNddcg6K4gORedFdXF5///Ofxerys37B+0cClWIoSWF/OkfpP7zx7/5tjYgrFxYHPJUk/FIcsocZVfvvss/zwhz+kq6uLmpoacv055uQ3ypct2oCUKHd2dpb2jg5K15Qk0hjapD6gVgUPyUYfSaFtpLU+tw94KBTm2LHjlJaVIUsrC/fpwIGDP2yYl0MkXYB0dXXh8/nwejxoQiReUJO01lLOA0kwNjLGQP8AAE899RRjY2OUlZWhKApjY+O0nz1LIBjA6/EiyTpPu9B9gby8fCSDz2hJj+TAwAAT4+NomkZLSwtFhUUosouhwUH2v7if/t5+SopLEALaz7aTl5+HoijJ9lhe+iRs9KZY/glcuHCBmfAMXV1dlJWWmX0hWW4WxWJxFJecVCQSVrMhSCMLEZ54/AnOnTtHTXUNLpfLFODRaJSOcx0MDQ3j8XjIysrSLV4MPq1Lu7Nnz+LxePD5fEljT1rMr1Ps4oSGIEswvxDh3//931Hu+PRn7tBHK2me6yYu/Nd/HOexX7UQn8/Hp2TjlmQkVSBrCjIuNDQ0SegDg0AWEpImE4sIzp7pori4jNoGvyk4SUwKJMtVrYSwycvLY/v27WT5shgZGWF6eopwOIzf7+fIkSNMTExy663vIRaNcfHiRSILUfw5fjRNo6vrAuMTE2Tn5KBpgs7OLqanQ2RlZSPLCr29fYyMjDI/P4fb7WF0bAyPx8Pc/DzRWAxNE4yNjTM8MkxWdjaDg4MMDw+Tk5OD2+1iYmKCi329aJqG2+3mwQcfxOVyceONN6IoCr/+9a/ZuWsXkiRzsbeX0bExFhYWkGSJiYlJcnP9RCJRpqam6Ojo4KGHHqKxsVH3CqBrT0NDw/T19SOArJxsxsbH6e7uQVU1vF4fk1NThEIhxsbGiEZjDA4O4Xa7cbs95qIbGxvn4sVeYrE48Xic1tZWvvOd77Br1y4ChgfCgQMHf9SQSFpt8Xicixcv4vV5ycrKJhaLEY+rhMMzTExOEotGyfJlmVbw1OQUx44fJxQK0d3TzbXXXMvU1DQgCAaD9Pb2shBZoLi4mMnJSebm5lHVOP39/QlDR8Pn8el0yBKRSJR9+55GlhUGBwfp7u4mLy+f1tYWorEo1dXVNDVtweVy8fzzz1FdXU0wLwgSTE9NMzU1RSwWJysrCyR0uicmmQmHCYfCAHh9XrPh8XickydPUltbS3tHOx63B03TkJEZGx9jZmYGn8/HzEyYsZExPZskMTY2zuzsLDnZOUiyxOTkFDU1NXg8buJxldxgAE0TjI6OMTo6ytTkFPX19eTm5jI6OkooFEZRXITDM0xOTuJyucjOzmZ4eIiCgsKU7UgD1pu2kuW3+fl55ubmOX36NK2trYYlTVLEJ9wSh56b4oHvP4WIBVFwg6YC4HK79f1mWUHDjUABNIRQkCUJWVF0lzMKx08ep2lTM8UVLpMSk1AbgT09PXz1q19jw8YN/Mu/3Ek0EuWRRx6loWEdR48e49y5cxQXF3H33XcTmg7xyCOPULKmhPb2dg4ePEhvby8+n4+nnnqKwcEBTp9uYWpqikgkwre+9S3m5ub4whc+z8aNG/nWt77F7t27ee655+jq6sLlcnH33XejyAqdnZ386le/or+/nyf3Psmmxk3ce++9aKpGR0cHgUCArq4upqen6ezs5PDhQ+zZczVnzpxhdHSUb3/724RCIb773e9SU1PDD37wA9avX8+hQ4fo7OxkfHycU6dOUVdXR2VlJUhw7tw57r33m0SjUZ5++mkaGhq4775vMjExyW9+8xuqq6v53ve+R3d3N7/+9cO0tLRw9uxZLlzoZseOHciSxMTkFPfffz+jo6M88sgjzM7OMjMzw5EjR2hqaqKyshI5xX3xKuH40187LHHm4rLDSmn9fbcp3Ymd3zdeqz6xmGmKojA4NMjE+ATxeCxhDY9x6tQpAoEA3d3d5Ofl6YJOgMfjYc2aNYTCITRNMD4+xoWuC6xZs4bCokKGh0aYndEFUTQaZXJigomJSaanpgjmBU1LODsnGyRwKQp5eXnMz8/T1NTE0NAQW5u3UlNTw+DgIPNz83R0dKCqKmfOnmFycgqvx0uuP5eh4SE0TePgwYNUVVbh8Xg4eOAgXq+HtrYz5Pr99Pf3U1FeYbY5HJ5hfHyM8vJyzp49S1l5GWfOnCXHn0NkIUJPTw9jY2P09/cTCAQYGBhgeHgYWZbpvdiLy+0iNzeX7Oxsenq6OXbsGFu3NuP1ejl69Bhzc3Nomsb8/DynTp2itLSUyckJQqEQPT099Pb2UlBQgCzLZGdnc/58JxUVFYkXFyU8GCne1dStzVA4zLe//W2eeOIJLly4wEc+8hFkYUpMzN3v0Ajcf9/PmZtR0FQZSYAmVFQtRkybR7hnyM6PECiM4Q/GEFIYjThCFsTUGCAhNIXovJeHfv5btDmjCpGsS0o9/BRXVebm51A1jazsbN77vvfS3LyF8fExmrc2s2XLFoLBPAoKCvnYx/+Kv/zQhzh1+jTBYB59/f2mW2H//v3Mzs4hhODixYt0dnZy880388EPfpDGxk1EoxFisRjGuzxVVWV2dpbGxkbe8553097ezm233cYnPvEJ/Dl+5ubmCAQC9PT0UFpayvj4OAD9/f3ceNONqJpmDvbZs2f58Ic/zAc/+EHWrVtHUVERGzdu5LnnnuPEiRO87nWvo7m5mfr6enbu3JlwncQ4deo0O3bs4EN/+UFuv/12+vr6qKqq5iMf+QhXXXUVR44cQZIkrrvuOq6++mo2bNjA29/+dubn51HjcVRVMDY6Sk52Nh/+0Ie45uqr0VSNLU1NFBcVsX3bNpSUzW3bPzsyPbP/ni6vg1ePlD2PyxjpDkKsIPmq61huvq6kjFeLdHQI27PV4jUeZwlQ43GEJnC73SiyQjweRwhBdlYWZaWleD0eotEoQtXf5ywrMi5FN6re+Mbr2LJlC2tK11BaWgoCvB4PgUCAsbExLly4wNj4OB6Ph/yCAqqrq3F73CwsRMw+MVzeiqKgKPoe9tzcHBMTE6xft57t27eTl5/P6NgoV15xJddeey0DgwPE4jF6e3t55plnOH/+HAuRBYQQ5PhzqKqsoqSkhNKyUnJycohGY2Z9alw/XyVJEkVFRVRUVOB2uwmFQux/cT+HDh9ieHiYosIiqqtraGhoYGRklHPnzhGaCes0ClhYWKBh3Tp2v/71jI2PE4+rjI+NUbt2LfV1dfi8XoQQzM3O8vJLL/PySy8RWVigsqKSZ3/7WwYHBonHYmT5fLrta9nK1L3VyTGyvqkvEMjliiuuYGFhgVtvvZV169YhG/5zYbkAdvr4ENNjAllkJQpTUCQFpDhCCfPO97+B2z/3Pj5713v4x0/dyu6r65Bd82hSHF3o6wfQRNzFyWPnmRy3Tp3U2ayfREZ3e8uyvu+qKEiKguRSQJaRFJmYGieYn0fH+XP0XLzI408+QTAvj6GRYW644QZcLhcvv/wyZWVlbN68mQ0bNtDQ0EBhYQHPP/88+/bt49ixY8iywvT0NOfPn+fgwYMIIfB4PObglJSUcPjIYc6cOUNfXx+xWIz8/HxuuOEGXnjhBbKysojGomzevJkvfP4LlBSX8JOf/ITr/+R6ioqK+NWvf8W+fU8n6pLZs2cPDz30EB6Pm6KiIlwuF1NTUwwNDbF//36OHDlCeXk5XV1d9Pb18/3vf5/s7GyGhoYYHh6mra2N8vJy4nH9cILb7cblciXoFQwNDfHEY4+R7ctibGSUAy+/zIv790Ni7ymysMDgwEDqyjWGYSnGspyQFsmPmljMu1Yi55dMu+KEK6B7NVgur0j9aLTf+CdY/HxVdGdSmpZInm4c7LQsCdt42sta1B4rJFuCDHRqLKY3Y5n2zK9WSBt0vlqhuEpalmpvuv5dFR2ZKrKlkSUJWUCOL4vDhw7z7DO/JbYQQUJCRkKWFQYGBuno6NBPJlsCgUiyRGdnJxs2bCA3NxckdCHudrF+/Xqi0Sjz8/MEAwHOnz/Hww8/zOTkJNPT03R3d6MlDqwJIYjF4ubhWlmWURSF852dPPjgg/R0d7N2bS0dHR08/vhjBANBFEUhFAoRCATw+bLo6rpAe3uHflpcklBVnR9KSFy40EXn+U4A8vLziMViRBYiZuRGITRmZ+fwuD0Eg0GqKqtoO3OGhx56iLazZ6mpXUtoZoZoLIY/EEBDEJoJ88ijj/LiSy/hy8rCpShsbW5m75NP8tijjxKZX0ASEI1EEKpGYX4BsiTRe7GHwoICIgvzRBYWCAYCyEjJvejEOElS4jOpU1IC9ux5Ax/+8IdpO9PG+c7zuGTJOGqOvpI0OHW8Fy3mAxQURSAT0e9JS7O8/ppNvPWmen7wg+c5daKDt9/4Vj728eu42Psg3V3zeN35CFUgCRcyfmILMZ7ae4b3f6gxlRwLExFCEAgEaGxsJCsri+bmZtxuN+VlZQQCAVRVpba2ltratXzsYx/ji1/8IvX19Vx//fVMTk7yta9/DQmJv/mbv2HPnj18+ctfJhgM8Dd/87/w+XycPHmK48ePU19fT35+Prfeeivf+973uP766ykvL8fv91NbW4vH4+bd7343X//613n5pZf5wAc+QF1dHYcPH+YrX/kKb3rTm2hsbKS/v59IZIEP/uUHUWSFxsZGfD4vwUCQzs5OOju7qK+vR5ZliouLaWho4E1vuh6f10N5eTnV1dUcPHgAvz+XQCDAzp07OX36NHfccQfvfe97aWpqoqOjg3/6p3/i+j+5nt27dzM+Po7f76ekpARVVQkGg9TW1hKLRpmaniIvP49rrr2WvXufoqCgAJ/PR3VVNVdddZXZdiT0sVnJdbilkiyT3aoZvmK80vyvdb1pntvvQsJifrksWemEXbrTgJaf7MmM3YxVM34b/avKb2lcunbaT7MaaZZoWioxl3J7xl55ujTWupf6/RLQlRLWdzVl2tMt6vTkR0VR2HXlLoQGmzZt0vdnXTKNiec7d+3gTNtZCosK9dPQgC/LxxVXXgECduzYkVJHXX2dec2ptrZOd+MCNWtrEtc+Zfr6+sjPy0d26eWVl5dTXlEOwI1vu9Gkr6CwgG1bt5oWfOnb34YQAsWlgIC33/x2YtE4bo/t1hFw5ZVXggSNm42W6M9kRaZ2bS2xWIxrr70WJLj6mqsB2LKlCbfLjUDQtGULcTWO2+MGYMOGDfpd8sQBsKKiIm6++WZ9y0DST4mXlZXxzne+C5dLSTm8Vl9fj4SkR8wU+sEyt9tNS0sLa9euNfsBSZd1iNRDbFb61cTV2enpaQ4eOMiJ4yeQNCGEZFwuUvWE//BXv6L11CQKOSiAS3YhhAquMP/zr97F2vUB7vyXewlPKRQEi3jve2+h5XQXL7/chqK5kDVVH0UZVCnE+qZcvvDVPwUFUFS9rkStxj05RZZQEw1Q0nB46xF24zqTIkuomoaWyOd26ScCrVedTre28qW7vkR+fj6RSITPf/7zBAIBvU+EXkZc1e8/W4Oj2+8ZG6evXYpMNKYfxohEIvh8PmpqqlFVjUOHDvGlL32JqqoqFEXhQx/6EN/+9rdZs2YN//AP/4DP6zHnmnGUX9M0PG795KBxrcpofSyu6lqncbQ/8Xs8rpptBV3wzszM8G+f/zdUVWVmZoZ//L//SFVNFWpMRXEn06YwKwNLLPIlpY5lyyLFQLcx5tUw/lfE+1YkBVdRVjpCbEwCElfypMxtM/pBsudNK2EtWEFwBesdy3QveNGsdWeqZwlYSZZsv6VNaHy21CU0kfCsGXQmT+kaaxlIGydgSaJWA2O+p7kClDE9tnTpOmMp2gwDxJbWOuwp1y+tSW15hGo5zXyp5jj6tVY5cVjMvK5kb6e172w0IWHSZZ6wxpbfGshkmXHQVP2utB3mvWdhmT9pkHI/2prWFl7aeh1Msywc49qu9XqssbbNz5peeNp2G7AMcjwex+V2Jdtv71sjfaIsBGZo7G99+z+oqKjg6quvRlI1TciSBiimJX3bu79NaDwLLe7FLckoQgFZRWWG+vX5/J9/vIULvbM8/+xhOs8NMTw4g6r6kEUWkgYeBJoko6GBMoeSNc6Dv/lb/d60lLyTbWXo9jWR8oKKDGkMYWePpGONsiOEoLe3l76+PrZt20ZOTra+V6Mlo/DYF066YCeyZLzhRHcja5a0Bh2qqnL+/HkmpybZtnUbkiTR1tZGQ0MDgUBuWnlnLd/abisd9nwpTDnREWpcZXJykrbWNurq66isqtQXuDHx7bHQrQWnI8qeJkO+TELa2obXXEgbdae5jrH6QpYgxvbM3iZ7Oy26TOqP1k5bqnPs0tGmIFjvzNsVW+PaKMJmpWUSNLbfVyykNVsCK1MmTRhly3q2Bt15zYT0avO9QqUmXR1L6bqL1rAd1rHQWBw2czW0pGt/mjRGCGYzFvdq60n3HBYLbAOZQnOKpNA0BVc6wWuUYZ1zS03WDPTax0QC03BLm38pHpEJ9jwZFpiWeD4+Nk5hYaF+RVe3pKOAS7+GpcH7b/4mc9N+ZLJwyy4kVUIVMZCjqGKK2oYc3veBm9jcVIwWhx890MKTjx9Cxo+kKigktBFJgDKLKg/y0OOfRMoG3VwHUMwXYxgRXGSS0VnsgtK0ttMwJOtcsAoJIUTy4IKdiVkGxBDY6bzAduFjCGvrXyCFLkHyRSPWMtJFmDHalU64pRPeKUwOy7y3MRctriXdLCKhqRlttC1OTdNXi6zoQQn0elKlq6ZqIGG6xAwFwL4ulgqLtxKYZakJOmTbnfU0zEeNqbqL7NUK51eQ3xjDZLQ3QzlMkGvVGSzKo/nTEtbBUnQaSqIxD63zRVfKdYYrWxhBxmhM6OMrEu6+dEFzrPMVIfR9toQCaC/XepfVus4M8q3bIUbwoXTes7RtB7MwNa6arlGrUr6oP5dRvMz3A6Rj9itIa+y92uu1V2v18C3iY0adVqVH0i1MSSK17BW0x3AhL4t0yoWxYS6xpNJr8oB088oqVGGxMLXRn2KlClK3AJYStuk+24VpGvoN74FhXBleUut6tp61NRRe0PmltW+FZpkTIhlBbUmekqHfJdv6g0RY0JT0AgL+ALEZLyLm0vtISMiylxjzVFRXEw4JvvjZpyku9XDNdY184C+bGB8b5sSRAVTNiyy7AA1VBUnSyCvwmxfckSUEGkIFZA1hqV1D1iPQwKJ7ZYYgUyyL34SUMq91NwYkmEv6XjKZmTEQQujMwxI1JpPLdpGlbeQn2cFKYsCNCGWyLKUy1EQdsiylztkEszVc+MIIWmJpY1xVcSWYU0rDLQSZAtp4bHWZWSevRWoZfgYAACAASURBVPCa6azmTyKbVeAj6dqtsE20dNF0rMUk1uEiD8EiWLRnIKOAtp4cXdI6FGmeWQmzMgXLb1iUyGQbk9a6vVhNW6oiS1tS5lWGXrBHQDLoStBmbBOJBDMxBIBmeocSgtVolyDFHQiW8UrMAU0s5nGyRThICVqERsob64wLIpOTUzz77LMIobFnzx6Ki0tIbOeZa8AoA/TtHH38rBLeUtmizkv9aga8kJJzJG1/2pm3rcyUUMhG/XbLzyq0sCjBCQGaTjEwZ0OKfBVoQkqWYygsacYYQVoX8KI5bWufHjo4qXDr88XGJK35LJ91gZtBITB+SghlYw5IVqtWSv6TjEVibROWNZRoI7LB9ySzDCnRV8kXPaWuPVjCTS+RNDbsb+cy+zW5T+xyWQxGkmNs8GhjfhtKh135sfetOWaZlrZqBK6SFrVJLy81fWJ+KAijZySoqS5B0xZQtRiqiKPJGhBDVqJ89K/eznv+fBcq0/QPjrD36f1Mh2Bz0zokYrjdCsj6qUFNVYEYu67YrKsDMoCMhB4+U5JkZEnG+M/oWE3TUOSkJiOByUA0kbC2Jb0xsqQXmzLXEpazkT4WV3UNKZHXKmxldMEvy4moZImyVFVNYbpWq1nTxCI3uyzLpvvOsKKMobRa2JqmpQiElLVptDcxwe1uQIHO7NwuJSX9ooVkSkRSF4mdEVixlHZuPE8IM70hyfqtJ4lNC9Ly3ciSDoZClUKCbcGlpdfKBAz9wSYkTVrt5Vj/mcw30T5NmNdRzN8tDbIuqGQbRWI+JphWhsUpLB1ltVbSQsZkXovanyBBtswrRdbnvOXlRKaAN7wgVmalMwdrI/S0uldJ/0lVtZQ1EFc13UPkSiNUgfz8PN7xjlu46aabKFmTFNDRWHzR3p1AP0MiSVKyDruA1mwZ7J+l5HgB5l9rWk0VqX0nSJmQZt8YyDQeRj8aTD7RB6b1Y597JNaxyeD1MXLJMnps50SxdtrSrVFj7RlzJhHNy06zsC0+yfjPYHSZ1r2ml617BCy/k+YzSaEstGT+tLCtMVN4G2EfrYxbMgR1cl2kGBZSIuKjhRahWU6jW/iATmOi3Qmhb+0bYdGg7GwREt5Lu0sQTMXHPtbp5oxQRWq/JejU4poe/THRB8ZfeyQ1K5Q77rjjDrMsISEJGBlUOXH8HDIe/TdAaCqCOLFYhGuvbaSmppKq6gKuf9Me8vJ8/ORHzzIxsUA8JnRLWlL08KJKmL/48I2U1XgSPaL3mlV7lZC42HuR++//Ft3d3Xo4t7Jy846ZJmA6NM35852MjY2Rk5OjB1VhsYtaSvzPCOEpSbD/xReRZYVgMGAKb1XThamqauzb9wwHDx7kxIkTzM8vUF5eYVr0kiTR3t5BJBIhEMhNWMIS4XCYQ4cOU5oIl5fUhlOVC93CkUzGqiRoOne+k5mZGXIDgbR73FZB0HOxlx//+Cd0dJzj+PHjSLJM6Zo1lr092wEGYdFCLQs95bWfFu1zcmKSAwcOcLHnIlm+LPy5fj2LSNLS09PD+fPnqagop7e3j46ODsrLy3UhkLjuZVV+pER+2UKCRPJ7kiwpyTeFQFMF83PznDx5gpKikhRrSWgCNaYy0D+ALMt4vPqcUuMaw0ND/OxnP6OoqJhgIKD3t3XhWrVtSO0D43ti0UiyZX6mW8WJfIZXRNP0Kx5Hjx6lsLAQl8uVUPqwXGtJnv6cmprm0KGDVFRUoMhpvAB2uozfgMOHDrN3717azpylv38Any+LBx74IXPz81RWVfHk3r20tLTi9fro6OhgbnaO3zzyG1pb2vS7/mvKOHvmDE8/9TSnT53m3Llz5AXzOHL0KE/u3Ut7ezsdHeeoqKggOysLkHj00Ud5/vkXaGlpYWBggPKycoSm8dijjzE5OUlFZQWtra08+eSTrF27lp7uHrq7u1FcLp54ci8nT57k2LFjuN0eYvE4jz/+BMePn6C1tY2CggKCwQDRSJSDBw5SWFiAx62Pq3FYM6lUSCmML7IQoX+gH7/fjyzLdHZ20t/fr+/lGVtNcqoL3Dw4ZKwvWSIe06NUZWdl43a59bWfxn1rXU/d3d24XW48Po9ejrAwWyxXbhJDZ/CESDTG/v37yc0NkJ2dpRdnX5vAsaPHeeyxx6itqWVsdIxzHefMu8oG3fZ5I6GH6Dx54iSlpWVJi87WFs04jCbB+PgETz/9FEeOHOHY0WMUFhSaEb8A4rE4Dz/8MBUVFXg9XrONB14+YAbskF1yauxuq3Jsm8/GuZG9Tz5FXl4e2dnZqUJKkPTSJP6EpkP84hcP0dKiz9fKikp6unt47PHHaGtr4+TJUxQWFNLT3cO+fftYv349p0+dpq+3L3ETJ0J+fj4HXj7A8WPH9bvHim5UnW5p4Wc//zlNTU0MDg7x9a9/g81NTbhcLh588GfMzMxQVVlJZGGBffv2cfDgQU6dPMXY2Bhr165lfm6er371qxQXFVNYUMjhw4fRVI1gfhCAF154AZ/Hhz/Xz8JChLv/393E1Thra9byxBNP0NbWxoYNGxgdHeUXP/8FW7Y0m0qfwdOVz9xxxx16xLDkQPuyCnnpxePEIjKScOOSlESwconhwTHOtF2kuCSHDetr6LnQxw++9zR9vbMoikd3hQgXcQGKS6OqNshtH96K7DM6PcE5E4KEhDCZmJqgqLCYt7zlLWzatInsLB8P/uznfPZzn2NmZsYUooWFhUQiC/zXf/2I73znO6wpLeUzd9zBhg0b0RD87//9t/z0pw9yxRVXMDg4yN/93d8Rjej3mg8fPsztn/oUg4NDvO51VyJLEqOjYwwNDfHOd76DLVuaqaqqZHZ2jn/7t3/jgR8+QPOWZoy71C/s38+nP/Npenp62LZtG48/8Tjf/OY3ycrKpqKyki996Uv853/+J+vWraelpYUv3X03hYWF3HPPPfz8Zz+nvr6BSDTKP//zP9Pd3U1zczMtLS3c/qlPMTo6SnNzM/fddz+/fvhhdu7chdfrRZL009z5+fm8+U+up7qmhra2NnJzA9x555089eRT7NyxgxMnTvLJT/5fzrSdYWPjRm6//XZ++tOfUlJUwuDgIN/4xjeYmpriwQcfpKO9g7n5OW7/59sZGRlhw4YNjI3pIfL8fj/3338/3/ve99i8eTMFhQWAfpAhFo1RVl7G1MQkoXCIcChMTFUJhabp6bnIgQMH+PrXv05X1wUeeuiXXLx4kY2NjXzzvvu45557AAmv18cX77qLH/34x1RWVRGPx/nUpz7Fiy++SHNzMzk5OcRjccbHx3G5Xdxzzz384ue/oLl5K4Ggfh3vXMc5QuEQ9957Lz/58U+Iq3FOnDhBW1sbdXW13H333Tyz7xk2bNjIC8+/wAM/eIBYLMaP/uvHPPzwb+i9eJEHHvghtbW1HD1yhM999nO0n+1g+7ZteDweFuYW+I/v/AcPPPBD1FgcNa7S29sLQHt7O+GZMHfccSdn29vZskWPRhSLx+jq6mJ+fo4777yTZ599lrq6OooKC1FVjWee2ce37v8Wzz33HI2NmwiFQkSjUW6//VM8tfcpGhrW8ZMf/4Qv33MP5zrOsW7dOu7697v4/ve/T1lpGZVVenS6qckptjRv4fWv3019fQOSJDEyMoyqaVRWVHL27FkKCgrIzc1lamoKt8tNMBDkhhtvZGPjBtR4nMHBQa677jp2XrETl+Kmv68fr9fLjp07uebqPYyPTxAIBsnOyUEIQTgU5rrrruN1r7uSqakp3fpVVf1FC243eXl5RKMxRkdHTAEyPz9PKBRi/YYNXHP1HtatW8+xY8cSlrPGTTfdRHNzM4GEkio0wZEjR/jP73+f1tZW1jWs47vf/R733HMPXq+X2rW1KC6FocEhPvOZz/Dwww9TW1fH6Ogo8Xice+65hxMnTrB+/XoG+gf413/9LJ2dnTRt3oLb5WJhYYH77ruP++67j1x/LgvzC9x55520tbWxbds2JicmcbvdfO1rX+Ohh37Jpk2bCIfD/Mud/8KhQ4dZv249//WjH/G1r36VmpoaRoZHQJK475vf5Mc/+gl1dbX09PRw99138+ijj7J27VqOHjvOHXfewdmz7axfv4En9+7lG9/4hhnV6xvfuJfvfvd7FBUVoaoqrW2tlJWWIYRgeno6cVc4jC/Lx/z8PPF4nM/ccQcvvfQSW5q28Mgjj3LvN75BX18fv/rlrxkdHaWuro6nn36ab957L7Iso6oqd911F9FolH1P7+P+++6noqKC8vJykKC76wJ19XW8Yc8b2L5jO4FAgPPnzvPP//TPHDx4iG3bttI/0E9BQQFfuutLfOc736GkpARN03jooYcSgmULPT09fPpTn6alpYWGhgZ+9KMf89TevcSiMf71s//Kc88+xxVXXMGhQ4e56667cLn0q6vf/c53+dpXv8batWsZHRnlvvvvY2EhQltrGzU1NbgSYZlVNc4NN9xAU1MTXp+Xcx3neON1b2Tnrp001DfQ2tqK3+9nbn6O0HQoqZAIgd/vJ78gn/PnzjM/P09JSYkeEQ0YGxujr6+PyspKurq6yM3Npaamhmg0itfrZWxsjKrqatrPnqWsrIxrrr6Grdu2UlNdg6zItJ9tp2lzExMTE1RUVDA0NEQgECQ3kAsCent7yc/LJzeQSywWZ3R0hPn5eTZs2MCpU6fIysqivr6Bxx57lMqqSmRZJhAIJl3umjCEtKH5CSRZJuiHrvPj9F4cRxY5CKFfopZliVhUZmbSzemTQxx6qY8zp8eZCYFb1vR9c01GljwgC1QR5m3vuIqmnfnmSzGtep/hUlS1OKHpEM8881uGhoYYGBigtKyMwcFBampqaGpqYtu2bVRUVBAOhwkEgkxNTfHRj36UJ598kk984hMcOXKEDRs24Pf7CQQCzM3N0d3dzd///d8TCoXIy8vj9OnT3HnnnQwPD5GT4ycYDDA6NoYQgorycmRJYmZmlvHxcdauXcufvf/POHbsGPn5+bjdbgKBAMFgECEEDQ0NxONx/vZv/5be3l6EEFRXV/Nnf/ZnnDlzBn+un7fd9DZqaqrJysoiNzcXl9vF7Mws73rXn1JWVoYkSUxOTvLXf/3XZhS07OxsbrvtNrKyfAk3qkR4ZobZ2VnWrClBFRqd5zvp6+9DliTKysro6+snGAywpmQNTU1NrF27lmAgSDAvyNT0FBUVFWzduo2mzU1Eo1FuueUWzpw5wyc+8Qk8bg/RaIz5+XkkdA9BbW0tt33gNvbu3UvjhkZcLhdjY2P89re/pa+3j/aOdvz+XLJzsnWhthAxIxm960/fRWQhwi233ILiUigrLSMnJ4f8/Hyi0Sg1NTXU19dz8803Mzk5yfz8PG9961tp3trM0OAQVZUVqPE4w8PDDAwMMj42Ts3aGkZHx9jUuAlVVRkaGkKRFTxeD7d98DZGRka48srXUVZWhhCwZ8/VvH73bs6eOUNuIJc/efOfkJ2dTXl5Bdu3bSM7J4drrrmGSGSB8vLyxF18jbraWvy5fi5cuIDP6+PmW25mamqKYDCIqqrk5OQwPDxMS0sLxcXFIEm43W7KysqIRqKMj49TXFxCUVGRHlfd46a6ugZNVRkeHuaNb3wjG9ZvYHBwAE3TqKysoqAgX3/5gdfDzTe/nYqKCt6wZw95QT1UY15ePrIss279OgB6uns4dPgwXRcumPM6FArrXgZVNT1AwWCQSCTCli1NTE9P8/LLL3Ox5yJer4/5+TnKystwKS5C0yFmZmaYmZ3l+PHjPPf88+Tn5bN1a7O5bzYwMKBbuB4v/f39ZHl9tLa26POwry+xPlzk5eUlrdscP6qqUVBYQCCQSyweZ2RkhPXr11NQUMBLL71Ea2srOf4cgsE8hKYxMjLCn7773eTk5OD355Kfl0dBYQFCwMaNG1FcCqOjo0iSxObNm6msrNTDQI6NsWfPHjZu2Eg4FGZufo5bb72VLF8W0UiEkjUlRBYiTIxPUFtXx+bNm2hpaSE/Lx8kmJ+bx+V2c/78edS4SkVlBZOTU8yEw9x0003s3LWTvr4+1pSu4c///M+RZZnx8QlmwmEaNzbyrne9i7a2NgCuuuoqdl+1m/mFBcrKy8nLyyMej+P3+/F4PLzv/e9LrOU15OXlEQwGUSSJ7du2U1dfh+LSg30MDQ0RDAZZWJhnfHwCj8fNwMAA73zHO2jasoWR4WFi8Rh/8Rd/wcTEBLfeeisL8wsUF5cQi8X4+Mc/zuTkJLIks2vXLqqqqmhvb2fduvX09/dRX1+Pz+ejr7+f/Pw8crJzzOubL7ywnw996C+pq61jeHg4YU1WUVxcTG5uLjOzs/h8Pva8YQ/XXnct58+dp6+/j49+9KNkZWUxOTmJx+Phz//H/yAnJ4dgXpBwOExRURH9/X187GN/xfDwENFolDWla/j4xz/B4cOH8fl8bNmyhde//vVs3LQRl8sFEuTm5hKZj/DiSy9y9mw7RYVFjE+MU1ZejiIrRGNRRkZH8Pv9epjOqUkmxicSHkGhhxgdGuL5559PeL1maahrQJJhYHAQ4y2GHo8HgaCsrIyjR49y8tRJJicndcNwYYGsrCxcbhdPP/00R48cZf369Tz77HN09+je38aNjXq9/hz9mq8EvRd7KSgswO/3E4/H6OvrIy+YR1yNo6oqqqri9+fyy1/+EkVxcfLkSXbs2G4ehJVkSRedEhKaEEmffBb8/affzP/q+TG9F+bQVD8uJIRQAIl4PIpQIBKZT2wrCDTNa5781JhDyBHqN2Tz7vfXphHQhgtEPw6nKG5kWWHbtm3s3r0bIfQwdm9961uJRCI89dRTBAIBUxAIISgpKcHlcpkCNDs7mxMnTrBx40YaGho4deoUQgiiMT0qjqZpjI+PMzczy/TkNO6EG7VsTSkP/uSnNNTXo6kajzzyG3bv3s301BRzc3NIsoQmdLdbd3c37373u3nmmWdQXAqqqhKLxYjFYsiyTCgUMj973B7cbjdDQ8PU1tZSX19vxohdWFhATVgi4XCI+fl5IpEIbo8bbyLcnBrXcCVolIQgFokSjcboOteJDBQVlbC2qpqNGzfidusX8rdv38Hzzz3Hi/tfpKy8jPr6el7Y/wJCCNOtlJWdBUAkGiGyECEai5Lvy8cIRCDLMoODgzQ0NBCLxkwXn8fjZffu3ezatYuenh4GBgbMCR+JRJAkiZycHDxuDx6PB7/fj8/rY2xsjFgsxjtuuYWXXnwRl6zgz8nB5/HidrmIRqNMT03hUhQ8Lpe5jxyLxQjk5rJ7926279iuByGwHLKQZZlgMEhWVpbpcRBCEItGGR8foyC/QJ/gLhder5e5uXmyfD7TRe52u5iZCXPhwgV2X7WbtjNtCc8OuF1uorGoHi5RCGKxmG7Zu1xEFiJUVVZR31BPaWkZbrcLWdFD5wpVY7B/gM2NjVRXVjEzM6O/HlDSX+83OTFJXI1jXHPp7+9j06ZNVFVVMT4+zpEjR6isrKSiopzz589TUrKGurp6uro6zX2wHH8Oe/a8gcqqKhAQiSzgcbuRhODUyZPs3LGDkZERFFlGi6scP3aMosIibrzhRk6eOomiyIyPjdPW1kZ9fT3Hjx9nbe1a3B4PmzZvNgXo3Nw8Pp8vse8tiESiRCK61eFNvPnnA7d9gJnwDKdOn9Jd4AIaGxvZ98w+mpubKSsr5+TJk5SWlnLq1ClCoRD9/f1MT09z/fXXMzIyQiSyoO8BuhTcXg8erxeX283F3otkZWXzlhtuoLWlBeMkSXlFBe98V4Ueu77rAl6v7oKNRCPE4jE0oREOzxAOzxCLx8zXFfoDft729rcxPj7OieMn8Ptz2bljJxWVlQihceLESQoLC1m7di2bNm1GCMGLL+5Hf/nCGINDgxQXFbOwsEBHRyLyldtDeCZMeCaMy+XC49FfYqF7v+KMjo5y7bXXceTIETweD+FwmFg0RiQSYXhkmGAwyLXXXkv3hQup2y+SfijO6/GytXkrX/v617jiiiuIx+OEQiHUxOnirKwssrKyyM7ONo2AWCxKLKaHyYzH4mg+gdfjxZ/jZ/u27ezYuQNFVnB73WiqRm6un7a2Nnbt3MVLL72EQCT4UpjpUAi/348kSQwODuLPzeXNb34zhw4fAvQ2LkwvoLgU5ubmmJudY3ZmlpI1JcRjcVRN5aWXX+aNb3yj+ZIMTdPM0MyKojA4OEQ4FNL3+5HIytItXPNQGHD0yFG8Ph83ve1tnDp1ivnIAhNTUxw/eYIdO3bw3AsvsGbNGhS3G8XtZtv27Xz+C1/gLW9+Mzk5OcwuzHPgwAE+/JGPkJefx759zxCemyXXn4NbcVFRVs5LL73Idde9kbmZWSILC4yNjPL/ffR/Mjk5xeHDh9i1axf79u3jXe/6U2644QZ+/atfEw6FKV2zhje96U10XbjAgYMHTOU4FtF5p362STO3S+LxOMG8IM8++xw33XQTra2tdHS088lPfpL8/Hz2PrmXgf4Bqqqq9MOcqqZfwUpKTg0JGf19lS5aD0W46ws/YXREwq16cckeJElGaKAS0y1vJP1UnqTqs0uKgxSmdn2Qf7j9faypwSakjWOrkhnoQALCM7O88MILpjvsqquu4vz586ZVW1lZSVtbGyUlJbpbY26OoqIient7qa2tpb9f35s6evQoeXl5lJaWkpeXx8GDB/H7/ezYsYPx8XHOtLZSUVFJ05bNpjshEomwf/9+NE3jyitfh9+fw6HDh5mdm+OKK65AVVVcLpcZQL2srIz169fT2trK5OQkW7ZsobR0DQcOHGR2dpZdu3YRjUbJSbgLDx06hCzL1NbWUlBQwKFDh3C73TQ3NzM3N0tLSyvl5eVs3LgxYY0Vc+jAQV7/ht0AzIRnOHrkKAsLCxQUFrJzxw7i8TiHDx8mFApRW1eHquoBVoqKimiob+DlAwfIzdUjlBUWFuL1evH5fAwODlJVWcXA4ACtrW2UlZZSX1/P1PQUmqrhz/XTeb6TyalJduzYQUF+AcgQmg4zPzdHSUkJc/NzzMzM4vV6OX7yBJIk0djYiBCCvLw8hoeHE4HnJwkGgxw7dozZxN5ORUUFQgi8Xi/hcFgv4/hxXIqLnbt24vX6EEJjbGyMQG6A1tZWRkdHWVtby8YNG0CCwcFB3G43c7NzlJaWMjw8TDAvyPzcPDn+HE6cOIEQgu3bthOeCesWXiSCmjhNHFfj5OTkMD83z+DgIEPDQxQXl7BuXQM5/hzUuErn+U7aO9rJzs5mx44dnGk7w0IkwrqGBrKyszh96jSxeIwtW7ZQVl5GNBJjbGwMNfH2sYLCAiorKykvL0dVVV5++QAzM2GKi4vZuHEjoVCIeDzOmTNnyPXnsqa0lJGRYSYmJsnPz6O+rp729nY0IaiprqaquspUoFpbW4lFY/hz/WzatIloNIbLpb9GsLq6ynx73MzMDIFAgJMnTzI9NU11TTWNjY1Eo1GOHT3GzOwMdXV11NXVMzY+hi8ri0Cun96E+7ukuAiAs+0ddHV14fF4aGxsJNuXxdzcLBXlFaZnw+Vy4fa4KSgo4GLPRRSXi4qKctrPnaOzs5P8/Hy2bduG2+2mtbWVwcFB8vLyaGpqwp+TjSb0cS0qKmJ6etp0Jc7Pz1NRWUFDfQNul8LA4BBtLS24XC62bNlCNBLFl+Xj7NmzRCNR1q1bhyRLtLa2UlxcTGPjJjxeNwvzCxw/dpzp0DRNm5vMeRKLxdi8eTMul5tcv58zZ/UX5dTV1lFaVsrJk6fwejw0b23m3Llz5gsi4vE4Of4cOju7CIdDNDVtSRgcuiW8EIkwMjpKX18fwWCQjRs3MjY2Rk9PD3l5eVRUVNDR0UE8HmdtdTX5+QVEoxGKi4pRXAqTE5O6IpofZHBAt/Zy/bkcP3Ect0sXRFNTkxQUFDA8PMyaNWvM9XbmzBlGR0bZtHkTgdwAkqx76DraO7jQrb8sY+vWrbjdboQmONt+lp7uHopLivU+jUZNvtnc3Mzg4CDBYJCW0y1IskRJyRqys7PovtCNoihs37GdhYUFjh8/TjAYpLGxkcnJSUpKSug838nF3ouUlJRQXV3NzMwMHe0d5OXns6WpSad1bJQtW5pRFBmfz4ff76e7u5vKyko8Hl2pPnL4KMOjI6xZs4bmZt3Lc+jQIcLhMKWlpWzevJlwWFeW/H4/58+fJzc313xz4dTUFHV1dSiKzODgEIFAgJzsbKYnp0yeUllZSSgUwuv1MTszQ01tDUITdHSco7a2lvHxMVpaWojH4lxxxRUoikJcjVNUVIymqbS26Ov+1MlTyIpMeXk5BfkF5Bfkk5Ojeyq6u7spLCykv6+f2ro6xsZ0z1BlZRWSDHOzc4RCIRRFISc7h/BM2C6k9QNisqSC5IEYDPTC5z/3M3rOjONVChGaB02TEEQTSp+UuMoUBUlDSCGathbzf/7pPeSXAQqIKPp7pWXDhNb/GELaSoH1Oolxn1CWJfNKVlyN43G5Uu6GGgERrPcvjSKNfIbrWEI/ua24lNQrA9ZekJL3Q61l2c7wmOXLsoSa5vK7IHktxx41zF5WLBbDk7CIk4WnJjYOimlampelG+VZTh4mI+PoTotFJwiNU6PmSebUAxtLIqH1G8q/MWbGOBhWr3lSOKbiskY+szRe09LcBbWlSemHJYKWLIp+lIFuM61lwthfXD85MUlXV5ceptbjXjx4RnnpDqhZnsfjcU6fPk1VZRVFJUVp08WiMb2OdEEfrP1grztTGyHF85AujTUCmH6FUB+/TIF6FEXBWlza+WRF4lHMHiHPShvJ+ZPprnTawBLLwAzkY+0L2TJhLf2cEu0pzfiZRFrHOk05KQemjHlvmY/W/rTeDCKxrs0ypNS/xr3cdCeArQeurHQvWiPp6F3UaZa/y9wZFxa+mlJ/prlntEOSrU5UHZb2Wi1oM4SxwY8t19HSLQfrM+N3+1xWNd21bV5htfepbexNOWD0nmnzYAAAIABJREFUnc3jsajfrQGk0swlU/ZYGmG/228dO6GJNELaEHqSBKpuKU9NwrOPn+Xxh08z0BtBkbMQQsOjyCCpxIkSF4K19YXcdPNW3vq2CuQsUieIbTB0IZ14ZJm01ru29nu3Bm2KLKXIV2OBW+MAWIWs+V1aIrKRhTahgSY08wSgfa4b5YFxFztJe6Y4ClKaz3ZarAEqFi0qYSgzGRafwXSRUqPxGGXZFl3yClBqEI6MHWSLDmQKfks7MsUrwJImo2BZ6bOlmOhSv60ErzSfNZqbPe8y3CSl3zVYFO3JmsYoZyXM1DKXUwJN2JWeNPQZcxlS15/Z/UspBzYa7CGKrUzTGgvBCP6T0jwb4ze7wD7nres8cQdVp1daPC72z7a2L1Lc7YKPBPMUtn418lp+08wxSOVFaYYp2V9WoWdJkFJfurE25kK6+93pKk6H5RhUmnRmNDRrPvu8ND4a/DydMmGl0S7oE/PIbqwY0BL3cxXLjyudoklDQTPPc5h9vURbrPSmKERplCDrfe6M45iJT2gkhXQ6gSFL6EFHjIKjcOTAMEcPt9PR3svs7DzBoI/6dSXsuW4Xm7YWJO++CRWklUeBSlmYZI6JbB0g+1zSbHnt7U8nRM0EKULacmWDFc1V83vyWlSqcLemx5bPTsaKYUwiEhPabgmk1QTIrEmnK3uZtKumeTWwdnCmUICJ70aELasikba8DIJpURorMoUvXCpPOuaYrn5jzlkirK1Io1uOjuUUjiXKt87jpYpIW54VS2RMl9yeVZAqyFdERyaFaTkL8jWYxJn0x7TfE+vNXMeGFy3NFUL7da1UBkRSWFvnkZFuqfkglkiTkfAMaa11QmblIR2NS9VrIRWRvKZnrP+VhAWWwLxeKtnbnEbxy2gY2AtdCvb+tU+OJeZnBiGtlyaMe/7WSR9nMYzMsu03LVGAXX2y1QRJ4byoaJuSlUqhLfKYLY9d40opI90ksWiCQk6Wby/DKNsUDCwWyFaLwV6Nlf5MkIzJYl46tjXC7IA0BS018JnKWQlHSYPlmK2dpFUhnZBOpzwsJ5DssDNAy+9GoIMUNzgW95OqT4gUD08m93s6AZtOU0s3Jpb2pA3kb/RBprZnGudMdIAZfQ9S16PdmyXZfltcUPoyFyVL0GQwTSsMRdcOk7FmcJemo8VwFmbcBrGvgUxlphP8ki297XG6Ni1yhFn7S7DYFWyre0nviF1I22lbap6ke54BaeOJL6cEW5/b+jfFIrfmFck/ZrG2ubFiBS5tQ9LUudyzV6LULTGeyyGjJb2IIFMoqOgzwG0ZkMRDGYvUTKxmErPSkHpp6IbFC9K+p7lcupRGJb5qFuZmDqRdI00XNs74bKPRWr+1XjutaZmLjT8sJdyWHLt0DMWa0Tr4yzCuRW7zZStPT86yaUQGD8ZqKzKENSQ1UisRyzHfldLwSjTllZa7nHBdAT3p5vyiMV+lkDbWwlJKsznPjaJWIKiXElSZikg3bYVBk7EVZ2vjIoU23UKTLAIuzZpP269WGmwKe9o94oSVq0e4TFXiLWRkbmumF0akVJLapiUVv0yCx9I/q44f/wph3S5YRFsmvmYV5JbhNbY+gYz8fzmkJEujOKQV0iu1SkjOhRUpS0vRad+TThFk1s+myhdPzHQ3yZMXlsyavRBLYSZhIvH/xZRa98LSWcJ22F8AYAgE6+fXAunG0koDkCK07S74RZHllmBaSxKxVKaM3I5UIfcqsNI5e8mGwWoFp9PEJVtau3a+BMHWlzQAKdZ0ShmvBktp0ImohxkdT5mY8WvIX1+tvrKcoZZuCq+Kj612bC7lWK4QqzJWVyik0+3vXtYwlIFMQnplRSySD8bnV4L/n733jrOjuu/+32fmtu1d0q6k1aqgstoVoAKIIlFcxBOTYGMTJw/FYOI8cZzHNs7PzuMKcWKnmcRO8M/2A26JARcIBgVEEQIskJCM2q7Kqq+2S9v7LTPn+WNm7p07d+beXUmAgufzeu3ee2dOL992zvmet7zp3OjPWSCDSVuJu91qYnxKG4G3ETG7hOnYWZlZOO9paHWEG5P2UhAyKmVVIweT9rwVaAqEL5eQlavsbuY9e1pTRjbN+Sy14wsaWUzVGZP/XBjYWZs6zjIv4fi053OujHiK8d0EW/t8PJsiZBue2Yr3FssebyumzKTtYzvLmrSnkJ1NyHPTUK3CTLVTsqXnRAbBMz+na0Uy40ozvJsClJH1uWjSbxVyDQLnpUa298kTzHbGqNhnlTNBMwEpTR/cItOM7XmtoPXMwcGc7ZPShFNvhHAfF3YCkpS0HAw+jaHaFfvpnepwhZcyk2uguK1VnxWDtr66rVsKMo5xTSm9aRTkbdOkc2TkOce8BBcvvA3aada87Z+QIsrmc+tCgYz1OxfpNeeOfXseVjAzrCXgZm0OSabJcYrCgNszpwkzM5xp6p4CA0mmg+mMyKyg/fRDxq5cYWszJ9zaNIdQrDuf23/aBXi3PQ1eTNaLqZrv7H3oFQZJOrP0gPOIomu53CSwNFpvfvdYYpgSzHppDqsppG4zdDN65cSFJAlm6VchbZq0TP5ztH1GZIlER0qBgpiS6JLLNJEmKLpM/izzxjUdtzAu8oF3QRxlAjzno5cm4Mzf7UiZ8/fZmufdJMzpmoHOxnz0djHpDMuDI1G3sp9NG7wtyKJSus43+5jM0kfJ+srMMZvGw50D2YXAZbMECY9wbu09lfFh71v7Zkwnw0w7guUsiD1Dj3HhOh5cwmcbM2lWPkcZnHlNZ264Mde0trVd4eg5mWRKSck6PqaAZF2y5WfLN6fWfR7mYcb58nNM/m0jDV4CzBQhpJ7OpC1BNanE2jTVVB62iWQvi8w0lWURNNOvf3QQH4H3zmqn8OYWznpupemMY9XROXmnSuyzEcsMwcBRbmc57O2RzUTuVTdI3ySXyyfI+cRUx9p08rf3C2T2hf2Zsy/d0pkuvE4aWDhbxm/fmwDpYzdbXXMtjTvnmZVmrjng9t2ZtmddXMriNX7dNopJ+6eDxkC61uQG3aVt3ARmLwHabW5l29B2LnzIq13T5r5HfKeFM43eMvXDG17v3eI6rZNe8e1hrfTs49n5fLp0Kdsyy1TqMd13ucqTDc52cpuPTuSSMa3vKU3akYuepYHcEvbK1K0A1t4IJ6NxFn6qUrgXE3YjPhbR8HI64pamVzm9yuskWnZiK21ls5fTTszsBMRLGPCqm/O7vT7ThVe8XLtzzwXTnSRuBMRrYnoJPZ5lOQ/M2t5PSYLrKKNz7OpSmhsijaUkkXyeW3i04lu7sJ0MyY3x66ZZ8yy3Z3iGnQ5dcAvnJXzb57BzvjvnkdUWkKq73XFFMl2rPTwEimz0xVkXt/HnRqfc6JBT+LDC2uvuOqZkKrS9792QQY8cNCbb5iyv9rc8qznL7dzY61UHex7Osp7tfoipIJcQMqU0ZKbwfa6wl0toliYtJdbXlIk5tdPVai2ndGs1st08nXWzlq1SuQqZC9kkoTTCZAt7vjrbTYhxDjiLsOp6ypuSszzOuF4aezbvi1Y4J9FylsVtQHoRens97XsLvRxLeO1Wd6ZnL5czrDNNzZGoq+nTlu5bNZHPBknm52hcu1YE7utpXv3mRuzt8bIxFUhvz2xaqnNOO9cB3fK2wjuXp6bSJ3Zm7LRuOfPyqqMFL+Zknx9O+mMxGMu9sFOocQsL53ZyZKp00AoLmfMSpG2sWIJIykWyl4nf7i3R3s/WM12XWBfuJN8JEIgpOZlye+7sKzf6kctbo92xjVcezrK5tYOzHb3mk51OOQUYe+g0uuRSBnuedpN9NmHPmqtCCERC06VzYhkdp6Mq2XdWeRGNbOFz4WylGjdp7FyIdra8nZPYaxBKcneaPT9NT7W5FwGynjnTzaX1JdNwDOZsgo4XpC1yNuHHrZzZGIPX82S9XQj4VMfU2UjI54psjNSarJZZ12nWtLuUdPNp7Zzs1jPriRej0x35eJmVnWPLThu8tDz7s2zakQXnOMwmbABo0tw45pKGPY5zfOi2NnQzK9sFDDeBVpp/2UzLXvWz18PZpikvWTkSIrN93eiDla7X0kKudLwEpFwMxR7fKEPqvgXn8Vi74GcvM2Rqo5rp0x9yK366jallWIk8FAt7fDvc2sitze31sqwzXuWcSht6xQuMj48DRiapgSpQVeMqRkg1rKqq6LqedMWmKObubjOMlJJEIpFMA0jTxq1nqqqSiMddZ7DbzkoB6C5cyMrH6NB0twl26VA1r3xMWvanytE8YIwb06mDoiTbxGoX1ZRAdV1HKAqKECiqiq5pNuZufNM1DaEoYLW9nUkL+wCXuO08teqfZtbTdRR7nc1ZZz8HbJe8pTRu75G6cSGg/R1k9omz/Vz7zMzHKw1ne1p1tOqNlK5E0J7OVPsxzSKUDaY1SRFuO4uzl8X1uVUHq33NMWHV1boaNBFPoAaM9sc2b6zUNXNcCbNdnHPBei4UxRhjZn7Wb2x9kW6NSOWhu7yzNCkrb6v8FozvEiGU1Fy0ym8kkqqzR/tbt97Z28uehjDLYPjsV0AY1/8JIZLj1SqnoijGMynTx789bbPc9rYxLg4x28iWpoWUD2mJGgikp2sPY9YZjIsU7KPDPq8lmA5ZUrQrY05ZaUmZ7H9VVQkEAsn2UlU1uXNdMelQql/S29ZtTjvnkqoabpwNmoHh3MbUqpPvzbBWvsbFLHanLan628ecnRakLzUY1gBFUTJ4RiKRSIZP5Z+yHliw11EI4453IYwxbV045LQGWp/2drPTiXS6JUkkUvWx6mTQe1AUNSOPVHyjN62yWfU05oSeZglxxknmpUmZ9Nxn5/R2E5RdYrDDKX3iEs5NMtUSOmrA4QgFW4DpIMWDppaGm+hvx1RcadqfWRXLlm9OETRLnha9dx6HcKaXywmCmzhvwS2s2/MLBU6xNpeIPJWw2fLweJ/h9CRX3lnKknF7l5e6lK2uyYmK901azjFgS093PpcprcjSgrxuqsqJqapzbmGc6UxFJXGkO2WvWrnGk1fZbc+kJP0SBVzK7DUPs8w9XZdJAQ/Smah1gQNgYyDpwlnyE4MJp5iunmSUTmZqZzx2P9mkhbeO4xoFtzNhN60+g3TZ6Lf0ahu8lwYk6RqzVWS7cOgUSpJxHQqLvQ/S+JtQMnRKO1/MZomxV8kZFttzN34rBOnOTOzmCOvc3rkcJbYXLLlZQ0qEJHWdlxucFxpYhMeOXIzRLc3zcC46Vx5Syoy6ubkPzEpUvRwZ2ONiSe8uneRFyKRRFoRwPyPu5SjELdx02/98wT4W3qkyOOH0fQmZ41fg7hXNkUaSmZzPepk+yaW1Gc0qnz2IaT/3GqbO7+cdHsKx1B3zybpMJZv90h7fmiOOdveck14Csz2ovb9NxyNJYu9WB1MzteAaLhd9cpTBfp1vLthJp0X4pY2GWKZnay1adVwL6qakWfTca9+CM77mYo6275GwNi7ap7Zzw66dwbnczplWV+u557EtmdLADe3WiBNLJFCEksa4ndbHVLtlmreda9xWu9nDOdff7XwSMpexMs5JC/OLYVITuC1LZ1PU3hJ4Je6l9dp75K1mzF7StXR5lkYkSPkQ9tK2rHBehN2Zl5vo5qV1OJmdM76P8w83Yp/rZqapTKxsY3AKml8SLjwL0omzUzN6x5FF88zQaqcSL9dcsv/2ytcL2cqaCzrJ6xrdtLGpDpVzgdcmKzsJSv524dbO47ZWaCFSa8qQuanRyeiczW/f3Oq1vyLXNLCnO5UhkV4P0jRoe9ncdEs3wTdb35nnpGUygiFIpnrCTTKyZ5grTEaBzY7Oebn9dOElxtnfW+lPdSR7HV7Mlr6FbAzU7b1bmKnCKZhkY+rZcCFQ3un2/1QH3zul9Vv5W7+9NDUrXLZxIW3vswh2aelmYzYexUh75qKJeBGfrHCzNtgjCkcYtzpOK0MzqnYOl0dMhbKfb0jHZ1KLNAinMPtC01LHyJyamy2ad/IWHTa/WyTfPrwyZEqbpud8ZpUjmY/H82QZXPrUa/9Klu0sxnvcp0tG+rb3bsf7pMuz8wmnFcMtL3uY5Kc0dkskY5iyTWZkx7fsYVLwHOfZxJm3czI4v1s439rlW1Evp0hmH4UXAsN9O+AUUNxwIbWH2zjwugPZLS45wryNmFZxprIk8Ls4fr0wBYHqfA+VqRgR3MowXQ00V75e5Nhrmp+LrnO2OuHZ4GyHdJq52w2uHSd1U9oRGeGcC+C5kG2wuXkw0qUZ3uwZyfSln2ySVrL80xjluZT4XPmeD0jnD0dm08377Ry872b8rvOa30lkJWq2d3bN0/rMoeHlYlbO9HLBrjRZR6bstBU8ND5bfDcN1fncSwB4p+fHudA5L+PoucBN2AjkEofcTVtnsdDrkn5OBUhkVjrNtON4PxWJbcqNOA1BwwrnVZ+cZpSz6V1HnLT8Hc99vHO4EAiRj7cIudYApqLuOueqm3DtwcwhZRK1O2pxW6eeyvJE2hl0aQvjWGKx8rESsn9P26XtyM+T3udSpaerGmeTVs5yMrqqsg7+k0HnnZbOs8w7kDuIM23LWG77LVO7hYWzRNMduFOEZR07m6S8+s1tkkxHQ56qRj3tDKaQhM8IfPi4AGDnim4T08OWnGv+ujJaNw3XXGB2WjNz0gfhCOS2S90lWnY7bFr0tM+MF9PRtnJl4poR7n1yjoRzSmZo6/s0eYv1PsWkBZjbBsnYDmlnyEIDaeftdmYsbQUyLzdN3gtnzyc9qhecgpX9t/RIw2s9w/7euakhF5Nze3eehKRzHyTW5PFIZxpWex8+fEwH52NSnaOE7aZYAMnNYFOKPxWY6eXa9JRMV9ieCTyZ+XndqOWWlpdWbZn0PZYXMpKZSlu+RUQ2XZN2imsZHS0MBu1mUpCkbNHCfCjMF7q7XTot6SzcxFUYPYsGsarn5X/2fMLZbK5wW4CYbj4+9/Xh48KAUxv1mpsO9dZNuZuKsuGWnNt55XMiEVZCSm5LoZuzjzRzvo0NZNWopyJg5NI+XO356RlbvMC5a93LZD9t2HXdaXZC0pEJGeZuY1FB13UEhgcbQ6nWQVfQJ2H/vgRNu47SfqqVsfEYxSVlzK2tYc0VC5i/GAgDGmh6HFUBlIBRWouJQ0oqc5ZdkLbTVTejJBIawYCKLiEejxMKBTMqlK0hvK4Kcx49cDaOVVSvMeOWrf08n/3Qelr86TpWcS4suRTI1Rw2jSx8+PDxFsDJLZ2TUkIikSAYDKSOM4kUHbLOANt9XQvSSakEdE1HKALLF7iT13kxHE9FycNUaGdqnlW2GVTdvGvZs0hb756q6TyX98VscbHxAls8KSVSpN/W5VWks9W0pwNN0wgEDI9wxjlpu2lCYpq0hcGoBUwMw2svd/Kfv3iFjtZhRCIfQYBAIA9d19CYQFf6WLq8hj+4ZT2XXz0DJQRCxdCmNR0dYbiuS9aUDEkyzcEHNgdYNqbn1RjZ+tjrzJ7T6450mRD29NPSJJOh28to9x6TWSCPRL1g97Ikze8uCeeSvqeDt9rS8LsEX1j6HYd9FVGmGBcedM3puMPpscqWLJBO+1z4atrvrMt0Fv3P4nHNugXMVWt2KVu2Cy4kprHVVqAMD3MuZfCsUA7YgyY0466FYDCQQatzCTcZZ8zJzpeylcfzna1M6n333XefdS7A8FEKQpiu9KSgtwv+8Rub2Pj4AUYGQgg9H5UQmhZGSAUFg5lLWUBfr8a21/dz6uQgy5fPJ6/QLL0UkOb7NKXCWnfnnu7uYdOmZ1myeKnpbg4QxmUHY+MT/OQnP6W7u5vFiy9KSjl2wdQayGkMU0/vQUWYxwxMiQlhPFOEsDV8+qYLYTWYmXYskUi7HcwafJotL0VYUnDqsgZdT914oyU0I58pOlnQND1NwEldpJF5IYEdgtRtSj6jeOfgt/27C1KHwYEBgmowXfFwDWsI1EKQdEch7OY1k+40N+8nEAgSieShCIjG4gyPjBAMBLEuF7FojBAGvTF8aRuKVCKhGe4tSSWt6TLN6Uk8nkBVlTR6llZWkzMY5RQZwsRkNEZfXx+JRIJwOJxBdxKann67FaAKgW6j91JCPJFI0i3D97jholPTNEbHRpG6ZHx0nEheJMkqrDvP9YROd3c3RcVF7pKJG0SKhlv0//kXXiAWizFjxgwjiMgUdpzWVTuSvMbqSpdJniEAOTXJHIQhFovxk5/+lIDUdYTQQegkrd+6BF3l2IEEX//aTxjoK0GPqYSFQOiSgKIQCCroGoBqRJWgiDz0yQDbt5ykv2cjf/WVD1A2x6hRetelfhm3u0AsHqOvt8+4xUc1faeaDO7gwYPs27ePK664AjAGg3U/s2UOUh3mIDD82tpNzro070u1SSlOQczuVzbt2jNpMF1VUTl2/ASvvvoqx44do7CwgCuvvIp111yd1sCSdL+6iiIQEtpOtfH666/z4Q9/GFDTI7hIhlI3b42xjx5rYNgkTns7aLpE0zV6unt45pn/4mMfu4uwY4nAhw8fZwcpdfbv38/SJUuprKo0nxlMREtoqIqapo0m4glaDrUwODRIWVkZTU1NFBYWsu6adRQVF9HV1UMikaC4uBgpJZqEsbExDhw4wMqVK4lEImm0PRZPsHfvXkZHRykoLKClpYW8SB6XXbaGUChMb28v+/bto7SslCvXXsnWrVsZHBxk7dq1LFgwP+l323lcyHhu3DSl6xLFoi+mhn3gwAHy8/Pp7Ozksssuo7AgP61cqqqQ0FL+sKWUxJM3eBm0fGJigs2bNzMwMMD6deuoq5tn5i1IJBLs3bOX6ppqysvKkTpoWoJAMGDQ7YRh0u/s7ASgurra0TG27466WXVVFcHg0DBPPfUUq1atYvny5Yb1VGTyjyQ5Tpepkt7fwGD6LS0tHD58mN/7vd9DUZQk3c+q5Odg0ELA8PAwTU1NqPfdd/99qQjWOSrj8xtfe4qOVtATIHSBIjQkcRCgIZFCB2FcVSYRSN3KXaHvzDCHjxzkPe9thKBVqHTRxzrnLBCMj41z9OhR5tbO5Sc/+Qn/8R//wZaXX+byy6/goYce4tChQyxdupSTJ1u59957OX78OJeuXMnAwACf+tSnePLXT7JmzWUMDg3xF//7f7Pxv/6L1avXAHD//X/NY4/9nL1791JeXsYTTzzBkiVL2bVrN62trQih8LOf/Yzvfe/7XHzJJXz9b/6Ghx56iOrqaqpranjsscf40pe+hKZpzJkzh+eee44rrriCeDxOTc1s2tvbKSoqBgT3338/Tz31NC0th9F1ydNPb6SxcQVHjhxl69atvPrqqzz99EbC4QhLFi9BURRi0Rg/+MEP+NrXvkZ+Xj6LFy/mFz//BZ///z7PxMQ49fX1PPH4E7z44ov87Gc/o6uziwe+9QA1NTXMnTvHlJg1Hn/8cb7y1a/S3t7OyPAIL7/8Mo8+9iilZaUsW7rM1Yzv462H3+rvIpjM7FTrKSYmJ4jH48SiMQaHBtn++nZ27txJW3sbNTU1hEKhpLaoS53xsXEGhwxmWVJcwtDwEMXFJby27XU6OzuZOXMmL7/8Mrt370ZRFA4fPkxLSwsdHR3MmTOHcChoatE6iUSCaDTK0qVLWXnpSvr6+pg5cxalpaWUlZXR0NDA0NAQRUVFxBNxVjSuYHJykry8PDZv3sz27dtpa2tnds1sQqEQO3fuZOvWrezdu4eWlhZaW1tZMH+BYSkQEI/FOXjwIIsXL+bNN9/k6NGjnDrVRllZOc899zzb39hOSUkpBw4cYOvWrfT39xMKhXj11VfZu3cvM2fOIi8vj0AgwOLFiykuLkbTNCrKyxkfG+epp54yrQkq8Vic0tJSNm9+kX379gFw5MgRdu7cyejoKI2NjbS2nmJW9SzvyWU3swqIxzVOtrZy7PhxXn3lVWbOnEl/fz/Dw8MMDQ0xGY1SWFiUVP7Mrs5I0vpmWUn37N3Ld77zHRoaGlBVlYGBAUZGRikqNviB3VrikpArdNMCUlhYSF1dnd3craRiR+HBB7bx221tKLIYdI1QMGRoy4pqmC+UOLrUEEIiMe5lTZpbzHBnek8TyStn6ZIKxxa1lGhilffMmTNsfHojq1at5tFHH+VP//RP6ezqoqqqiqKiIlRV5eKLV/Dgg9/ly1/+Mv39A/T29tHe3k5hYSHXXnsd+fl5PPzwD1m/fj0zZ87k4MGDxGJRJiYmuO222/jRj37E6tWrefHFzaxbv46mpiaGh4cpKCjg9W2v8+lPf5qNG59m3rx53HTTTTz++OMsWbKEZ555httvv51IJEIgEKCzs5OtW7fS0NDAM888w4YNG3jttdfo6upCUVQ2bNjAU089xTXXXMPu3bspKytj165dLFiwgFnV1fT393PrR26lpKQYCbz2+mscPXaMz957Lx2dHQhF4fVt27j33s/x5pu70DSdnb/dyfLly4nF44yNj/Oe976XXbt3s3LVKgKBAO3t7WzevJl7772XAwcOoCgKjY2NnDx5kjtuv4PSslJj/WcKg8TH+YXf3O8iCMOE3d7WjpQQiYQJBAKMjo4ikay9Yi0SSSgUprCwAE0z7q7WNI3+gX6qqmZw+vRpjh4/xqxZs6ioqCAQCFBaWkp7eztlZWXUzK5haGiIwsJC3vve9zIyMkJ+fj4F+QUgQDXpbF9fPwsXLKCvr4+hoSFqa2uJhMOoisKON95gYmKCmupqjh09ztGjR6ipqaGwoIDh4WFuuP56xsfGCKgqxUXF9PX109DQQGFhIStWrCASjlBUXEQwaFjgJiYm6ezqYvbs2fT29nL99dfT19dHYWEhBQUFqKpKX18fxcXFXH/99RQVFdHV1UVZWRnl5eXEYjGqqqpQFEFXVxd79uxl1qxZlJSUsK+piWX19ay4eAWnz5whnohTNWMG+fn5hMNhI5+iIsrLy5k9Zw4lpaV0dHZQVTUj48Yu6xLOAOkyAAAgAElEQVQSy2uktTktriV4+umneeSRR5g5cya3fPgWqqur2bFjB89uepbq6moWLVpkWG9dzNvC8WlZZJ9//nl27doFwLHjxzh08BD79u1jx44dLFmyhPz8vJQHS7vgkG2ICYGqKPT19/ONb3zDYp0y+V8AJ49Ltm09jJ7IQ0VHEUryQvq4HqesPI8Fi2YSDkUYH4vS0nKE6ISKAFQ1gI5CQo+jiCq2vLiX3//g4iyX/Rhrtdbl4UhJcXExS5YsofnAAaLRKNXV1Rw7dgxVDbBw4ULq6+tRVZU9e/Zw660f4Y03drBx40ZWr17N4OAgBQUFVFRWUFxUTHt7O/X19SxYsICFCxeSvLje2vQlBKFQiHm185g3bx79/QO8//0bqKurY8uWLUQiET71F5/ixRdepKmpiVtvvRVN00gk4syaNYuJiXFisRh5eXkMDw+zYsUKGhsbWbhwIcXFxVx77bU8/vjjCCH40Ic+REdHBxWVlcyYNRNNGlfD9Q8MUDtvHosXX8SChQvZuXMnc2trmbegjsVLl9DZ3UVC07ho8WKi8RixaJR5dXW0njpFMGisWU1OTlJcXExdXR1Lly7lzJkzlJaWEsmLUF5enhobPsfw4eOckFqnlSQSCcbHJ4jFYgQDQVNRESS0hLGGLAytSygKEphTO5doNMrw6AjVNTUgIBwOMzExYTDrslIqyisIh8K0t7cnr0QEzDwCRh7SMN32njnDvr17ueaaa2hv7+DMmdMUFhZy2Zo1NDc309newby5c6mbfw2HDx9G6jq6ppOIx0k5WTD25YRDYVRFNXYZmYKFbu6HCYVCxGIxdF0nEAiQn5+Poiq0tbVRXl5GVVUVvb29JBJxpJQMDw8hTVpeXFyMqqpIKenu6SEWi7Nu3Tra2k4Zy4CKQjQWQw0E0KUknkjQa659z54zhyNHjlA1YwZlZWUcOHCAvPx81EAgZXK2NuuSYq7WHjgwDMORcIjbb7+dgoICxsbGKCstIxQMMTg0yF0fu4tVq1YhhDDqa7a3NDm814UfioBbb72VgYEBampq+PBHPozAOB31y1/+kpdffplbbvmQmVZmOnY4PcXpQFlZGZ/4xCfsvFMkteA33zjG0EAcqQfQdB0hJEFFIuUgs+bG+NyX3s+tt13KZVcX8LFPrOGe/7WBcESAkOhawrgvmjBSz+PE8T4ONGvGKS5NI9OIkNqwkNxfYJrbE4kEuq4Tj8cRQjBv3jzGxsb49re/zfe//33q6+vZvPklfvOb31BUVEhxcTFXXnklTU1NbN+2nXg8Tn19Pc8//zzf+ta32L9/P6FQiILCAv7v//2/7NixE0VRmJycTG55X79+PT/4wQ/4xje+kcz/33/67wwPD1FSUsLs2bPRpc573/s+tm3bxj33/AktLS3ccsstXHLJJTzxxBN8+9vfprm5GUVRWLJkCa2traxYsYKCggIikQidnZ1s2vQsjz76KE8//TQNDQ3s3r2bB/75X3jggW8xb948Tp48yYMPPsj27du59NJLCYfDSQKgKCq6NExee/fu5cEHH6Sy0lgb++Y3v8mzzz5LOBymsLCQ0ZFRtmzZkur9ZKM7Pp0j24cPH66QumR2zWzmzJ5Df39/UgOumlFFOBKmvKKcwYFBDh48mGSywWCQmpoahBD09PRw8cUXE4mE0XVJJGII0qtWrWJocIg9e/YkacX27dsJBAJ0d3dz/PiJJK0MRyJUVlbS3tbO+Pg4mzdvpqyslCuuuIKysjK2b38DXZcsWbKEsfExtm/bTmVFJQE1wPDwMDt27CAYCBKJRDh58iSlZaUEgkEqKioIhUKUlJYwOjJKa2srUpMEVJWqqiqGhoaYN28eUkpqqmuYP38+Z8700t/fT11dHUVFxWzbtg0QLFy4kK6uLo4cPUI4HEZVBDOqZtDT08Obb75JdXU1uoSGhgY6OzvYsWMHM2fOpK6ujtmzZzM2PsbJkyepmlHF6OgoTU1NlJWVcfDgQcrLywkG1NQxL9KZnP23hWAwwPr16xkYGOBnP/sZmzZtYnxsnCVLlhAMBo2d1KqSxoQVL8Zq0slIJMKf/dmf0djYmFT8AqpCVVUVExMTWXWibO8UjDXpTZs2WRdsaICaJNJf/8Lz7Hqjh0Q0QlAJoYgECpDgDB//xM3UN8zi/q9/n+GhcRYsnMd9X/sQP/nhIV56/k0EYZCgSVBVFV3pZ/37FvLp/3OtmUUCIQwFXpcSIQxpTmCszQaCAeNcdCho7gKUKEJJbnaIRqNMTk4SiUTIy8tD0zQGBwcJh8OEQiFUVWVoaIhgMEhRUSFdXd309fVRU1PDX/7lX3L//fdTU1PD4OAgJSUlSakJMNZD4sZaTzQWpay0DCEEk9FJRkdGKSgooCA/j5Otp/jKV76CUAShYIh//Md/pLi4mLa2Nvr7+6muruaf//mf+dSnPkVhUSH/8Pf/wGc+8xmqqqpQFUEskUCau9d0qZMXDjM+MUk8HiMcDhMOh5mcjDIyMkxxcQmRcIiJyUkURU1KY4GAyuRklEAgkJTSdu/ezeLFi3nhhRcoLCxkw4YNJBIJpJTGxjHvRZbU0RBE8li7j/MD33jx7oPuOHHhRCKuMRmLJjdXabphkVREamd2MJDaOJqxwVVYJ0YMzT0ajSKEIBIKGYEsjVF3HMfUM9/p5uYtoQjGR8c5fOQwS5cuNXZPW7B2Pyd0lIBiHPuUtuNQEhKaRv/AADPMzXKanjququupzbu6uW4fcGkfrxU3Y6MunidVLExGYwwPD1NaWkooGEg7CuuF5JlzXfLKK6/wwx/+kJtuuom2tjbeeOMNvvTlL7GicUVy/djenLlWCDWz3vZyJBIaJ06cYGRkhJUrLzXGirm2a98tb8WxkKZJS4hGo/zTP/2TdU7aXJOWgA5/dtsjdLfpyEQ+qlBRhWZs6ReD/P4tV7Hh95bw4PeepLmpDV0L0NhQT//pcTrbBlAJgZRIoaLrOlIdYWat5Hs/uRtCJpM2reyGgVtHse9y9mpo3Hew2xVCi/FByvNOZ1c3P/7xjxkeHmbVqlXcdNNNRMIhzwa34iW01CCzN6Z9q34sFgckoVAIXZccP36cH//4x0gpueyyy1ixYgUPPfQQV155Jb/3e/8j6ZTFWS/rLKH94L/z7lFwd5Ki6TqqojA6Ps5/PvGfHDhwgJqaGu66664kgUgeO3PuiHCMPKn7TPqtgM+k32WwLE52HmS/3Uqam2JtxNhOqywinDa/nQFkaikQUnQnl6CdkY4TeuZza2d6BsN31FnaXtlJiXO5VTrfWxZSW/Esk67dCVjSlaktQlr1HCZhr93TbrTLOqL7m62vMXPmTBZdtIh4LE5zczOVlZXMq52LLo3jYBYPyAU3Z1hW39ppNZbvDUe/ZGPSdgipSYmSAAJJJv1H/+P7TI4VosdCBJQgikggpESqMUIFUT7/1btpvAROnoAXnz/IS89vY2IkgEoYNIkqFIQSRJMSXRlDU7t48vnPo0RAl3EUEbQ1prU+rCBN6U1RRfJcnMvYzRjk9k9nGMtDjjTXfxVFSXtmP2hvv2bNLsU631tlsTP1WCJBQA0k03ZKdprJ9O0Sl72M1pEvC7qup22KsM4SWoKDXYLz4r3WcQhVVQxJ18xU1/SUxGqrkNTMMvhM+rzCZ9LvQtg5jdXBNmLlXB+1v7Y+0wRxW1w7887YwGT3VujFpXKVGZJntjMK5SyoA0664yYzWIqBXcN0q4s9jlU8bOGdcSxnU5B+vDUXrbLiWcdTgaQFwFKcjHIatbI7XsnWxMmrPW1hrXpr1lE0NbWZOkM48qirwDgnb5ngA6nHqd4PBBSk1FBVy1kJCAV0XWVyPMLf/c0vWLK8gktXzeX9Ny5j1cqF/NsDv2CoP4GqhlCkdSY5iI5CJC8PXQdFgkjTmk1x1CqcQkpytJ01s3sCk/aBZmN21saB9M4xXb0JixmJNE8uOiJtIqVtOpAyTZO2GjE5wTB3+JkdFQwEkmHt18ZZfWg3q9vLLqU0vLE5JFiLQad3orCVxTYBrHI5hAMrT4HjzLbdDGUSGWld1H0Wt5D68PG7iAzN08bk0imqLYjExhDI4OR2hcMJgSNBZ5gpMO2kcxUbo0/Ww03it6UthUHzMulsZpks+iTMZwYNz6yXNNN1o1/OqlnEV5g7q50MPFmELG2Q5CEYDDWQZtnM9KSWDU6aLTCct4CxAz+tL7wEFOEeRFVNS7QQKEanK2lBKisLkXrMkALMNY1YIgpqlBvet5qly8rY+2Y7D3//Nb7xN48yf36I97x3DYoSM7zOBMJIEUfTEwihUVs7g4B5VloI91HmJg0lBVSTySbHj8WchaGhxuKJZHjL4m0wXZFmhrGYeULTDS1YpDeMvaMDqoIujbBOiTEtTWvLvuO5VW5pi+sq8TkGmuWBzRrUdlhauzGgZUpCtdXbMMHb13jsFbR9JiUNIwFj4vo6nw8fU4JIKRT2Z/ZHbjTampOGhU4kaVLyj5Q3KyftmkqZcpbZ5WyRsDJMZwPphXC+swVRHOW36gQOBcelbUzDXXq9XdJTkumKtPTt+dnzcNJhS0lJhsV4Zm9fe7ufNabVYd5QVcWw+ioCw/5qyTxmCRctmk04FEDTomjEkIqKIICC5OIVF3Hrre+lukaSnzfOjIpCwkGYGNfQdRVFCaBJjbiuk9AT6CLGikuXGDk7mI6wnpl/aUxJmowGG1Mis/N0Xae5uTkZzXL9aXWGbmNkVnqKorBv3z5jg4MtTzvTlkB7ezu9vb3JeFKmCwFgmcxTaWimq04n47YPHmPXoNXqIpmvYk58oYhkGGGFtTVOwnKmb8tXEYY3nwMHDhjvzZd2ISFlgZBpo1HXZGo937dz+/CRHdakmgIhdhPQ7fQgmZyLUJ727iyL6lkIO2Fwq4ebcO8R1NVMbXtmr5udvkonLcW9LdKK6ihAGn1j6kzWxVBgmKtliobr8jy0/RTh1vcWAhk2FAEXX3oRm58/gCSALgVChFEFKFLjB///j/js5+/ib//2Y0yMQzgIv90+yvObdiJkHiCIawmEGkRVJDIQ43/cdImn0/akxKVLRkdGmZicoLKyEk3XGRgYoKCwkGAwyOTkJEDyyFRRURHhUBBVVenq6qJj5kxCoRCVlRX09/chJZSWlpBIaAwPD6MoClVVlQwMDjEyMsLp06eZnJxkZGSEwsLC5DGskpISdDPv3t5e8vLyKCoqore3l4qKCgoK8q1mIhZPMDQ0BEBJSQlSSkKhIPF4gkAgwMjoGPF4nHAkjEAQiUSIxeOGj9rR0eQxi5GxcSYmJigrK0NiuB5NmGvoIyMjBINBY31CUQiYZvWR4RE0LUEwGCIQCDAxMUEoFGLpUkMg6uvrQwhBWVkZY+PjAOSFwwSCAcM6ohl7AZKbU4RiMGoJuDm49+HDRzpyTBOnCdaTDkvXr2lp5NrBnBXnSbuzw1pmy8ZcBJkM1DUdMtPKtVs79V2a4R1Ll844LmXzCmuV5azb+yzhlJms/E2PY+khSwqKePXV/UyMC1QlD6EHCQiJlArRaIAd2w+xb087B5rPsPmFY7z04kGiY0FUJYCUmrEJTAo0OcrKNXPZ8IFFiDAurWG0hK7B/uZmDh8+jKIoxvlCXWdkdJTXX3+dYDDAttdfp6a6mo7ODsbGxti8eTPLltWjaRrbt2+nrKyM1157jZqa2Zw82Up3dzdjo2Ps2bOb8fEJjh49SjAYYtu215NnlUdGhmlqambevFpOnjzJmTNn6Ojo4PDhwyQSCdPdZxFvvvkm4XCYpqYm5tXWGseegFOnTrFr15sAHDt2jL6+PmbMmMGhQ4eQUnLgwAGEEDQ1NTE0NEReXh67du3i+PHjqKrK8ePHGR4eZtu2bZSUlABw5PARqqqq2L9/P2NjY7S2thKLxRgcHKS7u5twOMT+/YaTl6GhYfbs2cPw8DA9PT1EIhG2bn2NaDTKyPAwAwMDtJ46xcmTJwkGAgQCgaSrwtHRMZ544glefnkL+/bto7i4mMqqyrSNZD7OD/ymfJdhquqaw2ybEV3YPkV2puBMY1pwUn/7by+N2uW7nekmyYSz7M5yerQBpKyJaek5C+6xZJnKU6Rt7nUrvvOZWzi7xVOxpfcWyDeecFmJALDM3SZMsaJkJtx2xw3kFUwiZRxhihVSShSpEh0NcPTgALt2nOD4kdPEJgyTr64nEEh0PY5knGB4mA/esh4lz1kc3Vo0NvvBSH9u7Vzq6+uJxWKc7jnNlpe2cHD/fhLxBAsXLGDmjBm0nmjllS1bONXaCrqOKgRzampoXN5AfiSCFo/zwnPP8Z+PP05/Xz+F+QU0Ll9O9cxZtJ86xYK6BVx68cXMrq4mFAix8pJLKMwv5OWXXuI/H3+cjvZ2+nt7uWTFCi69+GJi0Sh7du1if1MT6DqKMJzoY+6WvmjRRdTV1jI0MIAWj2PZ0EeGhmlrbeVISwuRUJjS4mJaT5wgoCgIKWmor2fRggUEFIVlS5ayY/sbdHd1IaSRrioEs6ur6TvTy749e4hHY4a3oISGrml0tLWxZfNmTp08STgUoqF+OaXFxSRicRKxOJdcfDF18+qITUYpKylhy0svcebMmWQ/50UiLFu2lP3N+xEI5tXOS44MIYwuSjPX+39n/efjXYZc9k+baTeDwdiCZTAIl7/kstfZ2lzdTNxehZgCcpXVmYww83Vmac82bU1aGL8VSN1W6FVE+5Kii6ndbR6ezXx8q+awW9u5lTfgGluB626aw5HDjTz7VDNShIhLDYEgoBpHtRQ9D01qIHRQ4ihCGtv6VQWpJQiFJrnznt9nxao8F5uCufMtafI2Xm7bto2DBw9SVVXF8PAwtbVzDXOGNEzAsViMvr5e6urmc+zYMYQQBAIBrCsgASbGJ6ieVc3MmTMJmm7mFEUFKZk/fwFbtmzh4EHDt3VdXR1Sl0xMjFNcXMyMGTMpKS6hpKSYxx77OdFolGuuuZqGhkZ0XSMvkkdHRweqolJbV2u4zosnDFd6wvAE9tymTYyNj/Ge97yHyopKhKJQWVlBTU0NTz/9NBs2bODo0aNs3LiRWCzGmjVrkhd/jI+OMTwyzObNm5Om6mAwSH5+PqFQiDff/C2tJ09SWlrG6OgoC+YvoLe3F13TzI5WCIdCFBTk8+STT6IoKitWrOD48WPUzq0lGo0aO74FBEIBVqxYwde+9jUqqyoJh8PpA8jnLj58XDg4n/PRuUb9Fs/1bMmLbAFylc9FKHg3wnRm4nysg6YwOQj/9M2NNL3Zz8SYQBV5qEJBVRKghdHRkUoCKTTTsbkgoUUJhif5/Q9dzp1/cjHkgR7TEQHb7mHnQoWEpn1N5OfnU1s7l6DpbCQ2GSMYCmZ41NF1m7cfgSEc2I4UTE5OJtdw7XGlZqzzarqWdBwPxvpDLBpFURWCgaBxy0zcOKeGMJjfZHSScCjMzt/upKGhgfz8/OQIkbrhwzcYChKLGvGsC95jsRghy3mKJHkFXNw8B2fVIRFLEAgFjLPiesrrTyyeip/0KyusPA1XphnHJzA2gxlehozvsViMUMi4/zZ55MLuncjcsZGW1u/CDPDhw4ePCxhpTFpiHGkSImE6vgiij8Lm59p56N82EZvMB6kiSKASQZhEPYGOHtDQxCRllYLP3vtRGlaFCVhm7rTDvKap29KmBaDD+NgYqqoSjkRSbmjsTMKxWcDOTKydyWkM2c64nXCR0HT7PajmmWGBeSWZdWbbtknBHl/aHZFYm7HsCy6OvIwMHfXw2FiXZKSW5cERRpKlnm7pYQgrCLyPXL1NErYPHz58+MgO03e3DVIDoZk/giANJtLfAb/6+Ws07+thqA9Gh+JoeohASCGvIErVLJ2Va+Zx0wfXUjLTLSuZ+pPmSoTFBOz+4YQjuHNRwr7Rwel5R5L0Imb/BA+G5Lq1z/bO/ulklM542dLyqp+dyTvL5/SZ58akcbxzCjXZyuvDhw8fPi54ZDBpad4RbVD3IJoGimouzMdgfNT4i05CXJMEAoJIBAoLIVKEwQxU89PaIGaphElG4TgZr8nUyrnd8anLprb00rvUyMmcphPWjfFC6uIJpwnYXiane6EsaSavLUsKFh5rwG4CgguTdxVo3PKeKnzG7sOHDx8XBNKYdIrOp6i0Qf91FKmkzK8ASvJLJjNVUj+kbjn7sHMiB7fLxRSymY29wmZjahacfnfd8rIzwGzlzCUYuGnBDu3fS0hwTdOtPtm0eXt62drZ1759+PDh44JB2u7uJE3WRRqjTWqRyYAS43pLTDVQ9SDsIsWgs+1EEo51XTumyzDsjMppKnfJ1/k8uSnNyZyzMcdseXi9sx8Z8Fob9liHzopcFoSplNFnzj58+PBxQSBzTRrSNiuZm34zL16xM68pMVKXQLb4aTu2vdZX3ZKcCvP0KsZ04rwVGuZ0080WzoN5Z5jSfQbsw4cPH/9t4H5O2loSNpmI100d2R9OAdZ6rEKmFj1VRp1Mx6GJOxmaU5mXqXjgrs0mN3Q5mVwuM7TzeQ7TtP2KNLf3GXm4wUsZP5u+8c3dPnz48HFBIMmkM+iyIIuXG4t7TycrFwZqPdVtTNLtfjdH1m5a99Su6XYkJSXC6afaYvjmrVBpx7tcTN9JM72XOd36tO0Wl6QLFBkCiu4Sz8tiIB2fXnAKKF5hfPjw4cPHBQOhu5i7RVYz8FTUrCxhnExF1yGgpL+376p28zVnBXU5H+11CXsy7bO5MD0Xo8wlWNjTsRdV09PvdvZKL4cVISeDhqxbAnz48OHDx4WJrObutxTJc8PGwvdg/wCPPvIIuq5TVFTEH9x8MyVlpcmyxKIxhodH6OvtpbqmmuKS4pTXLLd0SX22trZSUlJCaWlpkuEltXEdRkZG+OWvfommadx8881UzahKi3/mzBlCoVDyEgyAyfFJunu6mTdvXpojk6xr56bQIKWkr68PVVEpKyszwtjjWUYCLYuWbmGqfZVLi55uej58+PDh4y2HO5POiqlQ8SxhnOu7JpPu7e2lfvly1l97rcGkLOZrMpWuzi7aO9q56uqr0piwrutJk7OiKMRiMQKBgOE5TEo0TePw4cMsWrSI0tJSNE1DVVXDvSYwMjrCV776Ff76r/8aXdN5euPT3H7H7UhNout6Mu/KqkpKSkuMyzUQTEYnOXL4CHPmzDF8g5sF0jWdQMjwb55IaEipEwwF09a3pS45c+YMAkFZRVnSXanhshMwr6kUCDRdR3XTtqfbJWcT1ocPHz58vKNwN3e/XbnbdpEfPtjCdx98kJqaGqpmzOC2227jsV/8nPHxCS699FK6u7ro6uqioqKCuro6fvX4r6itrWViYgJVVVm8eDErVqxg84ub6ezqYvXq1YyPjdHV3UVPTw+33vqHbHr2WSJ5EaKTUe66+y5KSks4cvgIPT09XH3N1UaZpHEF5S9/8UsKCguor6+noqKCosIiWk+1cvjwYcbGxrn11lt57LFHyc/Pp7i4mHXr1vHII49QXFzM0qVLicVitLQc5j033MDuPbvp6e7hsssvJxQKsWPHG0gJV115JUeOHuHM6TMEg0E+/JEP86tf/YoZVTPYcOMG07e3uaHMZ64+fPjw8TsH9WvO+6R5O5m0cT4oEYszNDjI7Dlz+J933MalF1+CqqocO36MB//t3yivKOeaa66hoKCAsfFxCosKKSoq4tprr+XkyZN89A8/SnNzM6tXr+YnP/kJmzY9R339MoYGh7j77ruJx+IUFRUyNDTEPffcQ2dXJ+FwmKqqKqLRKC0th1m2bBlIOH7iOLquU1dXx5VXXsm2bduonlVNOBJmaGiIBx54gKHBId7//vehCIWPfOQjdHZ0Eo6Eqaur49prr6W5uZmysjLWrr2Cqqoq/v2n/87G/9pIw/IGtESCDRtupLy8DE3T0HWdD33oQ4xPjCN1SV4kj/dteJ9xs5biM2gfPnz4+F3GWZi7zxH2TVjmhi9VVVFVlUceeYQXXniBSDjM3R+/m1gsxg3vuYFwOIzUJa+8+gqLFi1CEYp50bdxt7NQFFRVZfv2N4iEI9x2220EA0Fm1VXzlS9/BQTceefHmJiY5K/+6v8wc8YMNmzYAMCsmbOIRCJ8/etfJ5FIcPXVV9PQ0MCPf/xjVFU1wplrybt37+a6666jqmoGmqaz/Y03eOXVV7n88suorKzku9/9LomExo03bkAIga7rnDp1irz8PH7/pt8nHAlTM7uGf/nnf0ZRFW76wE2MjY5x3/33U109i9tvv53TZ84QnYiy/8B+Vq5aaTSZ5rIL3YcPHz58vOvx9pu7vTZ+J3RQbfdMm2G0hIYaUHM6/pCa7ZIK4Xjmdf7YLS23yzCc5bcdxcp225bUSfeEasaXuo3p2o58JYuQ0Nm7dy+NK1YQCKr48OHDh4/fTbzza9J2hmjflS0luvM8sXluOf1KStvdyIrjGcZdyoqdUVt5eTFje1m8vJnaW0w4BAT7MS+rLCI9f8uBi5YwNrGlweuYlw8fPnz4+J3DO8uk3bxz2R15eGmykF07dnP24YwzlbSmmn4aA3bxQZ7tjLOLVi8144eVVraz4j58+PDh492Lt39N2g47g5oqw7SFcT1H7Ayf64zxVByBQErztpm63dJLXkbixeyzlcX6qgjfNacPHz58+HDXpJMv365STJch2UzSaeu5ThP1WZiMPdeYz8ZDGTniZFv3dsJn1j58+PDxO4d3VpO2cA4MKONijHM8suR5IcW5OgxxE0R8xuvDhw8fPrLgwmDS04Vzx7Tzudfv6aR9vjEdTdxn3j58+PDhg6ldC+HDhw8fPnz4eAfgM2kfPnz48OHjAoXPpH348OHDh48LFD6T9uHDhw8fPi5Q+Ezahw8fPnz4uEDhM2k77E5V3kl4leNCKNt08N+tvNnwbqrL+YJ0fP/v0Eb/Hcrow4cNFzaTns7EP1cioRt+tt+ySWx5K3PCmcxdZJwAACAASURBVJ8OiYT2FhXiHYDOO08YzwMDyeLz58LGdDzqTTPd89om/x0Zvg8fbwPeXiYt8ZyAUpfp4SDdc5j9ucv3NIKRbYK7pWUSqLfjOsikIGD3jmZ9N12PqqqCprkwaq/6O37L6RDcXG3rFsWsg9QyhZrkO12CAF3q6T7ZnXlPVwjTU7+TY8aejjNNK4hjfOQUyBzpCCGy52M91jMf2vs81T4u+aWVL/v7ZL10mdm29vdSus8t53fF9syrrzDe6ZputKe9DM656hLfrW28+svKK31cT5NzO/orWU63fH34uEDx9roFzXF5RjwWN75ICIaDye/JOFNxCGIPY/suNYk0E9N16X4FpARN01CEgkQm76w+Lw1hEgnhdiOX9V1iEEu3djIFkUQiQTAUzEzeJP5CFVNrJ1u5phTW7dYwZ1zHbztRdW1He9/aoCV0jKvCjDQCwQC6rqOoCvFoHF3XEYpCQFVRAgqJeAIARTHMFYrZBvF4HEVREEIBKdF0zUgvEEAJKIbVQkugKAqKavyOJ+IIBBJJMBA0imiWRdf1ZB9at5cZVg9jrKiqmhyniUQCgUCXevL+c03XkpevBIKGH6FYNIaiqAQCRnpSSrPcxh3rQhj1kBICARVFUdA0HSl1EomEcRe7YsZFomk6ihAEQgHQIRaPEQqGDGEJjHq6tf9Ux4FHnyfimlEHj7FtjQW7IJx2Da0lx0jd6EdB6qpXYQgGaeX3GDvTgu3mPB8+LlS8cx7HbJNMapITJ0/w8EMPs2DBAiYnJ7nhPTewdNnSZBhnPE3TUa37p63n9nA6acTnVNspOjs7mZiY4Kqrrk4SQIsAKKpCU1MTeZE8Fi5cyPbt20kkEqxbvy6ZhkVUPK/LNMuR4U/cqqpJoKUO4+NjPP744/zxH/2xQVBt9ZNS0nqqlTlz5iSJOUBbWxvPPPMMH7z5g8ysnmlU0yx7kgla9Xa0cVrTu/gnl5pMMnhd0w0mZoeAocEh9uzZy/r16zLrbtXb1DiHh4bZs3dPWvtZZU3POD2PeDTOo489yvbt22lsbGRoaJg777yDF198kcbGFfzmN69y5kwvc2bPprOrkw9+8IM8/dTTJLQE8+fPZ9HCRdQvr+eXv/wVk5OTTExMsHDhAurm1bFp0yYOHjrELbd8iJWXruTJXz9JQX4B4+PjzJ4zh8bGBv71X/+VhQsXoSiCSCSPj3/8bgLBAG9sf4OHH36YlStXcrrnNOuvXU80GmXjxo00NDRQUV7B+97/foqKCunv7+e5557jpZde4qKLLmLNmjW89NJLBAIB5s6dS0NDA5deupKXXtrM1q1bKSws5I477uDo0aNs2bKFqqoZTEyMc+ONN3LixEk2b36RJUuW0NnZydVXX03bqTZ27NzBpZdcytzaudTX1/Od73yHOXPmIgQIoXDllWv5zau/4c6P3UlzczMPP/wwa9deycfvvptQJAQS9u7dSyQS4aKLFqOoqWtgDX7uuALW7N+2tnYqysspKCpgYnyCba9v47LLLqOwuJAM2C+lwSZASmhqbmJiYoI1a9YkBVdjOqaYsDU/kdDV2UVhURElxcWGAK2I1Hgy09Rl+viyxvQb296goLCQ5cvr0+elcPn04eMCg/q1++67z+vleR+zbpqUMCb/wMAAZeXl3PLhW1gwfwG/ffO3hMMR/uijf8SLL77IDTfcwE9/+lP+/JN/TjQWY83q1dz5sTt54IEHWLhgEYcPt/AXf/EXVFVW8c1vfpPunm5eeeUVPvOZz1BRXsmsWTMZHRklEU9QVzeP++67jy9/+cvMnTOX+QvmI1A4ffo042PjhCNhjh8/jhCCnTt2snDhQl77zWvEojH+/af/znf+9Tv0nunj4Ycf5sjhIzQ0NPAn9/wJ//gP/0h1TTWDg4N86Utf4p/+6VusWrWK1tZT3HzzH3Dw0EGuvfZagqEA8Vic/fv3U1hUyM0338yOHTt47/veSyAYQErJjh07QMIXv/glHvjWt1i4cCHPPvssL295mSVLl/DJ//VJnn/uedZesZZHHnmEr371qwgh+OGPfsgTTzxBT08P3/ve97j++uvZ+NRG7rzzTg4eOMi6detQVZXRkVG++tWv8oMf/IDoZJSEliAYCNLR0UFbWxs9PT188IMfpOVQC9dfdwOKUJicjNLZ0UEsHufjH7+bX/3qcVatWkV5RTmTk5P8/LGfc/9997Nr1y5WrVrFwMAAQTXIn/6vP+W73/0utbW1PPnkr/nUn/85r778KtWzqvnMZz/Dj370I5YtXUZNTQ26rtPS0sKcOXO46667GRkepru7m/HxcWpqZtPR0UH9snrWrl3LwYMHqa6u5kzvGdZesZb1669lbm0thw4eYnR0hHvuuYerr7mK+vp6aubUUFlZyejoCB/9w4+ydetWInl53HnnndTU1PDspmepqqyiq6uLmz94MxXlFRw/fozLL7scNaDS0dbB6Mgon/zkJykrK6OlpYWioiIEgttuu42LFl9EYWEhCMjLz2Ne7TxGRka4/rrrWbx4Cfv3N3Pl2itZt34dNTU1BAIBdu3aTUFBAXfccSehUIinfv0UH7vrY6xbt454PM6BAwcoKyslEonwgQ98gO7uboQQxOJxysvL+NAtH2LhwoUAtBxq4QM3fYA5s+ewr2kfdXV1tLW3cdGii9jy0haWLF1KT083C+YvoLSklISWoLOjk4ceeohvf/vbNC5v5Lc7f8tdd93F3r17Wb9+PaFQiMnJKH/3zb/ji1/8IiUlJSQSCaSUPPbYY3zrW9+irLSMqhkz+MLnP8+Pf/xj5s+fT03NbIQCmzY9xyc/+Un27NlL7bxa7vvqffz0pz/l4hUXk4gnSGgJnnnmGT73uc9RkF/A7JrZfONvv8Hf//0/sGjhIpqbm7nrrrsYGhwCIQgFg2zevJnP3fs5uru7mTljJt/59nf44he/yOTEJKVlpdz72Xt58N8eZN68eYyMjvCFz3+Bo0eOsnTZUra8tIVPf/rTtBxqYeHCRbzwwvNUz6omLz/PZ9A+Lli8vUzaLXFhXJLR19vP6MgIdQvqGBsb41TrKU6cOGGYDYVAURSKCosIR8KsWrWSObPnMD4xQSgUori4mIryCv74f/5PysvLaGho4Morr2R0dJRvfvObbN78ItXV1cRiMeKJBCUlpQD8/d//PXv27GF543KQ0N7Wzs7f/paurk727z/AnDlziEVjzF8wn87OTvLz8zlx4gRf+Ksv8Oyzz/L5z3+evXv3cekll1BQUICma4yPj1NbO4/Gxkbuuutj7N2zl9NnTvN33/w7ZlXP4tix48yfP59EIkHTviZOtrYSDoUAGB4eZkXjCoQiOHHsBGXlZSxatIhPfOIT9Pf1c80117Bq1SpisTh33nkna69cS3NzMzNmzOAv//IvGRsb48Ybb6SyspLFFy1mydIlhMNhSstKGR0ZJRqLsnrVaopLimlpaWHx4sX88R//Me3t7ZSWllFUVMT4+DgTExPs2LGDwqJCYrEYsViMZcuWEY8n6OzsYMH8+YyMjqDrOrW1tdTOqyWRSNDT08On/uJTVFXNYHLC0GJr59USjcZQhGDWrFl89A//kPrl9Xzgpg8we/bs5NJCSUkJS5cuRUtoHNh/AKEIGhsbOXHiBNFolGg0yswZMzh27Bitp1rZ+F8bmTdvHtdedy07duygs7OTwYEBFEUhHo/T29fLiotXGNqUqT11dnZy+PBh1qxZw9EjRxECljcuZ3R0jH379lJXV0dTcxMnTpzg2Wee5Y4776Bmdg0AXV1dnDx5kiuuuILBoSE6OjrIz8/nzV1vEp2M0numl5rZNYblQ0IsFqO5uZm5c+dSUlrCa6+9RndXNwODgwRUlerqaurq6hjo7+eRRx8lFAzR199PY0MjRSVFnDhxgtHRUUKhELt372bHGzsYGh7i9tvvoKXlEM3NzcRiMSbGJygpLuGVV1+lo6ODJ598ko9+9KNUVlZy9OhRqiqreHrj07S1tdHe3sbc2loWLV6Eoip0d3dzySWXcPPNNzM8PEx1TTVCKExOTtDY2EhpaSmJeIJTbacoLStl9erVxGJxenvPUFFRwT333MPw8DCjo6Ncfvnl/NFH/4hjx44xv64OEJw+3YOmaTQsX05//wCHDh2krKyMntM9VFVV0dfXx65du5gzew5d3V2EQiEWLljIpz/zaTRNo6enhy984QvMnz+fM6dPo0udiYkJPnvvZxkdNcZzZWUln/70p5mMRpk9uwZVVZmcnKSktIThoWFu/cNbqa6uJhKJMGvWLBLxBCOjI1xxxRVcdfVV5OXlpa+l+8zaxwWGt9/c7TEJ4vEYPad7ONV6ipaWw8ytncvkxCTLli1j5syZlJWXEY3GuOTSS9i6dSvt7e3Uzp3LZWvWcPzEcRRVIRBQ0XVBOBxGEQptbW20trai6zp5kTxGRkaQUkfXNTo6Ojh+/ERyggphrBO+5z3vYdFFC9n2+jbGx8cZHRul5VALx48dZ8aMGZSXlxMKhijIL6CgoIC8vAjHjx8nPz+fu+66ixdeeAFd06goryAcDhMIBhgcGqLlcAs9PT3U1dWBwFiHDAaYNWsWl192GeXl5ZSVlyXN/7qUKEIhPy+fYDCYNONZa5YnTp5A13XKK8qJRqMoioKqqkQiEQKBAJWVlYxPjKNpGi0th/nEn36C1197HV031vby8/Pp7u4mEo4Qi8WJx2McPXKUsfExKioquOiii7juuusoKS2hpKTENPcn0HWdw0cOc9VVV9HY2Eg4HE724ejYKEePHKWnp5tly5bR39/P0aPHWLhwIcvr6xkcGuSll14iGAoSDkc4dKiFhYsWsnjJYrq7u41NTlKi6zr9A/0cOXyEtrY2rrvuOl5//XWEIigoKGDlypVUVFTwL//ybdatW08wGGLZ0qWsuHgFkXCE0bFRfvbIz1i8eDEnjp9gcGiQj3/840lTfigUYs1ll/HrXz/J8WMnaGpqIhQKU1VVRXFxMXfffTc7d+xk69atNDQ0oKgKiUSC0dFRTp48SXNzExUVFQihMHv2HNZctoZQKGRbzpBIaaxhW+vYgUCQhoYGVly8gqKiImKxOL/+9a+pqalhwYL5BAIBFi1axDPPPsPq1avZvXs3a9eupbe3l/r6em7ccCPf+/732LXrTaSULF26lLVr11JQUICu61RUVPDR/8fee4fHcVzp3r+q7hkAM8iZCASYc45KVqQkUsGirGBpHa7XcR21vvbuvevdz/utLHvX93u+XXtt2VayLUu2ZFmWLVFUsEWJCaRIMYEBBAMCSUQCIAACmNRddf/onsFgOCAle03pXvWrh8KE6krdU6fOqXPe8+F7mDlzJhs2bOCmNTdh24rDjY3MmD6DL3/ly2zYsIETra1YMecc3ufz4ff7MQyTaCzKqVNt3L52LYcPH048Jz6/n5tvvpne3l7q6+spLiomOzubrq5u2traiEajGIZBW1sbWmsCgQCGaSClYP68+VRWVrF9+3a0Uqxdu5YFCxYQCAQ4deoU4XCYlStXsnjxYnJycug/08+hhgaOHjlKR2cHwyPDdHZ2cvToUcKhMAWFBZzuPk1zczPhcISSkgzy8gwyM7MwpKSx8Qi1NbVUVlYSi8WIRWN0dHRy5swZYtEYkWiEWz94K3v27HGe17NDBIPZzpLkCWcP71FcfE06nSengGAwm/a2Nrq6uikrK2XJkiWUlJRw9NhRTrWdorSklBMnT9DU1MzcuXOpqa2hubmFUDjM7FmzmDBhAnl5eQSyAuTm5pKXn0dRYRGNhxtZdf0qSkpKKCwspLSklJKSErKysjh29CiXXnYpwWAQcARXbm6uI4SDQUpKSpgyZSrHm5qYPHkykydNpqTUqWdCRQVlpWUUFxVTPbGapmZHaC5evIjKqkoK8gvIzsmhpKSEhQsXcfjwYSoqKlm4aEFi0IWFRUybOpXDhw/Tfbqb/Px8cnJy0FqTk5NNYWEhubm55GTnkJeXR0FBAbm5uVRXT+TkyRNkZGSwePFi8nLzCGYHyc7OJi83z7EsFBVRWFhIfn4+UkqOHz9GTU0NFRMqyMjMID8/n3A4QlNzE6C59NJLaW5pJpAVYNasWVRVV7Gvvp6enh6KiooIBoOYpkl+Xj4FBQW0trYSDAaZPHlyQlC0nWpjJBSiurqa2ppaCgoLKSos5FRbG1IKJk2ahEYzMjJCNBKhtraGkydPkpmZyexZs8nLz0NKSXZONlpr+vr6mDN3DlOnTKWoqIjS0jLKy8upqKigsrKKKZMnk5uXS2VlFQODg/T29hCJRJkxYzoL5i+gtbWVgoICrr/herICWWRlZlFRWcGECRPIL8ijvKychoZDFBUWcvvta8nPz6eyspKqqioqKioIBIIUFxdjmiZZmVmYpklPbw8TJkzg8suvoKiwEIC2tlMMDAxQUlJCZmYmQorERqliQgWBoPNcDQwO0t3djW3bVFVWMmFCBe3t7dTW1rJy5Upqa5wNXHt7O8uXL2f+/Pnk5+VTVVVFeXk5VVXV+P0ZTKqdRMyyOH26m9BIiLKyMqqqqygrK2Ni9UQKCgooKy+jtqaG6qoq5i+YT0lJCSUlpRQUFFBUVIQUkiz3t5Kbm0thYSGZmRkcO37MraucrMxMLMsxu7e1tbFokfNsV1ZWkZubQ1dnF1OmTmXRooWEQiEikQhLliwhK5CFtjWn2k5x7NhRqqurufTSSwmFQzQdb8Kf4XfuYUUl+Xn5HD7cSGgkxOQpkwHo7etl6dKl1NbUcvjwYaZPn87s2XOYMKGciTU1tLe1MWXqFGbOnElhofObKCgopKSkmK7uLvecfRrTZ0ynu6uLYHY2s+fMRkpJb28vkydNThxLBQJZCcc7T1B7eC/i4np3p2Icp41UR6yEh7ZytKyER2iKQ1k8xGJMjunkUBRXOx2T6lJx7kBTPKqFEKPeqeN5Zyf3w3EJHnXmOo8pLdnxKlEu7kWtSXikO5eLhNNMclvJDjZpva2TnbqSvleW4uzQWXbv3s3VV1997vhTxmXb9hgP5uTy4VCYhkMNzJo9i8yszLFjg7HznOqtm+Rsp2yVuEdK6YSndsLzPfmZcetKdno7n7f5mD69E8/eNE6JY+5Dct1COPck2Yk62RErpb74Nan9VPaol3PiGne8ylZO5MGot9XYes83trgfSJLzoLLdeU4eR4ojJDD6nIo05VLnKfU+Mc51OqlsOsfPZKRxIB3vWR3jqDhOZIVWTsTHOc6MHjy8h/DeENLjvU/+zO2lUmqsoCXp+/E6nPLdOQtgmvKWZSXOFxNtxL92zznjYUHpMMaTOc1CFa8nvqkYE0KV3JWkMJT4wqVUcphKek/y1Lbelvfqhc7l0oXsuGbdhJdtuvbHuS7+vW05oUmJOsa5LrH5iQuL5Dbii3qqkEoSXNp9I0RqvWkEZRphluzpHDcHn/McpQrIt+k1PGazFr+vOGFbUspzogngXKE5+v3YTQK4gh2R2MxopcfnBUjZUI3pozt5Sjk3REo5Gjbozn/i9+WOX5PUH51UT7xI8jOeOh9jBnbuWM/7+Xhlkp7T1A2VBw/vNbx7Qjqd2Tt1YSXlfTrt2SVrEFKMEk7ENS7Gr+cc7SAZadq4YLx0uj67dSUvOPEFKVEno1pkWiTHJ8c/UhfYZJynj/G2khfc5P7G48PjfR8j/FLHS5rP0/U9uXwc4yy258xF6gbnfAs1jLUsxNtPHsN5nqXzCtvxyp3neg1jNwTJxdMJoQsh9TeTel90Sr1vt/p0G4s40vwWEl+lEaIJ7TT+fCbPd0qfE5uN+CQlWY7GhPWNM08J4U7SfU/uc+KZSHn40myGPXh4r+Ld16TdhhLEBu7n5yxiaTozZgeeuvgm/8DPp+GNs1CP0QaSFpXzLqzJWlCyUE8nGM5jkkyr6aeaD9Npm8nvSfo8VZOFhPlfa+2YsFM3SuOMDXAsADgLXUJrSxljWrOyu1Anm4qV5Wjh426EzmddSf1snDGPmU9Xo9ZxLTD5mmQzdvJ4x9PqIO1zeU5/ksuNdx9Tx3ahzUC6zVNcEKaSzlwIaX4HSmkn5jqNWXqM9nmezemY98llL1Q+3bWpG6D4spX8TOOsBwJx/o166mcePLyH8e4aeuI/fMWo8wbOIjBqStWji1IK4gL6gjSYid22PmcxUHbSLzypT2MWcJeecFyzcrKW4DZ4Xlrj8RbQOD1pqoBPGkPa65IWKtu2zy2TrJgm1jbHvGzEWaKSucXj40nub/yvKxziZtO4gE6miYzXD5xjBXCeODE6z4Z0taBxVs0LLdjJn40z7jHHDpJz20sSimPNuYy9738qRJrX6fp7oTGmaLJp2/lTftFp2pJxy1SauhObsuTnIqWfCcGpEg/c+M9YuvlJ16+ka0Ry/9y5TPQ53cbUfXZ18hyebwwePLxH8O4K6fhCJaG1tZX//P5/umET7bz11lvurl0lFlBI+tG719uWze5duxKCPH5W6HwdV4vd9+5i29LUwl133cXaD66l7dQprJg95kdav6+evt4+51K3vsbGIxw6eOj84wBnURfuQua2q5Tm4IGDnOk7c275ZLiLX7yfRxqP8Oorr6ZvL/W1+zcSifLwQw8zNDQ0ZgFyjgXiHSSh7W54bQNrb1vLTWtu5hOf+ARtp9rYvHkzzc3N/OA/f8DRxqNOFfGFTTr9C4fC/OpXv+L4seOJriilOXXqFD//6c8ZGRlJs3lxuypG+7TxjY3cc8+HWbNmDZ/85Kfo7uoef47d7p/zbzy4351oOcFnP/NZ7rzzTp74xRPOYn4Bi4g0nMV+06ZNrH9x/Wg7F6C2HdPfC5X5E5AqmM7bfirGm6vxtP74d+k2D4L0Y0z5TBhi/PrG2xSm9iVdm+57Ef8v7hR2gX4JMc4cepq1h/co3t0QLLcB27I53XOa3bt3U1ZahjQMTp/upqysnI0bN9Le1k51dTUtLS3s3r2bcCjC0aPHGBgYpKioiF27dtHU1AQCsjKz2Lt3L0NDQ5w+fZq3drxFQWEBgUAABHR1dvHMr5/hu9/9LmvdmNDa2hrqtm2joaGB4uISTp48QTA7yJEjR9m7dy+GNBgJjXDw4EFOnTpFUVExUgg2vrGRkydOUlxYTENDAydPnCQnJ4eNGzdy4sQJJpRP4MyZfrZs2UJvTw/l5eUMDQ1TV1dHOBwmJ5jD/vr9dHU5pA/BrOAYb+furm6ampuYNWsWdXV1tDS3UFpaSiQUYeuWrbS2nqCkpJTenh42b9rM2bNnqaioIDc3l9JSJ2Rt27ZtTty4lGzduoVjx46Tn5dPIBhA25rDhw8zc+ZMHnjgAT74wdtobm7m2w98m9raWvbt20c4HKa7+zQTJpQTCjk0kP1n+snNzWXL5i1OnHUsSiAQ5OSJExQWFpGTk0NGZiYH9u+nvr4eZSsCgQBbt27l6NGjZGdnkx3MRghBY2MjNRNreOCBB4hGY5w8eZLsYDabN2+mo6OD3Oxc9tfv5/Dhw3R2dNLS0kprayuVlVUMDQ2zceMm2tvbKS8r5+zgWerq6mhva6eoqAi/309//wDPPPMMH/v4x/jIRz7CidYTZOdkMzgwSF3dNjo7O8nJzqG19QSNhxvxmT5aW1qp31dPbq4TI15aUsrwyDBbt2ylq6uLsrIyTPMvQDHwdgU/Fyh3vuvf7ufjCbs/p53UeuPv05nBL1T/O+nfeELeg4f/A3Dxs2Al/wUQYBgGSmkWL17M5s2bGRwYQCnFli2bCQaDCCnYu3cvdXV1TKyeyEsvrae8vIzdu3ehlE1nVyezZ89my+YtnGo7RV9vHxn+DPbt28ecuXN48sknCYcjAPT19rF6zWpMn0lWIIvLrriMxsZG2tvbqa6qZltdHVppwqEwgYATM/zaa68RCoUZHh6msrKSV199hV8//WsMw0l4sG37Nl544QWKi4s5c+YMM2bMIBaNcfjwYV5av57q6mrO9J9hJBTipfXrqaqqoqW5hba2Ng4cOEBlZRWFhYXEnWZs2/F2tmwLpTT19ftpamrCVjYvvfQyO3bu4MjRI8yaORPTNPj9735PMBhk0qRJRCIRfvObZ+np6eHFF1+krKyMdS+sQ0qDmTNn0t7WxpatW5yjBK2IxqJ873vf4+qrr+GLX/gCsViMnNwcSktLsWIWwWA2Rxob2bNnL+teWEc4HGZ//X727duHNAyGhodYt24db721k3UvrqO9vY3nn/89R48e4bfP/ZbikmJ+//zvEUIydepUujq7eH3D667Z2UkY8uCDD7Jq1Sq2bt3CtddeR1FhEZMnT+aN19+gbts2nnjyCfp6+3jxxRc5e/Ysr7++gQP79/PCC89jSElXVzcbNmxg+7btnDhxglkzZzlMUsDZs4NIQ1JQUMCPf/xjHvvpYxw7eoziomJqamp47Y9/pKHhEM8991u6T5+mt6+XrXV1CClZ/+KL7Ny5ky1bt1BUVMSMGTPYWrfVsR545lEPHjxcBFxcIT3eeZwrqLOD2ay9fS3PPfccI8MjmKbJtGnTKS0t5XT3aSaUT2DK1ClMrJ7I5CmTKS0pRQhBzcQaJlZPTJBqVFVV4fP72LxpMw8/9DCRsEMriYac3Fze2vkWdswmFo2xdctWtNZMqq2lurqakdAIhmmgtGLfvr089NBDtHe0YxiSadOmM3XKVHymj2gsypQpU6itdWhMi4qKqKioYGhoiKeffpqXXn6J4eFhIpEINTUTmTx5MqDJCgSora0lEAgQjUaZUDGBktJisrKyEsk0hoaG2bev3s3CBWfO9LFhw+u8vuF1TMNg3tx5nD17lge+/QANDQ1cdvnlvPbaa3znO9/h7NmzCJwQMimlQ5F62aWcPHmCB3/4IBte30BoJOQeJYBp+rjvK/exYcNr/PBHP2RC+QRM0yQYDOLP8DOxupqMzAw6Oztoamri+eefp6W11ckkJQXl5RMoKyvjvKiJ7wAAIABJREFUqaeeYv78+WRkZCSOGaZMnsKE8gkANB0/zkM/eYg/vvZHItGoe2wh8Pl8fPZzn+OBB75NXl4+Q0NneWPjRh555BEONx5OsFjV1NQQyApQVVVJMBgkEo3Q09NDWXkZZaWlWJbF/AXzGegf4P5vfYv6+nrHspKVRSQcIRQK8ZnPfIZLLrmUwbODvPLqKzz22GM0HjlCLBajsLCQmTNnuO1lsWzZMhYtXoQQTtrQLVu28OCDD3Jg/wFs9X9Rvm8PHjy8p3Hxz6THMTcJAbayKS4u5qqrryYUDjN58hTuuefDfOMb3+Cyyy8jZsXGOHQp1yN4x44dLF26lJgVIxAIIlye6OkzpvPCunUcajiE3+cDAZWVFSxctJDrVl3HFVdcQX5ePpMmTeKHDz7IzbfcwowZM9HK0fCefvppdu/aTXl5ObFYjO9//3tcc801zJ4zmxtuuIHPffZz3PeV+1i2dJlD/6g1jY2NPPPMMwBkZmYyZ+4cbr31Vp599lmyMrPIycnm2muvo25bHYVFhY5A0/DqK68yMjzi0Fb6fPzwhz/gb+/7WxYuXMiihYuIRqNsrdtKTW0Nx44fY90L62htaSU3N48339zOyy+/TDQaI5DlmPWzs7Px+/1ccsklbNy4kWgkyo4dOxgYGHQ2LIAhJUopvvu/vsvSJUu5ftX1tLS0MDgwyOOPPw44zmVaaXKyc7jppptoamqiqek45eXl2LYiMyODJUuWkB3MZuWKlQkvatuyHSumS1cas2Ls3r2bnp5eIpGw6/jjaNOGlCxbtpTioiJ++ctfcuJEK5s3byYrK4uBgX5i0ViS05+TEjInJ4dly5bxla/cx8OPPMzSJUs5cuQIL7zwAp0dHeTl5gFQXFzMmjVr+NKXvsw111zDgQP7WbBgAadOnqKubiuBrCzC4TC2rVBKU1tbS3NzM6tX30hzc3PC67yzs4vt29/Esi16e/s8k6kHDx4uCt4zIVhAgm0qHZvTuBgvjvfP6VZy+FC8bj029GQMi1RK2MiFCBJSyRuS4z3HnNFdsKOcG7oUD5NJJbRIDW2Jt0MKs1eqk098PsaJK01HRDFud9OQbIxfNg1Dmq2RcRKMdGMn5b4kjSFxD1PTjLpe6WPGl/D8d0O3XK/w+HfnJQLx8M7xF/gNe/Dwfwsuviad4pmrtQblaF7xHsXJNs4JrUq3nYiHdWhGy6eGVqTzHk1TVyL+N4X5SdnK8QwdI/RcUhA7pSLXg1Qnh3alFnH7rGzlUjySoDRNmw86/lq59carjseBJ49fjLYRi1pOyElqnUnXJwQ0KWXUaFkhROJ9nBlt1GN+dO50UtgSOGWT52eUhjLlxurROpzvU3YLbrtxj+t4nGxizpLKJcKDEo2O7UfqhmYMCY5iTJ1pc18LPAHtwYOHi4aLq0nHBbO7iiZCpJJ30anhGfHPLqRhJof7pGqMKeWS2b7StnOe8mMoMMdoowoh5Pk1xSThCAIhUzTRZC08neY7Xh9dwhBnCjQiaX5t5ZB2iDTl02rO47UTf6/O3RykljuHRCbNnF7w4UoXpkOaz1KtEWnqPS/HdCrSzE2qBeCdWAQ8vA14mrQHD+Pi4pu70y22byfZQfKi/TYoG3WSphd3UhpjBh2vjbjgSTZxun1MUGbG27B1QiAlGLRsdS4HdVIdY02z2mXtGj/pQ5zDOXURG2MOThIsOqlM0h7iXDnp1ps8pvESm/yX4kI0o+M9jan3Ow1d6nk3MudD8gYEd75lGuHu4S8DT0h78DAu3n0hnax5xYskc/qm60Tc7CrSlEnWqCHt9Wmz/qQIX8e8fR7t6zxaZ1qqzKS+jEmmkDQPyZsWWyXRpHJuHaOCRcN5tNZz5FVqn1L7dSGO8vNhPOGYarZPXZDHewLTCeA0bY1JOJGM1HGO992F+nw+eILlz8f57oMHD+9zvHve3WkWaa00zzz9TML7OL59iIQjfPpTn+Hxnz+eKJ/QADW8/trrtDa3jhUA4y28moSAVpajbgsp2L17N3v37OWl9S9j2RZCisQ5eV9PH50dnWO1vfgi72oBkVCEb/7TN+nr7aPx8GE++pGPMTw8fM4CpOzRDclA/wDPP/98Qsgkzm8FYwU0EI1Euf/+b3HvPfdydnDw3E1I0jHv73/3Ai+99AqWrcfIIq1cC4O7yTl79iyPPvoYp06eSszD2xZO6fB2Ftl0ZUTKa5Hy+p1cc6E6Ul8n43xjP18bHv48eHPpwcO4+AvQJr1DCMY44li2RTQSZcuWLWzdupV7772XgYEB+np7WbRoEY8+8iidnZ189atfJSuQ5dbhXL91y1Y2bd5EaWkZd9zxIXbs2Mnu3bu4/vrr+cMf/sCa1WuYNXsWP/3pT+k53cNX7ruPod6zfO/736OwsJBV162isrKCkeERfv6jxxno7+fee+9l+/btnOnv50Mfup1HHnmEoqIiPvWpT9HQ0MCsWbPwZ/gBZ433mT6UUpiGQSwWY/369Wzftp2Pf/zjVFVV8fSvn6a19QQf//jHePznj3Pw4EEWzF/A9je3s3v3blavXsPKlSt54fnn6ezq5O6776a4uJiOjg46Ox3Sltf++Dqr16xh48YNNDcfJxqJ8YlPfIqjx47w/PPrMAyTRUuWsGPHTvbt28fE6moGBwc4sH8/K1as4IYbrmf9+vUcPHiQDH8GSine3PYm69ev58bVN3LJykv+a7dvf4rwfgeL9ri83++kH6kCeryynjDx4MHDRcR7yv0l7m3c0dlBc1MzH/3oR3nkkUeomFDBzbfcTCQSobi4hJtvvpkHHnjA0XQFSCGwlaJ+fz0f//jHyczMoL29nQMH9vOxj32MJ554gns+fA8bN21i7969lBSXcOPqG/nOd77Naxte4+/+7u+YOnUaSmuam1sIhULceust3HDjDTQeOcKyZctYfeON7Nq1i49+9KNc+YEr2b5tOwsWLsDn87sauqDtZBu3r72Dz3/u8yjbpu3kSZ7/3e9YfcNqHvzRj9m2fTu9Pb3cdNMa3nhjI1dccQULFizAsixOnz7NN7/5TfbtcyhNd761k7vuuovSslIADjU0kB0MMm/uPDZufINoKMS+PXtZvGgpgWCQum1b+MOrf+DTn/0UOXlBDFPT1HyUWCzCjatv5PobbuCqa65m3YvreOutXdRtrePee/+K/v5++vr62Lx5M6vXrKauro7hOO/2+wHpNGwPHjx4eI/g3QvBYvSvshR1W+vo6elhaOgstq043XOaY8eOc8vNt+D3+1G2IhaL0dzcREdHJ7fecivSdbF1vK+hpKSEoqIiCvIL0FozZcpUAoEA06ZOIy8vj5ycbCzL4tSpU3R1dbF69RqklEgpyc/LQykbISAUDnHo0CGOHT2Gbdso7eTINQ0TKQ2QYlSGaSc8Sxqa6upqnvvt73jooYcRQqC1Ynh4mJ6+M3zo9g8hpcTn81FcXExeXr7jdS0d5624iR8EWikqKyspKChAK00kHGHbtjpmzJxBLBbDVjbdPd3k5RVSXl6JFD6EMPD5/ZhS4PcbKNvCZ/qYPXs2nZ2d/OAHP+DQoUOOP5whMUwTv99PZlYmAAMDA3R1dbFy5Ur8fv/FeRY8ePDgwcN58Z7QpKUpqamp4fOf/zxZWVnMnj2L6upqHnroJzz722dRWlFUVMTSpUvp6urmwQcfpG7btsT1Obk5+P1+ioqKME0fuXm5BAIBCgsKEEJQXFKMz++jsLCQJUuW0N7Rzg9/8EN27NjBpZdcykf+6iM8+9vfEggEyc/LRyvNr3/9DBte34Df70Mpmyef/CXTZ8zgn/7pn/jpT3/GipUr2bxpE9FYBFBIqSkvK8Vn+sjIyKC2ppbayZO4dtUqfvqzn9HR2cnSpUsZHBzka//9a8yYMYPKykpaW1qxLAvDMPnrT/w18+fNI5idTWlpaYJdLRQOUV5ezr333Mutt97K8uXL6T59muKSMvz+TAoKiigqKmXB/Pl8+ctfYqD/DIWFhRQUFJGTnUt2MIdY1GH8mjlzJjU1NdTW1vLAt75FWVkZ5eXlXH7F5fzsZz9j//4DDmGIp1V68ODBw7uOd5dxLI5UD+80McgJYonU0Ju3G3aTJtZ6TIhNPPzmHYUg6aR/cjT+KV6F1li2cz4NiaNzlOWO5zyOS3GSkTjr1RgWs3Tnp6ke5NpGY7jUm873IqnJuCd3Wna0v1T4lQcPHjx4eEd4bwjp8QTk2xW8ye/j8c3pwjpSwpzeVpspoVaj4VXKtUMkSTgFKAsMl1LM9T5PbECUAilH/yZfl0pskm646ag+x8RWaxACW0UxpC9tRbZyqDVF0pjGHa8HDx48eHhX8Z4wdyfineGCMc6p18UFc4LOMVWIJb91eZrRTprGcwR0Kg1pShtxuev0Szr/4vSZOEIfw3RVVpEIz3IEq6uyahwBHb8mroS79dtKk3bbpEYvTw79GsuO5YxHEhfQoxUpd8xaq4R2rZPmWrt9STcFHjx48ODh3cF7Q5OGcYk//tRrkk3ZcQ01XUKGC7bnCrOE5hnXXEWyZutUYisno9O5fbQB45zPtdv38SKIlNLIFIKORHdTNF5LgWG5iR/ifOZJO54Ug8B5uUT+3Pue7oHylHMPHjx4eOd4T2jScTKPBJKlSdJfrZKSM6RjzLK1m5yBROKOhAKbnJBBJ7WZZF5Wthpbb7yITConR8sjwbIVCo3WIiGgk7vtHFMbKDX2BDuFIXRM4ozkYaXOTWrCDFtp7PiZs0+AkZwbY9QLXSmNZVsoly81oUkn9eMdCdKkwTjJUMb+U0kWAU9Ae/DgwcOfhnE16Xj63rfLE/G2kWQ6drRRp/nh4WHeeOMNLMsiNzeXyy+/3AkFcoWqFbMw/Q73yvDQMGf6zlA1sercuonXCx0dHQQCWeQX5KfvSjqu6nSadTK3sJtgAilQODzPUjgCqfFwI1OnTWc4HGJr3VYKcvNYvmw5WkFLazNFxUVs37aNqsoq5syby5HGRhoPNzJt2jRmz55Fb28vsViMhoYGwuEwl156KYFAkN27dhGLxbjsssvo6Oxg51tvMaGigsVLl4DS9PcP0tHRxexZM5ApCnt8KMq1bSeGG0/pmC7RSPJcpp04xprZz1c2tSPnq/NCZTx48ODhfYZxNWkh/usFdEIrTGpVCCc5RXt7O+FwmKVLlrJgwUJ8Pt/oObEGwxwlRxscHOTNHW+mVM4YrVhIaDx8mO7u7rQpLMcktXCvjWvaiX1LsiMaJEzdwnAcrwzhCj0F2zZv5X9+/e+JhcO8sn49zUeP0nz8GOvXPc/ZgT5eXr+Op558Ajsa4YnHf8bB+n389JGHqawo5yc/+RFtp06yceMbbN68iddf30BOTjbf/e6/sWPHdjZv2cTx40d59jfP8OQvHic/P5eNmzdSv28fyrb46aOP8NSvnsRW1hgWTKH1qNIvBDJuu1cK4Z5Nj6rD7ktbOQfYie+SK0xU7JTTCq3Uud+n3BitbMdZzoMHDx48vCNcVFrQRGrKJM0rft4rMDh44CDRSJSFixaSkZHBo488ypn+Pq64/AoqKit4+qmnCUfC3HTTTby18y327NnDlClTue22D/LEE0/Q3NzMZZdexofu+JAjbNEopfiPf///GRoaovv0af7hH/6B9etfouf0afoH+rnrzrt44sknuOqqq+nt6aGpqYkZM2dw5Qeu5OGHH8L0+bjrrrs4dKiBbXVbKS8r5+57PsyRw42sWLmCQDDI8EiIlhMnmD13LjHLpqiwiF27doHW9PT0UFFZSfXEiezetZtrrrmGxiNHiEVjfOdf/5W9e/fS19eHbSuONDby5S9/mbW3reXJJ58gGAjQ3dVNRUUFZWVlNDc18d+/9nVOtZ3i6V8/Q8YNN3Lo4EGGh4cJBgIYOPmtEzSrqbsskfJ5shElXtSQ55Y/50YKcNtIWyLlwFsYadT7dNe8XY3cgwcPHt4nuLhn0klxvnFtNS4HpDRYtmwZt956K1OnTOXkiRM89thjvLjuRX7xi5+zb99uPvHJ/8a3HrifiRMnsmzFcr7xj/9IKBQiGAwyMDDApk2bOHny5Oi5Nc5ZbH5+AV/72te54YYbOXnyFDk5Ofzd3/89VVXV+P1+rrzyKlYsX86Tv/wl69av59FHH2NkJERoJMyL69bT2dnN0NAw99//AFdefQ2NjUe4+tprCGQHQUAwO8Dtd96FkZEBhsFVV1/DN/7xn5g2Yxa2goOHDjN7zjy0NIgpsLVAIeno6OZf/+3/40tfug+EpLi4jEAgm1df+QOvv76JL37hy5iGD60ESgs0kp7eM3zzn/+Fa668hrKScnbu3MV1161yz5iTzNdvAzpuLvkzTSY6fsiuRl/Hz7x1uro9YezBgwcPbwsXN8FGfHGWIFKIP4QWZAeCZAezQcDE6mo+/7nP4vP5mFBZROmEAl548TdoLZg0eQZaOmFOlrJpaGzEUorPf/GLjAwNOaFQgDRNFBrp86GEBCEpyC9kd+8eHn3kMZqON3P5ZVcghCQ3r4A77riTmG1TkF9IMDuPefMXUV0zmY7OboQwefDBn5CRkcGam25ix5u7mT9/Pn6/iTRAaucftmLXzrd45JHHqKysZO3atezes4eqioksW7yc3z7zHJZlUVhQzN///T+Qk5PPocNHGDw7wtz5i9i1dz/3f/vfWHPTGt7aW8/kaTP5xRO/IPN4CzfecAM//vHD9PUOMDAwRGfnaaIxxTO/eY7Ork5aT3YwaXI18TBuEddOJWM91RJzPup7kPBgf7te9Yw5PRiVu3FfhuQCYvRvop1UF/M0TXjH0x48eHi/4+KGYCWt6DpZgdMQDttkZhpOOkWRzPWh0JZCmCZKRZzUyVoipM+51GI0d3P8b3yFl6Bijtlb4KSoHDkb4vvf/0++8MXP88C3v82/3P8v+DNNx/vaJR2RgBVTmD6ZiEseI/AAO6YwfKMNamUj5KipQCvXHCykG5vshkLFLQhSOue5cYhR87F2JZkQwqUMNdBaOzShWidZIUYpxLTWCJLe28rpT7KnfJxEZYw5+nwMKudTeS/0dIx6q2ut3NByCbZNIqY7nZebBw8ePHhI4OIK6SRtToHjdJXq1XtOEK9NgsVDKNekGw9UFimOXRYoA0wBtuOBfU5AsIadO3ZRv28vV1xxOdNnzRgto5xQqkTIlbuZQCVtKNIGNifvPtzvx+xC3iFSb8mYM2TxX3RjnMlQKITjo37O9/HNzWjpuJacrJK/A9U78VZhA0I4mzIjEWvu6c4ePHjwkIyLI6STbaKuQ7WNY2sXgKVhxIYRy132JQgDlO1cI4XzWdw53FaQkeFo0QC2y8QZZ9xUenQT4IQfOUqbbTtyzjAB5TJ4ms7nPt+oDIzrx5YGJRwzdlxb19ppR7plLeW0aRijslVKp+9jLL1J0m7M+/jHKbJfJP43+n0qErzc7uu4Yi6E077LSppQlMdUIZx5SYw5zb5DacckDiRoyWH0s4RD9wUelPgcKAWm6dw/w+/eXxt8AgJ+yADQaoxFwIMHDx7ez/jLn0nrlNciSXgoiEkYEPCvjx3lj7vOokXQiQTSCkffMvAhMJUGkYnCxsZJUCFthcYAHQ8vspEGWLaNdpNHZBgZ2HbEaVw45mthSJRyazIMbNtJUamVwpSGIyyAiLaJGRpTOyZrJyraSHCagONJHSdKUW7Ik5ACpVx9U4z+HR2/GHXy0nqMMNdKuYJVjP0+2VweN4fH59V97ZjmdcKU7rQjENIdr7bcTU+cX1Qk5kIAhpSk27Npt7/xvsfTc6K1c/wQD8NK1bBVvD/KzfltI6VAaBtLmwitCcgRZlZq/v0fVyABHxbgpcr04MGDB7jYjmPxvBNJDftwlmTTjuKXmogVw5AGViyEMsCQfoQwwJTYyiIajSFNg1gkgl9KN25ZYuHE/caUhZI2WimkkERxEmH4zQxsSye0P4fGWyJsjU8YCOlozhKJsGxHNdcCicSUTrpKpWykUAg0UhuMEpQJDGkglHIEnpaYQiKEQCntarau+TgufCEhKCUicW4thIHAyTFtSANlqzFx206suROnnTgDj3OEa8dcn1D5wdFMlUZo5VgupEhYGLTWjoUBDbZC2LbjdKdHNwWA6wWOaxJ3TORxBzGtXPOETqZic4zjIjHb0skGZvpchzKBYRhIbYO2Hee++NXa3WCkyxLmwYMHD+8zXDwhnbR+q/h7V56YQEAPceWcchYsrEFJeHN3O9sPtBBTEoXhaqkKf4bpEJEYEi2dNI5KxVBKOSxgWoEC0/SjVIyiAj/Ll07lpZd3Ic0gKIHSEi0dUYi2yRQRpk/M57oPzCBDQnuHYuPG17lu1ZXkFZooIBSGg/XHWbl4Cpk+x8x9qLGd/v4+Vi6fi3KF/KFDZygt9OOTGeyp38fSFUt4Y9M+lB1jzfVLCWRBy6lh9uzcwZXXXc2bO5o43XWS2269ggyf5Hcv7aetTxPVfnIzB7nphrkU5Pp58Y/7CIdHuHHVJRTnO3Lx8PFB9uzeyU03XIu0bHbv3sWKS5YRi1rs2XOQaXPm091xjMlTprL9zV1MnzaLcMQipgQZWUHqttWxYslc5kwppLNrhNaOMyxcVIl0TeVn+mwCPkEwTyIktHdp1m/aT6YZ4dZVyxg5O8y2Xce5dOV8ygqdI4qeAeju7KO8OIeYLTh49CRNza1cf91V9PV0Y8cGmTNrBjsOdvDmnhbnnimBrR03Ap9wfQo8ePDgwcPFD8GKn5EmW0elhqVzJ1JUOYEHf/I7DL+f2+9aQ29vB6GocyjdPziE1IrsYCZCOJqYFhbDI2FikRj5eTlICUMjFuFwlMKiAmwVxR45wZFdPZQEY+TkBzFsRe/gCDIzl8EhC8vW5PpG+PSHF3N4Xytv7tnNHR9eS/sRuHyuSf2+g/z2xc3E8DN/9nQumz2Fh3/8DGWVNdx21XK2bWtnQRX8z/t/iBI5BLOyuP1vPsS0SZJCMli6EFr2D/GBqy+jt3uAjZt3sfbOaygwp7JiEZw5KZhZWsi1SyQZJrQeK6B3Vye28lOSHeaGlX6kgtjwJLbWbWT5TNi/r4kjx1q44+5riHVbXLsAcjIM8qMma64StHf4CLUNc8lcyTEZYvVVksl5kwkEA3T2jBDFR1aOScvBGLdcUUj9m/uZM2UeGze+RqjvMH/zyWt5Yd0ujh49zlc/cxdvbN5GT28fd9xzEw0NPgqCMVYtBisapOlwiDdefIF71l5JTn6AXz3/DCuXzubSOQs4M6CorZjEJtXCTZfD7587xZVXzqeyXDCxvIK2E51090dR2pHLZupBvAcPHjy8z3HxhHSSY7JKcZIyBMyZNYEXt59CB8u54caVREKwcEoeyxZNoeHQYWbNXMqB/Q1cdeUsdu8+ypw509jz1j5mz1vCwQMtXH5ZLc3HuinIK6W1Y4Di8jwQI4SHqskKFrJrbwOWFWb5nGk0tvRyoGWE5qhgYFiSKYYJZsDm7fu59Lq1DI1AaXkVCFi2fA6F1XM41Rej8WA9/my47e47yQjA/vo2lPJRUAKf+9IXiMbgwO7DGFoSHlasWFyNT0KWOUJZJfzqxRO0duRR/x/7qa0aYdEHqhFimCXzp9LZHsUQfubPq+LV7Q0Yfj+zplcSDcPB+gPMnDaX7VvCaBuGY8UcaG7iyl5YPn8ORCzwmcybU8vggCISDWHpqOMQZsXQIVgwvYihCHT2RIjGYgRFBqEhi/o9nSy7ZB57j8KILsaOmQxpGJZlhPRpjABcdfUlRGLQ3QPWUDcfuGY5rS3dGL4g85fMp7FlI2EjB8MQRHzFhGUGfSE4fqKDpcsqufGahfT3gzD8lJaZ7Nt1nBnzp1CU46OrdwBJlmMUT/X09+DBg4f3OS4u45gGlLsYx/+56B44Q2FxFe1dIZ54qo5gDsyYnMPkiYIlS2YhMsCfXcCxEyP0DliUlMPCpQscL/FgFQ3N8OqWI0QMyCrMY8f+Nh56YiNb9xxDGBAeHuS6KxdSOzOIL7eU+mPt9IxYDAvnzFQAlRUTeOmF9ZQXQm1lDraCjTsG+e6DW3ji13UoHWQkDLv3HiAvF7pP9xFRGXT2wv/68Uv860/eYFN9FyNAU3svMiNAbh5IKbFiUJBnkOnrZ0qVQWl2hCwbJhT6mT0zi/JiP5WFML0SSrIUxXKIDyyrIT8Hli6ay+RyWDR/ihs/HsPv02QGoLu3FwtJa/tpSqoKaWw5RUQb2GYGYQ2WGaCtJ8ahoycpKQK/lGT5M1AWRC2DN/a18R8/Wce8OXDJwkqkCCEERGJhMCQjI1B/oAUEhIZj+IyzzJiWRXFZKUXFQeZOyiIvW6OVs4FQynEkkxJam1vwAdOnFXDkQAf5wRwyM2HarClkZcG8OZOQwkILPfoo6JRMZB48ePDwPsbF1aTjsU0wRluygNfqjlAycQVf++rVCAGtJ2D7Wy0U1JQxFIOzQ3B2xEcOARpaw/QMwUDE+XwgpMksgLBZzIiAQ8f7ufaGSq68rpID9VFCAibPXcEIoEcgMzeT2267hh317TSd6uVMOMiLm0a4/Z4lrBmC/BLYva6TmlkVXLoil+pplzMcgZbjZwkZsLspgrFdc+l189iw4SQZRfD1r6zGAppa4KyEgf4S3jraxo03VtIdKeP3r7Tz4XtnEwnNRkXhpRcPYRlQUDWdAQE/eGw30ZEBvvCVq5m7dAVt3QNkl8ODTx2n42Q7X/rMFUydtRhMuOrqImbPX0V/CLYdOMOCFZJDrYLcCmhs8zM7P5OIMYFhAX26gtO2j2f/cJzC2mr6VQEWYBtAdiE33bqYqmI4G4MDzb1km4XYEmwjj6iviGEB7UM5HN14grvunMhteTdzegT+8webKSzI5mMfXcS0eZcQlVkYAiI6l5AuZAhoPWOy/wTUVsFrbx7jzjuu4PUd8LvnX+H2tTdQPS0bG43EwBd/JsR7InuqBw8ePLwn8Jf9V05yAAAgAElEQVSPk06JkU5X+RDwwE/2snl3P1rHEIYkSgYxDaaIIIiilSJTBohpE60lhtRIPYIQPpQysTFQAoQSSBFDyCiWHQKZAfgdr2zthGIpbaJlBkpkYpHlkJUwiF+MkKEVSpjYSEw0PjuKZShsLVGYKHxY2sBnCISKIoWNliBjwyBMtJFFTBtobSKEdmKozSCWFUYSIsOQCGViKQHCRkiwlYEiCIQwDI3SAksLBDZCZoASmDqEIaNoFXXzVhsMqwwMKTCxnb5ggBTYSmMpjfL7MfVoxJThhqVpJEoY2GhMHcXUFlElscwApgbsGMpnYgkI2jZR28YQ4DM0WkcxZC4RZaCx0PYwgiwMqdDSJIKJKUIIbaKw0cQQSmAgEa4buk0mkgi2NBDaYnpFkB//P0sIAEYa+lIPHjx4eL/iL69JJy+457CL6UQ8s9YZRCjEkpnYgKVtfFoQiV8obMI47BpaSEBiUOSGP0s34kghpBPKpITGlgolDXA5tZRtYQgnbhjtMKVoYYKh0eQR1XkMk4HGRiAxkWhho7TthEdpjaVspCGxcPpuCL9DoGJqhLIRtsOconBiq5Ea2wbDCGAIAxsnxMqSltNPrR2iFmWjtQ8zTvEiBFq4nwsNRoBEAJntvNKmIGbH8JsSoS0M4cSMIyUxbYMW+HCEsZCGk7pSa4R2wsNi0iasFaYw0FKhtE1YC3xCOGQuEmIxhWH4QClMLbGFwrDAQqKExDALyURjo7C0jZaKmPahMVHufRBoJwZbWU7MtvaBNkAr/JxFSukwkCU/J56A9uDBg4eLa+5OcFhrkQjBii/MGhtbaCwh0UKhtYXGB0g0yiUiiWeKcODSY4/Kf+GKY6FRaDQSqTPdL2ykVA75BgK0iUAjhO16nTsCztA2WthoLBQGWhhoIZ1rBG5Mr4HQTj5lJR3Vz0kmJRFolNRobQEGWktMQFoKIW1s4cQFay2c8oYgZtlIaYCtsG2F1gLDlCg76sRfCyfMDGUgtIGQEosYUmkMYYINChPbSTuFFBIhFFKB1lGkMNAIJx5aaodBDYnUBlIINBYCRwgbWqKEdljbLBuf6cR1a+kjalvO/AuJIcHQlrNx0RKFs3ESyp17KRDKxo9GSZe8RQsMJZEaFDFHeKNQdsTZFACm61T4X53L3IMHDx7+T8RFjZMW5yRyGH1tYGAgiGkL6ZKFaKFcee56nCWxSZ9vDXfIsYQrNpwEFZFoFMNwBY52Yqo1IJVM1DfK/SVR2gLhEozgJILQ8YN1LbGls3lwjtktbKUcYahxNiFaOCmXXaYy2+2/UjaGFPjwo9FYdgwpJQIbn3CIVyynpJPS0sY1gWsQConCMBxh6jB9CWyEk+WLGKYw0dqJPTYMiGmQ2BiuS71CogUYceYyFFoKcDV8W4AdZ0SzNNJUSMPGUrbbvo0U0tlEacdBTEtBDAspQCobW2mUzsAUBrYVwQa0sBHS2SyYKkbQH+LTd69gyVTIz4CC+H1LTZLiwYMHD+9jXNw46fiqm8SDGVeqQbuMWU5ctMO5pdwcGg5jlsZI1JPkDzymWu2KzQQbljGMbTsZpLTyYQsJQjmno8JwaDJd6aCFY7aVcXYtIR0GLy2RwnZaFU7ImNbS4QQHbJcvS+NYAeJ9iuv8Uip8pkQpZ5OhtI0SAq0sDAGWFQNpYOG0q7UjlKVpopVDjyqk4Wi/AmwrjCENJ4eIkxbMOfF1LRLOcARaGEjDIRIXRpwM3c3KJQWGwmVNEyjXy93RqjWmFPHMFwgUQtsYhg8ViwtmjRK2cyu1z9kwGM5dkEIgpcRQClMKlOkjbEddC4KFISSGGKKmBGaVO6xzuEcMOilpiiejPXjw8H7HRRbSScHSLhwdDvwihJ8RbJ3lODZhITCxddzcHCeOHPX+VW6mB5nSAkKB1vj9BpNqC1l1fQU/+vFbWMpECIEtdCIhlyGES/UZwiAKxDC0gVIaw8wgajtapyFtBApba0x8CCRK20hlYOEDw4eyRzCEhcImioHGj9YWPhHBtBVamWhtoBAoGcXQFiYKLRRKBoioGAYSUzvS37IV2tU+/QikthB21OEJVz4yTRMpBJaynHNx6YO4qVvaCGUhtYmb3xNTOH2wlCbTzMBEYdsjWFoSw0AIA5MojtucQUQppGliqBAZhsCKgSATn7YRUhFVFraS+LSFX1vOpkiAbUuwBgn4M/CZBqFoBKGjKFNiYaJEFgYOM1zCPuJIe2fDkHRPPUHtwYOH9zMuIgHjqP0y8cpZmfFruOOqiXxodQkNrf3klebzx03HGLTzOXMmwvHmbmyRhc+AaEwhDB9IxzSOiiGkxBASIWw0w0woK2Ta5Fp2vvkmeVmlvPZyBxKf4ylNDAMfPiQ6ZmPiw/SPsGpZKX9zbzUH9/dRVFpIXV0DtlIsWjyH3tYTLF8+kV1725k6s4ItO5uYWjOJ6krB/gN9jEQK+ePWLVx5+Xxm1uYiIjEGTR8/+dnL3LJmFfmBMIEMRWhEsr/+OGtWz+fXv9nKTasuQwpN2I7RecbP+uef5v/9n3dzqtXiaEsrl1w9hft/WE9LWzeXz6/lbz8xlSMHRsjODVB/tIeTLY18+hOXsb8hRucg7DnSz/a9jcyureSWyydxyVw40QH7Dx5j6eKp+CQ0NA/TNZDB5m07+cAlM7h+ZSGWAc8838DA0BB3fnAFve0j5BUEeOkP+5hY5eeW1cs4dLCXgsIijh/vwyDEnAWV7DpwhpCdw0B7I2uun8PgGcVg/wgFRdm8sP5VrrvpMp56tp6iAh9/+9+W0twJ//KjNzk1EAXl8KujJMJNM6ZwzvyFGGX99uDBg4f3My6qJq1sC2k43tYJuEkhwsrPwWMxHv3VRqZMqeGe2xdyvLEfMSHK//jkIpSEo40Wy5aZNDbCj370HJ/45FrmzodtW8McP9rCRz48m1AYXn7lODNmSBaUzeADVxYyMARPPtHOh9ZOo6IMus7A4786zi1rp/PzX/bTcrIPgUk4Br9evxOpLD7/1zexbcs+/BKUsOnstvnVr57iC1/5KhMrazANm5bmIX7x5C8YNmooylHMmJHL/d/9HWdVPlkZGSyaO5upUw1+8KM9tPVECGaYzJpcigJmTy4kmA///qMNnBka4etfuoW11y0mW8PiWSY+kUeGDZk2+JUfnxacHYKn120jKxjkkx9dSZ7diR6BN15Zx6GWYYZ0CVoUc+R4L7/qPkVB3hW8ub+LXTv2sWDxVA7uP8TTz72KJWowM/IpKimkexh+9JPniMYUX/rSh2hoCvHsU69wxaUr+au7FtDZ2s5AL7z6h1e47APXk19czGD3CTpPhfj1L58iLHOYWpmHYg47d++i8UgTn/zM3ZRMmIAEMsQg1RMmcvq0YzFZsWgqbRuPorXCJ6UT8qUliHiOMU84e/DgwUMcF5U5Iu44NroIO268hsTxEsZAyyxiFtgxyDAjZPoi9HbafOdfHmV6jcmmV45SlgfXX7mY3Ez4+n2P0XnyCKuumsljj2zh+ecO4Rcxygph3vRCHvnxazTUD3LF8vn4bPjpQxuJjADYfOe7dTS2nnQSdrgJHmIqC0sJhAGBnCyUhAgx8ksN/u4bX6WyGl5+6Q9EbJPi6nxW3/k5Llt1GyHbREkIW4owPsLhEQI+TZYJaCfueygcAaExJGRoiNnQPxJDyyznfFsqhiOwv+E0U6YVYxhgSumcN2uNBURlkBHlx9YQzMrC54eVH1jLqls/QuWUxWBkYmNgiQyEH2Lajy382BImzZjNzXffx7Jr13LGMvnFb16ivqGTr399LWtvvp4MDSMDQ2gliUQiAPikQU4efOTj9zJnXjGvbtiCJU2KKrK48bZPc82NHyG/bDIRBZdduYyv/4+7OXI8ysGGI5gG5Odq5s2eiKWdnNtzZxSR7XfCzzSuh77G8RpTjI2r9+DBg4f3OS7ymbSDVMddDfhMkwxD42OYpYvn0N2riMossAVDMYOwlcPAELzw0laefWEzWmQxaXYN2ixj8cr5RCScVdlMmz6bnABEAF8m+IOlGBm5jNgQ0tB82mYwBpbMIaTOYAmJXwmQBuGY48S0fMXlnO6HnmHNZL9DrXmiF555+mXu++KNzJi1AFtCcxv85vevM2jlkZeVCSbcfectHD/Zyz13lPPS79vI8MO82ZPJ7T3LRz88jbrXu4jY0HY6xpxcmDN7GrGYIiMAv/vDTqYvnMH2hm4KakoQBkS1REkDJU1iCqTU5Obm0jsEexs7mbJgCq9srOfQyTBhMrC0whQ2IdvJymUpgZB+YjY0HB7iyXU7CMscjMxMPvzxK4h2hGhuhuKSHI439TFzRglbNpnMnlPL8ZPQ3txPoKKMx3+xgU9/9hrmLFyKLcKc6IanfvsqwldITYUmpGDXmyfJyTaZNXsCvsx8Ygpy83LxZcJDv1jHtGnTuXLVdMqLC+npGsaWTiy24zgmvbArDx48eEiB8c///M//fFFaconNHAIPEueOGogBG3c003/WYNqManoHBlj3x3oGI1l09QzT3hXjZMcIfWdg0fLlVE+eyVBI0d9vMXvuNN7c2cybO1qZNmMag4OD7NjbRGunYvueE5RX1HK6P8Yb2xpo78unpWOQ4VAefb19LF0wj9DAaUZCMWwUsWiQyuIizobl/2bvvcPkqK6E/fdWdZw8PTOKM8pCozDKGUkEkUWOxoABYcAYbO/i3Z+Nvbb5ffut7TWOBLPGxkYEG9tgWGGJLCEhoYyEUM5xNDmHnu6qe78/qqqnejQSAmNJNvd9nnmmu+umutVPn3vOPedcXnnjA+rbIlRUm+w+UMeuCtiwpYa62gLiiQ4OHqpFWYoz+hdyxtAiqhraWfdBBQV52RSGbV5f2szytfvZutOiZ+9cYjlh3n57B7sONFDVWsjyjQfZtTdBSd8eZGdHWPBmBUeaAtQmerN2WyWbdrRzoCKLLfsaaIxLlG0hE0H6FeUSDmWw4J091DQq2trD9OqZwdAhBWRGTKqr65EijDRDdMSjbDtYS2NDOyKZQSQQ54zBhfQvKaKpsZ5du6vpkx2hvM5i/tK9vPtBHa0JybDSQRyoSPL8/A9oFdkcrM1h6+5q9h0UtHWY7N+7C2UrRg7ry7D+Rdi2ZE+5yYe7m1m7uZ62RBYJS1BRlaCyQbDpgMGqzbVUNxvUNuVzsLyJRLyOmROHUlIEQQXuIdad3xctsDUajQahjpMW9FNFyVReZun2aLjRNu0K/vt/1vDahjg2EceBSASQCISSjoFcgimU42TkDB2kdLJxCW8nU7nBWYYTwiTcdOHCQCondYbCy0gmUUpiKuUMTbjBVEYCpQJI5XqTC4WBjRQBhAhiWxJh2m6aURuwEcLAUkEcU77CxHkvhIGBhSHakNLtX5jYwrnxsGFjyCRKgUWmk51LKdfr3PF6TigTJQRBkUCQxMDAlia24wqHoUAJC1skARNUCMsWKCEwjASIMNgWQcNGCAspFJYMgAgCEpOkmwglhBAmptGMqSyQIaSMOtvFbqS3cMOzhAIpLMd072SiwRJhpDIxFE6qVMsN1QqYKBVEEAclsCyFYRrkBuv5zlfOZdowiCr3+2EYOjxao9FofJzEZCZelgrReZ40blCVACWiWIaJJTKck7JcIaW8rGLC2b8UojOZiUK5mcuOTpCilFNX4iQwcWKUO+tIN0WKwBE2EtPdBg05KTlTrTniyVBO+JctbCDkhBAJ6SZOMVHKdBcICmWYqRAvJUxsL9Wn16KTQBupFJIwEgNLBACJEMo9stFZUKBsDCGQRJFEASeeWyiJ5cZySyFR2E6iE8Mk4GZIs5Xpek+bJNz4beUmM/Ei0W0ibtoXNxUoGVhCOTHkIkDnqSgSNxUKSphIdwYlwkmMguk+L4kkhC2c9KgKA5R0MrQJExEykbIdQ9mYnaHVnZaWv+1bptFoNP9UnMQ9aYWU0nUYch3IvCQknsBSTjIRoTyh2JmypDuLqHtaRFrotXJjp5XrNY5QTltuIhElpNu/6fbhJACR7qLA6JIRTbm5y4T7zlAK3NzXCu9eDCDgivOkM2rlpPNEOVYBp64nHEndmyP6vIWHo5XKtBGAUG40ufBu1xXkQrkpTAEMp5ww3P6Vk5XMN024KVGFG43cWY+UkJSuf7XXj0gllHFzuHltefUwnEWHcGor4eZJF8q9/yT5GW1kBRKEAl560A5yaCY7ECdAxLlR00tUo9FoNBqPk5q7Wxied7ffw5uU8AE3dBqcPNSGt2+tUkIkVQEwuvE08oRsylFYdbbv19XS4nANv1aOK4icdGhHu78rV3N2c1wLGyGSKBF082YrpLBQIuAIcOEbtzsO6SiXqXEKocA9d0vimOGl4Sw0XAd4R/v3rAoqNUykO1cC55xupRxBiHKSsEgc0zeYTjY1Vzv38mNLVxt2GvbPitt6ynLhLVP8T0A5B3OgsITCdk39hnK2D5SyCdLAXVcN5aoZhWT4mxbeC1IxBkc/YY1Go/lscxI16U7R3HUTXAG2YQImQoQBV0M0HWEjsEEl3esBt87RJm5PpXYUQ9e86yjRbn5q58/ZT3YOfBDgnEwlhKt9OmZg4R5WkarlOroZOIdwJE0n/aahDJQIuaZtsAkglImhHJ1UAQkn3Tem6ox5Uykh5ZiQg9Ixy9tKYokEyjAwLTM1WUq4Qth94xw36eytg3S14ah771Zqb9tZnFgYhgIlCagQEMDL2224dZWr0XfmRndzvCnhLg6U76rTsAkEpTdXzoaBISQBYRCUzpGfSIFJIj1rju910rIwzIDzzL3FhanPlNZoNBo4ySFYSipHm1Zd7dZg0EFOsIPZ549l4+ZD7DpQhW1FMY0OivJNrrtyHNUV8PKrG0ioEKYhKR3Ug1huhPfe307SyEbayjmy0QwhleGchmUnESrg5LjGBtvEMG165cEXrj6DvDB0SFjz/hE+3LSFyy+fTfmBfZSVDcBwfcfeX3cEy7aZNKUYKSCRhHeWldPUUMdlFw8nGoIDFfDHP79OXm4ON984jcwQbN/Rxso173PBJTNYvGQDBTnZnHf2YEwDNm5rZ/nyd7jskgtJtreyZdMmzr1oGn95bS97ypvoFQtz05VlRANOfu0Vaxs4tH8Ll102nVDIEdrb98Ori7eSmxXl+ksHk5/hCPK2ZqiqbGTA4Fw6gLo4vP7WLsKylcsvGE4wCIuW7mTnvoNccM50Bg+M0NoOry3+gEhAcsEF4wgIMCRs2VJLTXUNM84cRiAEbUnYuaOd3Jwoffo6rgZ1DbB4yUrGT5zK9m27qa8p55ILZqJM+MMfFmJa/VJyWapUllKEEJgB01lMKOE+I61FazQajUfgeK7dn+qPpXCFNMLLBoprUXY0UiRR0c7IAVB9sAXRVxANRWhrbaZnQZgRfeE3f32NspISCGXT1FTLmaPyyI5KqsqhvKGNaEYmEdlBRkYEmwAJO0F2NAIyQmV1PXmFRVTWttIRbyeWIZk2Gp6ft4zG5iQ33XQOjQdWMnEo7LY6GN4T/uO7P2LOZVdx2VlD2Xeghj558JNf/I7apiiZQYM77rieisoG3l75PlffeC4zJw7ksgvPYPXKg6z/cBtXXXs+rQ1FTDkDWg6FOG/2YBYt2s2qVav516/fSKHoz9ShBiV9s1mW04OxI2Hxcguh2olFg5QNgt8/vYiGhgS33X4Ra5dFmTgA/vjCUlZs2EcbhSTMQmraEvzp2a3MvW4CkVA+Lz33LF+68xYsq4InfvUCLUZPlJnNVbOnMLQ37Nxdw8ThRZT2z2Dy2AgPP/JnSkcO596bxrB9w2bGFMO8371IUWER586cxZr3DtAvB374o0dok7nkF2Yx9wtXc+jQXl5/6zVuv/seZk7oycD+0FrRQVHIYHqZs/hpmT2GgG2ntHqR2lf3vhauYBapr4lGo9FoXE6qJu2cRIVr5fVcmNwfbWViqCRhBYN7Rrj8glJWvbuEWVfPYtOm7WQH4Iz+MbKzbDIykowYPpY9u/aSYxjcetlYFixaz5jR/cm2jzBs2ABeeGU1Q4YPY8/WNVx+6Xm8uVSwq6KJSrMVZbdhEEUJaBJ92Lh3K5e1wcSJYxynLWmRnw/3f/1+YoUBlizbSSgcpqAI7r7vduraYc2bayiMwatL9rGpKpeNv3iXsYOyyM+FXfua2VyTw9bH32VYnyiGhFimgZSwfkcN1XYv9h6yOWNQX0zZSntLJmOG98dUoOyEazY3sIAOUUR9ezVWB/QvzicagiuvnsWU82exehO8/M4G4skQzQSJyxzMUIQmetAswowp7cX9/34fR5rhpZc/ZNOm/cyYnk+vgYWsWXmAwX1yKa+AhmQhh6sS5IShpCiT/Ay44dprEAFYtOYwlrKI9YKv/ftXaEnA+x/uwwzB9MkDKR16FzIAh3ftZNSAgeQFIb9fCXWHO9h/qJJRA0uIWJX4I+fS/ms0Go3mmJzcjGPKp0m5cVgCR50f2DubI9V1hEzIigQo6QGBaWfRmoD6jiyqO2BPeS1zv3AxoQAICU0t0GFb5EUFhgHhUBCr3aC6DT7YuY+ifkO57NLz6FEEyjDYdqCGBiODsBkgKZIkJZhGEDMoCEbgcHkFZRMHYQuT6kZ4691VXPe5M6mqb6RPz75UVMNDj75NRVsuvQLVXGpDSUEeO6I76FcykIhoRAmI5gpyog2U9OlBpohjAwlszCAUFcYor2shP9+krryB/OxevP/+dsaOG0Yg6DjDOV7UwvF6l049EYLqpji1HfDMS7tZur6cllAewjIJCRvbTmCaARIKCEoSCjZuhR/++jXajQKkrRjSM8rjv1vF7JnDueCcfhw+WIXIBCMgyczORALxBLTE4YNN+5l2Zn/iiQSGMNhTAw8+/BptyV70zW9n9OgBbNjRQSDQTlZOHvWNrdhKkpUdZtCwfmRkQmluP/KzgbZMx1Et5Rmu0Wg0mhPB/N5xMo79XZQd0Wni9IS0BYhwjCnnDCQh4MX5G50f+ixISti9P0Gv4gxqajKYMCmHjgQoE2pachgzroC2uMHMmX3pXyzYXx5GZAXYuLWOOZcMIyMHWjugsT2bqdNLaG0OUFffQH52FrNn9WDI4FwmThjK9t2wdM1uxk0dQHllkOxeEea9sJ4efUoZP7EPzS2ZjBwpGDN6EDOn90GYPdm8o5qrru3H5EmDGTa8gNfe2MvOPUluvOkMpk8ZQp9evdm+s5bSsb14d1UD5ZWCyy8vZtrUQdQ0wUsLVlE2eRg7y8Ps2NvAgNIslqy1OVTdQqwgj7OnxSgd2ovx4weyaSds2lzOhEk9GTkyxszp/Rk0sCc7tjWgpCBkCkYMK4EIrF5fzoSxAxk9HKZMHsLUqX1pbYuSlZPBXbcNo2evMMvXJXj5zXUMGjSQORcMYnhpIfPfPMLeOsmAYXm8ufgIjW2ZTJvRg4bGDIYPjzB10hDOmd6LXj1LiGZDeXWAhYvWMHFKf3LyhpORJbDNGBkF8OP/WcbGbdVMHNeHWG6YSCDdDeFY3y2tYGs0Gk0nQh4n49jf5QezmzibuIT/fvxd3viwhQ4VxRBBDMBUzQgjTFIGUUYIrCQBI47AxrYV0ggSNAQI6cYOG7RbEhXKRNoQUDbCiOP4IQeQwsBWIZIECAqLsGrDoAMIkVRhksrJjR0QHc5hHyIItoUhLYJGElQSIZxkHkkRARFwvaNbUWYM2w6642hxPNJFAEsajqe2EQI7TsCwQFl0qBAGjraMMAihQASJqyCWEcQkQVS2Y6p2lBBYIts511p0IGXcSVBClAQ5KAIYJAnKDmzTREmJKeNERTO2lKhABh3KOWs6ShtSBbFEmKQShEkQUHGkMkiamSQUBIWBqRyDu1Q2QnVgCDCFiW0rbEMgRQgbE8MMIqRCWe0EBZhmkCQB2qQibAoyrQb+5ZbJXDozlma2Ed18Hf5u3zmNRqP5B+Wkm7u7RQD0oI0cLMN0Q58CCFHohk+5xQKOrdxwY4a9s4fBjSkGZMAJrXJinUQqlloqJweYm5mUDgRxcruMwY/0PNqOfVaY/35srx2BEFmp8QjTy3gmQWQ5znKqc9xevx2GkXYfSoRpFJlunLToLI8zHidZi3KHJrAJkTRC7paCIBnIIa6KUE7Wk1TCt4Qo6EwRIyCJQBgiFbImhCBhGKn2ESo1XiEMN1mME4ttGCbSdqKslRGjQxiYbqBWMtBOUkkUirgVSEvQotFoNJoT46QmM0m5+PqQgC0gYdiAhVDB1J6sISynkpuS08lg5XmIq7SkKCold9JTpaS8h5WR9t5fp3u8dJgfH+EKMf97r3+nX9U1nYubVcwp7RQirU7qPnCTjyrS4rjTVxkiFdbUmcJFpPrtajxxPjNS7wx3P1y5acpUaq5dzR9HiBtKuLHmwl3PeLnZFAEZRCmJIQzCIaPTQfDjTKRGo9F8xjl55m6/BtmlYQk0tEIrICXYNhiGozEDmIablMPJ2+Ec3KCceqbplPewFQTc2GIAaYPp5u7w6qUUSc/c3gHhUNpQEb62hQDLdsZhmGBbTnywbXe262EaTvlE0hmHlE5bhpvZRMr0vj0NVzr5QDAMp14i6fTvjVf5Fjmm6dSzkhAMOPco3bqW7XzmjRd3Tr1+/KlY3fwtzoEnrlOXIZyxKunMmzcZUrrtCN943HZSGT29srZzTGgi4cRa50UhEoCgL/OnNndrNBrNR3Ny96SPpUop6Xp8u6dkyU4TrZPsqkv8Tndt2BJMI7UQSJmbfWZi/zUhur87LxVnKm+np4l6dnIMFLZPE06l6XBP3nIOyugaDZzKqJUak2umd44AcbKcneCMS1dDdYPPj5a8aTdEp2TFAGk574VvxSLcPKXCJGXmFwJl2whvpeCVgc5TwwzRmZ0E97Z9CxblLnAkNkoJTNPoklZUC2mNRqM5Hic3/2LXX2BXu7ZR7Nq7mzGjyxgxfDiXXXop1VXVSBv3V1yAECxZ/E6nimQFQOoAACAASURBVGwrli5ewh+e/T1lI0YxZsxYZp99LocOHkLajprd0tzKnIvnMLpsNJfNuYyKIxXs3LGTB7/7IAteWcCI0hGMHDGSyZMms2/vPv76ygLKRpVRNrKMq6+6hrbWNnbt3MM5Z5/LhPETWPDXBaxauZKxZWMZPWo048aO473l77F7127GlI1l4viJ/O63v8VK2jzy8GOMLhvD6LLRfPmeLztHXCJIxBP8y9f+lbJRZUyaOIkF8xfQ0tzCV+/7KmWjRjNh/ER++IMfYls28bY4d8z9ImWjRlM2ajS33PwF/vzHPzOmbCyjRo7iqiuv4sjhI7Q0NnP7F27jgvMuYMfW7WArXv3rQsaMGs0F51/Aru07qK2q4bqrr2bUyDKmTp7K88/9nn1793H+7PMZNXwE06ZM49133uHZec8wfux4Ro8azSUXz+HwgUM898xzrFm5Cjtp8/3/+31u/vzN1FRVdz4bV9K2NDVzz113U1dTh5cKHQMMw3TM4O5n6Yb59D+NRqPRdHLyhLRPZZJ2uhuRKUxkh+TnP3uYLVu38qMf/Yi9e3fT1trM008/w4svvoiVtEjaFklpg3IOlUjaFjfe/HlWrV7Nl778ZV5/4w3KD5djWUmEIZC2zdChQ1m+bDkPPfQQjzzyCJZlYds2whB86Z4vsenDTXznO99l3dp1GIbg29/6Nps2b+Kll17GshS///3zPP/8n1i6dBmBQIjx4yawaPE7TJt+Jm+/tZgpU6bywgsvMn/+X1m5cjWtrW289dbbRKMZPPLIo6xcuZrCgiJ27NgFwkloYpoBnn3mOd5662127d5DY2MLvXv3ZenSd1n3/vt884FvYZpBItEMfv3rJ/npT3/Gj3/8E373u3lkZecw9/Y72LBhIy+99DK9+hRz8HA5BUU9efjRx2htj7Nh44csfPV1li1fwVPznubPL/6FhqZmRowsY9WatTz19LNs2PghrW3tTJ1+JitWrWbF6tVMO3MGoXCU7//gv1m79n3mXHY5m7dsI2krbCWorqmjI55gytSpbNy4EZm0fA/VUbjraht55X9f4dD+w47pO+FcdiwYTrnO00983w3/X5fvi0aj0XxWOXlCWpD6cTa8zVLRaY6WSnLvffdyxtAz+Ld/+zdGjBjJ4sWLmTJlMkOGDGXNmjUIITAM0933tB2vaVshlcQ0DYRhMGXaFELhUJqlWSlFcXExDQ2NNDY2krQspJQ89uhjDCst5Ve/+h/OO/88pC158MEHGTJ4CLfeeiu1tTWYhkFeXj6RSIQLL7qQYDhIIBBA2hLTNLFtm0gkQv+B/QkGgkybOo3GxkY64h188YtfZOKEieTn5zN8RKnjCW0IDHcTOzMzk6KiIurr69izZy8Txk9g+LDhPPmbJ1N70EopQsEQyt04TiQSPPrYo4wYMYLrr7uexoYGhg4dSs+ePbn22mvZu3cv9XX1jBw1kuycbPLy8sjIyKSuro5177/P+PETuO22W7nyyqvIyMhg0aLFTJo4iTOnn8m6devoSHRw//33M27cOPbu3cuUqVNSZvH9+/fTs3dvpp85nS1bt2J4pnDXko4QFBTEuPLKq3j00UeoqqjGCJES4B/7+6LRaDSfcU6uuTt1BJTzp6RK/cgHA0Eef/xx1q1bx5133olpGmRkZJCVmUVmZgYNDQ3O3q2UICEQCLh7y77X0KmpAaZpOqFPQH1DPXl5uWRnZ6fCsu69715e+stfyM3NpbGxkVA4xHe/91127d7FvKfnEYsV0NzSTEVFBYmOBAv+ugAraWFZNoZp0pFIYBgmra2t7N+3n45EglWrVxGLxQiFQvzyl7/k57/4Oe3xduLtcQzTQEqJUs7CQilFc1MzRUVFDB48iLXr1rF1+1Zuv/32VKgYKJJWMnU/oVCIe750D9u3b+dPL/yJvFgeR45UMGPGmfz2yd/yzuJ3yMzKZPPmLbS1tdHQ0EhbWys52TmMHzeOxYsWccUVV1BVWQkKzj77LNauW8vy5cuZOHESgUCQH/73f/PYLx+jrbWN5uZmFIqOjg5Wr15FReUR3n13Ges3rKe6pgrXDR07aYMAy7bIjeXwzW89wMLXXuXwgSOpxy9EFwXZrzlrNBqN5ihOzZmA7l40rkezUgozYBIMBsnOyWbKlCksXLiQ4cOHM3fuXL773e8xa9YsDNNwtFADbGljGIZr1pZEwhHa29t5/PHHaWtvQ0lFvKODgwcOcs455/CVr3yF+++/n2g0SkZGBoFAgGAwyPARw7nqyqt48YUXsSyLn/zkJ0ycMJGLLryI9rY27rrrLr54xx3Mnj0bwzAwTRPDEESjESKRMIYhuGPuHdx3333MmHEm2dk5zJo1i0g0SkZGJmeffTb19Q0sWrTIOZ4ZR5Oee/tcZs2axYCBA8jNzaW8/AgXX3QRkyZM4pvf/Ca2ZaNshWk48xKNRl0t3OS53z/HxIkTufiii9m3dx+5uTk888wz3P/1+5l7x1wmTpzEDTfcwEUXXcTc22/nmmuuIRaLkZmVSWZmJldeeSWvvvYqlVWVbPxgIzNnzmTa1Gn878svkxGNEgwGmDZtGn2L+/Lqq68SCoVoampi/4ED3HPPPdx7372MGDmCTZs3pc6/NkyBLS0SVhJpS/JiuVx+xWX8/OFfcOhwueOT5vqrnaJvnUaj0fzDcWoyjvldfD1Tqfu5lI5J2EkAolLnOB/lTO1vT/j+d/0MX72ursVuWaWcIzRTR2nijUVhmEd/7jhVe8dudmnbey86204lE/GKSJ+XuSEcb2nD37ZviMbRffr/A+lhbW5ZO2ljBszOsGu3D2lJjEDnYGxLYhjiqPtLve5uzo9BS3Mr//ov/8ITv34i1V5tTT3z58/n8ssup6Ao3/H4/ighrU3dGo1GA5wqncbvzmuAbdmp0RgBRztGgGE6wk115xbsb0uSEorSlinHNNu20wRm2mufAHK0cTcsKxX/6who8IVxuYsIICWEbMvu7L+bMQrRme3Lu0+Bk4HMazcltNyxpbRNw90SSMVU+8bjelYfJaBTL1VKsCtbpfrwC2glcffyRecWRNc128cQmF6WMuVbsBQU5nPJJRfz0EMPcfjgkY8W0BqNRqNJcVr8ZJqGebS3rw8hOrXGbvEJOcM0HEEkSTloHRe3WcMUaQIpJQg9Aexr3z8+wzTTZ1Gkl/e/Ns3O+zQMo3sBqHwh2pAmQLv2kWZh6NJfIBBI1Rem6PQBgJQDnxdqndamP866y5R3CR3vZuwqFZbtLZZsS1JUVMjXvvY1Fixc+PEdyDQajeYzzMnN3Q3dZ7HwZeCUlsQwjU5Trl979Or5BZM/gYbvmuraR1dh5r/eXZIVV0P3X7KSFoFgIE0zFwJHUzXTtXBPw5WWTO2jp7WdMkMfbUoXxxSCHG22787M3/V+vZwlqQQqx0mc0nWbwDe/Sna+OWqB4Dl5u/cSj8dpbmqmqrqK//zP/6SwoIiCwkKkrTAD2p6t0Wg0J8LJF9IeqT1bn0anXHOs6hTOQHqua98eMnC08PNeCtLdiY+htXoLBOXLcua/JnxlA8HAUfVTY/EJUP/Y0/rCC0Vy76dLMdu2HW3bL3w9M/TxBOuJ4pnN/dpyN4uc7nJ7g2tFEJ1z5a+DAMuyEELQ0NDID77/ffLy87jrrruZceYMvvq1rzomf1ur0hqNRnOinHzHMT8+AXr44GGqq6uxpU1mZiaFBYVk52QTjoQ7y/qEiDCEu9cqaGhoYN/efVi2RV5uHoMHD6a6poaiosJ0gdRV+HUnS10HKyXhyJFyjhw5wqCBg8gvyEdanU5tR2mqAurr6snMzKKyooLi4mJaWlsIhUKEw+F0bdfVOr296l27dtOrV0+ysrM+8fyl7Yt3pUu6Tv+Yj2lt6KavlIWg6/6+W6+xoZGvffVrjBg5gtmzz6OqqhIradGRSGCaAa666opUjvHjohVtjUajAU71nrT7Q29bNkopauvqeH/d+3R0dCCVPErAKrpo0e7na9as4eChgyilWPf+++zfv5+33nrTPR6SbgXKsdcmjgRtaWnm0UceZcf2Hfzmyd+k9mO9U6RS+7uuM1miI8FTTz1FR0ccW9q0tbfz2KOPUV1dfbTQMToFNICUdtp4LH8mr674k7X5hLJl2ymntqPoKoy9z7q0cRRdHey6ORzFT052Dg888ADXXnMtE8aPZ/z48Sx+ZzEjRgxnyZJ33Loq/Zl096fRaDQa4FSau32YpklxSTE5uTmEwyHGjB3D22+9TUZGBkveWcK+ffsYMXIEN37uRn74wx/S3NLMTTfdxMyZMxFKEAwGqampob29HaUkwjCwkhYHDhzgxw/9mKrqKr7xjW+wauUqFi1exJDBQ7jvK/fx8MMPc/jwYebOnUt+fj49evSguLgkzeSbkZnBlVdeSUNDPQ//4mH+9f77+cUvfsGtt36BJ554gqqqKm688UYyM7OYP38+WZlZ7N23lyuuuIJFixdhS5uOeAc3fv5G1q1dhy1t+vYtZt68eRQX9+Wee77Mj3/8E+798pf5YOMHvPHGG+Tn5XPvfffyy18+jmkaNDY28q1vfYsDBw7w3HPPMXDgQL70pS/x2muv8cbrbzBj5gzuuuuu7if3RK3LxxKO3e3l+0Lm0rYYTMGw4cNS73sU9WDu3LksXPgq3/rWt5yqppbCGo1Gc6KcFt7dngYlbZkSjoYwMA2T/gP68/j/PE5GNIPNWzZz62238dOf/pRX5r+CbcuUJt6zR08KCgqYNnUaPYqKMAyD/Px8cnJyaGhopOJIBfd8+R5uuulmvvXtbxOLFdCzR08a6hvYtnUbEyZMoKRfSUrm5OQ6WmF2dg4/+tGPqK2tRSrHLVoInFSdSlFRUUFlZSUjRozgnHPO4drrriNgBujTpw+jR4/h85//PKFwCEMYKBSJRJI333yD7/zHf/D1r3+daDSCYQhqa2t57733+PnPfs5FF1/MBx98QFZmJnfffTdTp0xl7959LFz4Kvv37ee95e+xbds2AmaAhsYGKisrSSQS3VsHunqGf9zn0rWtLs/suNVNwaiyUfzbv3+dHj2LPuEgNBqN5rPLydekj7MHqlCOJ7RyzbdKsnfvXhb8dQHxjjgFBQW8/vrrDBkyhFGjRjlOVjgOTYMHD6FfvxJQkEgmQAiWLFnC6NGjmTJ1Kolkgm9/+9uUlg7ngw82kJGRQUFhIXfedSeHDx6iqrKKYChEfn4eANVV1Tz66GMMHTqEPn36EAlHSCQSvPnmm1RVVREIBrjkkjmMHTuWpsYmQNHa0srmzZuQShIOh1FKsn3bdjIyMliwcAFVVdUMH15K2agyFi9eTE1NDWeddRbSluTk5hDLj/HSyy/R2tLK9OnT2bRpM5FwBCltopEIM2bMYPToMgYPHszkyVMoiO0kEo2wb98+2tvbCQaDR8/3p6m4dt2Hp8t7v4btldeKs0aj0XxiTk3Gse46UArbSiKlJGAGSSYtausbWPruu0yePImioiIyszKoqa4hkeggFosRjUYBaG9tJxQOORm23D7i7XEUgurqajKzsggGgzQ2NCCEwhAGubm51NXXEQlHiEYiBENBQqEQwjv8Q0FtbR0NDfUUFsTIycmlvr6BRCKBGQhQGIs5JvZ4nLz8fLKyMqmuriYcDmPbNnl5edTV1WEYBpFIhIaGBgKmSTQjSjQapbKigkAoRI8ePaipqSEvLw+pJLU1tYTDYQoKCqmrqyM3J5vm5maiGRkgoLqqioAZoFevXjQ1NdHQ0EB2dg6xWOzYHuxd5/rTIi22XTnnSv89+9NoNJrPGKdWSPs78YYhRMobub0lztYd2xk9ejQBN7ZWut7XAlIezUpKR7h6flPdGPHTwollenaxNI1POsImFfvsy2aW1q7nMe0FZIujzAKOCT9pYwS9xYNKv1833sszoxvCRKGQUmIaZpontFISIVIByynPM+ke9uH078W0+W7oRL23T5A05/jU/Cl3Prr0qQW1RqPR/E2cHkK6ux/17hJ2pMX0+gSjrcBzSLI5MU9h6WvD8H3m9wTvOk5vXMcI4VLSdj2gvXzcKVdyXztuZSlRQqS6MTwBLGVKyHYuJhQIha1UysSfGrvtSnIBKAuUkVrFKNLXBd3Nx8d9xgrVuS7Bl1c9bRXkjk2lKp0u3g8ajUbzD8XpYe5WoAQIVwCkknbYCgxXO8Q8WoCKrsG+wlOEO4WTX7j6+pW27Ezx6ZaRtnSEpUGn4Ld9Mc1eCFFaoHCXe+vykQ0Ybh2RljVEOvfkr9c1vArfZ4LuY529ZlISWaTKK2xQRud8fvRwuwhbX0w6Colyh2H4pzxtjXQUyteg1qw1Go3mY3Hy9ZtutFwlnBOnUAJ/Vi3lSQLDzY8turTRXbCva6FWXfvA7cMTyF6cs89Cq3ynP0jD6xuE6QhbRyb6+rRV6vxq7+hNv+OUxLVMI0C6gs01bYOZJui8vpwnYoO00+fJv9iwOHqdIACRcO9fYrv9WFZHtwuVj3T4dhcAAmehImyBaRsYyvBPhtO1d0uAjY3Ecu/BNU2ciAPZJ/VA12g0mn9iTm3GMQ8LNqzZwPoV7xMQJhnZGYydMo6i4l5kZ2chAk4ZT/FM0zoNOLy/nG1btjL7gtlYHZL3li9nxqwZiJBIWZdTddz3Rw5W0Lu419FyXkJjYxNKQV5eTucYfclHAEgompqaySnM6VTmbXeMwhlvMp5kxfIVlJWOJZwRYtu2TYyfPA7C6Rp0aosZ3De+TfCuxgK3H6utg02bP2Ts5Im+eUng6O0mSonUFnFqCwCO/1BTtvfOflSHYsnrizi47wBJK8Gk6ZMpmzGuc+tBgoxD+eHDFA/u685jFx09ZSlJ7yptKN2q9RqNRvPZ5tQmM/F+mAMwdtJYxvYfy47N2znjzGEQwhEECSDpljfc194epyvYDu45yBt/fYOZk2bRWNvA2iWrmD5hGgEz4LQRwhHyuG0GoHevXs5r73MTSEoIG+Tm5Dh9eH0Fgbhbxl0sVOw7TFV1LaPzxzifef14GqYCFbd57YWFrMtdx+1fnMuad9cxftxE15zeOQ3C8NWXBiqRQIRDztzEgbBvDoLOnFVV1bJi+SpGlY4kkBV159OAcMBRqC33PGxDOO16gtr77wn2pDuPnsk86bsuoL01zpb3N3PTtZ8jd3gP51qHWzbkvP5w1Yds27aNGwZd5zwvJSAKqlkhIo5pI3WPOPMv8M19AJ9NR3udaTQajcfJFdLd5Zf2eUlbYUk8mAQT1i/ZQH5GlHcXLyUWy6expZlzLp3DovmvEAyHKCzpw7mXzgYFpjCZc/Gl1FTWUl1eSUnvfpCQvDTvRVqaGgkEgpw5Yya79uyhrKyMLZs3E4sVcMawYbz04gsEOywyMjJojbcybsJoevTsQ2NtE+vXrgcpKCjuz+Txo3nqt78mlpdPYWEPjLCgtrGOTCPM8uUrMAzFrNnnkF2QSyhqkpmfSygQJjOaQ21lPSuWriQgQzRVt/KrJ/6Hf/nK1/jFz37KZXMuZfnS5URDGdgkmDR1Cu8sWcrs889j2cpVXHrZ5fz2N0/Qu6gAMxzgc7d+HiPDIBSMgi3Y+O563vzfNxk8aBiB3CCXXDyH5556hsJYAeWVldx2+1x+9etfMnrsSAryc1m/Zguh3AzKJoyh4lAlm9es5+wLz2H05DG88McXaK+txw7A7EvPp2TkAAzTpKGxiV/96jfkFxYy88JzKe7Vk989+jjKUlxy7VUc2LGXnZt2sGXRVtatWk1WRhaDBg8mmWxn1aplnDlzBkuXLqd3zxIO7D/M526+npaGZtatWQNBQdmUsZSdVeaY6t384F2VcY1Go/ksclrk7vY0Y0vEicsW17ErgTINeg4qYc7t1xKN5XLwwCHOuvACrr/9FlavXZPSigF69urJrj07qW+pJys/GykgGApxy71zGXzGMFrb4zQ0NLJ50yamTp2KkjYymWDsmDFc84Vb6DGgP1fc+DnaDWhDUdPYwIt/eZFf/s/jPDPvtzS0NDFywjiuvutmQrFc+pYOZkjZcA5Vl3P59Vdw3S2f51DlIfJLYmQW5IKApJQUxGLcdvPnef7pZ6k5Uo1hGwjbwLBBxCXx+nZe+sNLPPfU07wy/zXyswtQcZuFL8zn8tkXUnekkv7FA7jl1tuQtqSltcU1yytMw0SEw4yZMpFLrriUutYWmtvj9B0wgMtuv5q8PjGsiKTHoL6cfdkFbNq9g3nPPsNTv32aLR9up2evPry66C2e/O3vqNh/mPL9e7nh5psoGz2Gbdt3OmZ1bKL5mdx87+3c+Z93UXrmELJKsjlj5EgysrIZMvoMBgwbyMjRI4m3t/OXF15m3lPPsGzlKpKmwfTzzmX05ElE8rM568JzGTJyCOV1R9i9fxfnXngusy+czd4D+1LfREP4HN00Go3mM87J1aT9DkxdNSUTbGVhBt3wIVOSkAn27dvPoz98lKFDhzD0jAE897tn6LASzDxrRqcTmLCJZkXYtnMb559/Pjt37sQIm4iA4P//xncp7lvCbXNvJxg2eXfpUs6+/BzEbkEwGqLDTpBUSRLCQgYFCWwsYZNXFOOKa69m3579FBT3JpAVImlKMCBpJhCmYsWKFZx37vn85oknaWtv59a5X+DwzgNk5WWRmx9DGjZx4hT2L+L6225g85bNRLNCYEp+/LOHqKg+QkZBNp+74yYOHD7E9LPOpMewnkw+dxqvv/EGsTMKCVRF2fbC7/mv/9pO2biRZOdmgwFGQGEbFnbIoiOQoCNokTQTZOdns33nNrb/cCvSgITVgS2SEISJZ05l584D5MfymXPFxezYtoNzzz8HI2QSzs5kwJAhfP///oD+Q0u4/HNXQgBsZVNTV89jP3+UvLwcRk8dyxmDh3GktpIeA3qz7N13KeyZz7oNqxnQvx8XXnY+AsU1N1zDnoN7sU1JnA6ShkUyYNFst6LCguIz+vObeb8hJzeXy6+9wjF9B0j/YmhtWqPRfMY5ZSFYqWMPBdhJ9xxlv3OWhPb6FlYvW8tZF5/dGYLkmcf93t5eu/47MencA03i7J96WrsXtuTfp/XKe237vagDvjKG73Pf/RDE2Y/19qU9G4W39+y17R9DgNT+daq8d111GVNX5y/PkU5J8LKk2dB4oJE/P/dnrrr8Sl58+S988d47MPLcDWivf8872xuf14/noOfNtT9izPs8SMqjnYA7twE6Hef8zmde3QBHbzV7jnwJt03TK+x50+mwLY1GozktvLttqTDd+F7pRewoUEmorqqhR9/C1IDsJIhAZ2yuIXAyjhkGlpQIhCPXDNEZWuyGWvuPh0zz9k5zRFaOwxWGU94ThmlWAO8ITAMpnThi0bUffIpgyotbOdkzTZG2WFC2E+alXCHlZRcTiLQGvZBj4SViMX1B1JY7GUnYuWEHFeVHGDRkEH1HlLjCWbkx5KLzzOzUFCgnlluJNDdsT04qL7ObG4YthEqZpJ3IOeXIWOmbSN9GirSlm5BMYLgLM4WNUm5cOoavX2+yfM9Jo9FoPqOcGk26i7blxC875zR7wjotDlg6Ak4EOq9Zto0wTFeJVI6gNwwkjkIXAGz33Gevu5DppeF0u+/WquqTDp6WqxTK8M6xdlRdqWwMEUC5scCeVUBKp11/lkxQdCST7gEYAikVAe+ip8kq5RP+jubrCGt3opQrvA3PLdtNJypcq4TyspaJtKQoSrmLGjoVZO8OkzgLHANF0DA766nO7CROaLlr9UjNlJPhxbacZ2CYppNtDQVGoNNKAlhKYkmboBlMM34opCvofQ8h7RloTVqj0WhOj4xjJ1InlUrMV08cXcx/zoPyQpD4iO3Nj9r79F/3FD3Vmf/bm0JPMHWNCT6qre5ed5dNzOPjPojuvOiPNRRXOz6qbtdxpJmplTsP7ocG6X36Yrv9xbofgK9Od2ghrdFoPsOc/DjpYzmP+fNyn2gbHsr3sUpJ0c4DIHBNxF4hv1A4ljDz7zn7r3sKnk8Se1q0V1bQpW7X//72vdfHXCp1MybvtacW++7Hs1gjlWNW71Klm1s5+l79Vozuxue/X0hPZ9oFkVbPV96/D6/RaDSabjl1yUy8PWE/XQWVSL8kRDdlujbhabUIlE9CKDeZd1raUdW5t9pVU07h1xK7G79fmHUVyG57Xj+OWVp0Cie/kO1a30NytPD0TAZ+U7GnuXqavVCoY6ihaXnNu7vvrguJ7oSpX5B3veeu7XQ3d1pAazQazUdyah3HTtAsC3y0SdorJju9xj81uhvnx3Fs8lsNPsm4ut67194xBJ0nw7szM39k992Z440un3UnkP9WtLlbo9FojkKo4wjpvzvd7PWeUNnurkGndusP/zlW+93th3anyR6v748q+3Hu76PqHqvsxxFixxrviZQ7EbqOveuWxidtT6PRaD6jnPqMY38L3QmYv8cP+6fR5scVpp9me5+ET7J0+7SWe5/U4qDRaDT/ZJxaTfrT5G/R2E5HPu5T+aT3fro9/X+mZ6jRaDR/I6f2FKxPk3+2H/eTdT//bPOm0Wg0/0RoH1uNRqPRaE5TtJDWaDQajeY0RQtpjUaj0WhOU7SQ1mg0Go3mNEULaY1Go9FoTlO0kNZoNBqN5jRFC2mNRqPRaE5TtJA+EY51SpXkuCdAaTQajUbzt/DPk8zk4/BRWbZONMGHTl+p0Wg0mr8jnz0hfaJnN3t0d/qVFswajUajOQl89oQ0fPLTqD5uOxqNRqPR/A2cvkL6bz2v+Fj1T0RA+8t21bq1YNZoNBrNSeK0FdJKKQTi+Ocme05bn3RvuBunr6MU5xM5w7q798eqcyL74V3M60oqhBDdX9doNBrNPy2nl3e3T4gJQ/z9hZHw/Rl09ncigtDVspV0/hAgpTt4V7B+mihU+hg1Go1G80/P6SGkJWmaqLSV81k3Asm2bKeKLR3Bdbz9YrfNZCJ5zDJSKpJJ57qUCuEKy6lfZAAAD+xJREFUaCUV0kpXtaXtvHcEsyM0lZQIdxaVkqCcclLK7jVnT9C6CwOlXOFrkLof27JRtrdaAWE6FgUraR3jZjUajUbzz8jpIaQNOLD/AD/72c+QtuLIkXLWrF0DgC3tTkEnccy+CgzToKGhkVtuuYU5c+bw8ksvd9tudWU1mzZtSn1k+wSvkgrDFASDQae4cLT3Fe+toLy8nI5EB9/7zve46867qa+rp66uji/ccisPPPBNLMsCCa1trbwy/xWQ8Mfn/8jFF1/M93/wfdra2vnBD37AbbfdRkV5BQ11Ddx999188xvfpKWlharKKj53w+f4P//5f7CSFmtXr+XSSy/lz396ATNg8r/z/5drr7mWFe+tABzLQiAQ+Hie6RqNRqP5h0YopU7dz75Pe961cxdPPfUU119/PTk5OezcuYvp06ezdOkSotEoM2fOwgwYnfUEPD3vaS655BIKiwr5w++fp3TYMHr26sWWLZsZP248H2z8gNaWVnJzcxk/YTxLly4llh9jyrQp7Ny+ky1bt9C3T18mTpwIAizLYt26dTw972n+/f/7d+LxOG1tbfTq1YtNmzYRi8UoLCiksqqSnj17UlRUxKOPPkooGOK+++7jV0/8ij59+jB+/HhQUFVdTUlJCZs2bSI/P4+8vHwSiQ7a2tpIJJL061fCnt176N27Nzt27OCiiy/i9ddfZ+LESaxbu5ZZZ83i9dde58qrrsQwT4/1lEaj0WhOHqful7+LQ5iUkhkzZrB8+Xs0NzcTCJi8995y8vPyCZgB1q9/3zGDu0hbUlJSQiwWA2DOJZfQ1t7Gli2bycvL53B5OcFAkKysLBLJJKtXraZv377E43HeW/Yeq9esZuzYsezYuYOEa+4WQjB27Fiuu/76lFk9JyeXaDTKoUOHGDpkKL/+9a9ZtmwZxcUlLF36Ljd+7kb69etH0rKIxWJMnDiRZcuW0d7eTkY0SlZWJtVVVdi2TXZ2FpkZmVRWVjK8tJSf/vSnrN+wnh49e5Cdk41hGBiGQVVVJVnZWYRCIWxpE2+Pp8/bx4311mg0Gs0/JIb/N7/r30lDgmEYRCIRrrn6al588UXa29sxDZOBgwbRo0cPKioqMEzhCE/hlK+tqaWttQ0UbNiwgUAgSGZmJv36ldDS0kJhYSEDBg4kEDDZt28f8+bN450l7xAMBunRowf9B/SnqLAIy3KEtBkwCUfCoBxvaiEEHfE47e3t9O7dm/dWvMedd93JzBkzWblyBU1NjTzx6yd4e9EimpubmDFjBsXFJRjCIBAMkEgkaG+Pk5efRyAQwLIsklaSnj17smzZMr5+/9cZO2YsGzZ8QDweJ5lMEggEKCwoJJlMIm1JJBIhmhFN37fnZD8gjUaj0ZwKTp0m7Xf4MsC2JUopinoUcfbZZ2MlLYYMHcLnP38jDzzwAOeecy6vLnytU6sUMG36NK6+5momTJjA1m3bmDx5Ep7xvrR0GN/+9re54465tLa2cdZZZ7F69Wrmz59Pa1ur47ClwDRNTNNMjcdO2iilMEyTvn378thjj/Hle77MuLHjGDaslC9+8Ys88sgjlJWVcf311/PANx/g3HPPobCgkAULFjBjxpnECmL0K+nHs88+y9y5t1NaWkpJSQlf/cpX+a//+i9KS0spLS3l5ltu4cnfPsnEiRMxDJPp06dz4MABevbsycGDBzn33HOJhCOdnu46/Eqj0Wg+Uwh5nD3pv6s86C5pSNf/3Q3EH8gscT2sQRigbIUCDDN95F44lBdrLKVM7fE6dVTnnm/XceB6kiucPXHPzNB1eeP3RveNTyrVOZ6uQdhexJZSjiDuLruZ9PX1tyZ40Wg0Gs0/FKdOSPvpTnh1815JV5h1V+546TtT9UmFS4Hj6W0I0ampSpDKFeC+PoH0frvrwlZpsd3SVigpkUpimiaGYWDbEtMwUkLXfz9KuslbvPhrjiO4NRqNRvOZ4PQQ0l3oKkydD7u8Nkhpr8rdQ+52wKpTU1W2cmKO/e0In4D1x2pLiWEYnYL0ozKLdV0weH3javnSiaM2DMMxyatu2vWEszjB/rp7fYw5OO51vQjQaDSa05LTUkh3RUnlxjQbxzaNH0ejTgla37WU5upfDBzPnPxp5/D29ZU2vu5M6SfSTle6CvljXddoNBrNacupDcHq5rOj0mkqUG7ykpSA7SpMXVM1uPvHbhtexjBvL1r5XNeF4Qpo1ZlJLM0xqzuh7PtLZSNTnX13ew/HuCevTduyUwlabNsGwzOVq/Syx0ApldL80+ZEpl9Pu5ZKaaq0l7hGo9GcxpxaxzGvZ8MRlM3NzeTm5ZJMWCgpCYaCKQ3T7+wFjvm4ob4eqSRSKrIyMxGGIBgMYfoEejLhhDV1t6ec6EgQDIZSpvW62josy6KwoBBhCBobG7FtSUFBjGQySWNjE9FohMzMTBBO21JKwpEwjQ1NgCI3JxcpJQ2NDSipyMvPwzAMhBAkE0mC4SBWwqKxsZFIJEJmViaJjgR19fXk5uY44VYKkskkwVAQFDQ3N2NZNvn5eUgpqa+vJxJ2x2GQmi9hCBrqGzADJgJBXl4erW2tJBIJcnJyMM0AQkA8HicSjej9bo1GoznNMb/34IMPHuvi3/3326e57ty5k5/+5KdMmDCR+ro61m9Yz6DBgzqL+szV0nLCtRYvXswfnv8DDQ31RKIRTDNAdk5Wqs3mpmYWLljIiJEjjjKHW0mL559/ntLSUgJmgF27djF//nwOHz7M5k2bMQ2TN998kx07dtDW1sbKlSvZsWMnG9avJxaLkZmZyTPPPMvKFSsYOHAQ8+Y9RUVFBbt27qKltYV3332Xffv2ceRIBX379OEXD/+CpqZmBvTvz/xX5rN9x3bWrl1Lr169+NOf/8yR8nLWb1jPkCFD2bhxI4899hizZs1ix44dLFz4Kvv27qWlpYUtW7bw4Ycfsn7DekpKSmhra+Ohhx6iuKSYgBngnSXvsHHjh2zfsZ1YLMYf//hHyg+Xc6TiCP36lTB//nzefuttpk6d2ulMd1Ifukaj0WhOlFMvpN3/tbV1mKZJdXUV+fn5NDe3IG2bu++6m1cXvsr06WeSmZWZVn1Y6TBaWlo4++yzKSos4sMPP6StrZ27776blStXMnnyZPbt28+B/QdY8s4S9u3bx1fu+woCJ1/3d77zHUaOHEn/Af2JxWJMmjSJXr16cfDgQZqampg1axZlZWV88MEHXHftdYwqG5VKMhLviLNnzx6klPQoKqK4uJgZM2awYsUK5lwyhwkTJ5Cbm8vBAwfJz88nP5YPQP9+/Vm1ejXXX38d0pZs3rKZQMDkuuuu4+DBg+Tm5lJfX0dmZhbDh5eyc8dOpk6byrDSYaxatQoraXHlVVcSiUSoqa0lkUhQWFhIZkYm/Qf2Z/jw4TQ2NnLxRRcjlaS2to5hpcPo6Oigd+/etLe1AzgLF3Ac2PxPWgtpjUajOW049clM3P+GEBQVFZKTk8Py5ctRUnLo0CF++dgveeCBB1i5YkVadcNwhm5ZlvNaOOFTO7Zv58knn+Qb3/gGwWCQBQv+SkVlBVddfRXPPvMsw4YN48W/vAgIbrjhBqZMnpIax8GDh1i+fDkXXnQh0WjU+VyBZdkoFG+//TaRSIT+A/rz4IMP8s477/Dmm29xpKIC27YxDBMraZFMJtm2dRsbN27kkjmXUNyvmB5FPZy0n6ZJLJbPV7/6VV5/43Vyc3MBCASdwzMCgQCTJ08GFFJKLNtGSunsV+PsrxvCQEqJkpJRo0YSiUQIhUOgoK6ujkAgQDgapq62jra2VsoPl9PQ0EAkEuGMM85AKt8muhbKGo1Gc9oSOGU9d0lK4mUAmzlzJosWLSIajVJYWMj7698HoLikhIb6RkKhIBmZGak2PGFtGCYAwWCQbVu3UVNTw5ChQ5hzyRza4+3s33+AWbNmMXPWTCKRCCUlJSQSCerq6+jVuxd7du/hoR89xJ133UlTUxMFhYWsXLmSnJwciooKeeKJJ4jFYhQXFxMOR3h63tMcOHiABQsWMmL4cF548QXi8Q4i0Qibt2zhT3/6I1/4wq3U1dbRq08vFAqlFLZt09Lcwk033URbaxvDhpWyY/t8Vq5cxaHDh7gg/4LUwsMQBgUFMZYvX052djY9evSgvb2dVatXs3/fPmafNxvvuE3pZmyrqKggLy8PJRVJK0k0mkFOTg719fWpOGwraaXmXiBSYWoAQh0jlE2j0Wg0J52T6zjm98ruEjbV1taGZVnk5ObQ3NhMa1sbubk5bNu2HQGMHT+WqspqsrKyyMiMpupXHqkkP5ZPKByitqaWSCTC5s2byc3NpbhvMa1treTl5VNTU00oFGLbtm0EzACjx4ymsqKSSDRC7969qaurY+vWrSilKCwoZPCQwezetZuklWTYsFJ279pFbV0dhiEYM2Ys0WiERCJJdVUVJf1K2L17DzU11YwdO5bqqmr27NlDKByiuLiY4pJimpuaSSaSxApj1NfVs3nzZgYMGEBxSTE1VTXs3LWTAf0H0Ltvb2zLpra2lqLCIqSUziEgiQQjR4wkHo+zZesWYrEYQ4YOAaCpoYlQOEwoFKShoYGMjAwi0Qjtre3s3LmT9ng7I0eMJCsni0RHkurqKvoW9+18Jj4nb+88bY1Go9Gcek4LIX3MTGLSV6yL8PAnJjkq+YkbtuUXOJ6FV/gdyPx1vPSbXnpPX+YwwziOdvlR2dI+ihNJ9embDy9s7Kg6Xeb2/7V3LssNgzAUlZz+/yejLszjIp6ZTGy3c88mHWyIoIsbCSSaNZW2jy+XurSDEELIpVy7J41Ci7qA1b5ESg6vRvFNecBBcv5vVTksF8GOYgz9crtF5U6Cp9AtnGHoLNxaBOxAAQudnOfeHNPXjvKj8W89bbNQ8rWr/GUIRedyolbmm9bKglW50rncaOyfn0Heth5aVz0jhBDyKO7dk0bBRFRKHevIoVBtLGmUnQNUnmAPldMbHj0+VA55VR5+KYByCtzr51UuwnBjN/OK42S7lrqe5nq+v+qHtmmqPW5lfznP44iRA3OeMq79olobIYSQ+7i3LOgo1OvbR+LRa1+JDoiTBVfLe2YnHHIbxh/QbrwVS9rw+0fimPeRIVyNgjsbr/ffpkgTQsgjuS8FS6T2ontlOBFrP7u/L94RmZHwYzW0ng077SrV/BTf9bZr/Wxn/MqLXvUf0YlgEEIIeQ7Xh7t3Dkp1hNti0Q0LVm69cu80/bxnaUXccnh4xwb/A2HVB9+Fve+ydW6toI484FHIe3QozIezPc6Dt+Bu3aJQE0LIY7g+3D0Lca++sCc+IyHC53Da20zaazBXbJ7AzrnGs3ug/UltbNsNN6d1mM1jFpafjUuRJoSQx6A2EelHk4pmzYSo52V/g3fENfENe97Zk97dZiCEEHIb953u/pRdMfmrovMtr3Y05l9dJ0II+cf8AijPbIUnvKRZAAAAAElFTkSuQmCC;" vertex="1" parent="1">
          <mxGeometry x="140" y="310" width="489" height="282" as="geometry" />
        </mxCell>
      </root>
    </mxGraphModel>
  </diagram>
</mxfile>
